<svg width="282" height="308" viewBox="0 0 282 308" fill="none" xmlns="http://www.w3.org/2000/svg">
<g opacity="0.2" clip-path="url(#clip0_3199_2370)">
<path fill-rule="evenodd" clip-rule="evenodd" d="M-33.0688 47.5288L-73.8174 -65.7782C-74.4027 -67.4282 -73.5338 -69.256 -71.8838 -69.8588C-18.3094 -89.1275 42.0598 -107.049 93.665 -129.068C95.9711 -130.522 97.7807 -129.085 98.7741 -126.335L162.798 38.6929L180.183 87.0428C180.768 88.6928 179.917 90.5381 178.267 91.124L55.7552 135.18L7.999 152.355C6.34898 152.959 4.52181 152.089 3.91901 150.439L-33.0688 47.5288Z" fill="white"/>
<path fill-rule="evenodd" clip-rule="evenodd" d="M0.907597 9.92888L-19.4398 -108.737C-19.5834 -109.57 -19.3916 -110.425 -18.9062 -111.117C-18.4208 -111.808 -17.6814 -112.28 -16.8496 -112.428L123.278 -136.452L155.369 -141.739C157.126 -142.502 159.982 -141.615 160.656 -137.694L195.319 35.4083L203.994 86.0473C204.296 87.7687 203.125 89.4362 201.404 89.7379L73.0911 111.74L23.0646 120.327C21.3439 120.611 19.6763 119.44 19.3746 117.719L0.907597 9.92888Z" fill="white"/>
<path fill-rule="evenodd" clip-rule="evenodd" d="M40.1666 -25.0611L40.1666 89.0271C40.1666 90.8549 41.657 92.3628 43.4842 92.3628L232.255 92.3628C234.082 92.3628 235.572 90.8549 235.572 89.0271L235.572 -114.184H201.866C198.62 -114.184 191.879 -113.723 191.879 -121.086L191.807 -154L43.4836 -154C42.6041 -153.998 41.7612 -153.648 41.1394 -153.026C40.5176 -152.404 40.1676 -151.561 40.166 -150.682L40.166 -25.0611H40.1666Z" fill="white"/>
<path fill-rule="evenodd" clip-rule="evenodd" d="M-16.0721 -89.059C-35.0537 -82.6712 -53.8581 -76.3371 -71.8819 -69.861C-73.5319 -69.2576 -74.4007 -67.4304 -73.8155 -65.7804L-33.0669 47.5272L3.92096 150.437C4.52437 152.087 6.35154 152.957 8.00095 152.353L55.7571 135.178L164.574 96.0543L-16.0721 -89.059Z" fill="#FBDFE9"/>
<path fill-rule="evenodd" clip-rule="evenodd" d="M40.1664 -122.204L-16.8496 -112.428C-17.6814 -112.28 -18.4208 -111.808 -18.9062 -111.117C-19.3916 -110.425 -19.5834 -109.57 -19.4398 -108.737L-16.069 -89.06L0.908201 9.92889L19.3752 117.718C19.6769 119.439 21.3445 120.61 23.0652 120.326L73.0918 111.739L164.577 96.0538L186.095 92.3632H174.831L40.1664 -122.204Z" fill="#FEF9FB"/>
<path fill-rule="evenodd" clip-rule="evenodd" d="M235.572 35.4255L235.572 -114.699C235.572 -115.657 235.164 -115.817 233.691 -117.254L197.307 -151.959C195.586 -153.592 195.303 -154 194.291 -154L43.4836 -154C42.6041 -153.998 41.7612 -153.648 41.1394 -153.026C40.5176 -152.404 40.1676 -151.561 40.166 -150.682L40.166 89.0271C40.166 90.8549 41.6564 92.3628 43.4836 92.3628L232.254 92.3628C234.081 92.3628 235.572 90.8549 235.572 89.0271V35.4255Z" fill="#FAF5F7"/>
<path fill-rule="evenodd" clip-rule="evenodd" d="M40.1665 -122.203L26.8086 -119.914L26.8086 101.289C26.8086 103.134 28.299 104.625 30.1262 104.625H114.586L164.577 96.0548L186.095 92.3641L43.4841 92.3641C41.6569 92.3641 40.1665 90.8562 40.1665 89.0284L40.1665 -122.203Z" fill="#FBDFE9"/>
<path fill-rule="evenodd" clip-rule="evenodd" d="M0.907436 9.92938L-16.0698 -89.0595C-20.6643 -87.5159 -25.2413 -85.9723 -29.8008 -84.4287L-27.6894 -72.1325L-10.7122 26.8564L7.77293 134.646C8.0565 136.366 9.72405 137.538 11.4448 137.254L61.4714 128.667L85.2076 124.603L156.7 98.8761L155.848 97.5453L114.585 104.625L73.0916 111.74L23.0651 120.328C21.3443 120.612 19.6768 119.441 19.375 117.719L0.907436 9.92938Z" fill="#FBD6E3"/>
<path fill-rule="evenodd" clip-rule="evenodd" d="M235.571 35.4255L235.571 -114.184C235.571 -115.976 234.986 -115.994 233.691 -117.254L197.306 -151.959C195.586 -153.592 195.302 -154 194.291 -154H154.89C200.002 -93.6023 202.574 15.2692 169.1 83.2252C167.585 86.323 165.97 89.3705 164.256 92.3629H232.254C234.081 92.3629 235.571 90.8549 235.571 89.0272L235.571 35.4255Z" fill="#FADBE6"/>
<path d="M205.588 -81.4395L72.0239 -81.4395C69.4439 -81.4395 67.3525 -83.5315 67.3525 -86.1126C67.3525 -88.6938 69.4439 -90.7858 72.0239 -90.7858L205.588 -90.7858C208.167 -90.7858 210.259 -88.6938 210.259 -86.1126C210.259 -83.5315 208.168 -81.4395 205.588 -81.4395ZM205.588 -48.2427L72.0239 -48.2427C69.4439 -48.2427 67.3525 -50.3347 67.3525 -52.9158C67.3525 -55.4969 69.4439 -57.5889 72.0239 -57.5889L205.588 -57.5889C208.167 -57.5889 210.259 -55.4969 210.259 -52.9158C210.259 -50.3347 208.168 -48.2427 205.588 -48.2427ZM205.588 -15.0452L72.0239 -15.0452C69.4439 -15.0452 67.3525 -17.1372 67.3525 -19.7183C67.3525 -22.2995 69.4439 -24.3915 72.0239 -24.3915L205.588 -24.3915C208.167 -24.3915 210.259 -22.2995 210.259 -19.7183C210.259 -17.1372 208.168 -15.0452 205.588 -15.0452ZM205.588 18.1522L72.0239 18.1522C69.4439 18.1522 67.3525 16.0602 67.3525 13.4791C67.3525 10.8979 69.4439 8.80597 72.0239 8.80597L205.588 8.80597C208.167 8.80597 210.259 10.8979 210.259 13.4791C210.259 16.0602 208.168 18.1522 205.588 18.1522ZM205.588 51.3497L72.0239 51.3497C69.4439 51.3497 67.3525 49.2577 67.3525 46.6765C67.3525 44.0954 69.4439 42.0034 72.0239 42.0034L205.588 42.0034C208.167 42.0034 210.259 44.0954 210.259 46.6765C210.259 49.2577 208.168 51.3497 205.588 51.3497Z" fill="#FDE3EC"/>
</g>
<defs>
<clipPath id="clip0_3199_2370">
<rect width="309.567" height="309.567" fill="white" transform="translate(-28 -2)"/>
</clipPath>
</defs>
</svg>
