<svg width="273" height="63" viewBox="0 0 273 63" fill="none" xmlns="http://www.w3.org/2000/svg">
<g opacity="0.2" clip-path="url(#clip0_3327_2384)">
<path fill-rule="evenodd" clip-rule="evenodd" d="M40.9253 203.042L0.176726 89.7345C-0.408549 88.0845 0.460295 86.2567 2.11031 85.6539C55.6848 66.3852 116.054 48.4642 167.659 26.445C169.965 24.9903 171.775 26.4274 172.768 29.1773L236.792 194.206L254.177 242.555C254.762 244.206 253.911 246.051 252.261 246.637L129.749 290.693L81.9931 307.868C80.3431 308.472 78.516 307.602 77.9131 305.952L40.9253 203.042Z" fill="white"/>
<path fill-rule="evenodd" clip-rule="evenodd" d="M74.9017 165.442L54.5544 46.7758C54.4107 45.9432 54.6026 45.0876 55.0879 44.396C55.5733 43.7045 56.3127 43.2332 57.1446 43.0852L197.272 19.0611L229.364 13.7736C231.12 13.0106 233.976 13.8976 234.65 17.8192L269.314 190.921L277.989 241.56C278.29 243.281 277.119 244.949 275.398 245.251L147.085 267.252L97.0588 275.84C95.338 276.124 93.6705 274.953 93.3687 273.231L74.9017 165.442Z" fill="white"/>
<path fill-rule="evenodd" clip-rule="evenodd" d="M114.161 130.452L114.161 244.54C114.161 246.368 115.651 247.876 117.478 247.876L306.249 247.876C308.076 247.876 309.567 246.368 309.567 244.54V41.3284H275.861C272.614 41.3284 265.873 41.7897 265.873 34.4266L265.801 1.51271L117.478 1.51271C116.598 1.51447 115.755 1.86464 115.134 2.48656C114.512 3.10847 114.162 3.95144 114.16 4.83088L114.16 130.452H114.161Z" fill="white"/>
<path fill-rule="evenodd" clip-rule="evenodd" d="M114.161 33.3091L57.1446 43.0852C56.3127 43.2332 55.5733 43.7045 55.0879 44.3961C54.6026 45.0876 54.4107 45.9432 54.5544 46.7758L57.9251 66.4527L74.9023 165.442L93.3694 273.231C93.6711 274.952 95.3386 276.123 97.0594 275.839L147.086 267.252L238.571 251.567L260.089 247.876H248.825L114.161 33.3091Z" fill="#FEF9FB"/>
<path fill-rule="evenodd" clip-rule="evenodd" d="M309.566 190.938V40.8138C309.566 39.8555 309.158 39.6959 307.686 38.2587L271.301 3.55331C269.58 1.92083 269.297 1.51271 268.285 1.51271L117.478 1.51271C116.598 1.51447 115.755 1.86464 115.134 2.48656C114.512 3.10847 114.162 3.95144 114.16 4.83088L114.16 244.54C114.16 246.368 115.651 247.876 117.478 247.876L306.248 247.876C308.076 247.876 309.566 246.368 309.566 244.54V190.938Z" fill="#FEF9FB"/>
<path fill-rule="evenodd" clip-rule="evenodd" d="M114.161 33.3093L100.803 35.5984L100.803 256.802C100.803 258.647 102.293 260.137 104.12 260.137H188.58L238.571 251.567L260.09 247.877L117.478 247.877C115.651 247.877 114.161 246.369 114.161 244.541L114.161 33.3093Z" fill="#FBDFE9"/>
<path fill-rule="evenodd" clip-rule="evenodd" d="M309.565 190.938V41.3284C309.565 39.5363 308.98 39.5188 307.685 38.2587L271.301 3.55336C269.58 1.92088 269.296 1.51276 268.285 1.51276L228.884 1.51276C273.997 61.9104 276.569 170.782 243.094 238.738C241.579 241.836 239.964 244.883 238.251 247.876H306.248C308.075 247.876 309.565 246.368 309.565 244.54L309.565 190.938Z" fill="#FADBE6"/>
<path fill-rule="evenodd" clip-rule="evenodd" d="M265.868 34.4284C265.868 41.7915 272.609 41.3302 275.855 41.3302L309.561 41.3302V40.8156C309.561 39.8573 309.153 39.6977 307.681 38.2605L271.297 3.5551C269.576 1.92262 269.292 1.5145 268.281 1.5145L265.797 1.5145L265.868 34.4284Z" fill="white"/>
<path fill-rule="evenodd" clip-rule="evenodd" d="M307.682 38.2617L271.298 3.55629C269.577 1.92381 269.293 1.51569 268.282 1.51569L265.798 1.51569L265.869 34.429C265.869 41.7921 272.61 41.3307 275.856 41.3307L309.562 41.3307V40.8162C309.562 39.8585 309.154 39.6989 307.682 38.2617Z" fill="#FFD0E1"/>
</g>
<defs>
<clipPath id="clip0_3327_2384">
<rect width="309.567" height="309.567" fill="white"/>
</clipPath>
</defs>
</svg>
