<svg width="94" height="68" fill="none" xmlns="http://www.w3.org/2000/svg"><path d="M55.981 24.732c.72.804 1.433 1.635 2.185 2.428.965 1.018 1.9 2.054 2.497 3.341 1.063 2.292.511 4.627-1.502 6.155-2.066 1.57-4.466 1.945-6.982 1.772-1.677-.116-3.282-.516-4.671-1.52-2.423-1.748-2.69-4.855-.61-7.006.852-.88 1.884-1.505 3.006-1.968.541-.222.47-.371.095-.701-.939-.827-1.787-1.74-2.468-2.797-.399-.62-.7-1.282-.87-1.999-.575-2.423.38-4.526 2.662-5.523 2.78-1.213 5.619-1.238 8.39.05 1.89.879 2.761 2.665 2.247 4.353-.29.953-.967 1.604-1.752 2.163-.753.536-1.586.936-2.227 1.252Zm-5.957 7.775c0 .235-.011.472.002.707.072 1.228.206 2.444.924 3.5.672.99 1.913 1.407 3.147 1.085 1.047-.273 1.65-1.087 1.75-2.35.118-1.505-.48-2.761-1.377-3.907-.932-1.191-2.084-2.163-3.205-3.167-.27-.241-.372-.151-.502.12-.607 1.272-.724 2.632-.739 4.012Zm5.251-8.08c.536-1.81.697-3.536.439-5.295-.098-.667-.33-1.294-.79-1.804-.589-.652-1.335-.844-2.173-.614-.677.187-1.078.813-1.133 1.708-.041.676.091 1.326.37 1.941.726 1.6 1.953 2.794 3.287 4.064ZM35.636 21.804c4.279.005 7.096 2.566 7.608 6.865.625 5.246-1.506 9.086-5.985 11.734-1.95 1.152-4.067 1.865-6.304 2.215-.218.034-.553.285-.666-.203-.11-.47.26-.42.494-.487 3.502-.999 5.621-3.278 6.382-6.817.039-.178.197-.413.006-.535-.201-.128-.33.137-.474.243-2.19 1.614-5.948.962-7.802-1.359-3.062-3.832-1.18-9.65 3.62-11.188a9.92 9.92 0 0 1 3.121-.468Zm2.07 8.123c-.057-.899-.101-1.863-.185-2.824a14.563 14.563 0 0 0-.25-1.653c-.181-.886-.42-1.758-1.013-2.476-.613-.743-1.355-.727-1.944.03-.405.52-.612 1.13-.76 1.758-.474 2.027-.469 4.083-.31 6.142.077 1.008.23 2.007.708 2.918.551 1.051 1.444 1.268 2.41.566.72-.525 1.22-1.196 1.237-2.145.014-.75.068-1.5.107-2.316Zm-.44 4.529-.042-.08c-.013.014-.038.03-.036.04.006.027.023.052.036.078l.042-.038ZM68.276 33.4c.09.175.207.146.305.146 2.222.002 4.445.002 6.668-.003.193 0 .386-.04.58-.057.524-.048.914-.275 1.012-.824.061-.343.267-.387.555-.366.352.026.257.289.26.48.018 1.676-.028 3.353.11 5.025.025.318-.097.344-.368.332-4.508-.201-9.019-.074-13.528-.117-.188-.002-.473.148-.556-.152-.076-.276-.012-.534.234-.75.713-.625 1.411-1.266 2.107-1.909 1.603-1.482 3.115-3.042 4.097-5.024.643-1.297.974-2.66.745-4.119-.213-1.359-.973-2.043-2.354-2.103-1.587-.07-2.91.495-3.972 1.669-.162.18-.273.438-.613.181-.366-.275-.08-.442.052-.621 1.108-1.513 2.57-2.535 4.39-3.002 1.844-.474 3.713-.591 5.566-.063 3.094.882 3.979 3.881 1.873 6.301-.961 1.104-2.202 1.852-3.439 2.6-.995.603-1.99 1.204-2.979 1.818-.265.165-.503.375-.745.558ZM24.082 29.077c0 2.17-.018 4.339.007 6.507.013 1.204.247 1.478 1.412 1.774.28.07.26.22.267.415.01.272-.178.25-.35.24-3.019-.152-6.037-.09-9.055.007-.24.008-.36-.053-.36-.316 0-.247.102-.31.342-.347 1.813-.281 2.259-.794 2.265-2.627.009-2.534.002-5.068-.006-7.603a9.404 9.404 0 0 0-.074-1.091c-.165-1.366-.616-1.785-1.984-1.882-.232-.016-.537.098-.546-.339-.01-.471.31-.368.572-.377 1.9-.061 3.794-.165 5.624-.74a8.53 8.53 0 0 0 1.315-.531c.423-.217.572-.21.565.338-.027 2.19-.011 4.381-.011 6.572h.017ZM58.617 51.86h-1.81c.565-.628.537-4.487-.11-4.992.785 0 1.488-.002 2.19 0 .822.005 1.408.347 1.558.904.181.67-.114 1.187-1.073 1.706.92.235.906.97 1.051 1.616.066.293.097.6.643.442-.39.476-.787.482-1.194.387-.37-.086-.48-.398-.543-.727-.076-.4-.136-.805-.225-1.202-.068-.305-.26-.497-.596-.473-.435.032-.253.375-.272.594-.026.32 0 .644-.01.966-.01.32.045.59.391.78Zm.784-3.72c-.017-.241-.017-.547-.19-.81a.642.642 0 0 0-.663-.307c-.316.048-.315.309-.318.548-.006.407-.016.816.003 1.223.01.189-.125.47.19.532.26.051.52-.014.71-.221.237-.256.253-.582.267-.966ZM26.51 51.87c.624-.565.603-4.489-.087-5.008 1.15 0 2.193.002 3.236 0 .26-.002.247.157.24.345-.012.362-.003.725-.003 1.124-.312-.06-.224-.306-.27-.457-.125-.42-.335-.736-.802-.824-.627-.118-.823.034-.831.672-.005.365-.004.73.002 1.094.003.161-.059.369.183.416a.429.429 0 0 0 .453-.184c.135-.204.24-.429.437-.79v2.066c-.253-.156-.181-.474-.361-.64-.166-.154-.339-.287-.57-.217-.233.07-.134.285-.14.44-.015.32-.027.645.001.964.025.287-.172.706.305.789.452.078.911.065 1.209-.393.2-.308.24-.675.348-1.017l.167.009c0 .466.004.933-.002 1.4-.002.164-.125.21-.265.21-1.067.002-2.134.002-3.25.002ZM67.902 50.242c0 .442-.008.884.003 1.326.006.22-.075.31-.297.309-1.055-.006-2.11-.003-3.208-.037.476-.212.436-.606.434-.995a261.437 261.437 0 0 1 0-3.093c.003-.348-.012-.673-.4-.888 1.029 0 2.057.002 3.086-.002.193 0 .265.079.26.271-.01.402-.003.805-.13 1.218-.093-.273-.163-.557-.283-.818-.23-.502-.688-.556-1.155-.477-.466.078-.324.485-.343.784-.018.3-.014.602 0 .902.008.177-.097.433.161.496.254.061.456-.097.582-.316.093-.164.159-.344.322-.704v2.158c-.125-.253-.211-.472-.334-.667a.533.533 0 0 0-.557-.256c-.289.054-.163.307-.173.477-.018.3-.031.604.002.901.035.303-.19.752.341.834.487.075.974.038 1.225-.482.145-.301.231-.63.344-.948l.12.007ZM33.839 46.93c.81-.248 1.26.12 1.66.748.514.802 1.122 1.544 1.776 2.28-.175-1.01.526-2.136-.448-3.047h1.243c-.553.245-.55.625-.549 1.015.004 1.16-.003 2.319-.011 3.478-.002.161.08.38-.124.46-.237.092-.338-.13-.447-.28-.666-.925-1.325-1.854-1.99-2.778-.13-.182-.276-.353-.523-.667 0 1.125-.013 2.079.007 3.032.006.317.044.316.55.672h-1.181c.594-.64.609-4.435.037-4.913ZM71.81 51.9v-1.848c.265.146.17.367.212.534.079.317.16.633.393.87.319.324.712.43 1.117.19.434-.255.421-.669.264-1.078-.11-.287-.336-.494-.581-.676-.276-.207-.563-.4-.824-.624-.614-.528-.777-1.32-.41-1.905.339-.543 1.225-.78 1.916-.477.265.116.496.294.732 0v1.52c-.228-.343-.247-.739-.495-1.046-.328-.407-.886-.536-1.182-.221-.352.374-.31.81.033 1.151.347.347.767.622 1.151.933.752.61.983 1.37.622 2.027-.355.645-1.346.931-2.184.598-.274-.108-.512-.261-.764.052ZM44.626 51.842h-2.214c.764-.173.574-.783.579-1.294.009-.988.008-1.976-.002-2.964-.002-.176.11-.43-.13-.51-.239-.08-.464.058-.633.234-.322.335-.37.8-.508 1.221l-.17-.012c0-.47.005-.94-.002-1.41-.005-.267.174-.245.35-.245h3.234c.169 0 .361-.041.359.232-.005.481-.002.963-.131 1.454-.137-.35-.25-.712-.416-1.049-.14-.283-.403-.5-.728-.409-.303.085-.156.405-.16.617-.015 1.052 0 2.104-.01 3.157-.006.447-.044.89.582.978ZM18.597 46.875h2.03c-.538.293-.398.643-.258 1.014.323.854.625 1.714 1.018 2.576.367-.92.787-1.798.94-2.765.06-.389-.003-.447-.518-.795h1.314c-.66.697-.764 1.587-1.068 2.392-.276.73-.5 1.482-.752 2.221-.06.175-.089.387-.363.375-.255-.011-.297-.195-.365-.38-.453-1.229-.917-2.453-1.367-3.682-.118-.32-.226-.64-.61-.956ZM49.101 46.89h1.841c-.44.165-.449.508-.443.882.015.944-.01 1.888.017 2.83.014.505.093 1.015.76 1.082.61.06 1.056-.273 1.168-.945.173-1.042.077-2.095.067-3.145-.003-.367-.29-.49-.645-.691h1.423c-.632.26-.587.693-.59 1.108-.008.793.024 1.588-.022 2.38-.074 1.276-.958 1.866-2.19 1.505-.617-.18-.972-.663-1.004-1.487-.035-.9-.024-1.801-.014-2.702.003-.34-.037-.63-.368-.817Z" fill="#48193C"/><path d="m37.266 34.456-.042.039c-.013-.026-.03-.052-.036-.08-.002-.01.023-.025.036-.038l.042.08Z" fill="#48193C"/></svg>