<svg width="101" height="49" viewBox="0 0 101 49" fill="none" xmlns="http://www.w3.org/2000/svg">
<g clip-path="url(#clip0_4540_56178)">
<path d="M74.5568 12.0666C77.0084 12.0208 79.3775 12.6176 81.4441 14.147C82.3273 14.8011 83.0926 15.5732 83.741 16.508C84.3539 17.3913 84.9484 18.2539 85.2978 19.2689C85.8179 20.7811 86.1078 22.3425 86.0356 23.9406C85.897 27.0107 84.9244 29.7579 82.8944 32.1304C80.8919 34.4696 78.343 35.7939 75.3748 36.3209C73.8775 36.5867 72.3619 36.5031 70.8406 36.1685C68.6284 35.684 66.8012 34.5957 65.2467 33.0079C63.7471 31.4751 62.9211 29.5872 62.4446 27.5182C62.0734 25.9098 62.1261 24.2843 62.3678 22.6907C62.6771 20.6482 63.4882 18.7717 64.7117 17.0785C65.7221 15.6809 66.9754 14.5651 68.452 13.7013C69.7729 12.9292 71.2117 12.4687 72.7124 12.1754C73.2978 12.0609 73.8764 12.0895 74.5568 12.0666ZM79.4015 19.2139C79.4176 17.2366 79.3293 15.5205 78.1631 14.053C77.5079 13.2282 75.4424 12.8639 74.6244 13.5215C73.3208 14.5685 72.3642 15.9249 71.6734 17.405C70.9173 19.0249 70.2701 20.7032 69.829 22.4582C69.2963 24.5798 68.8255 26.7003 68.8094 28.8987C68.7968 30.6113 68.7545 32.3194 69.6526 33.8877C70.5908 35.5259 72.3355 35.7367 73.7526 34.7137C75.0678 33.764 75.8559 32.3847 76.5685 30.9871C77.6694 28.8288 78.335 26.4872 78.8723 24.1514C79.2549 22.4857 79.555 20.7432 79.4027 19.215L79.4015 19.2139Z" fill="#48193C"/>
<path d="M44.2343 13.2024C45.3627 12.6812 46.5404 12.3444 47.7753 12.1771C48.5314 12.0752 49.2852 12.0419 50.0401 12.0786C52.4962 12.1966 54.7313 12.8988 56.6868 14.474C58.8508 16.2164 60.0938 18.479 60.607 21.147C60.9804 23.09 60.8464 25.0237 60.3573 26.9701C59.8211 29.1077 58.813 30.9601 57.3386 32.5342C55.9972 33.9673 54.3956 35.067 52.4951 35.7212C50.7802 36.3111 49.0366 36.5334 47.2449 36.4532C46.7741 36.4326 46.3101 36.2115 45.8599 36.1576C45.3146 36.0923 44.8105 35.995 44.2962 35.7991C42.0817 34.9536 40.282 33.6053 38.9554 31.6223C38.0241 30.2292 37.3894 28.7171 37.1523 27.072C36.733 24.1622 37.0984 21.3567 38.4995 18.7276C39.3598 17.1123 40.4516 15.6769 41.9271 14.5863C42.5778 14.1051 43.2548 13.6251 44.0315 13.3342C44.1747 13.4063 44.2446 13.3651 44.2366 13.2024H44.2343ZM54.2043 18.9246C54.265 17.0745 53.9488 15.741 53.3864 14.631C52.8182 13.5106 51.6348 12.9813 50.4273 13.2551C49.2955 13.5117 48.5657 14.2552 47.891 15.1075C46.8829 16.3837 46.223 17.8478 45.6182 19.3382C44.9606 20.9569 44.5092 22.642 44.1404 24.3444C43.8288 25.7832 43.6122 27.2438 43.5561 28.7205C43.5217 29.6095 43.5126 30.4973 43.6592 31.3828C43.8001 32.2271 43.9834 33.0462 44.3889 33.8138C45.2848 35.5069 47.104 35.7235 48.4203 34.7738C49.4868 34.0051 50.2509 33.0004 50.8615 31.8858C51.8536 30.0723 52.6337 28.1649 53.1309 26.1464C53.7163 23.7716 54.2604 21.3945 54.2032 18.9258L54.2043 18.9246Z" fill="#48193C"/>
<path d="M22.7089 36.1191C21.6217 36.0526 20.6743 35.5188 19.6571 35.2198C18.3454 34.8337 17.2513 34.0295 16.0416 33.4499C16.029 33.4224 16.0164 33.396 16.0038 33.3685C15.9866 33.3926 15.9683 33.4166 15.9511 33.4407C15.5982 33.2528 15.392 32.8771 15.014 32.7167C14.7757 32.6147 14.8662 32.4074 14.9235 32.2447C15.305 31.1495 15.7105 30.0624 16.076 28.9615C16.3211 28.2249 16.7266 27.5478 16.871 26.778C16.895 26.6497 16.9489 26.55 17.0474 26.5134C17.178 26.4641 17.2456 26.5878 17.3075 26.684C18.2342 28.1103 19.2149 29.4953 20.2825 30.8208C21.5942 32.4498 22.9495 34.0295 24.9015 34.9334C26.676 35.7548 28.6934 35.2267 29.76 33.8096C30.2067 33.2162 30.2972 32.4727 30.3683 31.7636C30.5378 30.0612 30.1162 28.5135 29.0004 27.1789C28.4712 26.5454 27.7804 26.1514 27.0598 25.7916C27.0403 25.5969 26.9258 25.6622 26.8192 25.7034C25.8787 25.1558 24.8282 25.0356 23.7766 24.8901C22.7937 24.7537 21.8073 24.748 20.8267 24.7961C19.7498 24.8488 18.6718 24.9668 17.603 25.1971C17.4094 24.9645 17.6179 24.7262 17.6889 24.5292C18.6959 21.7202 19.7292 18.9216 20.7534 16.1195C21.1692 14.9808 21.5862 13.8432 21.978 12.6965C22.0525 12.4788 22.1327 12.4307 22.3526 12.4066C23.0377 12.3322 23.7227 12.3619 24.4078 12.3619C28.5869 12.3574 32.766 12.3677 36.9439 12.3493C37.4468 12.3471 37.4789 12.4479 37.3071 12.8981C36.6873 14.5317 36.1111 16.1813 35.5349 17.831C35.41 18.1884 35.1476 18.1231 34.8922 18.1231C30.7326 18.1231 26.5729 18.1231 22.4122 18.1254C21.9551 18.1254 21.4052 18.0005 21.0707 18.2102C20.7843 18.39 20.7431 18.964 20.5976 19.3649C20.4578 19.7498 20.3272 20.137 20.184 20.5208C20.042 20.9 19.8885 21.2757 19.712 21.7237C20.4486 21.5415 21.0581 21.1887 21.7191 20.9767C22.8269 20.6216 23.9484 20.4154 25.1032 20.3112C27.4848 20.0958 29.7508 20.4727 31.8438 21.6366C33.7798 22.7146 35.2347 24.2336 35.6815 26.4847C36.0733 28.4608 35.7365 30.3052 34.5771 32.011C33.8932 33.0168 33.0902 33.8737 32.0752 34.5084C30.5252 35.4764 28.8446 36.0916 26.9991 36.2566C26.526 36.2989 26.0345 36.3711 25.5602 36.4261C24.8992 36.5029 24.2073 36.3975 23.5417 36.2909C23.3 36.252 23.0526 36.2863 22.8177 36.2119L22.7066 36.1179L22.7089 36.1191Z" fill="#48193C"/>
<path d="M44.2331 13.2028C44.2411 13.3655 44.1712 13.4067 44.028 13.3346C44.0223 13.1753 44.1586 13.2372 44.2331 13.2028Z" fill="#F4F4EA"/>
<path d="M26.8208 25.7021C26.9273 25.6609 27.0419 25.5967 27.0614 25.7903C26.9629 25.8121 26.8643 25.8304 26.8208 25.7021Z" fill="#F4F4EA"/>
<path d="M15.9517 33.441C15.9688 33.417 15.9872 33.3929 16.0044 33.3688C16.017 33.3963 16.0296 33.4227 16.0422 33.4502L15.9952 33.4616L15.9517 33.441Z" fill="#F4F4EA"/>
<path d="M22.7095 36.1188L22.8206 36.2128C22.7415 36.2311 22.7152 36.1876 22.7095 36.1188Z" fill="#F4F4EA"/>
</g>
<defs>
<clipPath id="clip0_4540_56178">
<rect width="100.239" height="48" fill="white" transform="translate(0.361816 0.267277)"/>
</clipPath>
</defs>
</svg>
