<svg width="215" height="58" fill="none" xmlns="http://www.w3.org/2000/svg"><path d="M46.711 28.431c.334 1.606 1.025 3.095 1.54 4.636 1.475 4.395 2.907 8.806 4.374 13.201.436 1.308.821 2.638 1.439 3.887.189.386.196.909.377 1.345-.85.392-1.721.232-2.564.312-2.194.21-4.388.153-6.583.182-.82.007-1.09-.364-1.235-1.156-.254-1.38-.595-2.732-1.264-4.025-.312-.61-.487-1.49-.552-2.281-.72-1.998-1.41-4.003-2.165-5.994-.429-1.134-.785-2.289-1.155-3.444-.48-1.497-.887-3.037-1.744-4.396-.109-1.584-.734-3.037-1.191-4.52-.865-2.81-1.868-5.586-2.834-8.37-.058-.166-.073-.479-.312-.479-.29 0-.313.27-.378.516-.334 1.177-.712 2.347-1.046 3.524-.727 2.58-1.838 5.035-2.332 7.68-.567 1.032-.778 2.187-1.134 3.284-.835 2.565-1.584 5.151-2.361 7.73-.37 1.25-.72 2.507-1.075 3.764-.69 1.155-.85 2.492-1.272 3.742-.392 1.17-.64 2.39-.951 3.59-.08.297-.24.457-.574.457h-9.976c2.848-7.724 5.239-15.505 7.927-23.185.959-2.586 1.816-5.21 2.652-7.832.719-2.267 1.533-4.498 2.31-6.743.668-2.158 1.38-4.308 1.99-6.48.277-1.003.698-1.41 1.824-1.374 3.226.102 6.46.087 9.685.022.886-.015 1.242.32 1.417 1.097.472 2.093 1.293 4.083 1.881 6.14.044.16.19.283.291.421.61 1.867 1.184 3.75 1.824 5.61 1.053 3.043 1.903 6.16 3.175 9.132l-.008.007Z" fill="#48193C"/><path d="M37.18 30.705c.85 1.358 1.264 2.899 1.744 4.395.37 1.156.726 2.311 1.155 3.444.756 1.984 1.446 3.997 2.165 5.995-.516-.059-.647.29-.777.69-.64 1.932-1.482 3.793-1.94 5.783-.175.749-.596 1.003-1.359.988-3.262-.036-6.524-.029-9.786 0-.792.008-1.134-.297-1.431-1.039-.938-2.332-1.439-4.817-2.434-7.127.356-1.257.697-2.514 1.075-3.764.77-2.58 1.526-5.173 2.361-7.73.356-1.098.574-2.253 1.134-3.285.472-.021.5.378.595.669.436 1.25.85 2.514 1.265 3.77.697 2.115 1.402 4.237 2.085 6.358.087.276.189.596.45.618.32.029.48-.313.589-.581.152-.393.276-.8.4-1.2.711-2.331 1.416-4.664 2.12-6.996.117-.378.219-.756.59-.98v-.008ZM46.709 28.431c-1.272-2.972-2.122-6.088-3.175-9.133-.64-1.86-1.22-3.734-1.824-5.609.4-.29.632-.654.756-1.162.494-1.984 1.242-3.902 1.642-5.915.08-.4.392-.37.697-.406 2.587-.32 5.188-.051 7.781-.153h.182c1.75-.007 1.83.036 1.206 1.758-1.199 3.313-2.172 6.692-3.393 9.99-1.06 2.87-1.83 5.835-2.892 8.697-.254.69-.617 1.3-.973 1.926l-.007.007ZM24.625 13.857c-.77 2.245-1.584 4.483-2.31 6.743-.836 2.63-1.693 5.245-2.652 7.832-.712-.567-.843-1.395-1.09-2.201-.748-2.42-1.598-4.81-2.412-7.208-1.308-3.88-2.615-7.767-3.938-11.647-.218-.646-.065-.966.669-.98 2.688-.044 5.376-.102 8.057-.182.581-.015.843.174 1.017.748.625 2.049 1.3 4.076 1.983 6.11.11.327.073.85.669.792l.007-.007ZM160.671 9.602c.041-.214.09-.435.131-.65.255-.04.51-.081.764-.13.953 0 1.906-.009 2.859-.017.082.099.156.09.23-.008.123 0 .255.016.378.025.197.04.402.09.599.131 2.867 4.896 5.734 9.8 8.469 14.778.477.87 1.093 1.668 1.651 2.505.033.19.148.502.263.444.247-.131.148-.427.082-.674.017-5.528.042-11.065.05-16.593 0-.32.082-.526.419-.559a.636.636 0 0 0 .583.025c.764.016 1.536.025 2.3.041l.066.041.074-.016c.402.222.221.608.238.92.361 6.309.131 12.626.246 18.943.017.92-.008 1.848 0 2.768 0 .64-.287.937-.936.928-1.126 0-2.259 0-3.385.05-.525.024-.706-.32-.903-.674-1.29-2.317-2.547-4.658-3.869-6.958-1.848-3.204-3.532-6.498-5.594-9.57-.263-.386-.312-.904-.747-1.207-.329.221-.165.558-.165.821 0 5.405.025 10.802.05 16.208 0 1.06-.28 1.371-1.364 1.404-1.758.05-2.634-.788-2.629-2.513.017-6.219.033-12.446.058-18.664.016-.008.057-.025.057-.041 0-.041-.024-.082-.041-.123.009-.485.025-.97.033-1.463l.058-.065-.033-.09.008-.017ZM93.668 30.739c-.04-3.073-.05-6.153-.008-9.225.05-3.927.131-7.845.131-11.772 0-.731.263-.92.961-.912 2.941.05 5.882-.016 8.823.099 2.037.082 4.041.353 5.766 1.692 1.84 1.421 2.686 4.124 2.193 6.44-.616 2.892-2.497 4.362-5.084 5.167-.732.23-.666.32-.263.863 1.979 2.678 3.91 5.397 5.848 8.108.247.337.419.755.238 1.158-.18.403-.607.132-.911.197-2.382.501-3.804-.534-4.962-2.637-1.281-2.325-3.08-4.354-4.477-6.637-.254-.42-.599-.64-1.158-.6-.953.074-1.914.041-2.867.05-.106-.033-.156 0-.13.114v.51l-.034.057.041.058c0 2.628 0 5.265.033 7.894.008.772-.238 1.142-1.035 1.134a34.27 34.27 0 0 0-2.25.032c-.46.017-.699-.205-.764-.64a.584.584 0 0 0-.083-.542v-.46c.017-.009.058-.033.058-.041-.017-.041-.041-.074-.058-.116l-.008.009Zm4.428-11.484c2.152.04 4.296.123 6.448-.05 1.791-.14 3.129-1.38 3.236-2.965.132-1.955-.788-3.138-2.727-3.614-2.242-.55-4.518-.337-6.777-.362-.608 0-.879.312-.747.904.378 1.782.123 3.59.197 5.388.008.239-.14.575.263.674l.05.074.065-.05h-.008ZM115.723 8.944c.156-.033.312-.058.468-.09H118.261c.066 0 .123.008.189.016.148 0 .287.016.427.016l.082.041.082-.04c.509.385.444.944.444 1.478v8.609c0 .263-.033.64.123.764.312.255.575-.173.747-.32.674-.56 1.265-1.233 1.89-1.857 2.513-2.514 5.084-4.986 7.524-7.574 1.125-1.2 2.456-1.076 3.828-1.043.485.008 1.183-.271 1.404.197.263.55-.468.813-.796 1.166-2.489 2.662-5.167 5.135-7.812 7.64-.6.567-.838 1.043-.214 1.824 1.75 2.177 3.426 4.42 5.11 6.645a240.701 240.701 0 0 1 3.671 4.946c.173.238.477.55.247.92-.23.378-.608.197-.937.189-.082-.107-.164-.115-.246 0-.099 0-.205 0-.304.008-1.906.296-3.179-.37-4.271-2.087-1.824-2.858-3.968-5.52-5.98-8.255-.296-.411-.452-.674-1.052-.124-.797.731-1.503 1.586-2.374 2.235-.435.328-.394.764-.394 1.2 0 1.946-.016 3.893.041 5.84.025.953-.402 1.29-1.273 1.256-.205 0-.411-.016-.616-.016-1.49 0-2.234-.761-2.234-2.284.008-7.04.024-14.08.032-21.12l.107-.18h.017ZM189.339 25.752c-.566-.04-.525.501-.624.772a120.475 120.475 0 0 0-1.856 5.241c-.107.329-.197.55-.542.65-1.003.27-2.046.196-3.032.073-.591-.074-.402-.756-.221-1.191 2.489-6.12 4.698-12.338 6.859-18.581.336-.978.681-1.955 1.051-2.917.123-.336.197-.739.616-.87l.37-.05c1.027 0 2.062 0 3.088-.008l.485.123c1.232 3.615 2.67 7.163 3.984 10.745 1.454 3.968 2.965 7.91 4.247 11.936.164.517-.017.657-.403.649a6.967 6.967 0 0 0-1.799.222c-1.027.254-1.462-.354-1.766-1.183-.641-1.725-1.125-3.5-1.84-5.2-.164-.394-.328-.575-.698-.575-2.596.033-5.2-.058-7.787.14l-.066-.042-.049.066h-.017Zm4.034-12.166c-1.06 2.752-1.734 5.364-2.867 7.796-.296.624-.049.764.509.756 1.298-.017 2.596-.025 3.885-.041.477 0 1.068.131 1.397-.099.542-.386-.148-.83-.271-1.216-.715-2.357-1.429-4.715-2.662-7.196h.009ZM143.085 25.728c-.78.616-.813 1.61-1.199 2.423-.427.904-.813 1.865-.978 2.842-.221 1.314-1.043 1.56-2.127 1.553-2.547-.017-2.456.345-1.569-2.136 1.963-5.52 4.099-10.983 6.144-16.479.444-1.199.789-2.44 1.2-3.647.213-.624.353-1.33 1.199-1.438.065 0 .139-.008.213-.016.896.025 1.791.041 2.686.066.189.024.37.04.559.066.887 1.757 1.29 3.696 1.98 5.528 2.086 5.537 4.14 11.09 6.185 16.635.493 1.322.386 1.437-1.01 1.437h-.51c-1.938 0-2.275-.197-2.669-2.062-.329-1.56-1.085-2.957-1.504-4.477-.09-.345-.353-.468-.706-.46-2.563.041-5.126.074-7.688.115-.099-.082-.165-.04-.206.058v-.008Zm3.844-12.027c-.098.288-.188.559-.279.83-.747 2.234-1.47 4.485-2.242 6.711-.239.682-.074.929.657.904a89.387 89.387 0 0 1 4.197-.025c.756.017.945-.147.666-.936-.764-2.128-1.421-4.296-2.136-6.449-.148-.435-.279-.928-.871-1.043l.008.008ZM76.616 25.611c-.42 0-.715.197-.854.592-.625 1.758-1.249 3.507-1.857 5.274-.255.747-.797 1.043-1.536 1.035-.715 0-1.43-.041-2.136-.066-.057-.033-.106-.066-.164-.09-.156-1.413.633-2.588 1.06-3.829.969-2.842 2.119-5.627 3.17-8.444a450.272 450.272 0 0 0 2.785-7.656c.288-.813.518-1.651.715-2.49.156-.69.517-1.067 1.24-1.075.066 0 .132 0 .205-.008h2.046c.066.09.131.09.205.008.633-.008 1.052.172 1.29.87 2.094 6.096 4.362 12.125 6.637 18.155.419 1.1.706 2.25 1.175 3.319.402.911.04 1.256-.78 1.33-.748.066-1.504.033-2.251.041-.37 0-.56-.295-.682-.542-.715-1.446-.896-3.097-1.742-4.534-.205-.345-.312-1.134-.46-1.717l-.016-.066-.066.025c-.164-.025-.328-.058-.484-.082h-.518c-2.292 0-4.584-.009-6.867-.017l-.058-.033-.057.033v-.033Zm2.382-3.318c1.281 0 2.555-.329 3.844-.206.542.05.444-.172.329-.591-.69-2.423-1.536-4.781-2.374-7.147-.074-.205-.115-.485-.444-.476-.377.008-.254.328-.328.525-.838 2.292-1.668 4.584-2.514 6.868-.246.673-.131 1.068.674 1.035.27-.008.542 0 .821 0l-.008-.008Z" fill="#48193C"/><path d="M161.567 8.822c-.255.04-.51.082-.764.131.205-.337.485-.238.764-.131ZM149.203 8.951c-.189-.025-.369-.041-.558-.066.205-.172.394-.147.558.066ZM165.633 8.953c-.197-.04-.403-.09-.6-.131.239-.115.444-.107.6.131ZM177.15 8.872a.636.636 0 0 1-.583-.025c.205-.14.394-.148.583.025ZM195.524 8.996c-.164-.04-.321-.082-.485-.123.214-.156.403-.222.485.123ZM191.944 8.878l-.37.049c.107-.123.222-.23.37-.05ZM160.61 11.219s.033.082.041.123c0 .008-.033.025-.057.041-.041-.057-.041-.115.016-.156v-.008ZM160.673 9.602l.033.09-.058.066c-.016-.041-.024-.083-.033-.124 0 0 .041-.016.066-.024l-.008-.008ZM115.725 8.943c-.033.058-.074.124-.107.181-.033-.107 0-.172.107-.18ZM97.76 22.85c-.033-.122.016-.147.131-.114-.016.074-.057.115-.13.115ZM179.597 8.93l-.074.017-.066-.04c.058-.075.107-.075.14.024ZM164.66 8.797c-.074.098-.148.107-.23.008.074 0 .156 0 .23-.008ZM145.962 8.825c-.074 0-.14.008-.214.016.066-.098.132-.107.214-.016ZM119.049 8.889l-.082.04-.082-.04c.058-.09.115-.107.164 0ZM118.449 8.86c-.066 0-.123-.008-.189-.016.074-.107.131-.09.189.016ZM116.428 8.854h-.238c.082-.09.156-.098.238 0ZM81.487 8.833c-.074.083-.14.074-.206-.008.074-.082.14-.074.206.008ZM79.245 8.83c-.066 0-.14 0-.206.009.066-.099.132-.099.206-.009ZM97.98 19.229c.05-.033.09-.025.116.024l-.066.05-.05-.074ZM111.953 39.442c1.487.131 2.998-.132 4.468.222.198.049.428.016.592.115 1.199.706.641 1.889.698 2.866.041.715-.534 1.15-1.207 1.298-1.011.23-1.101.436-.469 1.298.69.953 1.389 1.898 2.07 2.85.132.181.288.403.124.757-1.191-1.208-1.939-2.687-2.9-4.001-.394-.542-2.423-1.01-2.949-.64-.238.172-.164.435-.164.657 0 1.092.008 2.185.016 3.285v.058c-.049.213.074.575-.246.575-.427 0-.395-.378-.378-.682.098-2.407.115-4.814.033-7.212.172-.009.345-.025.517-.033 0 .14.008.27.008.41.017 1.682.885 2.514 2.604 2.498 2.383-.017 2.613-.28 2.563-2.588-.016-.854-.435-1.175-1.199-1.142-.715.025-1.405-.074-2.111-.131-.608-.05-1.446-.526-1.865.443-.797-.123.041-.648-.222-.911l.017.008ZM122.62 39.408h2.768l.025.058.049-.033c.288.583-.115.51-.468.501-1.092-.025-2.185 0-3.269-.066-.945-.057-1.47.197-1.24 1.249.016.066 0 .14 0 .205.038 1.528.846 2.287 2.423 2.276.542 0 1.084.016 1.626.032.033 0 .074.09.206.296-.994.173-1.914.09-2.818.074-1.536-.033-1.52-.05-1.462 1.52.033.747-.008 1.503.025 2.25.024.592.139.978.977.79.846-.181 1.766-.034 2.653-.034.214 0 .468.009.46.255-.016.304-.263.271-.542.247-.468-.041-.945.024-1.421.04-.09-.188-.214-.123-.329-.032-2.447-.123-2.283.197-2.291-2.465 0-1.01-.041-2.02-.058-3.039.115-.148.091-.28-.049-.403v-2.44c-.017-1.322.041-1.38 1.355-1.33l.066.057.066-.057c.378.016.755.025 1.133.041l.066.05.066-.05-.017.008ZM128.116 47.533c1.257.896 2.539 1.561 4.149.79.673-.321 1.133-.773 1.265-1.438.148-.773-.189-1.405-.879-1.882-.698-.476-1.487-.714-2.259-1.01-.403-.156-.822-.271-1.224-.427-1.117-.436-1.832-1.602-1.553-2.522.337-1.125 1.578-1.898 2.711-1.783.813.082 1.585.222 2.325.592.263.131.435.312.591.534.173.246.468.6.173.805-.37.254-.436-.255-.584-.468-.665-.937-3.548-1.224-4.337-.42-.862.871-.525 2.3.715 2.826.789.337 1.61.6 2.44.838 1.421.411 2.16 1.405 2.332 2.859.083.698-.386 1.019-.69 1.33-1.429 1.438-4.041 1.176-5.331-.443l.156-.172v-.009ZM79.48 39.387c.247 0 .501.017.748.025H81.879l.033.04.033-.04c.254 0 .5 0 .755-.008l.033.04.033-.04c.255 0 .501-.017.756-.025l.033.05.032-.042c.156.05.395.05.395.247 0 .287-.263.246-.46.246-1.126 0-2.251-.008-3.376-.016-1.454 0-1.578.164-1.257 1.593.025.099.025.197.04.304.138 1.227.828 1.835 2.07 1.824h2.186c0 .107 0 .205.008.312-1.133.09-2.267.255-3.4.255-.658 0-.92.131-.88.83.058.92.033 1.84.033 2.768 0 .32-.008.624.403.706l.057.05.066-.05H80.293c1.265.016 2.522.041 3.787.058l-.033.065.058.05c-.945.55-1.988.18-2.982.32h-.057c-.543-.017-1.093-.082-1.627-.041-.846.066-1.027-.353-1.01-1.1.04-1.972.033-3.944.04-5.915.05-.05.05-.107 0-.148 0-.37-.015-.74-.024-1.11l.041-.048-.04-.058c.04-.37.09-.731.13-1.093h.075l.057-.049c.23 0 .468 0 .698-.008l.041.05.041-.05-.008.008ZM73.343 49.17c-1.495-2.892-2.358-5.727-3.294-8.544.575.37.673.994.887 1.544.682 1.733 1.33 3.475 1.988 5.216.066.173-.017.46.28.469.311.008.311-.255.402-.485a478.663 478.663 0 0 1 2.71-7.204c.09-.222.156-.526.666-.715-1.06 3.303-2.308 6.375-3.64 9.71v.008ZM86.041 40.335c.058-.345-.205-.862.214-.994.402-.123.542.378.739.69 1.635 2.506 3.286 5.011 4.929 7.509.082.345.328.427.608.279.114-.058.024-.247-.124-.312l-.049-4.962c.205 0 .402.008.608.017-.025 1.84-.05 3.688-.09 5.528 0 .246.155.608-.19.706-.262.074-.312-.295-.476-.435-1.314-1.084-1.856-2.703-2.817-4.033-.814-1.126-1.537-2.325-2.3-3.483-.222-.444-.493-.773-1.06-.518l.008.008ZM102.618 44.355c.246 1.052.156 2.177.903 3.122 1.126 1.413 3.524 1.462 4.625.04 1.084-1.396 1.29-2.948 1.043-4.616l.066-.066-.057-.074c.024-1.051.041-2.094.065-3.146h.386c-.024 2.21.296 4.453-.32 6.63-.493 1.733-2.193 3.03-3.639 2.858-1.807-.213-3.22-1.774-3.351-3.705-.033-.476-.083-.953-.132-1.42.271-.017.238.295.411.385v-.008ZM97.79 40.148c.254.28.23.625.238.97 0 2.25.008 4.493.016 6.744v.41c-.033.321-.123.65-.517.633-.354-.016-.362-.361-.362-.632 0-.51.017-1.019.025-1.528.024-2.26.033-4.51-.165-6.76.296-.1.51.147.78.18l-.016-.017Z" fill="#48193C"/><path d="M86.528 40.882v7.853h-.435c-.271-2.481-.017-4.978-.14-7.467.148-.198.132-.641.584-.386h-.009ZM102.618 44.353c-.172-.09-.131-.403-.411-.386-.427-1.249-.263-2.547-.279-3.828 0-.403.049-.797.534-.83.591-.041.485.444.485.797a175.647 175.647 0 0 1-.058 3.565c0 .255.082.567-.279.682h.008ZM127.972 47.706c-.37-.23-.567-.575-.739-1.06.55.132.714.51.887.888-.05.057-.099.115-.156.172h.008ZM92.412 47.498c.148.066.23.255.124.312-.271.14-.518.066-.608-.28.164-.007.32-.024.484-.032ZM122.276 49.036c.123-.09.238-.156.329.033-.05.074-.082.197-.14.205-.156.025-.238-.066-.189-.23v-.008ZM84.095 48.641l-.058-.049.033-.066c.017-.123.107-.156.205-.115.033.017.041.107.058.165-.082.024-.156.049-.238.074v-.009ZM119.877 43.14c.14.124.156.255.05.403-.148-.115-.148-.255-.05-.402ZM109.19 42.77l.058.065-.066.066-.049-.074.057-.057ZM112.234 48.224v-.057h.066l-.066.065v-.008ZM79.465 48.452l-.066.05-.057-.05c.05-.099.082-.107.123 0ZM80.286 48.46h-.057c.024-.106.049-.09.057 0ZM81.057 48.963h.057c-.016.107-.04.107-.057 0ZM133.824 40.114c-.263-.033-.485-.28-.781-.182-.698-.165-1.404-.099-2.103-.107-.23 0-.542.017-.501-.33.05-.37.378-.132.575-.181l.033.058.049-.05c.272 0 .534.017.805.017.074 0 .148 0 .214.008.197 0 .394 0 .583.008.082 0 .165-.016.247-.024 1.068.065 2.135.082 3.195-.042.23.132.468.116.715.083.065.601-.312.626-.756.634-.764.017-1.528-.107-2.284.091l.009.017ZM129.001 42.537c-.206 0-.403-.008-.608-.017-.625-.906-.206-1.92-.263-2.884-.017-.24.246-.445.517-.314.321.157.592.413.444.816-.312.8-.082 1.6-.082 2.399h-.008ZM122.558 40.85c-.452-.255-.436.19-.584.387-.074-.32-.131-.642.091-.93.567-.256.838.073 1.059.518-.189 0-.377.017-.566.025ZM83.604 25.678h.517c-.172.164-.345.164-.517 0ZM93.667 31.43c.115.165.14.346.082.544-.181-.157-.164-.346-.082-.544Z" fill="#48193C"/><path d="M132.112 39.359c-.074 0-.148 0-.213-.009.082-.156.156-.123.213.009ZM84.608 25.765l.057-.017.016.066-.057.008-.016-.057ZM70.063 32.418c.057.033.106.066.164.09-.107.066-.156.017-.164-.09ZM117.966 39.371l-.033.041-.032-.04c.024-.108.041-.108.065 0ZM118.79 39.363l-.032.041-.033-.04c.024-.107.041-.107.065 0ZM119.621 39.342l-.033.041-.033-.05c.024-.098.049-.098.074 0l-.008.009ZM131.094 39.33l-.049.05-.033-.057.049-.05.033.058ZM116.315 39.382h-.057c.025-.107.041-.082.057 0ZM115.512 39.352l-.041.049-.041-.05c.024-.098.057-.114.082 0ZM114.725 39.364l-.057.05h-.074c.016-.107.041-.156.131-.041v-.009ZM97.766 23.523l-.041-.057.033-.058.074.058-.066.057ZM76.615 25.664l.058-.041.057.033-.057.066-.058-.058ZM93.66 30.81s.041.075.058.116c0 0-.041.024-.058.04-.05-.049-.05-.098 0-.155ZM114.46 40.514l.041.057-.041.05c-.016-.033-.041-.066-.058-.09.025 0 .042-.01.066-.017h-.008ZM114.476 41.721c.058.05.058.099 0 .148-.024-.041-.049-.074-.074-.115.025-.017.042-.025.066-.041l.008.008ZM117.138 39.373h-.058c.017-.099.041-.099.058 0Z" fill="#48193C"/></svg>