<svg width="247" height="58" fill="none" xmlns="http://www.w3.org/2000/svg"><path d="M28.944 52.97c-3.789 0-7.578-.036-11.367.025-.974.015-1.176-.287-1.157-1.195.06-2.796-.08-5.598.06-8.39.083-1.654-.377-2.855-1.54-4.048-2.294-2.354-3.333-5.299-3.363-8.586-.02-1.948-.013-3.893-.013-5.84 0-4.21.013-8.423.006-12.633-.002-2.17 1.425-3.712 3.613-3.835.706-.04 1.422-.075 2.122 0 1.48.161 2.753-.003 3.691-1.385.38-.561 1.182-.78 1.869-.801 1.512-.05 3.032-.226 4.54.104.414.091.812.072 1.169-.279.831-.82 1.886-1.148 3.028-1.095 1.392.066 2.787-.193 4.184.285.953.326 1.46 1.586 2.892 1.04.993-.378 2.239-.064 3.37-.117 1.499-.072 2.613.591 3.491 1.727.483.625.706 1.356.706 2.15v3.93c0 1.576.11 1.617 1.697 1.95.846.179 1.718.077 2.547.385.776.29 1.187.738 1.182 1.61-.019 4.248.16 8.507-.046 12.744-.29 5.948-3.426 10.477-9.17 12.613-.707.264-.928.547-.917 1.246.032 2.407-.028 4.816.034 7.223.023.902-.168 1.216-1.15 1.201-3.824-.063-7.649-.025-11.474-.025l-.004-.004ZM43.906 9.54c-.155-.716-.744-1.071-1.333-1.127-1.148-.108-2.315-.046-3.474-.023-.546.01-.791.304-.772.889.047 1.369.04 2.738.055 4.108-.11.59.285.463.613.427 1.641.255 3.204.906 4.882.978.431.134.359-.21.361-.414.008-1.412.006-2.826-.008-4.238-.003-.238-.013-.508-.322-.6h-.002Zm-8.977 3.24c.66.6.842.594 1.231-.044.011-1.203.054-2.407.022-3.608-.034-1.316-.734-1.96-2.052-1.973-.849-.007-1.699-.011-2.55 0-1.52.019-1.945.431-1.945 1.926 0 4.352.01 8.707.017 13.06 0 1.01 1.035 2.64 1.86 2.938 1.263.457 2.916.119 3.717-.82.306-.362.515-.666-.125-1.136-2.741-2.012-3.86-5.37-3.164-8.507.417-1.882.45-1.874 2.356-1.844.212.004.425.004.636.007l-.003.002Zm-9.768 29.175c.791.28 1.606.087 2.407.108.24.007.396-.134.31-.412.088-1.15.062-2.297.235-3.451.567-3.827 2.113-7.072 5.103-9.609.476-.404 1.175-.623 1.413-1.328-2.098.238-4.122.34-5.674-1.457-.207-.238-.481-.028-.74.145-2.254 1.492-4.548 1.58-6.74-.066-.662-.498-1.115-.372-1.659 0-1.17.795-2.473 1.059-3.85.901-.766-.087-1.419-.57-2.223-.901 0 1.645.051 3.163-.008 4.677-.238 6.128 5.424 11.714 11.424 11.395l.002-.002Zm24.36-16.447c0-2.358-.006-4.303.005-6.25.004-.566-.028-.85-.78-1.034-2.58-.634-5.188-1.131-7.761-1.801-2.046-.534-4.185-.744-6.224-1.34-.85-.248-.884.117-.876.73.013.829.122 1.611.36 2.434.355 1.236.935 2.235 1.913 2.996 1.62 1.263 3.479 1.837 5.541 1.733.368-.02.745-.11 1.05.296.932 1.235.139 3.516-1.369 3.718-2.124.285-3.989 1.178-5.702 2.38-3.577 2.51-5.346 6.057-5.594 10.363-.13 2.252-.053 2.256 2.226 2.256 1.665 0 3.327.013 4.992-.004.955-.009 1.952.102 2.858-.128 4.812-1.216 8.37-4.593 9.217-9.87.366-2.282.045-4.593.147-6.476l-.002-.003Zm-30.92 16.995c0 2.665.007 5.205-.003 7.746-.002.606.39.557.79.555 1.702-.002 3.4 0 5.101 0 4.64 0 9.28.002 13.919 0 .472 0 1.018.153 1.001-.674-.034-1.805-.015-3.612-.006-5.417 0-.413-.077-.643-.589-.636a415.7 415.7 0 0 1-7.967.03c-.6-.005-.812.189-.791.797.04 1.167.02 2.337.006 3.506-.008.763-.35 1.286-1.16 1.34-.93.061-.974-.61-.979-1.282-.004-1.17-.031-2.34.011-3.507.023-.642-.191-.814-.836-.87-1.582-.135-3.149.239-4.769-.22a25.104 25.104 0 0 1-3.725-1.365l-.002-.003Zm8.876-26.552c0-2.473-.024-4.525.013-6.574.01-.62-.202-.976-.802-.987-1.235-.021-2.48-.064-3.706.053-.704.066-1.312.55-1.312 1.36-.008 4.168-.168 8.336.08 12.499.096 1.603 1.676 2.622 3.745 2.594.71-.008 1.136-.446 1.627-.812.663-.494.176-1.14.244-1.714.266-2.281-.012-4.565.11-6.421v.002Zm-7.857 1.34h-.05c0-1.84-.02-3.679.008-5.518.013-.86-.364-1.231-1.204-1.214-1.024.019-2.051-.02-3.076.032-1.008.05-1.548.671-1.55 1.688-.005 3.04.008 6.083-.007 9.124-.01 1.894 1.623 3.42 3.52 3.257 1.152-.1 2.364-1.04 2.36-1.81-.01-1.854-.003-3.706-.003-5.56h.002Zm16.815 9.006c1.178-.478 2.337-.587 3.193-1.28-1.371-.72-2.445-.395-3.193 1.28Z" fill="#48193C"/><path d="M49.524 25.512c-.102 1.886.22 4.195-.147 6.476-.846 5.278-4.405 8.654-9.217 9.87-.906.23-1.903.117-2.857.128-1.665.017-3.328.004-4.993.004-2.28 0-2.356-.004-2.226-2.256.249-4.303 2.018-7.85 5.594-10.363 1.714-1.203 3.579-2.094 5.703-2.38 1.507-.201 2.3-2.483 1.369-3.718-.306-.406-.68-.315-1.05-.296-2.063.102-3.92-.472-5.541-1.733-.978-.76-1.559-1.76-1.914-2.995a9.06 9.06 0 0 1-.36-2.435c-.01-.612.026-.978.877-.73 2.039.596 4.178.807 6.223 1.34 2.573.67 5.182 1.17 7.76 1.801.756.185.786.468.781 1.034-.013 1.947-.004 3.893-.004 6.25l.002.003Z" fill="#fff"/><path d="M25.16 41.957c-6 .319-11.662-5.267-11.424-11.395.06-1.513.009-3.034.009-4.677.804.331 1.456.816 2.222.901 1.377.155 2.68-.106 3.85-.901.545-.37.997-.496 1.659 0 2.192 1.648 4.486 1.558 6.74.066.26-.172.534-.38.74-.145 1.552 1.797 3.576 1.695 5.675 1.457-.238.703-.94.924-1.414 1.328-2.99 2.537-4.535 5.782-5.103 9.609-.172 1.157-.147 2.303-.234 3.45-.882.311-1.848-.129-2.717.305l-.002.002ZM18.605 42.508c1.333.61 2.5 1.018 3.725 1.365 1.622.46 3.187.085 4.769.221.644.055.859.228.835.87-.042 1.167-.014 2.337-.01 3.506.002.67.049 1.342.978 1.282.808-.053 1.152-.576 1.16-1.34.014-1.169.035-2.338-.006-3.506-.02-.608.194-.8.791-.797 2.656.015 5.312.006 7.968-.03.514-.006.59.221.589.636-.009 1.805-.028 3.612.006 5.418.015.827-.53.674-1.002.674-4.64.002-9.279 0-13.918 0h-5.1c-.4 0-.794.049-.792-.555.01-2.541.004-5.08.004-7.746l.003.002ZM27.478 15.954c-.123 1.857.155 4.138-.11 6.422-.069.576.418 1.222-.245 1.713-.492.366-.917.802-1.627.813-2.069.027-3.648-.991-3.744-2.594-.247-4.163-.09-8.333-.081-12.498 0-.813.608-1.295 1.312-1.361 1.227-.115 2.47-.075 3.706-.053.597.01.812.365.802.986-.037 2.05-.013 4.102-.013 6.575v-.003ZM19.624 17.293c0 1.854-.007 3.706.002 5.56.004.77-1.21 1.71-2.36 1.81-1.9.165-3.53-1.364-3.52-3.258.015-3.04.003-6.083.007-9.124 0-1.016.54-1.64 1.55-1.688 1.023-.051 2.05-.013 3.077-.032.842-.017 1.216.355 1.203 1.214-.027 1.84-.008 3.679-.008 5.518h.05-.001ZM34.93 12.781l-.636-.006c-1.905-.032-1.94-.038-2.356 1.844-.695 3.138.423 6.495 3.164 8.507.64.47.434.776.126 1.135-.802.94-2.454 1.278-3.717.82-.825-.297-1.859-1.93-1.86-2.938-.007-4.352-.018-8.707-.018-13.059 0-1.495.425-1.907 1.946-1.926.848-.011 1.699-.009 2.55 0 1.32.01 2.02.657 2.051 1.973.03 1.201-.01 2.405-.021 3.608l-1.231.045.002-.003ZM43.875 14.794c-1.677-.072-3.24-.723-4.882-.978-.104-.285-.302-.436-.612-.427-.015-1.37-.008-2.74-.055-4.108-.02-.585.225-.878.772-.889 1.158-.023 2.326-.085 3.474.024.589.055 1.178.41 1.333 1.127l-.032 5.251h.002ZM36.436 26.3c.748-1.678 1.822-2.001 3.194-1.28-.857.693-2.016.803-3.194 1.28Z" fill="#fff"/><path d="M65.843 29.208c-.13-2.234.104-4.554-.113-6.876-.06-.64.442-1.187 1.154-1.193 2.633-.023 5.29-.38 7.889.228 1.635.382 3.385 2.011 3.234 4.073-.073.968.149 1.988-.508 2.833-.315.404.055.563.206.797 1.605 2.483.882 5.141-.591 6.696-.917.965-2.116 1.456-3.432 1.49-2.088.053-4.178.021-6.268.002-1.104-.01-1.544-.404-1.56-1.488-.035-2.16-.011-4.32-.011-6.562Zm3.87-.08c0 1.167.023 2.332-.011 3.497-.015.532.108.76.69.73.917-.047 1.838 0 2.756-.018.853-.017 1.525-.187 1.463-1.316-.079-1.427-.093-1.463-1.475-1.552-.772-.051-1.659-.047-1.731-1.193-.094-1.448.104-1.735 1.418-1.99.232-.045.457-.191.685-.194.589-.006.718-.331.661-.827-.051-.444.19-.935-.587-1.13-1.054-.267-2.098-.067-3.138-.177-.634-.068-.764.204-.742.776.04 1.129.013 2.262.013 3.393h-.003ZM141.937 31.675a79.74 79.74 0 0 1 1.843-4.206c.623-1.308 1.014-2.754 1.893-3.92.448-.598.148-1.457.939-1.944.538-.332 1.859-.702 2.433-.306.312.214.674.404.893.695.242.319.521.512.217 1.186-1.878 4.176-4.07 8.197-5.988 12.347-.557 1.208-1.182 1.831-2.475 1.759-1.154-.064-1.618-.944-2.054-1.81-.999-1.99-1.962-3.997-2.945-5.996-.871-1.777-1.76-3.548-2.615-5.334-.287-.6-.952-1.172-.312-1.927.793-.937 2.128-1.418 2.964-1.059a.7.7 0 0 1 .344.355c.508 1.308 1.327 2.456 1.89 3.743.617 1.407 1.085 2.89 1.995 4.182.406.578.348 1.459.976 2.237l.002-.002ZM122.421 36.018c-.026-1.342-.06-2.684-.077-4.027-.021-1.642-.659-2.37-2.09-2.36-1.199.006-1.803.778-1.805 2.304-.002 1.24.023 2.48-.013 3.717-.038 1.333-.51 1.656-2.23 1.627-1.225-.022-1.616-.4-1.621-1.63-.01-4.707-.012-9.414-.015-14.122 0-.238-.042-.459.166-.682.74-.796 1.659-.615 2.552-.491.814.112 1.12.663 1.114 1.458-.017 1.627-.004 3.253-.004 5.167 1.426-1.81 3.166-1.257 4.692-.889 1.025.247 1.761 1.28 2.318 2.294 1.316 2.399.708 4.989.774 7.504.023.893-.6 1.401-1.546 1.39-.891-.008-1.926.292-2.19-1.037l.145-.17a6.083 6.083 0 0 1-.168-.053h-.002ZM219.948 32.746c-.93 0-1.638-.01-2.343.006-.228.004-.56-.127-.66.147-.102.28.136.514.338.72.723.734 1.672.56 2.484.43.589-.096 1.21-.112 1.809-.327.849-.304 1.463.125 1.823.96.34.794.37 1.508-.4 2.046-1.489 1.038-3.224 1.161-4.905.944-2.926-.374-4.833-2.005-5.399-5.022-.366-1.95-.04-3.636 1.286-5.22 2.08-2.479 4.712-2.283 7.319-1.548 2.218.625 3.502 3.204 2.666 5.573-.227.647-.61 1.084-1.382 1.202-.957.144-1.907.019-2.636.09v-.001Zm-1.472-2.052c.281 0 .564-.02.842.004.564.047 1.046-.157 1.068-.723.021-.559-.404-.918-.998-.978-.799-.083-1.543.02-2.096.69-.213.256-.627.486-.415.87.166.3.568.103.861.133.243.025.492.004.738.004ZM158.601 32.744c-.709 0-1.419-.017-2.125.009-.242.008-.612-.18-.695.242-.059.309.132.521.393.676 1.244.738 2.554.526 3.83.183 1.535-.412 2.564.404 2.394 1.967-.094.853-.751 1.184-1.386 1.382-1.799.557-3.621.744-5.48.134-1.326-.436-2.285-1.165-3.066-2.373-.82-1.271-1.161-2.675-1.267-4.048-.149-1.925 2.046-4.48 4.068-5.09 2.67-.804 5.143-.58 7.071 1.7.509.602.555 1.43.681 2.18.308 1.848-.717 3.013-2.609 3.036-.602.009-1.203 0-1.807 0l-.002.002Zm-3.024-2.14c.134.044.196.084.259.084.779.005 1.559 0 2.339.007.517.002 1.038.017 1.051-.713.01-.68-.472-.893-1.01-.98-1.278-.208-2.029.245-2.637 1.601h-.002ZM108.255 32.746c-.708 0-1.414-.011-2.122.006-.225.006-.538-.134-.659.157-.144.345.194.506.394.664 1.186.935 2.519.606 3.782.291 1.452-.364 2.092-.093 2.482 1.306.208.746-.043 1.316-.698 1.677-1.78.978-6.423 1.23-8.369-.778-2.919-3.013-2.49-7.835 1.106-9.834 2.232-1.24 4.552-1.154 6.74.22 1.431.899 2.262 3.28 1.667 4.81-.349.898-1.089 1.436-2.096 1.472-.742.026-1.487.004-2.229.006l.002.003Zm-1.243-2.05c.35 0 .701-.004 1.054 0 .383.006.687-.066.759-.527.073-.462-.019-.949-.44-1.061-.68-.181-1.435-.358-2.075.178-.398.332-1.014.678-.836 1.216.145.436.802.117 1.223.19.102.017.21.002.315.002v.002ZM80.104 31.463c-.287-3.298 2.975-6.198 5.924-6.072 3.644.155 6.136 2.387 6.177 6.115.034 3.225-2.556 6.117-6.562 5.992-2.424-.077-5.834-2.72-5.539-6.037v.002Zm5.939-2.043c-1.289.006-2.094.782-2.094 2.018 0 1.173.852 2.015 2.04 2.02 1.451.004 2.212-.636 2.21-1.86 0-1.664-.519-2.187-2.156-2.178ZM200.457 31.223c0 1.38.004 2.76 0 4.142-.005.786-.122 1.554-.966 1.873-.952.359-2.415.032-2.802-.685-.257-.474-.366-.323-.659-.102-.995.746-2.141.967-3.351.825-.861-.1-1.459-.73-2.061-1.252-1.173-1.019-1.696-2.358-1.741-3.93-.049-1.769-.091-3.536.008-5.303.054-.933.5-1.384 1.482-1.19.509.1 1.066.057 1.533.244.456.183.947.353.879 1.16-.126 1.509-.028 3.04-.015 4.56.006.846.259 1.616 1.22 1.656.808.034 1.531.251 2.131-1.014.831-1.752.342-3.391.408-5.065.032-.844.325-1.148 1.006-1.335.032-.008.07 0 .106 0 3.404.057 2.739-.45 2.824 2.656.025.918.004 1.841.004 2.76h-.006ZM164.926 26.435c.03-.35.162-.601.566-.606.778-.006 1.556-.014 2.335-.019.068 0 .174 0 .202.043.744 1.15 1.424.223 2.187-.002 2.059-.61 4.251.365 5.344 2.305.599 1.063 1.059 2.145.948 3.448a26.322 26.322 0 0 0-.004 4.24c.049.625-.224.91-.617 1.161-.799.51-1.716.349-2.551.194-.379-.07-.783-.513-.753-1.134.055-1.129-.062-2.27.045-3.391.072-.76-.29-1.414-.387-2.114-.126-.886-1.293-.948-2.099-.884-.683.053-1.344.463-1.365 1.31-.036 1.377-.015 2.757-.026 4.137-.017 1.978-1.367 2.835-3.187 2.054-.499-.215-.633-.542-.633-1.046-.007-3.006-.034-6.01-.054-9.017l.051-.674-.002-.005ZM230.372 37.461c-1.516.213-2.836-.268-4.119-1.001-.75-.43-1.003-.8-.51-1.66.893-1.564 1.312-1.764 2.983-.905.576.296 1.142.468 1.788.417.377-.03.587-.302.696-.559.049-.117-.347-.234-.583-.321-.821-.3-1.688-.368-2.492-.815-1.977-1.1-2.813-3.452-1.773-5.449.548-1.055 1.539-1.42 2.628-1.563 1.069-.14 2.152.13 3.236-.163.642-.175 2.373 1.148 2.475 1.739.142.842-.481 1.27-.953 1.786-.412.45-.829.236-1.231.021-.625-.334-1.282-.493-1.979-.408-.264.032-.706-.228-.753.283-.036.4.168.697.581.867.455.187.961.236 1.409.283.97.098 1.729.69 2.63.884.447.096.19.462.356.666.856 1.059.512 2.322.527 3.515.006.503-1.818 2.113-2.452 2.196-.823.11-1.633.383-2.464.187ZM184.438 37.302c-1.004-.121-1.778.032-2.603-.43-1.361-.763-1.711-1.89-1.75-3.259-.032-1.131-.021-2.264-.038-3.396-.004-.257.092-.516-.363-.6-1.727-.314-2.225-1.126-1.727-2.838.191-.661.4-1.427 1.45-.99.466.193.676-.09.638-.61-.047-.67-.019-1.345-.011-2.016.015-1.098.309-1.378 1.436-1.395 2.143-.03 2.417.236 2.421 2.362.002 1.716.33 2.028 2.101 1.633.734-.164.925.085 1.059.663.045.198.13.385.176.583.447 1.865-.629 2.991-2.602 2.566-.766-.163-.746.102-.738.63.015.778.011 1.556.004 2.334-.004.76.26 1.22 1.123 1.14.678-.064 1.259.168 1.561.812.244.521-.077 2.603-.451 2.694-.604.149-1.257.098-1.69.121l.004-.004ZM97.918 27.438c0 1.7.005 3.398 0 5.097-.002.727.156 1.28 1.074 1.14.132-.02.308-.011.406.061.987.723.334 1.77.491 2.658.107.6-.457.814-.865.85-.876.08-1.788.134-2.64-.027-1.45-.277-2.41-1.773-2.397-3.262.036-4.055.028-8.11.02-12.166-.003-1.07.382-1.503 1.451-1.512.39-.004.793-.08 1.166-.006 1.21.24 1.267 1.229 1.284 2.177.027 1.663.008 3.328.008 4.992h.007l-.005-.002ZM206.446 30.717c-.009 1.626-.024 3.253-.019 4.881 0 .723-.198 1.446-.923 1.578-.923.168-1.95.413-2.786-.338-.229-.206-.187-.525-.182-.848.031-2.83.04-5.66.012-8.49-.015-1.614.034-1.695 1.771-1.697.996 0 1.714.276 2.157.83 1.709-1.545 3.197-1.162 4.482-.558.344.162.667.319.348.817-.112.176-.006.484-.023.73-.13 1.866-.714 2.227-2.437 1.868-.729-.151-1.741-.513-2.049.746-.3.026-.468.149-.349.478l-.002.003Z" fill="#48193C"/><path d="M69.713 29.125c0-1.131.027-2.262-.013-3.393-.021-.574.11-.844.742-.776 1.04.11 2.084-.09 3.138.176.776.196.536.687.587 1.131.058.496-.072.821-.661.827-.23.003-.453.15-.685.194-1.314.255-1.512.542-1.418 1.99.072 1.146.961 1.142 1.73 1.193 1.383.09 1.4.127 1.476 1.552.062 1.131-.61 1.301-1.462 1.316-.919.017-1.84-.03-2.756.017-.583.03-.708-.198-.691-.73.034-1.164.01-2.332.01-3.497h.003ZM218.477 30.695c-.247 0-.494.02-.738-.004-.296-.03-.697.168-.861-.132-.213-.385.202-.615.414-.872.553-.668 1.297-.77 2.097-.689.591.062 1.018.42.997.978-.021.566-.504.77-1.067.723-.279-.023-.562-.004-.842-.004ZM155.577 30.602c.608-1.354 1.356-1.809 2.636-1.6.54.087 1.023.3 1.01.98-.012.729-.533.714-1.05.712-.78-.004-1.559 0-2.339-.007-.064 0-.125-.04-.259-.085h.002ZM107.013 30.692c-.107 0-.213.015-.315-.002-.421-.074-1.078.247-1.223-.189-.178-.538.441-.884.836-1.216.64-.534 1.395-.36 2.075-.179.423.113.513.602.44 1.061-.072.462-.376.534-.759.528-.35-.007-.701 0-1.054 0v-.003ZM86.042 29.42c1.637-.009 2.156.515 2.156 2.177 0 1.227-.759 1.867-2.209 1.86-1.19-.004-2.041-.846-2.041-2.02 0-1.237.806-2.013 2.094-2.017Z" fill="#fff"/></svg>