<svg width="207" height="58" fill="none" xmlns="http://www.w3.org/2000/svg"><path d="M41.932 13.303c.402.13.709-.354 1.098-.578 2.917-1.653 8.95-1.512 10.97 2.48.684 1.357 1.18 2.774 1.192 4.31.024 4.073 0 8.158.047 12.232.012 1.11-.377 1.5-1.452 1.464-1.18-.035-2.361-.035-3.53.083-1.311.13-1.736-.472-1.736-1.689.023-3.542-.024-7.073.012-10.615a3.2 3.2 0 0 0-4.523-3.082c-1.5.732-2.125 2.137-2.09 3.743.083 3.236.355 6.471.225 9.718-.083 2.043-.19 2.15-2.15 1.948-1.121-.106-2.255-.059-3.388-.011-.791.035-1.157-.201-1.157-1.063.047-8.679.082-17.346.059-26.024 0-1.157.508-1.382 1.428-1.122 1.217.354 2.421.319 3.614.047.932-.224 1.346.118 1.357.968.036 2.374 0 4.747 0 7.191h.024ZM76.246 14.78c4.191 4.345 3.931 11.205.578 15.22-.177.212-.272.519-.401.779-2.669 1.984-5.645 3.176-8.998 3.01-4.97-.247-9.446-3.695-10.615-8.902-1.299-5.822 2.598-11.713 8.372-12.894 3.944-.803 7.852-.06 11.052 2.786h.012Zm-8.089 3.093c-2.786 0-5.053 1.96-4.959 4.581.094 2.645 1.559 5.208 4.995 5.314 2.857.094 4.84-2.905 4.864-4.889.024-2.302-1.735-5.325-4.888-5.006h-.012ZM30.597 20.53c-1.57.271-2.987-.19-4.404-1.63-2.232-2.279-6.636-1.464-7.829 2.503-.708 2.338.697 4.582 2.362 5.727 1.488 1.016 4.357 1.016 5.443-.448 2.067-2.775 4.806-1.323 7.238-1.488 1.087-.071.532 1.157.272 1.735-1.263 2.763-3.318 4.889-6.128 5.987-6.258 2.444-12.457.07-15.173-6.057-1.736-3.92-.673-8.053 2.16-11.584 4.677-5.821 16.39-4.534 19.472 4.192.283.803-.06 1.004-.65 1.05-.826.072-1.665.024-2.786.024l.023-.011ZM159.537 17.377c-.366 4.747.154 9.493.118 14.252 0 1.204-.354 1.7-1.594 1.63-1.322-.083-2.656-.024-3.979-.036-.378 0-.897.142-1.086-.272-.531-1.169-1.157-.673-1.889-.236-3.625 2.173-8.738 1.252-11.773-1.877-2.326-2.397-3.577-5.337-3.436-8.714.248-5.668 5.314-10.674 10.45-10.367 2.232.13 4.204.484 5.904 1.96.508.436.697.177.72-.343.036-.91.638-.968 1.323-.968 1.381.012 2.751.035 4.132 0 .851-.036 1.122.342 1.11 1.145-.035 1.275 0 2.55 0 3.838v-.012Zm-11.831.496c-3.07 0-5.136 1.948-5.148 4.9 0 2.114 2.373 5.22 5.089 5.03 3.023-.212 5.077-2.125 5.077-5.242 0-2.799-2.031-4.688-5.018-4.688ZM187.781 24.674h-6.636c-.992 0-1.393.248-.744 1.31 1.453 2.398 5.019 3.272 7.109 1.512.885-.744 1.735-.968 2.798-.933 1.181.048 2.361.012 3.542 0 1.098-.023 1.122.59.732 1.323-1.877 3.483-4.959 5.372-8.737 5.88-5.668.756-10.875-3.4-11.985-8.513-1.641-7.557 3.932-13.567 10.343-13.485 4.381.06 7.664 1.807 10.025 5.326 1.252 1.877 1.618 4.12 1.771 6.352.083 1.145-.779 1.228-1.582 1.24-2.208.024-4.428 0-6.636 0v-.012Zm1.571-4.298c-.614-1.263-1.146-2.35-2.209-2.87-2.29-1.12-4.994-.33-6.6 1.76-.213.272-.461.59-.319.874.083.165.52.224.791.224 2.692.012 5.385 0 8.337 0v.012Z" fill="#48193C"/><path d="M164.52 25.194c0-2.208-.035-4.428.012-6.636.024-.886-.13-1.323-1.181-1.3-1.96.036-2.078-.153-2.09-2.1 0-.39.048-.792 0-1.182-.189-1.428.461-2.03 1.831-1.854 1.228.166 1.511-.377 1.44-1.487-.083-1.323.024-2.657-.047-3.98-.047-.956.295-1.357 1.251-1.334a80.39 80.39 0 0 0 4.133 0c.968-.035 1.311.414 1.299 1.335-.035 1.428.024 2.857-.024 4.274-.035 1.027.237 1.641 1.394 1.488 1.358-.19 1.759.496 1.594 1.724a3.164 3.164 0 0 0 0 .885c.319 1.488-.354 2.267-1.795 2.232-1.169-.024-1.216.555-1.204 1.452.035 4.275-.048 8.549.047 12.823.023 1.276-.555 1.606-1.594 1.7h-.142c-1.559-.094-3.53.65-4.569-.259-1.016-.886-.248-2.87-.331-4.369-.059-1.122-.012-2.255-.012-3.389h-.012v-.023ZM131.648 33.53c-.827-.035-1.665-.083-2.492-.095-.956-.023-1.429-.448-1.429-1.44 0-8.43 0-16.861-.011-25.292 0-.91.46-1.216 1.239-1.264.98-.059 1.96-.094 2.941-.141 2.361.059 2.373.059 2.373 2.468 0 4.073.118 8.147-.024 12.22-.118 3.66.059 7.31.024 10.97-.024 2.362-.177 2.539-2.61 2.586l-.011-.012ZM94.382 23.104v3.389c0 .224-.07.52.213.637.319.13.59 0 .78-.248 1.711-2.302 4.203-1.606 6.482-1.653 1.039-.023.814.756.59 1.382-1.027 2.975-3.176 4.912-5.963 6.104-1.322.567-2.03 1.063-2.255 2.692-.272 1.913-2.173.662-3.318.91-.65.141-1.7.2-1.547-.957.2-1.535-.732-2.03-1.854-2.527-4.227-1.912-6.506-5.349-6.99-9.8-.437-4.062 2.987-8.939 7.002-10.426 1.275-.473 2.031-1.04 1.819-2.468-.024-.142-.036-.33.035-.437 1.074-1.488 2.61-.484 3.92-.65.886-.106 1.004.58.78 1.418-.296 1.121.602 1.593 1.44 1.877 3.519 1.204 5.762 3.649 7.144 7.025.342.827.165 1.063-.662 1.04-1.275-.036-2.55-.012-3.825-.06-.91-.035-1.724-.354-2.374-1.039-.248-.26-.366-.826-.874-.566-.4.2-.578.637-.578 1.098v3.247h.012l.023.012Zm-5.006-.284h-.035v-2.928c0-.401-.095-.815-.532-.91-.366-.07-.602.249-.826.52-1.323 1.63-1.276 4.912.106 6.554.212.248.39.637.803.507.46-.141.484-.566.484-.956V22.82ZM114.396 11.91c6.814-.024 11.56 4.558 11.478 10.662-.095 6.554-4.357 10.875-11.206 11.111-6.164.213-11.312-4.864-11.465-11.347-.13-5.467 5.915-10.993 11.205-10.426h-.012Zm-4.711 10.426c-.118 2.657 1.393 5.609 4.995 5.562 2.881-.036 4.935-2.031 4.971-5.29.024-3.07-1.972-4.936-5.018-5.101-2.846-.154-5.208 2.586-4.936 4.83h-.012ZM72.561 45.132h1.606l-3.022 7.735h-1.596l-3.012-7.735h1.745l2.125 5.525 2.154-5.525ZM79.048 51.43h3.8v1.437h-5.405v-7.735h5.276v1.437h-3.67v1.68h3.24v1.392h-3.24v1.79ZM91.634 45.132h1.596v7.735h-1.327l-3.48-4.696v4.696h-1.596v-7.735h1.336l3.471 4.697v-4.697ZM99.021 52.867v-6.276h-2.234v-1.459h6.084v1.459h-2.234v6.276h-1.616ZM109.418 53c-1.985 0-3.162-1.26-3.162-3.536v-4.332h1.616v4.266c0 1.47.579 2.077 1.556 2.077.987 0 1.556-.608 1.556-2.078v-4.265h1.596v4.332c0 2.276-1.177 3.536-3.162 3.536ZM123.053 52.867h-1.735l-1.347-2.154h-1.486v2.154h-1.616v-7.735h3.022c1.865 0 3.032 1.072 3.032 2.807 0 1.16-.528 2.011-1.436 2.442l1.566 2.486Zm-1.765-4.928c0-.85-.499-1.348-1.486-1.348h-1.317v2.696h1.317c.987 0 1.486-.508 1.486-1.348ZM128.502 51.43h3.8v1.437h-5.406v-7.735h5.277v1.437h-3.671v1.68h3.242v1.392h-3.242v1.79ZM138.575 53c-1.107 0-2.224-.365-2.843-.895l.549-1.348a3.838 3.838 0 0 0 2.304.806c.957 0 1.346-.353 1.346-.828 0-1.448-4.059-.453-4.059-3.326 0-1.315.957-2.41 2.942-2.41.878 0 1.775.233 2.424.686l-.499 1.359c-.648-.409-1.317-.608-1.935-.608-.957 0-1.326.398-1.326.884 0 1.426 4.059.442 4.059 3.282 0 1.293-.968 2.398-2.962 2.398Z" fill="#48193C"/></svg>