<svg width="145" height="58" fill="none" xmlns="http://www.w3.org/2000/svg"><path d="M14.457 51.493c-.231-.13-.455-.267-.685-.397l-.995-1.189c-.065-.483-.28-.9-.526-1.311-.108-.678-.303-1.355-.303-2.04-.028-5.427-.021-10.854-.028-16.273 0-.174-.087-.39.1-.49.246-.138.36.093.52.23 1.477 1.297 2.868 2.732 4.77 3.438.62.23.765.612.765 1.232a545.17 545.17 0 0 0 0 9.088c0 .8-.354 1.845.158 2.335.505.483 1.542.13 2.342.144 1.182.015 1.298-.108 1.312-1.26.036-3.871.014-7.741.108-11.604.029-1.254.123-2.364-1.55-2.53-.187-.014-.41-.194-.626-.295-2.191-1.016-4.087-2.379-5.463-4.433-1.276-1.91-2.227-3.906-2.328-6.24-.015-.267-.036-.599-.44-.282v-1.802c.447.123.433-.187.404-.46-.036-.304.007-.578.057-.873.245-1.485.793-2.847 1.485-4.166.173-.331.375-.735-.036-.951-.822-.44-1.276-1.218-1.91-1.83V7.551c.447-.548.887-1.096 1.333-1.636 1.132-.368 2.3-.505 3.489-.505h18.868c.569 0 1.138-.022 1.7-.036.841.058 1.262.504 1.262 1.34v3.683c0 1.261 0 1.305-1.262 1.283-.792-.014-.72.245-.418.786 1.074 1.931 1.456 4.043 1.514 6.234.029 1.045-.288 2.047-.331 3.077-.419 1.233-.945 2.422-1.521 3.59-.822 1.138-1.78 2.147-2.797 3.113-1.318 1.24-2.897 2.075-4.59 2.601-.642.202-.692.39-.692.901.014 4.433.021 8.865-.015 13.29 0 .605.188.93.728.923.915-.008 1.845.144 2.753-.123.39-.194.281-.562.281-.872.015-.987.015-1.982 0-2.97-.029-2.58.087-5.152-.086-7.732.014-.916.951-1.01 1.384-1.543.266.015.432-.13.54-.353.72-.26 1.269-.764 1.81-1.283.388-.151.727-.367.936-.75.368-.381.714-.8 1.124-1.138.137-.115.318-.404.606-.187.23.18.26.447.158.648-.238.462-.144.937-.144 1.406-.014 2.335.029 4.677-.014 7.012-.05 2.926.194 5.86-.159 8.778-.158 1.29-.605 2.443-1.513 3.416-1.615 1.73-3.647 2.148-5.881 2.033-4.26-.015-8.526-.123-12.785.05-1.233-.086-2.379-.432-3.424-1.095h.014Zm17.29-33.016c-.015-4.136-2.92-6.738-7.655-6.587-3.207.108-6.04 3.049-5.996 6.854.05 3.92 3.423 6.666 7.12 6.782 2.76.086 6.905-3.193 6.523-7.049h.007ZM130.605 31.697c1.11.663 2.076 1.449 2.89 2.494.555.72.144 1.009-.295 1.203-1.096.498-2.227.908-3.251 1.557-.295.187-.411.072-.562-.159-.144-.223-.288-.46-.483-.64-.511-.484-1.297-.505-1.766-.03-.526.54-.439 1.139-.028 1.687.699.937 1.636 1.636 2.573 2.306 1.78 1.276 3.279 2.739 3.863 4.944.064.23.259.31.49.288v3.063c-.152.007-.296 0-.339.202-.613 2.587-2.559 3.77-4.908 4.173-2.256.39-4.584.375-6.58-1.11-1.016-.75-1.903-1.629-2.436-2.818-.173-.382-.202-.663.202-.785 1.203-.36 2.234-1.082 3.365-1.6.476-.217.872-.238 1.211.266.245.368.584.627 1.031.807.569.231 1.016.116 1.362-.288.382-.447.396-.98.05-1.499-.713-1.081-1.636-1.946-2.695-2.674l-1.773-1.535c-.13-.144-.252-.288-.382-.432-.526-.634-.894-1.37-1.283-2.083-.166-.425-.324-.843-.49-1.268V35.43c.166-.072.151-.23.195-.374.54-1.788 1.78-2.905 3.473-3.553 1.882-.721 3.777-.476 5.68-.087.295.08.598.166.893.245l-.007.036ZM62.002 52.554c-.152-.021-.296-.058-.447-.058-1.449-.028-1.413-.028-1.47-1.52-.08-1.816.014-3.633-.116-5.456-.065-.966.123-2.01.094-3.02-.108-3.43.072-6.86.043-10.291 0-.555.108-.743.67-.728 1.406.036 2.818.021 4.224 0 .475 0 .807.13.965.605a110.81 110.81 0 0 0 2.66 7.215c.093.223.173.446.223.677.05.252-.029.649.346.584.317-.058.18-.454.173-.692-.08-2.63.144-5.268-.159-7.9-.057-.518.26-.496.606-.49 1.83.015 3.654.023 5.484.03.188.9.202 1.809.188 2.724-.022 1.067.014 2.133.029 3.2V51.48c.064.793-.303 1.16-1.096 1.11-.483-.007-.958-.021-1.441-.029-.08-.144-.202-.15-.346-.108a5.655 5.655 0 0 0-1.636 0c-.627-.166-1.5.274-1.78-.75-.728-2.637-1.759-5.174-2.61-7.768-.086-.267-.093-.7-.569-.642-.245.706.101 1.362.101 2.04 0 2.126 0 4.252.043 6.378.015.598-.216.807-.77.807-.721 0-1.435.022-2.156.036h-1.26.007ZM81.624 31.977c1.824-.915 3.726-1.016 5.73-.699 2.782.44 4.26 2.256 5.225 4.67.108.274.166.57.382.793a.164.164 0 0 0 .036.152c-.036.367.065.778-.49.908-1.175.266-2.335.62-3.517.865-.677.144-1.304.15-1.441-.85-.123-.895-1.06-1.687-1.795-1.586-.829.115-1.506.533-1.773 1.42-.173.562-.375 1.11-.468 1.7-.332 2.155-.476 4.31.1 6.443.325 1.19 1.377 2.083 2.263 1.874 1.218-.288 2.04-.684 1.882-2.32-.044-.483-.173-.728-.685-.7-.267.015-.54-.036-.807 0-.562.072-.728-.165-.692-.713.058-.951.317-1.888.187-2.847-.086-.67.224-.8.815-.785 1.556.036 3.12.021 4.677.021 1.874 0 1.91 0 1.888 1.838-.029 2.205.18 4.418-.144 6.623-1.946 3.488-5.838 4.779-9.86 3.957-.266-.108-.532-.216-.792-.332-2.63-1.232-3.95-3.473-4.706-6.147-.375-1.297-.26-2.66-.512-3.971.015-.411.029-.822.05-1.233.174-1.722.404-3.43 1.074-5.045.101-.245.21-.49.31-.735l.67-1.08 1.312-1.442c.238-.123.447-.274.563-.534.209 0 .367-.108.518-.237v-.008ZM58.579 5.361c2.097.022 4.201.05 6.299.058 2.046 0 3.978.404 5.549 1.787 1.903 1.672 2.63 3.791 2.263 6.306-.512 3.496-2.854 5.096-5.996 5.889-.649.165-1.355-.159-1.997.187-.396-.238-.569-.18-.555.331.037 1.817.037 3.633.058 5.449.094.728-.245.959-.951.944-1.528-.029-3.056 0-4.591.022-.62.007-.634-.36-.634-.822.014-3.15.029-6.299.029-9.456 0-3.3-.022-6.601-.03-9.902 0-.238.037-.476.051-.713.173-.03.346-.05.512-.08h-.007Zm5.585 6.948c0 .57-.022 1.131 0 1.7.014.419.151.758.7.65 2.24-.44 2.313-1.889 1.686-3.583-.238-.648-1.42-1.088-2.098-.814-.612.245-.194.829-.288 1.247-.058.26-.007.533-.007.8h.007ZM52.993 31.459c.382.036.642.05.764.605.836 3.669 1.751 7.316 2.66 10.962.727 2.94 1.47 5.874 2.255 8.8.108.418.029.454-.324.598-.447.18-.887.159-1.312.108a7.007 7.007 0 0 0-1.693.015c-.599 0-1.204.014-1.802.014-.836.022-1.434-.115-1.29-1.225a2.16 2.16 0 0 0-.332-1.384 4.528 4.528 0 0 0-1.463 0c-.043-.036-.094-.036-.144 0-.252-.065-.504-.086-.764 0-.39-.1-.497.108-.49.447 0 .598 0 1.204-.007 1.802-.476.447-1.096.238-1.643.36-.36 0-.721-.007-1.081-.014H44.885c-.706-.296-1.484.31-2.184-.159.015-.295.022-.598.036-.893.267-.318.224-.721.325-1.089.245-.324.238-.699.216-1.074.281-.511.483-1.037.49-1.628.101-.411.339-.793.216-1.24.296-.505.49-1.045.505-1.643.137-.598.266-1.197.403-1.795.245-.252.317-.562.317-.9.137-.657.267-1.32.404-1.975.274-.31.353-.685.324-1.081l.39-1.795c.28-.31.346-.685.338-1.081a5.67 5.67 0 0 0 .382-1.795c.281-.31.332-.684.317-1.08.145-.462.281-.93.217-1.428.064-.064.122-.13.187-.194.072-.058.137-.123.209-.18l5.009-.044.007-.014Zm-2.313 7.834c-.663 1.117-.217 2.234-.534 3.243-.173.555-.151 1.168-.216 1.759-.065.59.303.756.778.67.433-.08.945-.195.8-.829-.346-1.55-.266-3.164-.836-4.843h.008ZM89.556 26.839c-1.456.137-2.681-.49-3.892-1.168-1.096-.612-1.622-1.715-2.242-2.717-1.008-1.628-1.376-3.438-1.42-5.326-.035-1.679-.28-3.394 0-5.023.239-1.377.721-2.79 1.47-4.043.167-.274.325-.562.484-.836.317-.353.634-.714.951-1.067.123-.122.245-.245.368-.375l.036-.036c.396-.223.8-.44 1.196-.663.137-.028.303.008.36-.18.21-.014.404-.086.599-.13 3.012-.648 5.75-.245 7.877 2.22.807.937 1.297 2.061 1.585 3.258.202.865-.057 1.131-.922 1.29a76.662 76.662 0 0 0-3.344.706c-1.196.281-1.19.296-1.578-.908-.05-.166-.109-.332-.145-.505-.144-.648-.598-1.102-1.21-1.052-.512.044-.923.368-1.225.995-.347.72-.347 1.42-.44 2.133-.224 1.665-.151 3.344-.065 5.009a5.56 5.56 0 0 0 .512 2.04c.418.9 1.254 1.513 1.73.893.432-.562.98-1.095.936-1.86-.036-.684.375-.691.793-.597 1.463.338 2.912.728 4.396.973.8.13.966.576.599 1.275-.094.18-.13.39-.21.584-1.167 2.955-3.17 4.858-6.471 5.103h-.721l-.007.007ZM104.854 31.458c.887-.115 1.038.26 1.146 1.131.152 1.218-.043 2.444.245 3.647.101.425-.079.649-.591.634-1.225-.043-2.457 0-3.69-.028-.54-.015-.792.158-.713.713v.087c-.029 1.664 0 1.693 1.657 1.707.692 0 1.384.037 2.069.008.533-.022.764.144.749.713a87.991 87.991 0 0 0 0 3.596c.008.556-.281.635-.742.628-1.016-.015-2.04.014-3.056-.015-.468-.014-.713.08-.684.627.115 2.206-.426 2.054 1.974 2.025h.361c.821.044 2.039-.338 2.385.188.483.75.209 1.917.101 2.89-.05.41-.122.814-.13 1.232 0 .831-.422 1.257-1.268 1.276-.123 0-.238.029-.353.036-.361 0-.721-.007-1.081-.015h-.361c-1.261 0-2.522 0-3.783-.007-.303 0-.599-.007-.901-.014-.72 0-1.449-.08-2.155.014-.836.116-1.023-.41-1.002-.98.238-6.292.029-12.584.094-18.875.014-1.204 0-1.204 1.175-1.204 2.854-.007 5.7-.021 8.554-.029v.015ZM55.882 10.422c-.137.375-.447.31-.75.303-1.138-.022-2.277 0-3.415-.05-.635-.03-.98.136-.887.842.036.267-.014.541 0 .808.05.627.216 1.066 1.045.9.634-.13 1.312-.072 1.975-.072 1.441-.007 1.614.152 1.42 1.536-.13.915-.195 1.808.028 2.724.13.526-.18.785-.699.785-.958 0-1.917.03-2.875-.014-.627-.022-.923.108-.901.836.043 1.665.007 1.665 1.686 1.665.836 0 1.68.021 2.516-.007.497-.022.655.13.684.648.072 1.47-.223 2.92-.202 4.382 0 .382-.216.526-.54.591-.843 0-1.68.015-2.523.022-.36.014-.72.021-1.08.036-.901-.058-1.802-.08-2.703.029-.368-.08-.735-.101-1.096.028l-2.147.044a26.017 26.017 0 0 1-.721-.05c-.476-.57.029-1.132.021-1.702-.043-5.938-.021-11.87-.028-17.808 0-1.004.511-1.509 1.535-1.514.151 0 .295-.014.447-.029 2.573.015 5.138.058 7.711.022.829-.014 1.254.202 1.146 1.088-.144.62.209 1.19.18 1.802v.54c.05.541.108 1.082.159 1.622l.014-.007ZM109.179 52.532c-.663.021-.735-.36-.735-.923.014-6.119 0-12.245 0-18.363 0-.18.007-.36 0-.54-.048-.808.331-1.212 1.138-1.212 1.413 0 2.826.036 4.231-.014.649-.022.786.195.786.807-.029 4.649-.015 9.304-.015 13.953 0 1.124-.014 1.06 1.11.959.951-.087 1.917 0 2.876.014.511 0 .576.339.526.742-.18 1.348-.397 2.688-.541 4.036-.05.476-.274.512-.648.512-.808 0-1.615.022-2.429.036-1.86.007-3.719.014-5.586.029l-.36-.022h-.36l.007-.014ZM75.147 5.355c1.542.101 3.092 0 4.634.137.418.036.397.231.397.476 0 .641-.015 1.283-.015 1.924 0 5.816-.007 11.632.03 17.441 0 .808-.224 1.024-1.017.988a53.856 53.856 0 0 0-4.317 0c-.642.021-.822-.18-.815-.815.015-4.346.008-8.691-.021-13.037-.015-2.12-.115-4.238-.173-6.364.007-.18.022-.36.029-.54.122-.058.237-.116.36-.173.303-.015.598-.022.9-.037h.008Z" fill="#48193C"/></svg>