<svg width="178" height="58" fill="none" xmlns="http://www.w3.org/2000/svg"><path d="M34.922 5.665c12.97.005 23.514 10.55 23.468 23.688-.02 5.778-1.969 10.986-5.797 15.326-4.682 5.307-10.61 8.133-17.764 8.133-6.24 0-11.62-2.222-16.14-6.482-4.295-4.048-6.707-9.107-7.252-14.936-.398-4.255.321-8.429 2.217-12.318 1.982-4.067 4.868-7.362 8.7-9.786 3.83-2.425 8.025-3.642 12.568-3.626v.001Zm-1.64 15.765c-.403-.113-.694-.424-1.073-.583a9.169 9.169 0 0 0-2.2-.62c-1.769-.265-3.488-.045-5.166.569-.509.185-.961.449-1.42.726-1.208.727-2.15 1.71-2.9 2.886-.217.34-.345.76-.564 1.071-.538.767-.813 1.642-.985 2.501-.191.96-.293 1.959-.143 2.976.386 2.613 1.209 4.97 3.344 6.713a10.086 10.086 0 0 0 3.788 1.942c1.678.456 3.375.467 5.047-.01 1.051-.3 2.072-.697 2.8-1.59.053-.066.107-.164.206-.129.095.033.078.147.106.229.167.474.32.952.411 1.448.059.32.212.482.572.452a7.493 7.493 0 0 1 1.199 0c.378.029.472-.115.47-.478-.01-2.237 0-4.474.008-6.712.003-.701.255-.971.954-1.005.4-.02.801-.026 1.2-.002.378.023.366-.21.34-.456-.025-.229.148-.56-.328-.558-2.963.008-5.926.01-8.889-.002-.48-.002-.351.311-.376.57-.028.291.05.434.385.421a27.054 27.054 0 0 1 1.822-.004c.675.02 1.02.394 1.015 1.06-.004.667.033 1.338-.022 2-.071.844-.286 1.666-.794 2.363-1 1.371-2.412 1.786-4.014 1.553-1.48-.215-2.615-1.019-3.402-2.303-.682-1.112-.913-2.367-1.068-3.621-.308-2.505-.456-5.005.37-7.47.612-1.826 1.593-3.26 3.52-3.851.97-.298 1.927-.287 2.846.198.32.17.593.415.896.604.688.426 1.202 1.02 1.654 1.661.64.908.918 1.997 1.409 2.982.118.238-.034.62.245.738.24.1.553.035.834.04.178.002.356 0 .534 0 .429 0 .636-.213.62-.638-.002-.074.003-.148 0-.222a47.876 47.876 0 0 0-.25-2.875c-.065-.596-.137-1.202-.152-1.791a25.257 25.257 0 0 1 .021-1.719c.01-.255-.066-.379-.35-.369-.518.019-1.037.006-1.555.005-.15 0-.287 0-.371.17-.188.38-.392.752-.592 1.13h-.001Zm12.681 18.572c1.274 0 2.547.003 3.821-.002.162 0 .359.066.412-.208.14-.721.01-.924-.7-.892-.848.037-1.432-.317-1.841-1.047a418.524 418.524 0 0 0-5.59-9.669c-.103-.174-.155-.304-.021-.475.269-.342.532-.692.798-1.031 1.035-1.313 2.075-2.62 3.185-3.874.782-.883 1.712-1.471 2.861-1.605.63-.073.394-.452.432-.752.05-.402-.258-.312-.475-.313-2.178-.003-4.355-.008-6.532.001-.906.003-.779-.17-.795.846-.005.264.096.383.364.373.281-.01.564-.018.844.003.628.045 1.1.67.885 1.203-.117.295-.252.59-.46.848-.497.62-1.008 1.233-1.46 1.886-.405.587-.88 1.119-1.29 1.703-.317.454-.616.846-.566 1.444.05.603.012 1.213.01 1.82 0 .165.02.315.111.466.417.693.844 1.383 1.227 2.095.887 1.65 1.874 3.24 2.8 4.866.388.683.118 1.218-.661 1.262-.355.02-.714.034-1.066 0-.432-.042-.541.118-.549.541-.009.46.168.53.57.522 1.229-.024 2.458-.009 3.688-.009l-.002-.002ZM101.297 28.86l.015-12.087c0-.119.008-.238-.001-.356-.018-.22.054-.32.297-.316a33.85 33.85 0 0 0 1.777 0c.242-.008.302.08.295.305-.014.444-.004.89-.004 1.333 0 3.496-.004 6.992.002 10.489.001.783-.143 1.525-.499 2.226-.495.975-1.33 1.517-2.371 1.629-.716.077-1.466.13-2.188-.076-1.052-.3-1.716-.996-2.08-2.014-.24-.672-.254-1.363-.253-2.063.004-3.778.01-7.556-.009-11.332-.001-.425.127-.526.52-.5.487.033.981.042 1.466-.003.421-.038.475.13.474.498-.013 3.763-.008 7.525-.007 11.288 0 .296.008.592.018.888.023.72.623 1.124 1.342 1.063.484-.042.822-.197 1.106-.561.07-.091.053-.155.008-.233.161.006.122-.09.092-.18v.003ZM112.241 19.522c.004.547.001 1.096.017 1.644.007.21-.061.286-.276.282a39.576 39.576 0 0 0-1.777 0c-.231.007-.267-.09-.264-.288.008-.578.018-1.156-.006-1.733-.027-.646-.322-1.046-.842-1.215-.531-.173-1.247.021-1.572.414a.583.583 0 0 0-.133.354c-.116 1.524-.036 3.05-.049 4.575-.015 1.645-.005 3.288.005 4.933.002.44.08.811.487 1.14.486.391.93.254 1.381.09.489-.177.697-.637.717-1.112.041-.992.011-1.985.021-2.978.003-.221-.085-.265-.288-.274-.848-.035-.848-.043-.848-.89 0-.341.02-.683-.006-1.022-.022-.287.09-.344.352-.34.918.013 1.837.014 2.755 0 .279-.005.349.09.347.357-.011 1.614.001 3.23-.009 4.844-.005.792-.138 1.575-.542 2.257-.466.784-1.168 1.304-2.092 1.456-.782.128-1.575.145-2.344-.03-.734-.167-1.28-.618-1.711-1.265-.295-.442-.423-.931-.642-1.392-.127-.267-.039-.531-.039-.795-.003-3.11-.092-6.226.039-9.332.083-1.993 1.254-3.084 3.185-3.273.883-.086 1.742.027 2.525.482 1.034.6 1.474 1.534 1.486 2.7.016.144-.133.34.125.412l-.002-.001ZM156.846 31.896c-.099-.836-.201-1.672-.296-2.51-.024-.215-.116-.302-.341-.3-.844.01-1.688.01-2.532 0-.246-.002-.31.086-.34.333-.09.76-.236 1.513-.335 2.271-.028.215-.107.271-.305.269a44.537 44.537 0 0 0-1.687.001c-.228.006-.252-.069-.241-.282.044-.857.223-1.692.361-2.534.124-.759.22-1.521.355-2.278.094-.526.128-1.057.279-1.578.14-.487.224-1.004.24-1.51.021-.736.307-1.42.331-2.154.029-.86.264-1.698.411-2.542.156-.903.226-1.82.429-2.716.047-.21.135-.262.326-.26 1.036.004 2.072.006 3.109-.003.205-.001.278.068.308.27.093.652.031 1.33.257 1.954.219.608.119 1.247.256 1.862.332 1.479.462 2.994.753 4.475.201 1.028.385 2.064.502 3.095.118 1.04.488 2.037.46 3.098-.008.275.136.556.216.831.053.186.009.278-.202.27-.738-.028-1.478.048-2.214-.042-.02-.073-.058-.06-.101-.02h.001Zm-1.963-12.905-.556 3.627c-.139.907-.255 1.818-.422 2.72-.082.445-.136.891-.198 1.337-.021.15-.029.292.208.289.665-.01 1.331-.006 1.997-.004.139 0 .258-.04.2-.197-.273-.738-.143-1.531-.324-2.28-.205-.857-.199-1.746-.393-2.601-.208-.916-.176-1.872-.512-2.892v.001ZM135.047 24.007c0-2.487.006-4.975-.007-7.462-.002-.335.061-.461.43-.446 1.404.056 2.811-.059 4.216.082.705.07 1.963.904 2.297 1.778.573 1.5.388 3.025.36 4.541-.014.744-.197 1.529-.661 2.17-.57.788-1.368 1.199-2.332 1.27-.457.033-.918.045-1.375.018-.365-.021-.477.082-.472.46.021 1.687-.006 3.376.019 5.063.007.403-.113.508-.497.483a11.764 11.764 0 0 0-1.554 0c-.37.025-.432-.118-.43-.45.012-2.502.007-5.005.007-7.507h-.001Zm2.466-2.984v1.508c0 .834.418 1.24 1.256 1.218.618-.016.949-.287 1.073-.896.149-.732.054-1.475.067-2.213.008-.47.049-.945-.062-1.414-.137-.58-.448-.86-1.042-.89-.31-.016-.622.014-.931-.01-.306-.023-.373.108-.367.388.017.769.006 1.538.007 2.308h-.001ZM80.775 24.015c0-2.503.007-5.006-.01-7.508-.001-.339.09-.422.42-.41 1.418.053 2.849-.121 4.257.102 1.312.208 2.263 1.146 2.483 2.506.218 1.34.192 2.68.09 4.02-.082 1.069-.405 2.04-1.372 2.67a3.212 3.212 0 0 1-1.66.547c-.458.017-.918.036-1.376.015-.313-.015-.396.083-.393.395.015 1.717-.005 3.435.017 5.153.005.38-.108.477-.47.456a13.104 13.104 0 0 0-1.554 0c-.348.02-.444-.084-.442-.437.016-2.503.008-5.005.008-7.508h.002Zm2.45-2.976c0 .799.006 1.596-.003 2.395-.003.217.046.33.294.32.368-.016.74.017 1.107-.015.444-.039.796-.24.885-.722.231-1.26.188-2.532.042-3.791-.078-.676-.452-.889-1.152-.898-.251-.003-.505.02-.753-.006-.325-.034-.44.069-.427.413.026.767.008 1.537.008 2.305ZM162.678 23.178c.092-.553.323-1.05.45-1.583.255-1.07.566-2.126.84-3.192.175-.682.352-1.363.565-2.035.051-.163.078-.266.272-.264.679.006 1.359.002 2.1.002l-.795 2.754c-.402 1.387-.798 2.776-1.21 4.16a147.823 147.823 0 0 1-.95 3.039c-.103.322-.176.638-.172.984.015 1.495-.006 2.992.015 4.487.005.36-.105.45-.446.432a15.764 15.764 0 0 0-1.599 0c-.322.015-.394-.103-.391-.404.014-1.48.002-2.962.009-4.443.001-.377-.046-.734-.23-1.07-.251-.458-.281-.984-.436-1.472-.425-1.333-.785-2.686-1.184-4.027-.406-1.37-.826-2.735-1.243-4.102-.068-.226-.064-.354.239-.344.606.02 1.215.028 1.821-.003.335-.017.482.104.542.416.212 1.11.596 2.175.828 3.282.24 1.146.57 2.273.976 3.383h-.001ZM122.387 21.518c-.002 2.663-.016 5.326.003 7.99.003.42-.125.545-.519.495-.374-.049-.879.166-1.095-.097-.184-.223-.06-.705-.061-1.073-.002-3.477.005-6.954-.01-10.431-.001-.36.072-.493.454-.468.53.035 1.065.015 1.597.005.209-.003.316.06.369.28.17.704.361 1.404.553 2.104.407 1.486.82 2.97 1.232 4.455.016.056.046.109.069.162.018.014.045.046.053.042.044-.023.052-.062.025-.105-.001-2.176.005-4.351-.012-6.527-.003-.332.079-.45.415-.414.278.03.564.027.842 0 .348-.035.447.084.446.438-.016 2.886-.008 5.772-.008 8.658 0 .873-.01 1.746.006 2.62.005.271-.077.363-.35.351a13.94 13.94 0 0 0-1.376.002c-.256.014-.344-.123-.382-.316-.157-.794-.439-1.552-.671-2.324-.11-.361-.159-.74-.273-1.11-.315-1.014-.563-2.049-.827-3.078-.143-.56-.264-1.125-.395-1.688.023-.068-.007-.114-.074-.094-.062.019-.066.075-.011.122ZM143.342 24.006c0-2.487.006-4.974-.007-7.46-.002-.34.07-.47.434-.448a13.86 13.86 0 0 0 1.642 0c.371-.021.469.095.468.466-.014 4.085-.009 8.17-.009 12.257 0 .118.016.24-.003.355-.067.416.072.556.517.54 1.035-.037 2.072 0 3.108-.02.319-.006.405.093.389.4-.025.488-.024.978 0 1.466.015.3-.059.404-.383.402a357.214 357.214 0 0 0-5.773 0c-.322.003-.39-.109-.388-.406.01-2.517.006-5.034.006-7.55l-.001-.002ZM127.88 23.971c0-1.865.01-3.731-.008-5.597-.003-.354.102-.449.446-.44.918.023 1.836-.01 2.754.017.746.022 1.461.2 1.956.814.323.4.582.861.599 1.393.082 2.53.088 5.061-.003 7.59a2.418 2.418 0 0 1-.79 1.675c-.406.374-.968.555-1.548.56-1.006.009-2.014-.002-3.02.022-.311.007-.396-.081-.393-.393.014-1.88.007-3.76.007-5.64Zm1.814-.015v3.417c0 .663.327.992.982.986.776-.007 1.135-.36 1.145-1.144.009-.666.003-1.33.003-1.997 0-1.508.006-3.017-.004-4.526-.006-.773-.316-1.069-1.085-1.08-.222-.004-.445.012-.665-.005-.269-.02-.389.039-.384.355.019 1.331.008 2.663.008 3.994ZM91.534 22.906c0 2.119.008 4.236-.007 6.355-.002.34.075.458.436.45 1.081-.024 2.163 0 3.244-.015.288-.004.392.076.38.373a27.34 27.34 0 0 0-.002 1.6c.004.206-.062.287-.277.287-2.03-.005-4.059-.007-6.089.002-.258 0-.248-.145-.233-.312.167-2.009.054-4.02.069-6.03.022-3.022.013-6.044-.004-9.066-.002-.379.103-.477.466-.453.502.033 1.008.033 1.51 0 .391-.024.525.072.52.498-.025 2.104-.012 4.207-.012 6.311ZM68.936 29.007c0-7.836 0-15.67.005-23.506 0-.16-.111-.419.097-.468.265-.063.558-.019.837 0 .072.005.076.114.076.19v.355c0 15.58 0 31.163-.003 46.744 0 .188.097.47-.054.544-.235.115-.535.103-.807.133-.116.012-.144-.083-.149-.176-.005-.118-.003-.237-.003-.356V29.006h.001ZM114.979 29.916c-.486.18-.988.046-1.482.076-.15.01-.183-.113-.142-.209.175-.402.119-.842.228-1.264.272-1.049.419-2.135.564-3.212.102-.764.31-1.512.366-2.275.086-1.162.48-2.27.534-3.436.023-.474.18-.942.258-1.416.031-.192.126-.238.301-.237.755.006 1.51.002 2.265.003.14 0 .26.007.277.2.116 1.37.425 2.708.642 4.061.305 1.906.575 3.816.889 5.72.101.605.191 1.21.266 1.818.027.212.014.26-.182.258-.459-.003-.918 0-1.377-.002-.116 0-.231.016-.247-.166-.055-.616-.388-1.184-.32-1.82.02-.197-.093-.184-.213-.184-.652-.002-1.303-.004-1.954 0-.381.003-.338.316-.349.543-.026.523-.013 1.048-.251 1.535l-.073.01v-.003Zm2.522-3.68c-.075-.597-.123-1.148-.218-1.691-.22-1.275-.446-2.55-.561-3.838-.012-.125-.016-.288-.131-.293-.137-.006-.127.161-.142.28a210.87 210.87 0 0 1-.334 2.514c-.128.907-.258 1.814-.406 2.719-.038.233-.004.322.25.315.501-.014 1.003-.004 1.543-.004l-.001-.001ZM152.072 39.094c0-1.14.017-2.28-.012-3.418-.011-.459.272-.351.52-.36.25-.006.479-.058.476.357a469.84 469.84 0 0 0-.005 6.394c0 .254-.046.364-.338.364-.768 0-.853-.051-1.048-.824-.21-.838-.364-1.697-.655-2.507-.182-.507-.084-1.086-.498-1.607v.959c0 1.198-.022 2.398.012 3.596.012.448-.236.382-.499.375-.246-.007-.515.1-.51-.358.023-2.131.014-4.262.005-6.394-.001-.257.052-.358.338-.362 1.068-.014 1.116.016 1.343 1.105.191.911.453 1.802.745 2.685-.021.077.009.154.083.148.088-.007.076-.087.042-.152h.001ZM137.939 37.602c-.001 1.452-.02 2.904.007 4.354.008.415-.134.472-.503.482-.407.012-.485-.12-.481-.5.019-2.058.016-4.117.002-6.177-.002-.33.059-.464.43-.454.909.023.922 0 1.211 1.022.28.99.492 2 .871 3.092.014-.253.027-.398.028-.543.002-1.066.021-2.134-.01-3.2-.013-.457.266-.352.515-.361.254-.008.473-.05.468.36a395.86 395.86 0 0 0-.003 6.354c.002.305-.071.407-.39.4-.741-.016-.764.007-.971-.907-.303-1.335-.755-2.629-1.075-3.957.017-.072-.022-.11-.084-.089-.062.02-.065.075-.015.124ZM141.354 38.853c0-1.05.012-2.1-.007-3.15-.006-.32.099-.406.403-.39.487.024.977-.01 1.464.015.9.047 1.509.671 1.519 1.572.015 1.317.014 2.634 0 3.95-.011.96-.635 1.562-1.598 1.573-.473.005-.948-.017-1.42.008-.306.016-.37-.103-.366-.382.013-1.065.005-2.13.005-3.196Zm1.073.032c0 .74-.003 1.48.004 2.219.001.117-.065.266.121.335.612.23 1.111-.109 1.113-.77.003-1.14.002-2.279.001-3.418 0-.794-.138-.913-.94-.889-.23.007-.307.072-.302.305.012.74.004 1.48.004 2.218h-.001ZM148.757 38.928c0 .695.024 1.39-.007 2.084-.036.83-.704 1.437-1.491 1.512-.852.08-1.791-.566-1.811-1.405-.035-1.493-.066-2.986.012-4.476.043-.834.668-1.329 1.507-1.33 1.223-.002 1.777.529 1.807 1.753.016.62.003 1.242.003 1.862h-.02Zm-1.089-.064h.004c0-.665.011-1.33-.004-1.995-.009-.454-.188-.587-.636-.586-.509.003-.51.38-.514.708-.016 1.27-.008 2.541-.002 3.812 0 .144.037.291.076.432.057.209.194.303.422.301.439-.004.637-.15.649-.59.02-.694.005-1.389.005-2.083ZM165.084 35.316c.589 0 .884.3.884.902 0 .412.146.802.204 1.206.169 1.178.452 2.335.523 3.532.025.419.077.858.261 1.258.023.049.03.158.018.162-.287.097-.584.03-.877.044-.216.01-.209-.157-.236-.303-.199-1.076-.199-1.07-1.289-1.012-.195.01-.299.058-.327.265-.026.186-.087.368-.137.55-.046.162.114.416-.08.479-.229.074-.499.04-.749.02-.273-.021-.164-.256-.144-.38.094-.575.165-1.161.291-1.72.313-1.381.41-2.795.717-4.173a.336.336 0 0 0 .009-.044c.081-.524.392-.786.931-.786h.001Zm-.109 1.512c-.085.288-.08.578-.112.86-.07.611-.374 1.184-.305 1.813.025.228-.208.52.004.65.184.113.486.03.734.046.229.016.315-.038.25-.297a11.336 11.336 0 0 1-.308-2.07c-.022-.332-.056-.69-.264-1.002h.001ZM159.129 35.314c1.145-.172 1.64.858 1.598 1.636-.028.497-.394.268-.626.31-.221.04-.378.019-.375-.303.008-.522-.184-.702-.594-.68-.41.022-.609.291-.549.788.084.702.595 1.132 1.068 1.57.459.427.893.86 1.023 1.505.11.547.105 1.098-.124 1.606-.214.47-.825.851-1.741.765-.478-.045-1.069-.539-1.205-1.019-.043-.155-.115-.307-.136-.466-.091-.682-.048-.705.641-.722.329-.008.411.113.384.41-.024.27-.01.544.251.713.403.264.882.02.93-.478.052-.54-.17-.978-.548-1.345a22.632 22.632 0 0 0-.776-.727c-.494-.437-.761-1.026-.89-1.63-.223-1.05.584-1.932 1.668-1.934l.001.001ZM153.879 38.861c0-1.065.008-2.13-.005-3.195-.004-.265.064-.361.344-.355.783.018 1.568.014 2.352.002.242-.004.362.053.329.317-.017.13-.015.268 0 .4.027.245-.059.341-.318.33-.443-.019-.888.005-1.331-.01-.226-.008-.313.053-.304.294.018.474.013.947.002 1.42-.004.206.056.296.275.285.266-.015.532-.004.798-.004.454 0 .706.429.5.846-.039.079-.1.102-.175.106-.089.004-.178-.004-.266.004-.363.031-.837-.164-1.062.083-.219.24-.06.707-.064 1.073-.009.986-.003.986.975.986.162 0 .328.019.487-.004.375-.053.496.063.498.469.002.435-.115.55-.541.526a25.793 25.793 0 0 0-2.129-.003c-.294.008-.375-.085-.372-.374.016-1.065.006-2.13.006-3.195l.001-.001ZM135.06 38.867c0-1.05.01-2.102-.006-3.152-.004-.298.06-.415.386-.406.661.018.661-.002.661.656 0 2.013-.014 4.025.012 6.038.005.428-.185.447-.502.424-.278-.02-.581.099-.562-.408.039-1.05.011-2.1.011-3.152ZM161.488 38.816c0-1.035.01-2.069-.006-3.104-.005-.295.058-.45.385-.4.101.016.208.015.309 0 .313-.045.397.084.395.392a489.32 489.32 0 0 0 0 6.296c.002.317-.062.48-.41.423a1 1 0 0 0-.309 0c-.297.044-.374-.084-.37-.37.015-1.08.006-2.158.006-3.237Z" fill="#48193C"/><path d="M112.241 19.522c-.259-.072-.109-.268-.125-.413.219.084.12.264.125.413ZM101.298 28.86c.028.09.067.184-.093.178-.037-.096-.082-.196.093-.179ZM152.071 39.095c.034.065.046.146-.042.152-.073.005-.103-.071-.082-.149.041-.033.081-.05.124-.003ZM156.845 31.896c.043-.04.081-.053.101.02-.046.057-.082.058-.101-.02ZM114.981 29.916l.073-.01c-.014.032-.03.09-.04.09-.049-.003-.066-.035-.033-.08ZM122.387 21.517c-.055-.046-.051-.103.011-.122.067-.02.096.026.074.095-.02.032-.038.074-.084.027h-.001ZM137.94 37.6c-.05-.048-.047-.102.015-.124.062-.02.101.017.084.09-.033.01-.066.022-.099.034ZM125.057 24.877c.028.044.02.082-.025.105-.008.004-.035-.028-.053-.042l.078-.063Z" fill="#48193C"/><path d="M33.282 21.432c.2-.378.405-.75.592-1.13.084-.17.22-.17.37-.17.52.001 1.038.014 1.556-.004.285-.01.36.114.35.369a25.854 25.854 0 0 0-.021 1.718c.015.59.086 1.195.152 1.792.105.957.203 1.913.25 2.874.003.074-.002.149 0 .223.016.425-.19.638-.62.637-.178 0-.356.003-.534 0-.28-.004-.593.061-.834-.04-.279-.117-.127-.5-.245-.737-.49-.985-.769-2.074-1.409-2.982-.452-.641-.966-1.235-1.654-1.662-.303-.188-.575-.433-.896-.603-.92-.487-1.875-.496-2.845-.199-1.927.592-2.91 2.026-3.52 3.851-.827 2.465-.68 4.966-.37 7.47.154 1.255.385 2.51 1.067 3.621.787 1.285 1.922 2.089 3.402 2.304 1.602.233 3.015-.183 4.014-1.553.509-.697.723-1.52.794-2.363.056-.663.018-1.333.022-2 .005-.666-.34-1.041-1.015-1.06a26.537 26.537 0 0 0-1.822.004c-.333.013-.412-.13-.385-.42.025-.261-.104-.574.376-.572 2.964.013 5.926.011 8.89.002.475-.002.302.33.326.559.026.245.038.478-.34.456-.397-.024-.8-.018-1.199.002-.7.033-.95.304-.953 1.005-.008 2.237-.018 4.474-.008 6.712.001.362-.093.506-.47.477a7.697 7.697 0 0 0-1.2 0c-.36.03-.513-.131-.572-.451a9.54 9.54 0 0 0-.41-1.449c-.03-.082-.012-.195-.106-.228-.1-.035-.153.062-.208.13-.726.892-1.748 1.29-2.798 1.59-1.674.477-3.37.465-5.048.009a10.1 10.1 0 0 1-3.788-1.943c-2.136-1.743-2.958-4.1-3.344-6.712-.15-1.017-.048-2.016.143-2.976.172-.859.446-1.734.985-2.501.219-.311.346-.73.564-1.071.75-1.176 1.692-2.16 2.9-2.886.459-.277.911-.54 1.42-.727 1.679-.613 3.398-.834 5.166-.568a9.13 9.13 0 0 1 2.2.62c.379.159.67.47 1.074.583h.001ZM45.96 40.004c-1.229 0-2.458-.015-3.687.009-.402.008-.579-.062-.57-.522.008-.423.117-.584.55-.542.352.035.71.02 1.065 0 .78-.043 1.049-.58.66-1.261-.925-1.627-1.912-3.217-2.799-4.866-.383-.713-.81-1.402-1.227-2.096a.855.855 0 0 1-.11-.465c.001-.607.04-1.218-.011-1.82-.05-.6.249-.991.567-1.445.41-.585.884-1.115 1.29-1.702.452-.654.962-1.266 1.46-1.887.206-.257.341-.553.46-.847.214-.534-.258-1.159-.886-1.204a7.864 7.864 0 0 0-.844-.003c-.268.01-.369-.108-.364-.372.017-1.017-.11-.842.794-.847 2.178-.009 4.355-.004 6.533 0 .218 0 .526-.09.475.313-.037.3.199.679-.432.752-1.148.133-2.08.722-2.86 1.604-1.11 1.254-2.15 2.563-3.186 3.874-.267.339-.53.69-.798 1.032-.134.17-.082.302.021.474a420.4 420.4 0 0 1 5.59 9.67c.41.728.994 1.084 1.841 1.047.71-.032.84.17.7.891-.053.275-.25.207-.412.208-1.274.006-2.547.003-3.82.003v.002Z" fill="#fff"/></svg>