<svg width="150" height="58" fill="none" xmlns="http://www.w3.org/2000/svg"><path d="M74.652 3.41c16 0 31.99 0 47.99-.01.76 0 1.18.03 1.17 1.03-.05 10.04-.04 20.07-.01 30.11 0 .95-.16 1.45-1.29 1.44-20.5-.04-40.99-.04-61.49-.04-11.37 0-22.75 0-34.12.02-1.09 0-1.42-.33-1.42-1.43.05-8.12.03-16.24.03-24.36 0-1.84.07-3.68-.04-5.5-.06-1.08.3-1.28 1.3-1.27 13.91.03 27.83.03 41.74.03h6.12l.02-.02Zm-36.19 14.23c.1.18.22.36.29.55 1.01 2.71 2.02 5.43 3.03 8.15.21.56.46 1.07 1.16 1.07.65 0 1.09-.31 1.31-.92 1.11-3.05 2.23-6.1 3.35-9.14.51.19.86-.01 1.12-.46.18 3.08.14 6.16.03 9.23-.04 1.18.63 1.24 1.43 1.31.84.07 1.59.03 1.59-1.12V13.07c0-.32.04-.79-.38-.81-1.08-.07-2.2-.22-3.23 0-.69.15-.88 1.1-1.15 1.8a191.61 191.61 0 0 0-3.52 9.83c-.48-.19-.56-.59-.68-.93-.77-2.27-1.55-4.53-2.27-6.82-1.26-3.97-1.24-3.98-4.92-4.04-.08 0-.17 0-.25-.02-.31-.04-.58.03-.77.3-.24.35.1.49.25.71.22.34.41.67.48 1.1.45 2.97.19 5.96.28 8.94.03 1.08-.1 2.16-.03 3.24.02.37.12 1.03.7 1.01.55-.02.98-.39 1-1.03.01-.54 0-1.08 0-1.62.03-2.45.05-4.91.08-7.36.32.31.72.31 1.13.28l-.03-.01Zm63.35-5.5c1.73 1.46 1.89 3.11 1.84 4.92-.09 3.08 0 6.16-.02 9.24 0 .74.17 1.13 1.04 1.07 1.7-.11 3.41.27 5.11.01 2-.31 3.98-.72 5.24-2.59 1.62-2.4 1.76-5.02 1.08-7.71-.66-2.62-2.28-4.24-5.07-4.67-2.97-.46-5.93-.07-9.22-.27Zm-11.88.15c1.6 1.48 1.62 1.48.85 3.37-1.44 3.52-2.9 7.04-4.35 10.55-.16.38-.46.89-.05 1.12.45.25 1.05.19 1.46-.33.31-.4.54-.84.64-1.33.54-2.57 1.06-3 3.63-3.04.25 0 .5.04.75 0 2.31-.36 4 .21 4.33 2.85.02.15.17.29.19.44.23 1.35 1.09 1.58 2.32 1.53 1.1-.05 1.3-.38.87-1.33-.66-1.45-1.27-2.93-1.91-4.39a900.51 900.51 0 0 0-3.99-8.95c-.17-.36-.31-.99-.93-.8-1.21.37-2.46.03-3.82.3l.01.01Zm-28.96-.55c-1.09-.28-2.11.08-3.09.52-2.25 1.01-3.32 3.81-1.6 5.94.53.65 1.22 1.21 2.01 1.59 1.35.65 2.69 1.31 4.01 2 .85.45 1.5 1.15 1.43 2.17-.07 1.05-.87 1.57-1.75 1.99-1.87.9-3.54.24-5.2-.59-.31-.15-.65-.33-.91-.1s-.22.7-.07.94c.26.4.42.84 1.09 1 2.02.49 4.03.53 6.03.15 1.78-.34 3.18-1.32 3.52-3.21.36-1.97-.32-3.53-2.15-4.58-.78-.45-1.56-.9-2.36-1.33-.9-.48-1.95-.75-2.65-1.52-.56-.61-1.36-1.26-.94-2.25.43-1.02 1.28-1.64 2.43-1.52 1.3.14 2.64.1 3.84.77.39.22.9.53 1.08-.2.14-.58.15-1.21-.69-1.31-1.34-.16-2.62-.75-4.03-.46Zm13.5 6.85c-1.16.69-2.25 1.35-2.98 2.49-.76 1.19-1.03 3.34-.39 4.32 1.83 2.79 6.42 3.08 8.52.47.68-.84 1.19-.76 1.85-.08.46.48.96.91 1.41 1.4.39.41.96.38 1.24.15.39-.35-.07-.74-.35-1-.58-.52-1.18-1.02-1.81-1.47-.71-.51-.98-1.05-.48-1.88.34-.56.56-1.19.88-1.77.25-.47.28-.9-.2-1.19-.46-.28-.76.12-1.05.4-.37.36-.5.84-.64 1.32-.23.78-.64.94-1.22.27-.35-.41-.7-.82-1.06-1.23-.55-.61-1.54-1.21-1.55-1.83-.01-.71 1.22-.86 1.87-1.3 1.49-.99 2.1-3.26 1.04-4.33-1.19-1.2-2.62-1.98-4.44-1.61-1.41.29-2.82 1.94-2.87 3.35-.06 1.66 1.07 2.56 2.23 3.52Z" fill="#48193C"/><path d="M37.342 17.35c-.03 2.45-.06 4.91-.08 7.36v1.62c-.02.64-.45 1.01-1 1.03-.58.02-.68-.63-.7-1.01-.07-1.07.06-2.16.03-3.24-.09-2.98.18-5.97-.28-8.94-.07-.43-.26-.76-.48-1.1-.14-.22-.49-.36-.25-.71.19-.27.46-.33.77-.3.08 0 .17.02.25.02 3.68.06 3.66.07 4.92 4.04.72 2.28 1.5 4.55 2.27 6.82.12.34.2.74.68.93 1.08-3.31 2.26-6.58 3.52-9.83.27-.7.47-1.65 1.15-1.8 1.03-.23 2.15-.08 3.23 0 .42.03.38.49.38.81v13.24c0 1.15-.74 1.2-1.59 1.12-.81-.07-1.47-.13-1.43-1.31.11-3.08.15-6.16-.03-9.23-.05-.64.26-1.33-.25-2.11-.33.96-.6 1.77-.87 2.57-1.12 3.05-2.23 6.09-3.35 9.14-.22.61-.66.93-1.31.92-.7 0-.95-.51-1.16-1.07-1-2.72-2.01-5.43-3.03-8.15-.07-.19-.19-.36-.29-.55-.44-.73-.34-1.72-1.13-2.44v2.15l.03.02ZM101.823 12.13c3.3.2 6.26-.19 9.22.27 2.79.43 4.4 2.05 5.07 4.67.68 2.69.53 5.31-1.08 7.71-1.26 1.87-3.24 2.28-5.24 2.59-1.69.26-3.41-.13-5.11-.01-.87.06-1.04-.33-1.04-1.07.01-3.08-.07-6.16.02-9.24.06-1.81-.11-3.46-1.84-4.92Zm4.43 7.47c0 1.75.05 3.5-.02 5.25-.04.91.29 1.18 1.14 1.08.94-.11 1.94 0 2.82-.3 1.22-.41 2.21-1.06 2.68-2.55.69-2.19.25-4.3.12-6.43-.09-1.42-.96-2.56-2.42-2.94-.9-.23-1.87-.19-2.81-.32-1.16-.16-1.63.21-1.54 1.47.12 1.57.03 3.16.03 4.74ZM89.942 12.27c1.36-.27 2.61.08 3.82-.3.62-.19.76.44.93.8 1.35 2.97 2.67 5.96 3.99 8.95.64 1.46 1.25 2.93 1.91 4.39.43.95.23 1.28-.87 1.33-1.23.05-2.09-.18-2.32-1.53-.03-.15-.17-.29-.19-.44-.33-2.64-2.02-3.21-4.33-2.85-.24.04-.5 0-.75 0-2.58.03-3.1.47-3.63 3.04-.1.5-.33.93-.64 1.33-.4.52-1 .58-1.46.33-.41-.23-.11-.74.05-1.12 1.45-3.52 2.91-7.03 4.35-10.55.77-1.89.76-1.89-.85-3.37l-.01-.01Zm2.94 9.14c.7 0 1.41-.01 2.11 0 .47.01.62-.21.44-.61-.74-1.69-1.48-3.38-2.25-5.05-.11-.24-.32-.55-.65-.47-.27.06-.24.39-.32.62-.4 1.11-.76 2.24-1.26 3.3-1.19 2.53-1.04 2.21 1.42 2.2h.5l.01.01ZM60.983 11.72c1.41-.28 2.69.3 4.03.46.84.1.83.73.69 1.31-.18.73-.69.42-1.08.2-1.2-.67-2.54-.63-3.84-.77-1.15-.12-2 .49-2.43 1.52-.42.99.38 1.64.94 2.25.7.77 1.75 1.04 2.65 1.52.8.43 1.58.88 2.36 1.33 1.83 1.05 2.51 2.61 2.15 4.58-.35 1.89-1.74 2.88-3.52 3.21-2 .38-4.01.34-6.03-.15-.67-.16-.83-.6-1.09-1-.15-.24-.19-.7.07-.94.27-.23.6-.05.91.1 1.66.82 3.34 1.48 5.2.59.88-.42 1.69-.94 1.75-1.99.07-1.02-.57-1.72-1.43-2.17-1.32-.7-2.66-1.35-4.01-2-.8-.38-1.48-.94-2.01-1.59-1.73-2.13-.65-4.93 1.6-5.94.98-.44 2-.8 3.09-.52ZM74.483 18.57c-1.16-.96-2.28-1.86-2.23-3.52.05-1.41 1.46-3.06 2.87-3.35 1.82-.37 3.25.41 4.44 1.61 1.06 1.06.44 3.34-1.04 4.33-.66.44-1.89.59-1.87 1.3.01.62 1 1.22 1.55 1.83.36.4.71.82 1.06 1.23.57.67.99.51 1.22-.27.14-.48.28-.96.64-1.32.29-.28.59-.68 1.05-.4.48.29.45.72.2 1.19-.31.58-.54 1.21-.88 1.77-.5.82-.23 1.37.48 1.88.63.45 1.24.95 1.81 1.47.28.25.75.65.35 1-.27.24-.85.27-1.24-.15-.45-.48-.95-.92-1.41-1.4-.66-.68-1.17-.76-1.85.08-2.1 2.61-6.69 2.32-8.52-.47-.64-.98-.37-3.12.39-4.32.73-1.14 1.82-1.79 2.98-2.49Zm1 7.81c1.8.45 2.66-.8 3.6-1.92.3-.35.21-.67-.08-.99-.81-.89-1.6-1.78-2.4-2.68-1.35-1.52-1.47-1.53-2.92-.14-.21.2-.36.46-.57.66-1.16 1.12-1.11 2.51-.51 3.76.52 1.08 1.59 1.65 2.88 1.31Zm3.03-11.41c0-1.35-.74-2.07-2.14-2.07-1.47 0-2.65.93-2.62 2.07.03.94 1.36 2.96 1.95 2.95 1.07-.02 2.82-1.85 2.82-2.95h-.01Z" fill="#FAF8F7"/><path d="M37.342 17.35V15.2c.79.71.69 1.7 1.13 2.44-.41.03-.81.03-1.13-.28v-.01ZM47.592 17.33c.27-.8.54-1.6.87-2.57.51.78.2 1.47.25 2.11-.25.44-.6.64-1.12.46ZM106.253 19.6c0-1.58.09-3.17-.03-4.74-.1-1.26.37-1.63 1.54-1.47.93.13 1.91.09 2.81.32 1.46.38 2.33 1.52 2.42 2.94.13 2.13.57 4.25-.12 6.43-.47 1.49-1.46 2.14-2.68 2.55-.87.3-1.88.19-2.82.3-.85.1-1.18-.17-1.14-1.08.07-1.75.02-3.5.02-5.25ZM92.882 21.42h-.5c-2.46 0-2.61.33-1.42-2.2.5-1.06.86-2.19 1.26-3.3.08-.23.05-.56.32-.62.33-.08.53.23.65.47.77 1.68 1.52 3.36 2.25 5.05.17.4.02.62-.44.61-.7-.02-1.41 0-2.11 0l-.01-.01ZM75.483 26.38c-1.29.34-2.36-.23-2.88-1.31-.6-1.25-.65-2.64.51-3.76.21-.2.36-.46.57-.66 1.45-1.39 1.57-1.38 2.92.14.8.9 1.59 1.79 2.4 2.68.29.32.38.63.08.99-.94 1.12-1.8 2.36-3.6 1.92ZM78.513 14.97c0 1.1-1.75 2.93-2.82 2.95-.58.01-1.92-2.01-1.95-2.95-.03-1.14 1.15-2.07 2.62-2.07 1.4 0 2.14.71 2.14 2.07h.01ZM22.816 44.15c0 3.218-.008 6.37 0 9.524 0 .881-.614.687-1.123.703-.558.016-1.116.073-1.043-.784.186-2.102.259-4.204.202-6.306-.008-.315.105-.655-.162-1.059a11.208 11.208 0 0 0-1.22 2.919c-.397 1.528-.922 3.007-1.367 4.519-.299 1.018-.986.63-1.592.703-.655.08-.8-.404-.898-.84-.51-2.297-1.366-4.488-2.013-6.743-.048-.178.033-.469-.267-.445-.258.016-.38.235-.371.502.072 1.406-.098 2.805.105 4.211.137.922.145 1.884.056 2.814-.089.905-.889.396-1.374.51-.485.112-.598-.138-.615-.607-.016-.873.26-1.738.194-2.571-.161-2.102-.113-4.204-.218-6.306-.024-.558.105-.606.518-.606.436 0 .889.056 1.31-.016 1.188-.21 1.721.242 1.988 1.447.485 2.15 1.172 4.26 1.803 6.467.8-1.285 1.018-2.74 1.48-4.099.363-1.067.816-2.118.848-3.282.016-.51.437-.51.817-.525.897-.04 1.81.097 2.926-.122l.016-.008ZM92.818 51.836c.55-.8.486-1.503.372-2.142-.275-1.56-.113-3.12-.194-4.68-.04-.777.534-.842 1.043-.93.606-.098.922.226.986.84.316 2.943.154 5.902.186 8.853 0 .509-.266.8-.873.816-1.204.04-2.005-.428-2.53-1.528-.84-1.754-1.746-3.476-2.652-5.198-.105-.194-.089-.623-.453-.517-.34.096-.153.46-.153.703.032 1.746.048 3.492.162 5.23.064.995-.486 1.068-1.221 1.124-.825.065-.906-.331-.89-1.026.073-2.353.081-4.706.114-7.058 0-.202-.008-.404 0-.607.016-.468-.59-1.067.13-1.382.929-.412 2.36.024 2.724.695 1.164 2.183 2.28 4.398 3.25 6.815v-.008ZM36.843 44.07c.687-.024 1.398.065 2.02.51 1.205.848 1.294 2.966-.533 4.082-.663.404-.517.582-.089.986.34.316.614.695.897 1.067.486.655.76.243.954-.21.186-.428.251-.913.397-1.358.21-.647.768-.428 1.196-.404.38.024.598.614.534.687-.502.51-.26 1.31-.736 1.795-.8.808-.865 1.487.242 2.102.283.153.728.428.55.849-.178.412-.647.137-.986.185-.259.033-.614.065-.776-.08-.85-.736-1.552-.566-2.498-.033-1.738.962-4.471-.145-4.891-2.061-.267-1.197.097-2.337 1.317-2.951.599-.3.68-.477.283-1.067-.299-.445-.889-.647-.93-1.342-.08-1.544.81-2.822 3.065-2.749l-.017-.008Zm-.219 9.103c.42.057.792-.121 1.148-.267.526-.218.914-.396.316-1.091-.558-.647-1.294-1.148-1.682-1.94-.105-.21-.332-.178-.526-.09-.452.203-1.236 1.666-1.05 2.11.315.785.945 1.221 1.794 1.278Zm.21-7.688c-.663-.04-1.285.065-1.188.905.065.582.105 1.39.857 1.488.792.105 1.584-.8 1.568-1.56-.016-.882-.638-.833-1.237-.833ZM57.563 54.36h-.704c-2.231 0-1.9.138-1.81-1.899.112-2.474.258-4.94-.025-7.405-.04-.332-.154-.744.445-.809 2.174-.25 4.3-.121 6.297.873 1.94.97 2.329 3.695 2.054 5.174-.574 3.105-2.53 3.954-5.247 4.059-.331.016-.671 0-1.01 0v.008Zm-.526-2.877c0 1.48.259 1.69 1.415 1.382.121-.032.242-.089.372-.105 2.45-.25 3.242-2.247 3.023-4.066-.267-2.304-2.053-3.08-4.163-3.024-.47.016-.445.275-.453.59-.032 1.835.154 3.67-.202 5.215l.008.008ZM115.252 49.243v-4.438c0-.267-.064-.566.372-.534 1.722.13 3.46-.267 5.174.356.97.355 1.358 1.043 1.488 1.892.137.889-.138 1.721-1.003 2.182-.679.364-.881.639-.347 1.431.735 1.1 1.204 2.393 1.77 3.606.186.404.041.647-.412.76-.752.194-1.682-.21-1.997-.93-.428-.97-.55-2.053-1.213-2.934-.388-.526-.873-.59-1.406-.494-.663.122-.388.68-.396 1.068-.009.808 0 1.616.056 2.417.065.784-.42.816-.954.735-.461-.072-1.212.38-1.164-.687.065-1.48.016-2.959.016-4.438h.016v.008Zm2.773-.728c1.536 0 2.272-.452 2.272-1.301 0-1.003-.639-1.52-1.876-1.52-1.277 0-1.277.08-1.39 1.932-.065 1.027.485.954.994.897v-.008ZM105.276 44.311c.428-.34.954-.267 1.431-.25.509.016.493.444.485.84a688.376 688.376 0 0 0-.04 5.748c0 1.35.727 2.183 1.778 2.329 1.302.178 2.571-1.003 2.611-2.167.081-1.908.211-3.824-.105-5.732-.072-.436.13-.986.809-1.002.622-.016 1.35-.065 1.342.792-.025 2.401.25 4.818-.186 7.203-.243 1.302-1.463 2.264-2.854 2.304-.639.017-1.285-.04-1.916.017-2.191.218-3.379-1.553-3.468-3.428-.105-2.175 0-4.366.024-6.54l.081-.025.016-.089h-.008ZM44.61 54.351c-.662.08-.824-.04-.525-.752 1.092-2.635 2.2-5.27 3.12-7.98.17-.484.47-.937.769-1.357.25-.364 2.207.113 2.377.557 1.123 2.96 2.28 5.902 3.581 8.788.097.202.364.502.057.744-.219.17-.461.356-.8.13-.17-.114-.445-.098-.68-.098-.558-.016-.913-.129-.946-.832-.048-.954-.436-1.585-1.617-1.423-.735.097-1.503.105-2.271-.13-.615-.185-.906.316-1.156.841-.38.809-.76 1.674-1.908 1.52v-.008Zm4.617-8.456-.259.048c-.34.817-.784 1.6-.986 2.45-.162.703-1.075 1.52-.46 2.02.484.397 1.535.098 2.335.09.114 0 .235-.073.348-.121.154-.065.356-.033.243-.364-.461-1.35-1.092-2.652-1.221-4.115v-.008ZM84.831 44.254c.146.97-.256 1.447-1.204 1.43h-1.213c-1.714 0-1.487-.185-1.552 1.594-.024.776.162 1.131 1.003 1.05.703-.064 1.414-.024 2.118 0 .323.009.76-.177.751.477 0 .55-.032 1.043-.703 1.076-.808.048-1.617.056-2.417 0-.59-.04-.784.153-.744.727.049.704-.21 1.577.13 2.062.218.315 1.244.08 1.915.089.405 0 .825.072 1.205-.008.897-.202.897.566.946.994.064.518-.453.623-.922.614H79.4c-.574 0-.704-.12-.639-.832.186-2.054.162-4.131.186-6.2.008-.874-.057-1.74-.089-2.612-.016-.332 0-.582.46-.574 1.812.04 3.623.056 5.434.08l.024.057.048-.024h.008ZM126.983 54.37c-.776 0-1.544-.009-2.32 0-.55.007-.785-.17-.696-.785.186-1.35.194-2.708 0-4.075-.089-.606-.145-1.253.097-1.883.283-.752-.064-1.504-.137-2.248-.081-.849.186-1.229 1.108-1.196 1.374.048 2.756-.016 4.139-.033.533 0 1.059.04 1.018.776-.032.64-.412.8-1.01.768-.768-.048-1.552.025-2.32-.024-.728-.048-.979.259-.906.946.024.267 0 .542 0 .809-.008.654.259.954.962.897.704-.057 1.415 0 2.118-.016.421 0 .744.105.776.582.025.445.017.84-.59.954-.768.145-1.536.04-2.304.056-.493.008-.833.057-.76.696.073.703-.622 1.592-.016 2.053.453.34 1.358.097 2.062.105.371 0 .743.024 1.107 0 .558-.048.881.09.906.744.024.68-.324.865-.898.873h-2.336ZM73.295 52.37c.792-2.538 1.56-5.012 2.344-7.485.21-.68 1.294-1.132 1.844-.785.323.203.234.55.145.817-.574 1.681-1.188 3.355-1.762 5.036-.42 1.23-.85 2.45-1.213 3.695-.154.517-.356.8-.938.728a3.785 3.785 0 0 0-1.002 0c-.695.105-.93-.275-1.092-.857a73.532 73.532 0 0 0-2.918-8.222c-.154-.356-.235-.736.008-1.027.315-.38.833-.267 1.22-.186.373.081.745.218.89.776.542 2.11 1.172 4.188 1.81 6.274.13.42.308.865.68 1.229l-.016.008ZM26.729 54.578c-.372 0-.744-.025-1.108 0-.5.048-.8-.162-1.018-.607-.17-.363-.21-.848-.04-1.05.274-.348.832-.243 1.212-.097.63.242 1.277.17 1.884.096.622-.072 1.156-.444 1.293-1.164.137-.727-.283-.978-.881-1.277-.938-.469-2.005-.663-2.773-1.496-.768-.824-1.197-1.633-.808-2.797.42-1.27 1.325-1.924 2.546-2.078.84-.105 1.714-.056 2.587.065.978.138.817.728.687 1.253-.17.704-.727.502-1.212.324-1.23-.461-1.876-.291-2.507.622-.46.663-.29 1.188.38 1.536.76.388 1.56.695 2.32 1.075 1.359.688 1.957 1.884 1.658 3.194-.275 1.22-1.609 2.312-2.91 2.385-.437.024-.874 0-1.31 0v.016ZM134.105 54.392c-.728-.113-1.512.259-2.183-.388-.348-.34-.428-.736-.275-1.083.154-.348.655-.235.906-.138.727.291 1.455.178 2.182.162.655-.016 1.213-.235 1.359-1.051.129-.744-.154-1.14-.793-1.407-.727-.307-1.447-.647-2.174-.954-1.043-.444-1.545-1.318-1.52-2.651.024-1.205.63-1.933 1.665-2.426 1.059-.501 2.142-.38 3.218-.347.566.016 1.067.21.994 1.018-.065.695-.339.873-.97.712-.679-.17-1.358-.493-2.062-.146-.493.243-.84.59-.857 1.22-.024.632.203.98.777 1.214.848.34 1.705.687 2.49 1.14 1.099.638 1.552 2.012 1.18 3.209-.34 1.083-1.423 1.884-2.628 1.916-.436.016-.873 0-1.317 0h.008ZM98.978 45.685c-.703 0-1.415 0-2.118.024-.517.016-.857-.032-.849-.735.008-.712.3-.841.906-.833 2.085.016 4.171.008 6.257-.008.542 0 .938.137.946.752.008.63-.348.816-.954.824-2.046.033-2.046.049-2.046 2.135 0 1.916.025 3.832.025 5.748 0 .282.113.695-.283.751-.59.09-1.23.17-1.779-.08-.396-.178-.08-.542-.032-.857.113-.793.13-1.61.121-2.41-.016-1.762.032-3.532-.153-5.287l-.04-.008v-.016Z" fill="#48193C"/><path d="m84.83 44.256-.048.032-.024-.056.048-.04.024.064ZM105.277 44.311l-.016.089-.081.024c-.048-.105 0-.13.097-.105v-.008ZM98.98 45.685l.04.009-.024.032-.016-.04Z" fill="#48193C"/><path d="M36.624 53.17c-.857-.056-1.48-.492-1.795-1.276-.178-.445.606-1.9 1.051-2.11.194-.09.42-.122.526.089.388.792 1.123 1.293 1.681 1.94.606.695.21.881-.315 1.091-.356.146-.728.323-1.148.267ZM36.834 45.484c.598 0 1.228-.049 1.236.832.009.768-.776 1.666-1.568 1.56-.752-.096-.792-.913-.857-1.487-.097-.84.534-.946 1.189-.905ZM57.037 51.481c.348-1.544.162-3.379.202-5.214 0-.315-.016-.582.453-.59 2.11-.057 3.896.72 4.163 3.023.21 1.82-.574 3.816-3.023 4.067-.13.016-.251.072-.372.105-1.156.307-1.415.097-1.415-1.383l-.008-.008ZM118.025 48.516c-.509.056-1.059.137-.994-.898.113-1.851.105-1.94 1.39-1.932 1.245 0 1.876.517 1.876 1.52 0 .857-.736 1.31-2.272 1.301v.009ZM49.228 45.905c.13 1.463.752 2.764 1.22 4.114.114.332-.088.3-.242.364-.113.049-.234.122-.348.122-.8 0-1.85.307-2.336-.09-.614-.5.3-1.317.46-2.02.203-.85.648-1.634.987-2.45l.259-.048v.008Z" fill="#FAF8F7"/></svg>