<svg width="139" height="58" fill="none" xmlns="http://www.w3.org/2000/svg"><g clip-path="url(#a)" fill="#48193C"><path d="M38.223 5c0 3.897-.025 7.79.024 11.688.008.615-.352 1.12-.607 1.374-.623.616-1.16 1.342-1.97 1.822-.762.451-1.554.603-2.35.632-2.03.078-4.066.037-6.1 0-.5-.009-.653.135-.632.623.033.78-.058 1.563.016 2.335.107 1.144-.344 2.219-.336 3.351 0 .378-.451.76-.698 1.14-.037.058-.119.1-.13.16-.304 1.31-1.429 1.896-2.323 2.696-1.19 1.063-2.597 1.305-4.119 1.198-1.026-.07-2.092.21-3.06-.316-.977-.529-2.04-.902-2.766-1.87-.377-.505-.861-.985-1.193-1.51-.238-.373-.452-.899-.447-1.428 0-.246.02-.66-.444-.312v-4.225c.48.266.41-.144.452-.382.135-.82.537-1.501 1.046-2.141.574-.723 1.206-1.338 2.022-1.822.866-.517 1.74-1.05 2.724-1.058A906.17 906.17 0 0 1 33 16.946c.624.005 1.247-.303 1.366-.62.205-.549.603-1.045.546-1.75-.115-1.425-.033-2.865-.033-4.296 0-.353-.029-.698-.131-1.042-.131-.435-.34-.644-.85-.636-2.059.033-4.118.012-6.178.02-.75 0-1.1.374-1.1 1.145 0 1.633-.02 3.27 0 4.902.005.44-.09.632-.578.608a25.14 25.14 0 0 0-2.486 0c-.492.024-.578-.169-.57-.612.024-1.358-.029-2.715.016-4.073.033-1.038-.221-2.101.435-3.094.603-.91 1.17-1.793 2.322-2.047.25-.057.534-.07.41-.455h12.062L38.223 5ZM20.069 20.532v.012h-2.256c-.173 0-.386-.032-.513.054-.53.36-1.063.734-1.543 1.16-.541.477-.915 1.17-1.005 1.814-.168 1.198-.242 2.462.85 3.413.791.694 1.476 1.522 2.682 1.432.5-.037 1.005-.05 1.506-.012.677.05 1.05-.451 1.547-.747.512-.3.615-.824.898-1.255a4.776 4.776 0 0 0 .706-1.818c.184-1.152.04-2.355.061-3.532.008-.402-.147-.53-.52-.525-.805.012-1.605 0-2.409 0l-.004.004ZM99.888 53c-.287-1.974-.078-3.96-.102-5.937 0-.328.189-.599.574-.537.369.057.907-.259 1.034.418.115.6.628.96.878 1.498.287.62.841 1.1 1.079 1.764.053.152-.021.394.246.365.246-.025.201-.254.201-.418.008-1.006.021-2.01.004-3.016-.008-.41.037-.656.554-.632.443.025.673.087.665.62-.029 1.957-.009 3.918-.009 5.875h-1.206c-.098-.423-.603-.591-.685-.964-.246-1.096-1.239-1.703-1.665-2.675-.054-.12-.041-.484-.353-.353-.23.094-.14.353-.144.541-.016 1.15-.016 2.302-.02 3.45h-1.055.004ZM111.95 53c0-1.859.049-3.721-.021-5.58-.028-.804.234-1 .96-.91.825.102 1.691-.185 2.487.295.43.258.832.48.8 1.075-.025.426 0 .853-.009 1.28 0 .168-.008.32-.18.46-.845.689-.882.885-.189 1.66.447.501.739 1.03.677 1.716h-1.206c-.542-.952-.607-2.22-1.867-2.745-.189.92-.074 1.834-.09 2.745h-1.358l-.004.004Zm1.358-4.53c-.004.477-.185.956.591.928.726-.029.873-.423.947-1.014.086-.701-.353-.644-.824-.693-.69-.066-.825.254-.71.78h-.004ZM88.73 53c-.14-.173-.124-.378-.124-.579 0-1.735.013-3.47-.02-5.206-.008-.537.2-.743.701-.697.968.086 1.957-.197 2.913.266.279.136.365.206.472.497.172.484.578.878.422 1.464-.061.234-.061.427-.303.624-.525.43-.566.907-.291 1.645.27.73.947 1.202 1.05 1.986h-1.206c-.037-.14.016-.32-.148-.402-.652-.337-.833-1.005-1.022-1.613-.14-.439-.541-.475-.763-.755-.295.267-.718.398-.648.96.074.595.016 1.207.016 1.81h-1.054.004Zm1.751-3.627c.669.008 1.313-.332 1.411-.714.177-.677-.242-.923-1.333-.976-.82-.041-.767.41-.796.972-.033.624.205.825.714.714l.004.004ZM106.219 53c0-1.933.024-3.869 0-5.801-.009-.534.164-.706.681-.694 1.103.025 2.207.037 3.31 0 .534-.016.534.259.542.648.008.415-.115.579-.55.563-.751-.033-1.506.024-2.256-.017-.562-.033-.505.304-.521.669-.017.381.041.623.513.603.676-.033 1.357.02 2.03-.02.542-.033.456.328.472.635.021.316.021.587-.451.558-.677-.04-1.354 0-2.031-.02-.382-.013-.521.102-.537.504-.05 1.186-.066 1.182 1.132 1.178.451 0 .907.04 1.354-.012.66-.074.943.155.837.828-.021.123 0 .25.004.378h-4.529ZM82.095 53c.165-1.05.444-2.043 1.096-2.934.258-.352.385-.89.492-1.3.127-.496.43-.96.427-1.522 0-.44.373-.71.849-.722.517-.012.64.283.788.755.176.562.303 1.19.71 1.661.114.131.114.255.155.39.296.931.534 1.883 1.071 2.716.193.3.103.636.135.956h-1.206c-.016-.304 0-.542-.246-.853-.53-.661-1.153-.3-1.719-.35-.804-.065-1.198.337-1.35 1.203h-1.206.004Zm2.655-2.417c.716.014.968-.272.755-.857a2.168 2.168 0 0 1-.09-.357c-.03-.185.057-.435-.26-.447-.27-.008-.487.082-.602.353-.14.328.106.824-.447.988-.078.02 0 .242.147.267.222.041.448.05.493.057l.004-.004ZM118.128 53c.041-.173.091-.378-.135-.44-.784-.2-.574-.853-.64-1.374-.029-.23.119-.303.324-.295.345.012.73-.07.866.394.061.217-.025.52.377.513.546-.017 1.137.176 1.608-.144a.536.536 0 0 0 0-.853c-.291-.226-.66-.57-.902-.603-.529-.074-.796-.55-1.342-.603-.586-.058-.976-1.276-.664-1.859.16-.295-.177-.697.361-.935.849-.378 1.71-.353 2.556-.226.328.05.599.537.869.845.074.082.033.234-.127.287-.303.107-.591.521-.919.259-.722-.579-1.235-.308-1.719.25.587.853 1.563 1.001 2.38 1.432.906.476.964 1.346.582 2.24-.201.468-.861.53-.763 1.112h-2.712ZM78.026 53c0-1.957.016-3.91-.009-5.867-.004-.492.14-.685.632-.62.87.111 1.768-.209 2.618.284.488.283.886.541.828 1.177-.057.653.222 1.37-.508 1.875-.271.185-.513.312-.813.279-.467-.053-.849.131-1.255.32-.263.123-.304.283-.295.525.012.677.008 1.354.012 2.03H78.03L78.026 53Zm1.194-4.423c-.009.41-.156.866.57.817.738-.05 1.066-.312 1.111-.99.033-.483-.053-.721-.623-.713-1.046.02-1.046-.012-1.063.886h.004ZM95.966 53v-4.218c0-1.075-.008-1.075-1.042-1.075-.074 0-.152-.008-.225 0-.48.07-.71-.04-.706-.62 0-.561.258-.582.685-.578 1.227.017 2.457.025 3.684-.004.423-.008.792.197.755.513-.029.263-.205.706-.747.706-1.206 0-1.206.033-1.202 1.214 0 1.354.004 2.708.009 4.058H95.97l-.004.004ZM104.011 36.536c-.853 1.317-1.522 2.65-2.486 3.783-.193.225-.131.484-.299.722-.624.886-1.46 1.046-2.45.952-.648-.062-1.304-.013-1.957-.017-.205 0-.529-.176-.352-.27.594-.325.234-1.313 1.054-1.412-.078-.857.96-1 1.108-1.752.073-.373.439-.677.636-1.005.41-.685 1.132-1.16 1.284-2.026.033-.185.361-.37.533-.587.394-.496.427-.858.053-1.337-.476-.612-.906-1.26-1.345-1.9-.755-1.1-1.428-2.265-2.285-3.274-.361-.43-.329-1.132-1.03-1.358-.275-.09.016-.742.402-.742 1.03-.005 2.06.012 3.09.012.487 0 .791.34.934.697.238.6.94.973.829 1.732 0 .02.021.049.041.061.895.509 1.198 1.428 1.608 2.281.119.246.386.534.632.583.365.074.242-.406.415-.6.176-.2.365-.459.463-.647.406-.755 1.169-1.31 1.313-2.187.057-.345.439-.213.439-.394 0-.435.55-.5.554-.989 0-.217.426-.586.948-.574 2.256.05 4.516.029 6.773.025.443 0 .64.053.853.603.316.812.415 1.698.771 2.437.423.865.841 1.764 1.022 2.654.131.656.488 1.214.652 1.834.115.435.152 1.149.71 1.505.226.144.078.472.103.714.032.287.201.488.455.53.365.061.201-.37.32-.448.599-.39.197-1.235.812-1.645.271-.18.009-.689.205-1.058.288-.542.32-1.235.657-1.727.607-.882.435-2.006 1.071-2.897.229-.32.434-.861.529-1.329.184-.923.443-1.173 1.411-1.17.73 0 1.457.03 2.187-.003.66-.03.562.68.463.718-.64.254-.459.878-.549 1.271-.14.595-.788.98-.628 1.662-.763.144-.119 1.132-.796 1.33-.02.003-.045.032-.045.052-.144 1.207-.698 2.257-1.26 3.303-.307.57-.209 1.247-.652 1.834-.23.303-.316.997-.591 1.358-.611.792-.361 1.887-1.091 2.634-.226.23-.304.73-.451 1.1-.181.45-.398.405-.706.41h-1.132c-1.416 0-1.53.02-1.764-1.293-.103-.562-.386-1.202-.612-1.386-.611-.505-.246-1.207-.635-1.74-.374-.509-.62-1.186-.833-1.797-.271-.775-.685-1.497-.878-2.306a4.047 4.047 0 0 0-.747-1.559c-.303-.381-.148-.865-.39-1.308-.582-1.067-.976-2.232-1.44-3.364-.094-.23-.176-.144-.361-.099-.685.168-.906.718-1.095 1.276-.086.25-.205.373-.414.525-.628.464-.792 1.276-1.284 1.867-.275.332-.419.763-.829.997-.493.283-.451.931-.825 1.296-.344.337-.369.87-.767 1.161-.144.107-.127.222.025.271.57.189.754.665.902 1.17.099.336.382.508.575.758.459.595 1.095 1.12 1.193 1.912.046.377.366.308.513.533.607.936 1.329 1.797 1.998 2.7.16.217.082.385-.205.385h-3.844c-.205 0-.308-.098-.357-.303-.226-.915-.952-1.547-1.395-2.343-.509-.915-1.263-1.71-1.752-2.794l-.004-.008ZM31.146 37.369V27.334c0-.64.36-1.013.997-1.017.701-.004 1.407.024 2.108 0 .48-.02.702.147.657.64a4.23 4.23 0 0 0 0 .603c.004.14-.05.32.148.373.168.045.254-.037.332-.2.291-.616 1.009-.592 1.485-.965 1.022-.8 2.277-.41 3.438-.472.808-.04 1.399.509 2.092.763.997.37 1.539 1.124 2.109 1.859.27.348.706.685.68 1.271-.011.341.354.57.469.96.541 1.838.283 3.705.172 5.527-.057.968-.295 2.223-1.436 2.814-.127.944-.902 1.272-1.592 1.698-.525.329-1.017.645-1.637.833-.73.222-1.452.333-2.178.246-1.317-.16-2.626-.398-3.467-1.628-.082-.123-.184-.402-.455-.287-.255.106-.156.344-.156.525-.008 2.211-.029 4.426.008 6.638.012.701-.176 1.013-.919.947-.599-.053-1.206-.008-1.81-.012-.754 0-1.041-.287-1.041-1.046V37.369h-.004Zm3.34-3.056c-.198 1.239.369 2.248.992 3.097.657.886 1.555 1.641 2.81 1.71.989.058 1.818-.282 2.536-.91.816-.714 1.514-1.514 1.489-2.708-.004-.258-.012-.5.262-.726.325-.262.292-.82.058-1.017-.398-.337-.291-.71-.332-1.083-.025-.197.053-.46-.05-.591-.648-.825-1.1-1.805-2.252-2.174-1.136-.366-2.109-.427-3.278.053-1.01.414-1.477 1.239-1.71 1.965-.243.755-.924 1.522-.522 2.388l-.004-.004ZM78.03 31.113c0-3.369.02-6.74-.017-10.11-.008-.647.185-.816.796-.762.673.057 1.354.029 2.035.008.57-.02.792.189.788.792-.025 3.22-.008 6.437-.008 9.657 0 .304-.008.603 0 .907.004.168-.033.365.205.427.189.049.27-.09.36-.206.694-.927 1.572-1.694 2.38-2.49.98-.964 1.883-1.998 2.88-2.937.09-.086.283-.082.427-.082 1.03-.004 2.06-.004 3.09 0 .188 0 .471-.07.487.2.013.218.074.464-.16.686-.832.783-1.698 1.55-2.428 2.425-.624.746-1.494 1.242-2.01 2.084-.345.558-.32 1.575.172 1.936.66.484 1.05 1.157 1.362 1.846.324.726.886 1.272 1.23 1.97.435.886 1.166 1.567 1.633 2.424.271.496.517.985.993 1.337.172.128.144.435.07.64-.074.197-.304.115-.468.115-.902.004-1.809-.037-2.712.013-.75.04-1.152-.284-1.32-.977-.017-.074-.013-.2-.046-.213-.878-.287-.82-1.292-1.399-1.846-.365-.349-.648-.948-.87-1.473-.266-.628-.828-1.046-1.078-1.674-.033-.082-.25-.082-.304-.172-.587-.96-.578-.96-1.272-.041-.2.266-.41.578-.689.726-.582.312-.525.816-.53 1.325-.003 1.255-.02 2.515 0 3.77.009.427-.126.579-.549.57-.804-.02-1.608-.04-2.412.005-.562.032-.648-.197-.648-.694.02-3.393.008-6.79.012-10.186ZM72.048 40.306c-.64.53-1.263 1.05-1.895 1.564-.34.274-.792.155-1.19.29-.812.276-1.731.243-2.576 0-.259-.073-.5-.176-.776-.18-.877-.016-1.497-.582-2.018-1.152-.254-.28-.574-.513-.825-.813-1.005-1.206-1.103-2.642-.8-3.975.246-1.087.964-2.13 2.142-2.646.611-.267 1.317-.296 1.87-.521 1.847-.755 3.718-.193 5.564-.361.496-.046.574-.173.627-.64.099-.899-.787-1.76-1.71-2.314-.62-.374-1.207-.46-1.834-.382-.841.103-1.662.316-2.396.804-.476.316-1.145.415-1.497.813-.567.648-.87.155-1.137-.16-.414-.489-.595-1.157-1.181-1.527-.12-.073-.037-.221.065-.311.148-.132.337-.234.435-.398.554-.89 1.682-.907 2.367-1.588.033-.033.09-.045.136-.05 1.046-.102 2.006-.68 3.118-.483.582.102 1.202.024 1.805.02.878-.008 1.57.484 2.346.767.8.292 1.17.92 1.789 1.297.258.16.234.357.312.52.283.596.509 1.232.742 1.835.69 1.764.259 3.528.353 5.28.095 1.78 0 3.569.029 5.354.008.484-.123.689-.624.644-.373-.033-.75-.013-1.128-.009-1.785.009-1.423.275-2.105-1.673l-.008-.005Zm-2.617-4.968c-.652 0-1.313.066-1.953-.016-.927-.12-1.399.562-1.756 1.12-.262.406-.066 1.12-.045 1.698.016.357.496.419.566.591.23.566.743.258 1.055.468.98.669 1.993.098 2.797-.21.928-.356 1.646-1.259 1.982-2.354.275-.903.078-1.3-.841-1.293h-1.805v-.004ZM55.765 35.338c-1.583 0-3.167-.004-4.746.008-.197 0-.513-.123-.554.21-.033.275-.164.603.143.824.103.074.267.115.247.25-.144 1.022 1.021 1.19 1.263 1.953.62-.102.956.6 1.58.538.496-.05 1.005-.02 1.505-.008.862.024 1.543-.39 2.273-.792.427-.238.841-.513 1.284-.726.32-.152.611.205.665.32.262.59.636 1.07 1.091 1.514.447.43-.09.721-.279.845-.898.599-1.797 1.353-2.802 1.591-1.526.361-3.105.71-4.747.222-.636-.189-1.386-.259-1.907-.611-.702-.48-1.58-.784-2.04-1.6-.5-.89-1.029-1.76-1.542-2.642a.374.374 0 0 1-.053-.218c.143-.964-.41-1.854-.312-2.806.09-.886.098-1.858.377-2.626.489-1.341 1.084-2.715 2.306-3.684.652-.513 1.362-.828 2.068-1.214 1.42-.78 2.88-.304 4.303-.324.427-.008 1.145.164 1.523.718.176.258.55.086.832.225.57.28.8.854 1.198 1.264.648.669.968 1.571 1.342 2.462.55 1.3.164 2.535.36 3.774.07.443-.135.545-.549.537-1.608-.02-3.216-.008-4.825-.008l-.004.004ZM54.1 32.922c1.05 0 2.104.004 3.155 0 .266 0 .541.061.578-.378.074-.951-.39-1.874-.94-2.35-.898-.78-2.125-1.44-3.421-1.001-.476.16-1.017.34-1.481.726-.685.574-1.026 1.35-1.51 2.035-.336.475 0 .96.611.964 1.002.008 2.003 0 3.008 0v.004Z"/></g><defs><clipPath id="a"><path fill="#fff" transform="translate(11.084 5)" d="M0 0h116.131v48H0z"/></clipPath></defs></svg>