<svg width="198" height="58" fill="none" xmlns="http://www.w3.org/2000/svg"><g clip-path="url(#a)"><path d="M11.8 42.62V15.63c.03-.13.22-.02.26-.24.26-1.75 1.19-3.12 2.48-4.3 1.01-.93 2.13-1.58 3.52-1.7.26-.02.4-.15.5-.38h161.729c.05.08-.24.19.04.25.29.06.59.14.87.22 1.63.49 2.88 1.53 3.91 2.82.83 1.04 1.36 2.28 1.48 3.64 0 .03.02.06.02.08 0-.04 0-.08.01-.12.1-.03.15 0 .16.11v26.36c-.26-.03-.21.15-.25.31-.85 3.09-2.69 5.21-5.91 5.96-.15.03-.37.1-.22.36H18.309c-.06-.19-.2-.21-.38-.26-2.98-.85-5-2.68-5.73-5.77-.06-.26-.23-.27-.39-.35h-.01Zm111.289-8.28c-.01-2.29-.02-4.58-.04-6.86-.01-1.13-.42-2.13-1.11-3.01-1.12-1.43-2.69-1.3-4.24-1.16-.86.08-1.55.56-2.11 1.21-.15.17-.32.3-.54.22-.25-.09-.08-.31-.08-.48 0-1.35 0-2.71-.02-4.06 0-.54-.21-.89-.87-.84-.6.05-1.21 0-1.81.01-1.48.02-1.48.03-1.48 1.49 0 4.83 0 9.66-.01 14.49 0 .51.16.66.7.6.78-.08 1.59-.12 2.36-.01.74.1 1.1-.27 1.1-.97 0-1.98.06-3.95.03-5.93-.02-.83.14-1.49.81-2.05.68-.56 2.46-.55 2.82.53.12.36.19.81.2 1.23.04 2.2.09 4.4-.01 6.61-.02.52.29.68.66.62.69-.12 1.37-.04 2.05-.05 1.54 0 1.54 0 1.6-1.53.05.07.1.07.14 0v-.06c-.04-.07-.09-.07-.14 0h-.01Zm-96.68-3.71v.02c.33 0 .67-.02 1 0 .41.03.93-.19 1.21.06.33.29-.05.76-.07 1.16v.12c-.23 1.46-.53 2.92-.69 4.38-.14 1.23-.38 2.45-.55 3.67-.07.52.23.78.77.82.69.05 1.37-.06 2.04-.17 2.46-.4 4.59-1.5 6.43-3.16 2.66-2.4 4.14-5.39 4.49-8.95.1-1.04-.16-1.31-1.21-1.32-1.04 0-2.08-.01-3.12.01-.4.01-.54-.09-.54-.52 0-.55.21-1.05.28-1.59.16-1.32.35-2.65.55-3.96.18-1.2.48-2.39.44-3.62-.01-.43-.16-.59-.59-.6-.82-.01-1.62.15-2.4.33-3.33.79-6.06 2.52-8.1 5.3-1.59 2.17-2.35 4.61-2.55 7.26-.04.49.16.75.68.74.65-.01 1.29 0 1.94 0l-.01.02Zm40.01-6.92h.03v-3.62c0-.46-.24-.69-.67-.7-.94-.02-1.88-.04-2.81.01-.3.02-.7 0-.7.6.03 5.1.02 10.21 0 15.31 0 .55.3.73.72.68.95-.12 1.91-.02 2.86-.08.18-.01.44-.1.4-.2-.18-.45.22-.77.18-1.2-.08-.93-.02-1.87-.03-2.81 0-.23.04-.47.27-.55.25-.09.29.2.37.33.87 1.35 1.74 2.69 2.55 4.07.22.38.55.47.86.43.38-.06.74-.04 1.11-.05.67-.02 1.33.03 2-.02.62-.05.77-.36.46-.9-.24-.42-.52-.83-.78-1.24-.9-1.4-1.79-2.8-2.69-4.19-.19-.3-.26-.57 0-.91.53-.69 1.01-1.42 1.52-2.13.5-.69 1.04-1.36 1.53-2.06.16-.23.29-.52.12-.81-.14-.25-.41-.15-.63-.16-.42-.01-.84.06-1.25-.01-1.62-.29-2.68.33-3.37 1.82-.38.82-.98 1.54-1.5 2.29-.08.12-.18.32-.39.24-.14-.05-.19-.19-.19-.35v-3.77l.03-.02Zm104.07 7h3.43c.79 0 .84-.08.86-.84 0-.5-.1-.98-.11-1.47-.02-1.25-.58-2.27-1.28-3.23-.3-.4-.65-.88-1.09-1.04-.78-.27-1.51-.67-2.41-.69-1.13-.02-2.25-.34-3.4-.09-1.94.43-3.34 1.6-4.19 3.33-.64 1.31-.78 2.75-.53 4.23.24 1.36.67 2.61 1.71 3.56 1.32 1.19 2.92 1.66 4.67 1.75 1.27.07 2.47-.26 3.64-.65 1.35-.45 2.29-1.35 2.75-2.73.25-.75.11-1.02-.69-1.05-.89-.03-1.79-.02-2.68.01-.32 0-.64.07-.67.54-.02.24-.27.39-.5.51-.66.35-1.31.42-2.05.26-.83-.17-1.8-1.16-1.8-1.99 0-.26.03-.39.36-.42 1.33-.14 2.66-.01 3.99-.02l-.01.03Zm-25.11-7.6c-.46.05-.98.05-1.47.16-2.49.53-4.25 1.89-5 4.41-.33 1.11-.22 2.23-.11 3.34.19 1.86 1.14 3.26 2.73 4.24 1.11.69 2.37.77 3.59.97.62.1 1.24-.12 1.87-.21 2.04-.29 3.5-1.37 4.55-3.07.42-.69.54-1.46.66-2.26.33-2.14-.18-4-1.63-5.59-1.38-1.52-3.21-1.86-5.19-1.99Zm-71.09 6.6c0 .42-.01.78 0 1.13.07 2.03 1.04 3.53 2.79 4.49 1.18.65 2.45.88 3.84.82 1.32-.06 2.56-.24 3.79-.75 1.31-.55 2-1.52 2.32-2.83.1-.42-.02-.74-.55-.73-.52 0-1.04-.03-1.56 0-.8.02-1.75-.29-2.12.84-1.5 1.02-3.44.72-4.11-1.11-.2-.55 0-.77.61-.81 1.97-.13 3.95-.05 5.93-.07.55 0 1.1.18 1.65-.03.18-.07.3-.08.29-.29-.04-1 .09-2.01-.21-3.01-.63-2.1-1.94-3.45-4.13-3.89-1.47-.3-2.95-.4-4.38.07-1.4.46-2.59 1.2-3.38 2.57-.68 1.18-.88 2.39-.78 3.62v-.02Zm50.75.84c0 1.54.03 3.08-.01 4.62-.02.62.4.83.79.79.91-.09 1.82-.02 2.73-.05.67-.02.77-.29.76-.86-.03-2.04-.06-4.08.01-6.12.04-1.2.23-1.99 1.84-2.3.81-.15 1.84.4 1.88 1.09.03.7.09 1.4.11 2.09.05 1.75.02 3.5.02 5.24 0 .71.32 1.04 1.03.92.62-.1 1.24-.05 1.86-.06 1.33-.02 1.38-.04 1.36-1.4-.04-2.57.15-5.15-.13-7.71-.14-1.26-.64-2.35-1.76-3.05-1.26-.79-2.63-.59-3.98-.33-.66.13-1.1.66-1.64 1.02-.16.11-.26.4-.5.28-.25-.12-.13-.41-.11-.61.04-.48-.11-.65-.61-.63-1 .04-2 .05-3 0-.62-.03-.72.28-.79.79-.1.66.15 1.27.15 1.9-.01 1.46 0 2.91 0 4.37l-.01.01ZM51.699 32c-.52 0-1.04.01-1.56 0-.35-.01-.55.14-.46.47.19.76.36 1.54.91 2.13 1.16 1.25 2.72 1.51 4.32 1.64.6.05 1.19-.04 1.78-.11 1.14-.13 2.16-.53 3.04-1.26 1.18-.98 1.33-2.34 1.17-3.7-.1-.88-.55-1.69-1.4-2.17-1.05-.59-2.2-.86-3.38-1.01-.52-.06-1.05-.14-1.54-.3-.38-.12-.81-.41-.74-.86.07-.47.42-.8.97-.83.77-.04 1.41.15 1.81.86.1.18.14.39.41.38 1.02-.04 2.04-.05 3.05-.11.25-.01.55-.14.46-.5-.33-1.23-.85-2.33-2.11-2.9-.4-.18-.81-.22-1.23-.3-1.67-.3-3.33-.38-4.97.19-.89.31-1.5 1.01-2.02 1.71-.4.53-.42 1.28-.44 1.99-.09 2.69 1.96 3.63 3.96 3.89.87.11 1.72.26 2.54.53.35.12.74.43.47.84-.59.9-2.35 1.22-2.82.15-.39-.89-.97-.73-1.6-.75h-.62V32Zm55.52-3.75c.52 0 1.04.01 1.56 0 .37 0 .58-.19.51-.59-.18-1.11-.62-2.09-1.44-2.89-1.23-1.21-2.8-1.54-4.42-1.62-1.62-.07-3.14.31-4.47 1.36-1.86 1.46-2.45 3.46-2.39 5.68.03 1.04.31 2.07.89 3.04.42.72.86 1.35 1.51 1.78 2.45 1.61 5.04 1.65 7.65.44 1.6-.74 2.46-2.05 2.67-3.8.06-.5-.19-.66-.63-.65-.77 0-1.54.04-2.31-.01-.54-.03-.81.11-.94.67-.18.75-.71 1.25-1.49 1.33-.91.09-1.84.09-2.36-.9-.78-1.48-.79-3.03-.1-4.48.74-1.55 3.08-1.34 3.54-.21.34.83.84.97 1.59.86.2-.03.42 0 .62 0l.01-.01Zm-13.77 1.17h-.03c0-.79.04-1.58-.02-2.37-.04-.52.22-.65.62-.67.44-.02.87-.03 1.31 0 .35.02.48-.08.47-.45-.03-.64-.02-1.29 0-1.93.02-.4-.17-.51-.52-.5-.48.01-.96 0-1.44 0-.25 0-.36-.04-.39-.38-.07-.99.01-1.98-.04-2.96-.02-.28.05-.61-.43-.66-.99-.12-1.98-.12-2.97-.11-.84 0-.83 0-.84.81 0 .87-.02 1.75-.05 2.62 0 .31-.04.62-.46.69-.32.05-.77-.21-.95.23-.13.31-.12.68-.16 1.02-.02.19 0 .37 0 .56 0 .99.15 1.16 1.11 1.17.33 0 .4.09.4.42 0 .99.07 1.98.09 2.97.02 1.04-.05 2.09.05 3.12.09.93.47 1.79 1.26 2.39 1.4 1.07 2.96.9 4.56.71.75-.09.83-.47.77-1.06-.03-.29 0-.58 0-.87 0-.834-.406-1.26-1.22-1.28-.67-.02-1.11-.47-1.12-1.14-.01-.77 0-1.54 0-2.31v-.02Zm62.92-10.04c-.44 0-.88-.02-1.31 0-.5.02-.86.16-.78.82.09.84-.14 1.68-.14 2.53 0 .36-.14.9-.8.78-.23-.04-.53 0-.54.34-.02.6-.2 1.18-.13 1.78.05.45.15.79.73.75.29-.02.68-.03.76.37.25 1.25.11 2.52.09 3.78 0 .63-.47 1.29.13 1.89.04.04.04.16.02.24-.23 1.23.3 2.17 1.26 2.81 1.02.67 2.17.9 3.42.66 1.82-.35 1.82-.31 1.82-2 0-.834-.416-1.254-1.25-1.26-.7 0-1.24-.49-1.24-1.15 0-1.57.05-3.14.05-4.71 0-.52.24-.64.68-.64.44 0 .88-.01 1.31 0 .32.01.46-.13.46-.44v-2c0-.31-.13-.45-.45-.44-.48.02-.96 0-1.44 0-.19 0-.42.02-.46-.21-.06-.36-.23-.71-.15-1.09.16-.72 0-1.43.02-2.15.02-.48-.28-.65-.69-.67-.46-.02-.92 0-1.37 0v.01Z" fill="#48193C"/><path d="M26.42 30.63h-1.94c-.51 0-.71-.25-.68-.74.19-2.65.96-5.09 2.55-7.26 2.04-2.79 4.77-4.52 8.1-5.3.78-.18 1.58-.35 2.4-.33.43 0 .58.17.59.6.04 1.23-.26 2.42-.44 3.62-.2 1.32-.4 2.64-.55 3.96-.06.53-.27 1.03-.28 1.59 0 .43.14.53.54.52 1.04-.03 2.08-.02 3.12-.01 1.05 0 1.31.27 1.21 1.32-.34 3.56-1.83 6.56-4.49 8.95-1.84 1.66-3.98 2.76-6.43 3.16-.67.11-1.35.22-2.04.17-.54-.04-.84-.3-.77-.82.17-1.22.41-2.44.55-3.67.17-1.47.46-2.92.69-4.38v-.12c.02-.4.41-.87.07-1.16-.29-.25-.8-.03-1.21-.06-.33-.02-.67 0-1 0v-.02l.01-.02ZM123.099 34.4c-.06 1.53-.06 1.52-1.6 1.53-.68 0-1.36-.07-2.05.05-.37.06-.69-.1-.66-.62.1-2.2.05-4.4.01-6.61 0-.42-.08-.87-.2-1.23-.36-1.08-2.14-1.09-2.82-.53-.67.56-.83 1.21-.81 2.05.04 1.98-.02 3.95-.03 5.93 0 .7-.37 1.07-1.1.97-.78-.1-1.58-.07-2.36.01-.54.06-.7-.09-.7-.6.01-4.83 0-9.66.01-14.49 0-1.46 0-1.46 1.48-1.49.6 0 1.21.03 1.81-.01.65-.05.86.29.87.84.02 1.35.02 2.71.02 4.06 0 .17-.16.38.08.48.21.08.39-.05.54-.22.56-.65 1.25-1.14 2.11-1.21 1.54-.14 3.12-.26 4.24 1.16.69.88 1.1 1.88 1.11 3.01.03 2.29.03 4.58.04 6.86l-.03.03.03.03h.01ZM66.43 23.709v3.77c0 .17.05.3.19.35.21.08.31-.12.39-.24.52-.75 1.12-1.47 1.5-2.29.69-1.49 1.75-2.11 3.37-1.82.4.07.83 0 1.25.01.22 0 .48-.1.63.16.16.29.04.58-.12.81-.49.7-1.03 1.37-1.53 2.06-.51.71-.99 1.44-1.52 2.13-.26.34-.19.61 0 .91.9 1.4 1.79 2.8 2.69 4.19.26.41.54.81.78 1.24.31.54.17.85-.46.9-.66.05-1.33 0-2 .02-.37 0-.74-.01-1.11.05-.31.05-.63-.05-.86-.43-.82-1.38-1.69-2.73-2.55-4.07-.08-.13-.12-.42-.37-.33-.23.08-.27.32-.27.55 0 .94-.05 1.88.03 2.81.04.44-.37.75-.18 1.2.04.1-.22.19-.4.2-.95.06-1.91-.04-2.86.08-.42.05-.72-.13-.72-.68.02-5.1.02-10.21 0-15.31 0-.59.4-.58.7-.6.93-.05 1.87-.03 2.81-.01.42 0 .67.24.67.7v3.62h-.03l-.03.02ZM170.509 30.72c-1.33 0-2.66-.13-3.99.02-.33.04-.36.16-.36.42 0 .83.97 1.81 1.8 1.99.74.16 1.4.09 2.05-.26.23-.12.48-.28.5-.51.03-.47.35-.53.67-.54.89-.03 1.79-.04 2.68-.01.8.03.94.3.69 1.05-.46 1.38-1.4 2.28-2.75 2.73-1.17.39-2.37.72-3.64.65-1.75-.09-3.36-.56-4.67-1.75-1.04-.95-1.47-2.2-1.71-3.56-.26-1.48-.11-2.92.53-4.23.85-1.74 2.25-2.9 4.19-3.33 1.15-.25 2.27.07 3.4.09.9.01 1.63.41 2.41.69.43.15.79.63 1.09 1.04.71.95 1.27 1.97 1.28 3.23 0 .48.12.97.11 1.47-.01.76-.07.84-.86.84h-3.43l.01-.03Zm-2.37-2.4c.6 0 1.21.02 1.8-.02.28-.02.62-.06.61-.52-.01-.6-.62-1.47-1.19-1.61-1.56-.4-2.64.11-3.12 1.56-.14.41-.08.61.4.59.5-.02.99 0 1.49 0h.01ZM145.389 23.11c1.98.13 3.81.48 5.19 1.99 1.45 1.6 1.96 3.45 1.63 5.59-.12.8-.24 1.57-.66 2.26-1.05 1.7-2.51 2.78-4.55 3.07-.62.09-1.24.31-1.87.21-1.22-.2-2.48-.28-3.59-.97-1.6-.99-2.54-2.38-2.73-4.24-.11-1.11-.22-2.23.11-3.34.75-2.52 2.51-3.88 5-4.41.5-.11 1.02-.11 1.47-.16Zm-2.34 6.54c-.08.84.19 1.56.49 2.27.62 1.43 3.01 1.44 3.74.22.6-1 .73-2.08.59-3.18-.1-.74-.23-1.49-.92-2.03-1.26-.98-3.11-.53-3.61.96-.19.58-.39 1.16-.29 1.75v.01ZM74.3 29.71c-.09-1.23.1-2.44.78-3.62.79-1.37 1.98-2.11 3.38-2.57 1.43-.47 2.91-.37 4.38-.07 2.19.44 3.49 1.79 4.13 3.89.3.99.17 2 .21 3.01 0 .21-.11.23-.29.29-.56.21-1.1.03-1.65.03-1.98.02-3.95-.06-5.93.07-.6.04-.8.26-.61.81.67 1.83 2.61 2.13 4.11 1.11.37-1.13 1.32-.81 2.12-.84.52-.02 1.04.02 1.56 0 .53 0 .65.31.55.73-.32 1.31-1.01 2.28-2.32 2.83-1.23.52-2.47.7-3.79.75-1.38.06-2.65-.17-3.84-.82-1.75-.96-2.72-2.46-2.79-4.49-.01-.35 0-.71 0-1.13v.02Zm6.39-1.39v-.02c.58 0 1.16.03 1.74 0 .47-.03.66-.22.52-.78-.25-1-.95-1.38-1.83-1.5-1.09-.15-2.08.57-2.43 1.6-.17.51.05.73.62.71.46-.01.91 0 1.37 0l.01-.01ZM125.049 30.55v-4.37c0-.64-.24-1.25-.15-1.9.08-.51.17-.82.79-.79 1 .05 2 .04 3 0 .51-.02.66.14.61.63-.02.2-.14.49.11.61.24.12.34-.18.5-.28.54-.35.98-.89 1.64-1.02 1.35-.26 2.72-.46 3.98.33 1.12.7 1.62 1.79 1.76 3.05.28 2.57.09 5.14.13 7.71.02 1.36-.03 1.38-1.36 1.4-.62 0-1.24-.04-1.86.06-.71.11-1.03-.21-1.03-.92 0-1.75.02-3.5-.02-5.24-.02-.7-.07-1.4-.11-2.09-.03-.69-1.06-1.25-1.88-1.09-1.61.3-1.8 1.09-1.84 2.3-.07 2.04-.04 4.08-.01 6.12 0 .57-.09.84-.76.86-.91.03-1.82-.04-2.73.05-.38.04-.8-.17-.79-.79.04-1.54.01-3.08.01-4.62l.01-.01ZM51.71 32h.62c.64.02 1.22-.14 1.6.75.46 1.07 2.23.75 2.82-.15.27-.41-.13-.72-.47-.84-.82-.28-1.67-.42-2.54-.53-2-.26-4.04-1.2-3.96-3.89.02-.71.04-1.46.44-1.99.52-.7 1.12-1.39 2.02-1.71 1.64-.58 3.3-.49 4.97-.19.42.07.84.12 1.23.3 1.25.57 1.77 1.67 2.11 2.9.1.35-.21.48-.46.5-1.02.06-2.03.07-3.05.11-.27 0-.32-.21-.41-.38-.4-.72-1.05-.9-1.81-.86-.55.03-.9.37-.97.83-.07.44.36.73.74.86.5.16 1.02.24 1.54.3 1.19.15 2.33.41 3.38 1.01.85.48 1.29 1.29 1.4 2.17.16 1.37.01 2.73-1.17 3.7-.88.73-1.9 1.13-3.04 1.26-.59.07-1.19.16-1.78.11-1.6-.13-3.16-.39-4.32-1.64-.55-.59-.72-1.38-.91-2.13-.08-.34.11-.49.46-.47.52.02 1.04 0 1.56 0V32ZM107.229 28.25c-.21 0-.42-.02-.62 0-.75.1-1.25-.03-1.59-.86-.46-1.13-2.8-1.33-3.54.21-.69 1.45-.68 3.01.1 4.48.52.99 1.44.99 2.36.9.78-.08 1.31-.58 1.49-1.33.13-.56.4-.7.94-.67.77.05 1.54.02 2.31.01.45 0 .69.15.63.65-.2 1.75-1.06 3.06-2.67 3.8-2.62 1.21-5.2 1.17-7.65-.44-.66-.43-1.1-1.06-1.51-1.78-.57-.98-.85-2-.89-3.04-.07-2.22.53-4.21 2.39-5.68 1.33-1.05 2.85-1.43 4.47-1.36 1.62.07 3.19.4 4.42 1.62.81.8 1.25 1.78 1.44 2.89.07.4-.15.58-.51.59-.52.01-1.04 0-1.56 0l-.01.01ZM93.46 29.42v2.31c0 .68.46 1.12 1.12 1.14.813.026 1.22.453 1.22 1.28 0 .29-.02.58 0 .87.06.6-.03.97-.77 1.06-1.6.2-3.16.36-4.56-.71-.79-.61-1.17-1.46-1.26-2.39-.1-1.03-.03-2.08-.05-3.12-.02-.99-.09-1.98-.09-2.97 0-.33-.08-.41-.4-.42-.96-.01-1.11-.18-1.11-1.17 0-.19-.02-.38 0-.56.04-.34.03-.71.16-1.02.18-.44.62-.18.95-.23.43-.06.45-.38.46-.69.03-.87.04-1.75.05-2.62 0-.8 0-.81.84-.81.99 0 1.98 0 2.97.11.48.06.41.38.43.66.06.99-.03 1.97.04 2.96.02.34.14.37.39.38.48 0 .96.01 1.44 0 .36 0 .54.1.52.5-.02.64-.03 1.29 0 1.93.02.37-.12.47-.47.45-.44-.03-.87-.02-1.31 0-.4.02-.66.15-.62.67.06.79.02 1.58.02 2.37h.03v.02ZM156.369 19.38c.46 0 .92-.01 1.37 0 .42.01.71.19.69.67-.02.72.14 1.43-.02 2.15-.08.38.09.73.15 1.09.04.23.27.22.46.21.48 0 .96.01 1.44 0 .33-.01.45.14.45.44v2c0 .31-.13.45-.46.44-.44-.02-.87 0-1.31 0-.43 0-.68.12-.68.64 0 1.57-.04 3.14-.05 4.71 0 .66.54 1.14 1.24 1.15.834.006 1.25.426 1.25 1.26 0 1.7 0 1.66-1.82 2-1.26.24-2.4.01-3.42-.66-.96-.64-1.49-1.58-1.26-2.81.01-.08.02-.2-.02-.24-.6-.6-.14-1.26-.13-1.89.01-1.26.16-2.53-.09-3.78-.08-.4-.47-.39-.76-.37-.58.04-.68-.3-.73-.75-.07-.6.12-1.19.13-1.78 0-.33.31-.39.54-.34.66.12.8-.41.8-.78 0-.85.23-1.69.14-2.53-.07-.66.28-.79.78-.82.44-.02.87 0 1.31 0v-.01Z" fill="#FEFEFE"/><path d="m123.099 34.4-.03-.03.03-.03c.05-.07.1-.06.14 0v.06c-.05.07-.09.07-.14 0ZM186.589 15.94v-.05l.04.01c0 .04 0 .08-.01.12 0-.03-.02-.06-.02-.08h-.01Z" fill="#244CD9"/><path d="M168.129 28.31c-.5 0-1-.02-1.49 0-.48.02-.54-.18-.4-.59.48-1.45 1.56-1.96 3.12-1.56.57.15 1.18 1.01 1.19 1.61 0 .46-.34.5-.61.52-.6.04-1.2.01-1.8.01l-.01.01ZM143.059 29.65c-.1-.59.09-1.18.29-1.75.5-1.5 2.35-1.95 3.61-.96.69.54.83 1.29.92 2.03.14 1.1.01 2.18-.59 3.18-.73 1.22-3.13 1.21-3.74-.22-.31-.71-.57-1.43-.49-2.27v-.01ZM80.69 28.32c-.46 0-.91-.01-1.37 0-.57.02-.79-.2-.62-.71.34-1.03 1.33-1.74 2.43-1.6.88.12 1.58.51 1.83 1.5.14.56-.05.75-.52.78-.58.03-1.16 0-1.74 0v.02l-.01.01Z" fill="#121620"/></g><defs><clipPath id="a"><path fill="#fff" transform="translate(11.8 9)" d="M0 0h175v40H0z"/></clipPath></defs></svg>