<svg width="16" height="17" viewBox="0 0 16 17" fill="none" xmlns="http://www.w3.org/2000/svg">
<path d="M8.00039 10.855L13.8184 5.19371C13.8653 5.1471 13.9209 5.11025 13.9822 5.08529C14.0434 5.06034 14.1089 5.04777 14.1751 5.04832C14.2412 5.04887 14.3065 5.06252 14.3673 5.08849C14.4281 5.11446 14.4831 5.15223 14.5293 5.19961C14.5754 5.247 14.6116 5.30305 14.6359 5.36454C14.6602 5.42602 14.6721 5.49172 14.6708 5.55782C14.6695 5.62392 14.6552 5.68911 14.6286 5.74963C14.602 5.81015 14.5636 5.86478 14.5157 5.91038L8.34905 11.9104C8.25571 12.0012 8.13062 12.052 8.00039 12.052C7.87016 12.052 7.74506 12.0012 7.65172 11.9104L1.48505 5.91038C1.43718 5.86478 1.39882 5.81015 1.3722 5.74963C1.34558 5.68911 1.33123 5.62392 1.32997 5.55782C1.32871 5.49172 1.34057 5.42602 1.36487 5.36454C1.38917 5.30305 1.42542 5.247 1.47152 5.19961C1.51763 5.15223 1.57267 5.11446 1.63347 5.08849C1.69427 5.06252 1.75961 5.04887 1.82572 5.04832C1.89183 5.04777 1.9574 5.06034 2.01862 5.08529C2.07984 5.11025 2.1355 5.1471 2.18239 5.19371L8.00039 10.855Z" fill="url(#paint0_linear_3414_22266)"/>
<defs>
<linearGradient id="paint0_linear_3414_22266" x1="8.00037" y1="12.168" x2="8.00013" y2="5.01046" gradientUnits="userSpaceOnUse">
<stop stop-color="#131D56"/>
<stop offset="0.202053" stop-color="#33145D"/>
<stop offset="0.39085" stop-color="#63166A"/>
<stop offset="0.595602" stop-color="#A4267B"/>
<stop offset="0.7844" stop-color="#DB327C"/>
<stop offset="1" stop-color="#EB4B46"/>
</linearGradient>
</defs>
</svg>
