<svg width="198" height="58" viewBox="0 0 198 58" fill="none" xmlns="http://www.w3.org/2000/svg">
<g clip-path="url(#clip0_4868_10140)">
<path d="M57.7791 4.99977C57.7011 5.20977 57.6111 5.55777 57.8511 5.56377C58.4991 5.58777 58.5831 6.15777 58.7391 6.50577C59.0871 7.29777 59.8431 7.99977 59.9871 8.64777C60.2271 9.70377 61.4151 10.1478 61.3191 11.2758C61.2771 11.7438 61.8471 12.0918 62.0331 12.2598C62.7831 12.9378 62.5911 14.1078 63.5271 14.6898C63.8931 14.9178 63.8811 15.7518 64.3371 16.2318C64.5891 16.4958 64.4031 16.9638 63.7911 16.9518C61.4811 16.9218 59.1651 16.8918 56.8551 16.9518C55.7931 16.9758 55.5951 15.8478 55.5111 15.5118C55.2711 14.5518 54.5031 13.9698 54.2091 13.0758C53.9991 12.4398 53.1951 12.3378 52.4931 12.3378C44.6751 12.3378 36.863 12.3258 29.045 12.3198C27.905 12.3198 26.771 12.3498 25.631 12.3438C25.115 12.3438 24.755 12.2778 24.623 11.5578C24.449 10.6218 23.699 9.91978 23.147 9.13977C22.643 8.42577 22.127 7.63977 21.929 6.80577C21.773 6.12777 20.777 5.84577 21.167 4.99377H57.7731L57.7791 4.99977Z" fill="#48193C"/>
<path d="M32.645 52.9998C32.921 52.0398 33.563 51.3138 34.103 50.5038C34.457 49.9638 34.859 49.3758 35.141 48.7338C35.609 47.6718 36.329 46.7118 37.031 45.7758C37.169 45.5898 37.727 45.7098 38.093 45.7098C39.197 45.7038 40.295 45.7338 41.399 45.6978C42.107 45.6738 42.497 45.3438 42.887 44.6238C43.331 43.7898 43.925 42.9438 44.303 42.1038C44.903 40.7778 46.139 39.8718 46.415 38.3058C46.541 37.5858 47.435 36.9198 47.795 36.1218C48.587 34.3698 49.757 32.8398 50.603 31.1118C51.107 30.0798 51.653 28.9998 52.313 28.0458C53.255 26.6778 54.047 25.2618 54.779 23.7678C55.157 23.0058 55.943 22.4478 56.081 21.4878C56.147 21.0438 56.615 21.1638 56.909 21.1578C59.183 21.1398 61.463 21.1398 63.743 21.1518C64.331 21.1518 64.733 21.8958 64.295 22.2378C63.185 23.0958 62.927 24.4818 62.147 25.5438C61.685 26.1738 61.229 27.0198 60.911 27.8418C60.647 28.5258 60.125 29.0298 59.741 29.6178C59.423 30.1098 59.213 30.7098 58.919 31.2558C58.427 32.1618 58.013 33.0918 57.251 33.8178C56.915 34.1358 57.341 34.6998 56.945 35.0298C56.099 35.7318 55.943 36.9318 55.265 37.6338C54.599 38.3238 54.863 39.5298 53.729 39.9198C53.435 40.0218 53.489 40.8678 53.015 41.3538C52.277 42.1098 52.139 43.2858 51.323 44.1618C50.891 44.6298 50.579 45.6618 50.147 46.3758C49.487 47.4618 48.743 48.5538 48.233 49.6638C47.855 50.4918 47.093 51.1218 46.973 52.0758C46.925 52.4598 46.085 52.3518 46.331 52.9878H32.657L32.645 52.9998Z" fill="#48193C"/>
<path d="M186.773 41.4978C185.669 41.4978 184.571 41.4978 183.467 41.4978C182.729 41.4978 182.117 41.5338 181.823 40.5138C181.475 39.3078 180.731 38.2098 180.077 37.1418C179.579 36.3318 179.495 35.3118 178.973 34.7058C178.283 33.9018 177.905 32.8818 177.095 32.1798C176.693 31.8318 176.255 31.9938 175.847 32.0058C174.869 32.0478 173.573 31.5438 173.015 32.2158C172.541 32.7858 172.871 34.0458 172.871 34.9998C172.871 36.8418 172.853 38.6838 172.895 40.5258C172.907 41.2098 172.745 41.5458 171.989 41.5098C170.999 41.4558 170.003 41.4678 169.013 41.5038C168.437 41.5218 168.251 41.3118 168.257 40.7418C168.269 33.0438 168.269 25.3398 168.257 17.6418C168.257 17.1138 168.431 16.9458 168.947 16.9458C173.099 16.9638 177.245 16.9698 181.397 16.9458C182.135 16.9458 182.663 17.4678 183.173 17.7618C185.147 18.8838 186.335 20.6178 186.125 23.0718C186.041 24.0618 186.059 25.0638 186.131 26.0538C186.269 27.8838 185.327 29.1438 184.043 30.2178C183.587 30.6018 183.389 31.2318 182.687 31.4358C182.423 31.5138 182.435 32.3058 182.729 32.6238C183.287 33.2238 183.701 33.8538 183.695 34.6938C183.689 35.2158 184.253 35.2578 184.451 35.7138C184.961 36.8958 185.945 37.8498 186.197 39.1998C186.239 39.4218 186.569 39.3498 186.779 39.2958V41.5098L186.773 41.4978ZM172.841 24.4218C172.841 24.4218 172.853 24.4218 172.865 24.4218C172.865 25.4898 172.877 26.5578 172.865 27.6258C172.859 28.2198 173.075 28.4658 173.711 28.4418C175.103 28.3938 176.537 28.6098 177.887 28.3638C179.381 28.0938 181.145 28.0938 181.673 25.9938C182.357 23.2758 181.745 20.9718 178.655 20.7378C176.975 20.6118 175.277 20.7258 173.591 20.6898C173.021 20.6778 172.811 20.8398 172.841 21.4338C172.889 22.4238 172.853 23.4198 172.853 24.4158L172.841 24.4218Z" fill="#48193C"/>
<path d="M10.9789 19.0158C11.3389 18.3978 11.5069 17.6298 11.8849 16.8858C12.5329 15.6258 13.7329 14.7078 13.9849 13.1598C14.1169 12.3378 14.9929 11.6538 15.4189 10.8498C15.9589 9.8178 16.7029 8.8938 17.0389 7.7538C17.1289 7.4598 17.3329 7.4718 17.5489 7.4718C17.7589 7.4718 18.0409 7.4298 18.0469 7.7478C18.0589 8.2158 18.6169 8.6298 18.6169 8.6898C18.5389 9.9858 19.8769 10.4418 20.2189 11.5338C20.5009 12.4398 21.0169 13.3878 21.6289 14.2218C21.7849 14.4318 21.0469 15.0678 21.1549 15.6618C20.3329 15.7278 20.4889 16.5318 20.3269 16.9698C20.0809 17.6478 19.5769 18.1758 19.4029 18.8658C19.1629 19.8498 20.1709 20.3478 20.3029 21.1698C20.5489 22.6878 22.1329 23.4378 22.3969 25.0278C22.4689 25.4658 22.7569 26.4678 23.5669 26.8638C24.3049 27.2238 24.2329 28.1958 24.6589 28.8378C25.1569 29.5818 25.3609 30.5058 26.027 31.1718C26.579 31.7238 26.513 32.6058 27.113 33.1758C27.617 33.6558 27.647 34.5018 28.343 34.9098C28.559 35.0358 28.739 35.5098 28.763 35.6778C28.985 37.3218 30.545 38.1798 30.983 39.6738C31.331 40.8558 32.111 41.8278 32.771 42.8238C33.509 43.9398 32.867 44.8698 32.447 45.5778C31.955 46.4118 31.451 47.2818 30.935 48.1158C30.467 48.8778 29.999 49.6458 29.519 50.4018C29.339 50.6898 28.943 50.6478 28.889 50.4498C28.679 49.7298 27.851 49.4478 27.761 48.6258C27.695 48.0678 27.215 47.3658 26.921 47.1498C26.141 46.5678 26.129 45.6018 25.5049 44.9298C25.0249 44.4078 24.6829 43.3938 24.2569 42.6138C23.2549 40.7658 22.3069 38.8758 21.1069 37.1598C20.5849 36.4098 20.4469 35.5878 20.0269 34.8498C19.6189 34.1298 19.1149 33.2538 18.6049 32.8578C17.8909 32.2998 18.2149 31.5438 17.6809 30.9978C16.9489 30.2538 16.3309 29.2698 15.8689 28.3638C15.4429 27.5358 15.0829 26.5938 14.5189 25.8678C13.6669 24.7818 13.5769 23.3598 12.5269 22.3098C11.7829 21.5598 11.1049 20.3958 10.9609 19.0218L10.9789 19.0158Z" fill="#48193C"/>
<path d="M128.561 29.0597C128.561 30.7157 128.573 32.3777 128.561 34.0337C128.549 35.4137 129.407 36.2777 130.313 37.1177C130.337 37.1417 130.355 37.2077 130.373 37.2077C131.615 37.0997 132.557 38.3357 133.871 37.9637C135.275 37.5677 136.607 37.0757 137.615 35.9297C138.161 35.3117 138.407 34.6457 138.275 33.8357C138.179 33.2477 138.461 33.0557 139.025 33.0737C139.829 33.1037 140.639 33.0737 141.449 33.0737C142.847 33.0737 143.369 33.7397 142.781 34.9877C142.529 35.5217 142.595 36.0617 142.421 36.5417C142.073 37.4957 141.713 38.5397 140.939 39.1937C139.973 40.0097 139.013 40.9217 137.723 41.2697C137.663 41.2877 137.609 41.4137 137.561 41.4077C135.839 41.2397 134.273 42.6737 132.581 42.0557C131.483 41.6597 130.361 41.4377 129.257 41.2157C127.877 40.9397 127.133 39.8477 126.053 39.2237C125.699 39.0197 125.603 38.6957 125.459 38.3537C124.943 37.1657 124.649 35.8997 124.253 34.6997C123.263 31.6817 123.977 28.6937 123.773 25.7057C123.677 24.2957 124.271 22.8917 124.559 21.5237C124.811 20.3357 125.843 19.1717 126.965 18.2357C129.821 15.8477 133.157 16.4777 136.355 16.5977C137.399 16.6337 138.545 17.1437 139.559 18.0617C140.591 18.9917 141.599 19.9997 142.199 21.0977C142.751 22.1117 143.087 23.5097 142.859 24.8357C142.781 25.2857 142.475 25.3157 142.133 25.3157C141.143 25.3157 140.147 25.2917 139.157 25.3217C138.491 25.3397 138.275 25.0697 138.257 24.4097C138.191 22.0517 136.775 20.7017 134.411 20.6777C132.977 20.6657 131.537 20.5337 130.163 21.1217C130.013 21.1877 129.767 21.0977 129.701 21.3197C129.395 22.3757 128.399 23.1137 128.525 24.4097C128.675 25.9397 128.561 27.4997 128.561 29.0477V29.0597Z" fill="#48193C"/>
<path d="M103.871 29.2157C103.871 25.4537 103.889 21.6977 103.853 17.9357C103.847 17.2157 103.949 16.9157 104.777 16.9277C109.445 16.9697 114.113 16.9577 118.775 16.9277C119.357 16.9277 119.507 17.0717 119.531 17.6537C119.645 20.7077 119.663 20.7077 116.675 20.7077C114.179 20.7077 111.677 20.7317 109.181 20.6897C108.461 20.6777 108.227 20.8937 108.257 21.6257C108.311 23.1377 108.311 24.6497 108.257 26.1557C108.227 26.9177 108.437 27.1637 109.229 27.1457C111.803 27.0917 114.371 27.1457 116.945 27.1157C117.593 27.1097 117.887 27.2297 117.779 27.9617C117.647 28.8977 118.163 30.1397 117.575 30.7277C116.987 31.3037 115.763 30.8717 114.821 30.8837C112.949 30.9137 111.071 30.9137 109.199 30.8837C108.485 30.8717 108.239 31.1117 108.263 31.8437C108.311 33.3917 108.317 34.9397 108.263 36.4877C108.239 37.2137 108.527 37.3337 109.163 37.3277C112.289 37.3037 115.409 37.3457 118.535 37.2917C119.357 37.2797 119.645 37.4837 119.555 38.3297C119.471 39.1337 119.507 39.9497 119.543 40.7597C119.567 41.3357 119.375 41.5157 118.793 41.5157C114.089 41.4917 109.385 41.4857 104.681 41.5157C103.937 41.5157 103.865 41.2277 103.871 40.6097C103.895 36.8117 103.883 33.0137 103.883 29.2217L103.871 29.2157Z" fill="#48193C"/>
<path d="M88.937 41.4977C88.751 41.4977 88.571 41.4977 88.385 41.4977C86.747 41.4977 86.267 40.9697 85.973 39.4097C85.817 38.5877 85.409 37.7537 84.911 37.0817C84.485 36.5117 84.551 35.8097 84.431 35.2697C84.239 34.3937 83.855 33.5117 83.477 32.8697C82.769 31.6457 82.625 30.2597 82.031 29.0177C81.665 28.2557 81.155 27.4277 81.059 26.4377C81.011 25.9217 80.399 25.3277 80.345 24.6497C80.249 23.5397 79.445 22.6817 79.307 21.5597C79.247 21.0857 78.869 20.3777 78.581 20.1077C77.645 19.2377 78.245 18.2297 78.053 17.3237C77.981 16.9817 78.311 16.9517 78.587 16.9517C79.283 16.9517 79.985 16.9517 80.681 16.9517C82.445 16.9517 82.775 17.2517 82.913 18.9977C82.931 19.2377 83.891 20.9777 84.017 21.2717C84.329 21.9677 84.605 22.8017 84.587 23.4557C84.557 24.5117 85.187 25.2497 85.517 26.0417C86.135 27.5117 86.531 29.0597 87.191 30.4697C87.551 31.2377 87.341 32.3357 88.301 32.8757C88.481 32.9777 88.421 33.5597 88.421 33.9197C88.421 34.2797 88.529 34.4537 88.919 34.4717C89.339 34.4897 89.477 34.3397 89.537 33.9137C89.693 32.7917 90.107 31.7777 90.755 30.8177C91.133 30.2597 90.821 29.4557 91.223 28.7477C91.739 27.8357 92.213 26.7917 92.471 25.8377C92.867 24.3677 93.749 23.0417 93.761 21.4397C93.761 20.7617 94.367 20.1797 94.547 19.4357C94.661 18.9677 94.943 18.4397 95.105 17.8937C95.255 17.4077 95.531 16.8077 96.377 16.9337C97.205 17.0537 98.063 16.9817 98.903 16.9277C99.455 16.8917 99.695 17.0117 99.683 17.6297C99.653 18.9017 99.239 20.0117 98.759 21.1817C98.459 21.9017 97.937 22.6037 97.853 23.4917C97.787 24.1757 97.685 25.0157 97.013 25.5317C96.935 25.5917 96.845 25.7357 96.869 25.8077C97.157 26.8337 95.819 27.3917 96.137 28.4177C94.979 29.3837 95.471 31.0277 94.559 32.2037C94.205 32.6597 93.923 33.6737 93.665 34.4417C93.383 35.2817 93.503 36.2297 92.771 37.0157C92.357 37.4597 92.351 38.3717 92.015 39.0677C91.697 39.7217 91.019 40.3097 91.211 41.2157C91.271 41.4977 90.833 41.4917 90.587 41.4977C90.035 41.5157 89.483 41.4977 88.937 41.4977C88.937 41.4977 88.937 41.5037 88.937 41.5097V41.4977Z" fill="#48193C"/>
<path d="M157.439 31.0937C157.439 34.2257 157.403 37.3517 157.463 40.4837C157.481 41.3417 157.199 41.5637 156.407 41.5097C155.531 41.4497 154.643 41.4797 153.767 41.5037C152.933 41.5277 152.615 41.1857 152.621 40.3157C152.651 34.1297 152.615 27.9437 152.669 21.7577C152.675 20.8157 152.381 20.6597 151.559 20.6837C149.945 20.7377 148.331 20.6777 146.717 20.7137C146.141 20.7257 145.985 20.5517 145.961 19.9697C145.847 16.9457 145.829 16.9517 148.829 16.9517C153.671 16.9517 158.519 16.9757 163.361 16.9277C164.297 16.9157 164.531 17.2037 164.519 18.1097C164.483 20.7017 164.519 20.7017 161.975 20.7077C160.763 20.7077 159.551 20.7557 158.345 20.6957C157.619 20.6597 157.421 20.8757 157.427 21.6077C157.469 24.7757 157.445 27.9377 157.445 31.1057L157.439 31.0937Z" fill="#48193C"/>
</g>
<defs>
<clipPath id="clip0_4868_10140">
<rect width="175.794" height="48" fill="white" transform="translate(10.979 4.99976)"/>
</clipPath>
</defs>
</svg>
