<svg width="108" height="48" viewBox="0 0 108 48" fill="none" xmlns="http://www.w3.org/2000/svg">
<g clip-path="url(#clip0_4690_39890)">
<path d="M2.50028 47.875L0.69751 31.9036H2.04663L3.26253 44.3659L4.52734 31.9036H5.81238L4.03322 47.875H2.50028Z" fill="#48193C"/>
<path d="M13.4805 28.9739V30.4328H10.7552V37.5639H13.3742V38.9938H10.7552V46.4197H13.5142V47.8786H9.17847V28.9739H13.4805Z" fill="#48193C"/>
<path d="M22.032 47.8771L19.1027 30.3853L19.1954 34.6462V47.8806H17.509V26.2828H19.9526L22.6205 42.2681L22.5902 39.3995V26.2828H24.2681V47.8771H22.032Z" fill="#48193C"/>
<path d="M30.7255 47.875V24.5765H28.2263V22.6284H35.3261V24.5765H32.8302V47.875H30.7255Z" fill="#48193C"/>
<path d="M48.9288 44.0047C48.9288 46.6683 47.6111 47.9998 44.9759 47.9998H44.2354C41.6383 47.9998 40.323 46.6687 40.323 44.0047V18.6456H42.7513V44.1259C42.7513 45.2543 43.2439 45.75 44.318 45.75H44.8913C46.0063 45.75 46.5004 45.2543 46.5004 44.1259V18.6456H48.9288V44.0047Z" fill="#48193C"/>
<path d="M65.4255 34.8403V47.8754H62.5754V34.9885C62.5754 33.4734 61.9007 32.7916 60.3981 32.7916H58.3727V47.8754H55.5229V13.6976H60.7876C64.1201 13.6976 65.3783 15.1668 65.3783 18.3369V27.5626C65.3783 29.8107 64.6024 30.9339 63.2026 31.5202C64.7492 31.9139 65.4255 32.9365 65.4255 34.8403ZM60.6428 16.3343H58.3727V30.247H60.4473C61.8924 30.247 62.5246 29.5653 62.5246 28.1507V18.1937C62.5282 16.9206 61.9463 16.3343 60.6428 16.3343Z" fill="#48193C"/>
<path d="M84.6433 32.6759V47.8754H81.3277V32.8514C81.3277 31.0857 80.5385 30.2949 78.7979 30.2949H76.4372V47.8754H73.115V8.03418H79.2551C83.1336 8.03418 84.6008 9.73853 84.6008 13.4421V24.2018C84.6008 26.8214 83.7053 28.1303 82.0713 28.8138C83.8607 29.2671 84.6433 30.4619 84.6433 32.6759ZM79.078 11.1072H76.427V27.3276H78.8518C80.5385 27.3276 81.2718 26.5299 81.2718 24.8801V13.2717C81.2718 11.794 80.5924 11.1072 79.0713 11.1072H79.078Z" fill="#48193C"/>
<path d="M103.399 47.8754L102.654 40.2226H96.4395L95.6943 47.8754H91.9133L97.0485 -0.000244141H102.118L107.32 47.8754H103.399ZM96.7818 36.601H102.253L99.5544 8.8761L96.7818 36.601Z" fill="#48193C"/>
</g>
<defs>
<clipPath id="clip0_4690_39890">
<rect width="106.623" height="48" fill="white" transform="translate(0.69751 -0.000244141)"/>
</clipPath>
</defs>
</svg>
