<svg xmlns="http://www.w3.org/2000/svg" width="131" height="71" fill="none"><path fill="#48193C" d="M52.406 30.058c.102-.137.08-.307.114-.461.058-.034.048-.096.062-.149l.116-.464c.019-.067.059-.127.048-.2.032-.127.1-.246.083-.385.053-.068.053-.154.074-.232.06-.135.074-.282.107-.424.015-.065.032-.128.048-.193.047-.123.075-.252.08-.384.055-.054.068-.122.07-.195l.106-.418c.017-.066.059-.127.048-.2.029-.121.092-.234.09-.363.058-.06.009-.152.06-.215.041-.139.09-.276.087-.423.075-.046.013-.14.068-.194l.093-.402c.05-.052.026-.117.032-.177l.14-.465c.024-.075.064-.148.053-.231.04-.125.077-.25.076-.383.05-.055.057-.126.07-.196.058-.15.093-.304.117-.463l.035-.116.42-1.653.048-.199c.048-.117.07-.239.088-.364.05-.05.026-.116.034-.174.119-.147.046-.35.142-.504l.04-.154c.017-.142.09-.273.086-.421.057-.034.048-.096.062-.148.06-.368.218-.712.247-1.085.057-.054.072-.122.07-.196l.109-.419.05-.199.112-.463c.012-.038.025-.077.039-.115.08-.212.088-.44.148-.656-.033-.088-.091-.031-.142-.027-.9-.006-1.8-.012-2.698-.02-.218-.001-.437-.018-.654-.02-.122 0-.169-.04-.163-.167.011-.179.011-.36 0-.538-.007-.127.027-.162.156-.162.99.006 1.979.004 2.968.003 1.31 0 2.623-.003 3.933-.005.171 0 .341.008.51.043.056.221-.01.442 0 .662-.061.173-.206.19-.357.19l-1.999.01c-.1.023-.185.061-.177.186-.075.308-.147.615-.221.922l-.06.196c-.128.455-.263.909-.36 1.373-.045.132-.114.257-.111.402l-.119.423c-.057.029-.023.077-.026.117l-.006.039-.013.032-.07.235c-.045.013-.035.047-.027.078l-.165.693c-.039.03-.031.076-.043.114l-.15.575c-.022.007-.039.017-.028.044l-.054.267c-.043.017-.03.05-.022.08l-.17.692c-.038.033-.035.076-.033.117a.498.498 0 0 0-.082.267c-.045.017-.028.05-.02.08-.083.351-.24.681-.281 1.042-.022.004-.043.008-.025.038 0 .026.003.052.005.077-.01.054-.077.09-.048.154l-.13.5c-.044.015-.03.048-.024.079-.14.512-.294 1.02-.397 1.542a.076.076 0 0 0-.028.078c-.05.166-.11.328-.125.502-.037.045-.041.099-.041.153a.683.683 0 0 0-.082.285c-.122.059-.048.17-.07.256a6.928 6.928 0 0 0-.273 1.04c-.023.066-.086.115-.066.194-.036.126-.085.25-.09.384-.041.043-.037.099-.043.153a2.13 2.13 0 0 0-.14.466l-.01.116c-.13.336-.193.69-.279 1.037-.015.05-.03.1-.048.151a1.28 1.28 0 0 0-.09.354l-.076.27a.982.982 0 0 0-.08.308l-.087.267h.001c-.023.005-.037.016-.026.042-.01.103-.07.2-.048.309l-.08.23h.002c-.024.003-.039.012-.028.04l-.202.887-.07.232a1.229 1.229 0 0 0-.085.347c-.046.096-.074.2-.09.304-.072.25-.164.498-.21.753-.038.218-.149.417-.155.64-.071.078-.035.184-.073.27-.117.25-.159.523-.223.785-.094.38-.2.756-.306 1.133-.017.057-.012.11-.019.166l-.069.232a1.078 1.078 0 0 0-.094.344l-.062.235-.092.344c-.056.03-.02.079-.024.119-.105.344-.213.686-.284 1.038-.024.09-.05.18-.075.269h.001c-.021.005-.038.014-.027.042-.016.075-.025.15-.045.225-.028.102-.088.154-.206.154-1.046-.004-2.092-.004-3.137-.004-.138 0-.18-.051-.216-.196-.105-.412-.252-.814-.385-1.22-.16-.49-.324-.98-.483-1.472-.015-.048-.012-.1-.017-.151.01-.037-.001-.063-.04-.074-.151-.28-.211-.591-.315-.888-.17-.483-.29-.981-.483-1.457-.01-.028-.003-.063-.004-.096l-.002-.012.005.019c-.284-.735-.488-1.497-.74-2.243-.262-.778-.52-1.556-.776-2.335-.426-1.3-.841-2.602-1.272-3.9-.205-.62-.42-1.238-.608-1.865a.317.317 0 0 0-.078-.15c-.05-.14-.022-.3-.102-.448-.082.075-.037.143-.054.202-.019.066-.031.134-.045.202v-.003c-.031.02-.037.05-.033.083-.13.437-.259.872-.385 1.309-.068.23-.13.461-.195.693-.022.006-.039.015-.03.043-.092.346-.186.692-.279 1.037-.021.006-.038.016-.029.043-.145.534-.288 1.069-.457 1.595-.13.412-.24.833-.358 1.25l-.239.857c-.045.015-.03.047-.023.078-.196.695-.418 1.382-.587 2.084l-.028.077c-.08.27-.163.542-.242.812-.142.485-.282.97-.42 1.454-.083.298-.159.597-.239.895-.043.042-.038.099-.046.151-.119.269-.171.559-.256.838-.164.537-.31 1.08-.463 1.62-.067.237-.131.473-.196.71-.011.026-.022.05-.031.077-.006.01-.014.021-.019.034-.114.342-.114.34-.47.34-.906 0-1.812 0-2.718.007-.196.001-.303-.045-.376-.256-.285-.839-.612-1.663-.898-2.5-.122-.357-.244-.718-.38-1.064-.237-.605-.453-1.218-.683-1.826-.233-.617-.443-1.246-.675-1.863-.32-.858-.634-1.72-.949-2.58-.372-1.018-.735-2.038-1.106-3.053-.39-1.067-.786-2.132-1.173-3.198-.622-1.707-1.24-3.416-1.862-5.123-.228-.627-.457-1.252-.682-1.878-.017-.047-.017-.1-.025-.15.017-.062-.047-.05-.07-.076l-.457-1.282c-.064-.18-.132-.357-.189-.537-.034-.11-.094-.15-.21-.148-.386.004-.77 0-1.156-.005-.12 0-.236-.051-.36-.036-.072.01-.058-.05-.058-.092 0-.22.005-.437-.002-.656-.004-.153.105-.1.173-.1 1.138-.004 2.275-.002 3.413-.002 2.758 0 5.514-.002 8.273-.005.063 0 .126-.01.19-.017 0 .08.073.036.106.062 0 .2 0 .398-.002.598-.001.137-.041.205-.211.22-.71.062-1.422.011-2.132.028-.148.003-.183.017-.128.176.397 1.145.784 2.295 1.173 3.443.243.718.479 1.439.724 2.156.401 1.175.807 2.348 1.209 3.522.294.863.58 1.727.873 2.59.298.875.608 1.746.897 2.624.23.698.468 1.392.722 2.082.046.222.167.426.165.716.173-.28.221-.54.287-.793.235-.84.477-1.68.718-2.517.198-.689.397-1.377.6-2.062.218-.738.44-1.474.63-2.221.091-.354.224-.696.307-1.053.064-.057.008-.15.064-.21l.277-.964a.129.129 0 0 0 .036-.116c.091-.241.151-.477.019-.727a.459.459 0 0 1-.062-.276c.018-.064-.033-.065-.07-.078-.227-.86-.53-1.697-.793-2.546-.253-.814-.502-1.628-.753-2.442-.039-.125-.107-.24-.117-.375.084-.065-.005-.083-.033-.117-.11-.22-.119-.477-.245-.692a.35.35 0 0 0-.025-.04v.002c-.005-.05-.028-.074-.08-.062-.604-.005-1.207-.015-1.81-.01-.183.002-.26-.038-.232-.234.021-.157.018-.32.015-.48-.003-.131.048-.179.18-.179.675.003 1.35 0 2.024-.001l8.903-.005c.16 0 .32.008.481.01l.016.73c.003.087-.037.106-.125.123-.312.057-.625.024-.937.029-.295.005-.591.012-.886 0-.167-.006-.175.082-.131.185.228.54.365 1.111.548 1.667.308.938.598 1.881.892 2.825.177.57.336 1.143.518 1.71.278.858.55 1.717.818 2.579.198.634.4 1.267.605 1.9.261.8.497 1.605.749 2.407.236.749.477 1.496.718 2.244l.32.999c.03.137.058.275.093.41.01.033-.002.113.07.08.03-.013.108-.022.066-.12-.045-.101-.006-.223.03-.333.123-.145.107-.33.149-.5l.008-.076c.097-.13.074-.296.12-.441.02-.073.04-.144.062-.216l.114-.463.022-.111c.075-.147.078-.307.105-.465.069-.037.027-.103.04-.156l.004.011ZM92.381 23.27l.005.348-.001.037-.014.114c-.059.028-.028.076-.028.118-.017.356-.019.713-.039 1.07-.11 1.845-.041 3.694-.04 5.543 0 .341.091.68.079 1.025v.309c.037.288.072.577.111.865.05.363.09.726.144 1.089.126.833.307 1.654.592 2.441.56 1.544 1.321 2.956 2.832 3.792.516.286 1.07.443 1.664.503.58.06 1.142-.004 1.685-.163 1.204-.354 2.124-1.13 2.919-2.075.875-1.04 1.59-2.183 2.213-3.39.318-.616.629-1.234.902-1.87.122-.283.29-.4.586-.339.043.063.104.025.156.028.174-.023.227.06.235.227.029.565-.059 1.125-.042 1.688l.008.212-.016.228c-.052.03-.027.077-.021.119l-.019.267c-.062.134-.017.275-.025.412-.057 1.105-.012 2.21-.046 3.315-.018.591-.133 1.176-.109 1.77 0 .031.006.064-.024.088-.075.062-.503-.009-.564-.089-.102-.136-.183-.282-.308-.409-.171-.173-.359-.196-.575-.184-.155.008-.307.008-.462.013-.031-.008-.065-.023-.078.023-.229.043-.464.068-.686.134-.762.232-1.535.415-2.316.57-.571.112-1.141.223-1.721.262-.877.059-1.754.165-2.633.116-.462-.026-.919-.116-1.383-.113-.614.005-1.207-.143-1.808-.24-.59-.096-1.159-.285-1.72-.48a10.948 10.948 0 0 1-1.796-.794 9.897 9.897 0 0 1-3.914-4.02c-.02-.04-.03-.084-.046-.124l.014.012-.012-.006c-.241-.414-.398-.863-.578-1.303-.32-.794-.506-1.63-.682-2.461a9.915 9.915 0 0 1-.174-1.408c-.016-.231-.006-.472-.096-.702-.037-.093.003-.215.002-.323-.013-.9-.056-1.802.04-2.695.076-.697.122-1.402.284-2.094.151-.647.278-1.301.487-1.93.317-.951.715-1.874 1.25-2.726.848-1.35 1.911-2.493 3.254-3.368a11.84 11.84 0 0 1 2.426-1.212c.542-.196 1.088-.386 1.661-.473a.508.508 0 0 0 .232-.085h.077c.464-.059.921-.16 1.39-.19.437-.026.87-.084 1.31-.08h.771c.657-.03 1.301.128 1.957.126.133 0 .264.04.397.062l.037.005c.154.024.299.103.463.072.072.086.19.022.27.08l.307.05c.19.064.381.118.58.143.088.016.175.033.263.048.006.025.02.039.046.03l.191.044c.003.023.014.039.04.031.338.083.675.168 1.013.252a.922.922 0 0 1 .068.02c.054.057.123.043.19.044.004.024.014.039.041.031l.078.008c.081.056.169.09.27.07.101.002.205-.004.307.009.413.052.683-.172.846-.5.108-.22.242-.266.449-.238.031.005.063 0 .095-.002.027 0 .051 0 .078.002.089.028.075.1.081.171.045.488-.014.976.034 1.463.133 1.348.082 2.701.153 4.052.023.43.066.861.088 1.293.016.315.003.63.014.946.006.201-.1.283-.278.29a5.18 5.18 0 0 1-.463-.001c-.102-.003-.128-.094-.16-.168a25.83 25.83 0 0 0-1.476-2.933c-.639-1.094-1.352-2.139-2.266-3.026a5.914 5.914 0 0 0-1.884-1.246 3.236 3.236 0 0 0-1.031-.26c-.074-.004-.14-.064-.22-.038l-.032-.004c-.2-.068-.409-.048-.61-.028-.374.037-.751.07-1.117.182-1.375.424-2.276 1.37-2.91 2.616-.104.204-.215.406-.281.628-.033.019-.033.05-.031.08a1.232 1.232 0 0 0-.155.425c-.01.026-.021.05-.03.077-.038.097-.087.191-.092.298-.043.062-.09.12-.066.204-.039.1-.082.199-.085.308-.048.057-.042.128-.052.195l-.05.224-.096.389.002-.002c-.021.006-.037.017-.026.043l-.119.81c-.025.036-.059.067-.037.116-.037.36-.057.723-.122 1.08-.023.004-.039.011-.03.04l.008-.004ZM83.275 16.402l-.26.806-.036.114-.062.159c-.06.026-.026.077-.03.117-.067.15-.129.301-.163.462a1.293 1.293 0 0 0-.125.344 4.985 4.985 0 0 0-.082.228c-.044.118-.122.223-.13.354l-.043.154c-.157.363-.28.738-.395 1.116a.402.402 0 0 0-.066.196l-.122.307a.514.514 0 0 0-.083.267c-.127.329-.25.658-.341.997a.384.384 0 0 0-.071.202.77.77 0 0 0-.095.266.394.394 0 0 0-.063.197c-.123.362-.305.703-.381 1.08-.028.049-.053.096-.048.154-.028.049-.086.084-.068.155l-.12.386a.52.52 0 0 0-.08.232c-.047.038-.036.099-.059.148l-.332.924c-.125.35-.25.701-.373 1.052l-.116.347c-.051.142-.102.282-.155.424l-.038.077-.015.113a.388.388 0 0 0-.067.196c-.055.097-.09.2-.112.309-.022.035-.047.07-.04.116-.04.115-.084.23-.126.345-.044.014-.032.048-.026.079-.119.347-.24.693-.358 1.04-.048.142-.096.284-.142.426a1.508 1.508 0 0 0-.01.039c-.15.248-.186.537-.28.806l-.084.23-.052.16a8.11 8.11 0 0 0-.046.113c-.022.006-.039.014-.031.041-.06.192-.12.382-.182.573-.05.042-.06.099-.06.159l-.223.619c-.004.025-.01.05-.015.074-.111.284-.22.568-.332.852l-.114.386a.347.347 0 0 0-.008.038c-.07.118-.097.25-.136.38a3.272 3.272 0 0 1-.038.116l-.051.16-.122.312c-.043.042-.07.09-.063.151l-.014.079c-.025 0-.039.01-.033.037.011.057-.068.093-.038.154l-.042.193a.518.518 0 0 0-.079.232l-.058.148c-.033.105-.116.193-.107.312a.405.405 0 0 0-.065.196l-.07.193c-.022.049-.056.095-.047.154l-.148.347-.039.116-.17.553c-.087.094-.086.217-.115.331a1.8 1.8 0 0 0-.14.39c-.01.023-.02.046-.028.069-.109.295-.215.59-.323.886-.034.094-.074.186-.113.279-.014.065-.03.128-.043.193-.019.05-.037.099-.057.148-.093.2-.16.41-.213.624-.057.35-.309.378-.596.375-.822-.011-1.645-.011-2.468-.019-.12 0-.247.003-.347-.088-.01-.012-.017-.026-.026-.038-.094-.378-.264-.729-.395-1.095-.19-.532-.397-1.058-.598-1.586-.302-.795-.59-1.596-.882-2.394-.426-1.167-.852-2.334-1.285-3.498-.293-.788-.608-1.568-.88-2.362a65.325 65.325 0 0 0-.674-1.865c-.358-.946-.699-1.898-1.063-2.841-.37-.956-.698-1.926-1.05-2.888-.318-.87-.642-1.738-.966-2.605-.32-.857-.654-1.709-.957-2.572-.185-.526-.384-1.048-.563-1.575-.028-.084-.073-.132-.164-.132H61.424l-1.017-.009c-.12 0-.232-.008-.264-.154.003-.23.006-.459.007-.688.136-.045.277-.051.419-.051h11.166c.2 0 .398.004.597.007l.047.031c.05.212.035.426.041.64.004.115-.032.186-.159.184h-.077c-.449.053-.9.016-1.35.039h-.116c-.23-.002-.46-.006-.69-.005-.216.002-.236.036-.148.23.019.04.043.077.066.114.026.12.062.237.12.346.214.761.496 1.497.745 2.247.284.854.578 1.704.862 2.56.33.989.645 1.983.977 2.972.297.883.61 1.761.911 2.642.154.45.3.905.45 1.357.02.06.047.119.033.187-.065.105.063.035.07.077.154.562.334 1.113.543 1.657 0 .027.003.051.004.078l.57 1.65c.014.041.03.083.048.125.009.061.026.118.065.166.137.51.33.999.514 1.493-.004.026-.019.06.021.072.026.008.043-.006.046-.034a.255.255 0 0 0 .08-.154c.024-.02.038-.045.033-.077.233-.7.486-1.39.707-2.093.177-.566.401-1.117.599-1.678.32-.909.642-1.818.957-2.73.338-.982.663-1.966 1.001-2.946.201-.58.42-1.152.624-1.73.302-.856.602-1.71.897-2.569.291-.85.563-1.707.866-2.553.14-.395.29-.787.424-1.185.022-.063.039-.122.02-.187.006-.026-.005-.035-.03-.029h-1.16c-.443-.003-.886-.008-1.327-.01-.2 0-.28-.07-.29-.279a1.473 1.473 0 0 1 .027-.45c.02-.051-.01-.116.048-.155 1.698 0 3.397-.003 5.095-.004.18 0 .36.014.539.003.102-.006.122.037.122.117v.154c-.004.192-.005.383-.008.575-.028.009-.067-.005-.077.038-.502 0-1.002.003-1.504.003-.084 0-.17-.014-.174.111l-.1.312.001-.001c-.021.006-.038.015-.03.043l.01-.008ZM17.201 49.627l.868-.033.014.011.018-.004c.071.176.059.362.062.544.012 1.164-.033 2.328.026 3.49.053 1.045.97 1.49 1.781 1.247.624-.186.934-.631.993-1.28.114-1.251.043-2.501.038-3.751.034-.079-.026-.17.031-.246.293.01.588 0 .881-.021l.048.038c0 1.247.011 2.494-.001 3.742-.007.686.446 1.382 1.122 1.55.656.163 1.541-.166 1.665-1.037.051-.36.071-.719.071-1.08-.002-.99.005-1.98-.003-2.97 0-.17.052-.231.218-.223.205.01.412.018.617.009.137-.006.176.04.176.174-.003.74 0 1.479 0 2.218 0 .443.01.888-.01 1.33-.013.33-.05.66-.135.98-.229.851-.792 1.316-1.655 1.444-.193.03-.384.08-.58.077-.693-.012-1.326-.187-1.85-.667a.147.147 0 0 0-.092-.08c-.05-.07-.083-.025-.115.019-.337.441-.83.581-1.337.68a2.827 2.827 0 0 1-1.57-.143c-.686-.261-1.083-.764-1.216-1.473-.079-.42-.08-.85-.08-1.278-.002-1.04.003-2.08.003-3.119 0-.025-.006-.05-.01-.076l.024-.069-.002-.003ZM96.278 55.251c-.003.662-.01 1.324-.004 1.985 0 .142-.03.19-.176.179a3.817 3.817 0 0 0-.58 0c-.143.01-.18-.03-.178-.176.008-1.01.004-2.019.004-3.028 0-.983.004-1.966-.003-2.951 0-.14.025-.19.175-.18.236.016.475.007.713.01l.01.148v.309c-.005.026 0 .042.032.034.17-.059.285-.2.438-.29 1.052-.62 2.934-.206 3.351 1.35.046.173.069.347.075.525v.579c-.054.483-.19.927-.528 1.3-.444.495-1.003.717-1.653.745-.313.014-.622.001-.922-.113-.26-.099-.511-.204-.692-.426l-.05-.052c-.004.017-.007.034-.012.049v.003Zm2.883-1.858c.022-.377-.057-.718-.318-1.014-.347-.397-.782-.52-1.291-.485-.533.037-.897.326-1.123.772-.219.435-.216.903-.041 1.367.276.736 1.236 1.175 1.99.76.556-.307.816-.767.782-1.4h.001ZM92.915 51.546c-.002-.543-.034-.458.46-.462.504-.003.51 0 .512.511.005 1.33 0 2.66.006 3.99 0 .107-.03.133-.13.13a9.77 9.77 0 0 0-.635 0c-.127.006-.156-.045-.145-.158.009-.09.003-.179.003-.268.009-.036.017-.094-.013-.096-.047-.003-.072.054-.1.094-.886.766-2.463.631-3.176-.143-.397-.431-.653-.928-.66-1.535-.003-.355-.02-.72.107-1.046.193-.498.477-.948.979-1.212.935-.49 1.835-.461 2.702.161.01.03.003.07.05.074l.027.031.014-.03.028-.013-.03-.028Zm-1.453 3.395c.954-.023 1.443-.675 1.447-1.529.004-.898-.586-1.494-1.427-1.526-.858-.033-1.555.827-1.503 1.61.053.785.783 1.517 1.483 1.445ZM110.31 51.277c-.016-.148.028-.214.197-.197.198.02.399.01.598.001.105-.004.14.022.14.134a790.434 790.434 0 0 0 0 4.356c0 .1-.012.15-.131.145a8.937 8.937 0 0 0-.675 0c-.091.002-.128-.026-.123-.12.006-.12 0-.243 0-.392-.13.108-.21.234-.349.302a2.693 2.693 0 0 1-1.627.255c-.93-.144-1.509-.69-1.818-1.55-.111-.308-.1-.639-.091-.963.013-.427.102-.829.346-1.191.543-.81 1.32-1.087 2.256-1.028.357.023.666.171.971.333l.306.269v-.354Zm-.028 2.047c.026-.496-.205-.934-.693-1.244-.468-.298-1.224-.242-1.655.106-.577.468-.699 1.288-.404 1.919.34.727 1.294 1.108 2.048.643.513-.314.699-.774.704-1.424ZM88.684 54.826c-.45.535-1.042.801-1.712.93-.313.06-.628.104-.946.072-.508-.053-1.002-.169-1.446-.431a3.099 3.099 0 0 1-1.483-2.013c-.075-.31-.04-.652-.022-.98.062-1.096.599-1.901 1.537-2.448.744-.433 1.54-.456 2.37-.345.6.08 1.092.342 1.529.738.185.166.18.217.012.392-.418.433-.429.449-.906.1-1.171-.858-3.162-.334-3.539 1.428-.215 1.006.452 2.102 1.326 2.464.904.375 1.68.206 2.414-.378.044-.035.092-.07.134-.11.074-.072.133-.067.207.012.171.182.352.356.528.534a.056.056 0 0 0-.003.035ZM48.848 54.325c.046-.124.088-.249.14-.37.6-1.365 1.209-2.727 1.795-4.097.088-.205.18-.292.4-.269.184.02.372.007.559.011.09.003.134.023.099.142a6.979 6.979 0 0 1-.317.835c-.702 1.593-1.404 3.184-2.104 4.779-.154.353-.148.356-.544.356-.128 0-.26-.015-.385.003-.191.03-.271-.068-.34-.225-.678-1.562-1.36-3.121-2.04-4.68-.152-.352-.338-.69-.464-1.054-.043-.125-.03-.154.105-.151.262.006.526-.002.79-.01.077-.001.117.011.156.096.648 1.392 1.25 2.804 1.852 4.215.065.153.168.289.204.454l.004.03.014-.03c.014-.002.028-.005.044-.006.024.004.038-.003.032-.031v.002ZM28.36 52.858c-.095.397-.06.798-.044 1.198a.321.321 0 0 0 0 .194c-.003.437-.016.874-.003 1.31.003.14-.039.161-.158.157a8.699 8.699 0 0 0-.636 0c-.13.006-.157-.038-.157-.163.006-1.767.008-3.534.01-5.303 0-.276.004-.552-.01-.828-.006-.141.025-.201.178-.192.199.01.398.008.597 0 .125-.006.165.032.163.162-.006.636-.003 1.272 0 1.91 0 .069-.024.14.019.206.003.008.006.022.012.023.02.008.033-.003.037-.023.828-.583 1.697-.66 2.601-.199.465.238.67.658.762 1.153.068.364.028.727.033 1.091.008.668 0 1.337.005 2.005 0 .122-.025.167-.156.159a5.476 5.476 0 0 0-.616 0c-.127.006-.16-.032-.16-.159.007-.796.016-1.593 0-2.39-.01-.397-.12-.76-.434-1.056-.301-.284-1.197-.275-1.54.023-.204.179-.397.366-.464.643-.01.027-.021.053-.034.08h-.004ZM56.245 53.395c-.309.024-.594.15-.898.2-.624.107-1.254.186-1.868.343a2.44 2.44 0 0 1-.46.085c-.132.044-.2.094-.203.151.264.499.699.718 1.244.769.526.05.956-.16 1.352-.476l.08-.058c.26.1.353.353.498.557.044.06-.024.128-.072.184-.295.345-.693.498-1.12.58-.74.142-1.465.086-2.109-.326-.644-.412-1-1.015-1.019-1.801-.012-.494.016-.968.269-1.42.526-.943 1.673-1.364 2.72-1.073.76.212 1.257.687 1.53 1.41.053.138.065.296.073.447.005.085.02.16.05.236-.02.064.007.144-.067.189v.003Zm-3.486-.079c.166.034.317-.05.48-.071a16.47 16.47 0 0 0 1.872-.373c.22-.056.23-.08.117-.286-.293-.543-.97-.824-1.613-.668-.528.128-.93.626-1.02 1.233-.023.157-.01.22.163.166v-.001ZM43.061 53.353c-.534.153-1.074.27-1.623.355a14.36 14.36 0 0 0-1.692.35c-.07-.012-.154-.02-.182.053-.035.093.046.156.102.22.27.36.633.56 1.077.614.554.068 1.019-.135 1.432-.48.08-.067.132-.053.195.007.134.13.242.281.352.432.072.1.015.18-.051.257-.269.31-.628.453-1.014.552a3.073 3.073 0 0 1-1.534-.009c-.843-.215-1.41-.769-1.632-1.605-.274-1.037.004-2.176 1.089-2.784 1.12-.627 2.827-.287 3.356 1.188.09.25.085.52.133.78l-.01.07h.002Zm-2.427-1.494c-.243.023-.556.105-.804.357-.258.26-.416.559-.482.93-.039.22.05.189.173.175a19.486 19.486 0 0 0 2.358-.46c.21-.055.23-.072.12-.258-.285-.481-.71-.731-1.365-.744ZM80.075 53.36c-.492.124-.983.245-1.489.315-.466.065-.926.179-1.39.272-.164.034-.33.07-.495.11-.177.042-.188.084-.084.228.461.65 1.467.889 2.166.446.13-.082.264-.16.386-.254.1-.074.167-.061.24.03.075.096.162.184.239.278.17.21.17.248-.019.432-.284.275-.63.418-1.014.503a3.16 3.16 0 0 1-1.028.062c-.835-.091-1.503-.456-1.91-1.221a2.023 2.023 0 0 1-.232-.965c0-.315-.028-.628.068-.943.147-.49.418-.886.824-1.184 1.031-.757 2.578-.537 3.285.439.225.311.407.651.412 1.057 0 .093.032.185.05.28l-.007.115h-.002Zm-3.753-.075c-.013.064.037.086.126.067.24-.05.479-.117.721-.143.574-.062 1.13-.218 1.695-.327.216-.042.227-.09.123-.297-.026-.05-.06-.099-.092-.145-.297-.415-.721-.59-1.21-.58-.743.015-1.254.636-1.362 1.425h-.001ZM58.553 51.36c.507-.296 1.056-.415 1.629-.313.85.15 1.43.56 1.557 1.511.102.761.019 1.525.043 2.286.008.238-.007.477.008.713.008.137-.042.162-.162.159a8.755 8.755 0 0 0-.636 0c-.119.005-.15-.032-.148-.151.006-.68.003-1.363.005-2.044 0-.293-.034-.582-.11-.867-.11-.414-.52-.72-.948-.726-.372-.004-.728 0-1.026.275a1.35 1.35 0 0 0-.46.915c-.062.803-.008 1.606-.005 2.41 0 .159-.047.196-.192.187a5.886 5.886 0 0 0-.618 0c-.139.007-.171-.045-.17-.177.008-1.246.01-2.494.013-3.74 0-.187.006-.374-.003-.56-.006-.129.043-.164.166-.158.193.009.386.009.58 0 .123-.006.178.032.164.157-.015.117-.02.233 0 .377l.312-.255.002.002ZM67.531 53.554c-.012.221.028.437.087.645.14.497.745.83 1.313.724.685-.128 1.107-.833 1.105-1.423 0-.751.002-1.505-.003-2.256 0-.117.019-.17.153-.162.211.012.424.009.636 0 .103-.003.142.018.142.134a822.4 822.4 0 0 0 0 4.359c0 .103-.019.148-.135.142-.199-.01-.398-.008-.597 0-.128.004-.173-.045-.163-.17.007-.102 0-.204 0-.329-.133.097-.221.225-.359.293-.549.27-1.12.354-1.722.226-.736-.158-1.205-.58-1.366-1.328a3.977 3.977 0 0 1-.077-.853c0-.766.012-1.53.008-2.295 0-.148.038-.19.182-.18.179.013.361.013.54 0 .168-.012.23.032.227.218-.01.63 0 1.26.003 1.891 0 .096.014.191.022.287 0 .026.003.051.003.077h.001ZM103.568 52.42c0-.769.006-1.456-.005-2.144-.003-.18.056-.22.218-.205.185.015.374.012.559.004.132-.006.185.037.179.175-.009.223.007.45-.008.674-.011.147.046.167.171.164.321-.008.642 0 .965-.003.136-.002.207.04.188.19-.011.087-.003.178-.001.27.003.208-.097.313-.3.313-.276 0-.552.006-.828-.003-.138-.005-.189.025-.187.177.007.758-.026 1.517.014 2.275.029.57.455.829.987.597.053-.023.101-.057.152-.083.123-.06.219-.05.27.099.048.143.123.278.157.427.025.112 0 .2-.102.241-.615.244-1.231.335-1.846-.01-.342-.194-.489-.505-.543-.874-.114-.786.013-1.574-.042-2.281l.002-.003ZM38.1 55.483a.288.288 0 0 1-.146.122c-.512.199-1.03.279-1.565.081-.611-.225-.796-.648-.802-1.177-.019-1.38-.007-2.76-.007-4.138 0-.033-.003-.064-.006-.096v-.116l.005-.04.037-.037c.273-.018.548.02.82-.028l.012.011.015-.008c.088.153.04.323.054.485.016.178-.075.408.048.516.096.083.318.024.485.027.193.002.386.013.577-.003.151-.012.191.053.187.185a6.06 6.06 0 0 0 .004.444c.007.12-.043.15-.159.15-.36-.005-.717 0-1.077.002-.026-.004-.043 0-.04.031v-.001l-.01.007c0 .008.004.016.005.023-.043.538-.007 1.075-.017 1.613-.004.263-.009.527.008.788.039.575.513.828 1.023.553.298-.158.3-.16.428.166.046.117.116.228.111.362 0 .027.003.051.005.078h.004ZM65.713 55.367c.03.133-.071.193-.158.228-.52.213-1.048.298-1.596.087a1.174 1.174 0 0 1-.725-.74c-.019-.052-.048-.103-.073-.154v-.077c0-1.474 0-2.948.002-4.422 0-.057.003-.114-.034-.164l.043-.041c.264-.002.526-.002.79-.008.094-.002.122.035.12.127-.002.243.01.489 0 .733-.004.118.027.154.147.15.335-.007.67.007 1.004-.005.152-.007.185.046.174.183-.012.14-.012.284 0 .425.01.131-.022.177-.164.171-.308-.012-.617 0-.926-.005-.165-.001-.259-.018-.245.237.04.731.034 1.466.015 2.197-.01.422.463.911 1.04.607.295-.156.295-.159.434.154.042.093.079.186.118.28-.008.028.007.035.03.038l.004-.001ZM113.65 51.988c.023.742-.04 1.559.025 2.373.037.47.316.67.736.615.057-.008.113-.022.17-.03.109-.015.176-.001.174.144 0 .157.04.315.037.474 0 .088-.02.145-.116.166-.551.124-1.08.109-1.551-.248-.193-.147-.29-.355-.342-.587a3.826 3.826 0 0 1-.084-.84c.005-1.542.009-3.084.006-4.626 0-.151.037-.204.193-.193.192.014.386.01.578-.006.163-.014.174.074.172.197v2.56h.002ZM73.43 51.548c.46-.378.984-.562 1.58-.538.01.026.017.05.026.077-.003.226-.015.455-.004.68.006.114-.022.167-.135.17h-.077c-.844-.034-1.387.616-1.43 1.334-.045.751-.027 1.501-.017 2.253.001.153-.036.202-.189.193a6.263 6.263 0 0 0-.616 0c-.11.003-.155-.022-.154-.148.008-1.433.012-2.865.01-4.297 0-.154.041-.202.194-.19.179.014.36.01.538 0 .122-.006.178.023.164.157-.01.102.002.206.005.308-.011.034-.022.088.009.09.048.005.076-.047.097-.092l-.001.003ZM34.171 53.4c0 .72-.003 1.439.003 2.158 0 .111-.01.165-.14.159-.232-.01-.463-.006-.693 0-.102.003-.125-.033-.125-.134.006-1.362.004-2.725.012-4.086 0-.13-.087-.292.014-.381.096-.087.258-.023.392-.03.122-.006.245.008.366-.002.14-.013.168.046.168.177-.006.713-.003 1.426-.003 2.14h.008-.002ZM101.208 53.399c0-.72.003-1.44-.003-2.16 0-.124.029-.163.158-.157.217.011.436.008.655 0 .093-.003.119.027.118.12-.003 1.465-.003 2.93 0 4.396 0 .093-.025.12-.118.12a9.29 9.29 0 0 0-.655 0c-.127.005-.159-.033-.158-.158.006-.72.003-1.44.003-2.16V53.4ZM33.673 49.156c.413 0 .626.193.634.565.006.3-.22.61-.692.594-.271-.01-.581-.315-.58-.583.002-.341.263-.576.638-.576ZM101.668 49.156c.38 0 .585.154.584.44 0 .51-.192.724-.632.728-.291.003-.583-.256-.602-.62-.017-.332.249-.548.65-.548Z"/><path fill="#48193C" d="m60.16 15.097-.008.688c-.088-.012-.174-.026-.262-.039-.01-.22.057-.441 0-.662.09-.152.165-.15.271.013h-.001ZM38.386 32.452c-.065.254-.114.514-.287.793 0-.29-.12-.494-.165-.716.15-.03.294-.094.452-.077ZM97.739 14.659h-.772c.004-.019.003-.04.014-.054.163-.212.642-.176.758.054ZM48.437 15.784l-.015-.73c.03.008.066.008.088.027.147.12.096.6-.073.703ZM51.785 32.488c-.035.11-.074.23-.03.333.042.096-.035.107-.066.12-.07.033-.06-.046-.07-.08-.035-.136-.06-.273-.092-.41.085.015.19-.105.257.037h.001ZM78.164 31.134c.094-.27.13-.558.281-.806.048.038.099.113.068.145-.162.174-.117.421-.233.608-.028.043-.067.057-.116.053ZM101.752 15.2a2.768 2.768 0 0 1-.58-.144c.177-.21.447-.143.58.144ZM58.555 51.362c-.096.08-.193.158-.312.255a1.231 1.231 0 0 1 0-.376c.133-.033.216.063.313.121h-.001ZM110.309 51.277v.353l-.305-.268c.076-.124.185-.12.305-.085ZM74.668 41.131c.052-.215.12-.423.213-.623.01.007.026.012.03.023.05.136-.107.524-.243.6ZM41.707 25.387c.014-.068.026-.136.045-.203.017-.058-.028-.126.054-.202.08.147.052.309.102.448l-.201-.043ZM100.137 53.746v-.578c.142.156.142.461 0 .578ZM78.455 30.29c.048-.141.096-.283.142-.425.15.165.105.3-.142.426ZM80.494 24.466l.12-.386c.124.13.062.33-.12.386ZM56.607 19.024c-.001-.145.068-.268.112-.401.09.245.069.32-.112.401ZM92.715 21.182l.096-.39c.125.175.09.319-.096.39ZM76.885 34.76c.037-.13.065-.262.136-.38.1.12.037.297-.136.38ZM103.95 15.777c-.102.022-.189-.014-.27-.07.026-.124.126-.075.197-.073.094.003.067.085.074.143h-.001ZM100.864 15.008c-.08-.059-.198.005-.27-.08.032-.1.112-.118.197-.096.088.023.071.108.073.176ZM83.303 16.36l.1-.311c.14.12.105.23-.1.311ZM39.67 54.333c-.056-.065-.138-.127-.103-.221.028-.074.113-.065.182-.054.014.103-.074.177-.08.275ZM52.43 34.722c.017-.105.044-.207.09-.304.116.023.081.114.07.18-.012.082-.07.128-.16.124ZM77.027 34.34l.115-.385c.09.097.032.295-.115.386ZM70.076 16.633a1.392 1.392 0 0 1-.119-.346c.174.07.158.204.119.346ZM51.99 36.387c.036-.086.002-.193.073-.27.112.12.09.207-.073.27ZM106.293 35.459l.018-.267c.085-.007.11.04.107.117-.002.086-.022.151-.127.15h.002ZM52.904 28.17c-.023.078-.023.163-.074.231-.096-.012-.084-.083-.073-.145.014-.082.08-.088.148-.086h-.001ZM79.533 27.165l.116-.347c.057.008.086.045.059.093-.051.09-.07.202-.175.256v-.002ZM52.9 32.913l.08-.23c.092.011.082.078.073.14-.014.087-.082.095-.153.09ZM50.742 41.05l.076-.27c.108.124.079.23-.076.27ZM57.358 16.132c-.008-.127.077-.164.177-.187.014.131-.035.202-.177.187ZM96.242 51.24l-.01-.149c.06-.074.122-.048.144.022.032.106-.051.125-.134.126ZM82.6 18.402c.027-.12.066-.234.125-.344.074.158-.003.26-.125.345ZM53.055 32.331l.086-.267c.113.11.085.195-.086.267ZM53.219 31.756c.026-.09.05-.18.077-.27.103.11.085.176-.077.27ZM52.816 54.174c.003-.056.071-.107.204-.15.01.154-.1.147-.204.15ZM51.217 39.281l.062-.234c.117.123.104.174-.062.234ZM55.68 17.213l-.05.199c-.063-.005-.109-.028-.1-.102.011-.09.078-.099.15-.097ZM51.371 38.702l.07-.232c.11.108.09.172-.07.232ZM75.582 38.544c.03-.114.028-.237.116-.331-.01.12.072.273-.116.331ZM92.344 31.832v-.309c.11.104.11.205 0 .309ZM52.747 28.787c.012.072-.028.134-.048.199-.057-.019-.105-.048-.094-.116.012-.08.079-.083.142-.083ZM106.332 35.07l.015-.228c.079.009.113.057.105.132-.007.07-.054.098-.12.096ZM53.21 26.974a.26.26 0 0 1-.07.195c-.114-.125-.105-.155.07-.195ZM56.246 53.395c.074-.045.046-.123.066-.188.073.01.115.054.1.126-.02.1-.104.057-.166.062ZM53.99 23.886c.01.084-.03.156-.052.232-.12-.108-.102-.185.052-.232ZM52.603 34.071l.07-.231c.099.094.086.137-.07.231ZM81.879 20.452c0-.073.032-.135.066-.196.116.084.105.117-.066.196ZM57.08 17.25l.06-.196c.044.008.088.014.07.078-.019.066-.036.132-.128.118h-.002ZM74.936 40.36c.013-.064.029-.127.043-.192.055.007.106.026.096.094-.013.072-.062.11-.14.099ZM21.03 49.605c-.056.076.004.167-.03.246-.047-.09-.108-.18.03-.246ZM54.753 20.876l-.048.199c-.05-.017-.1-.036-.088-.1.014-.072.062-.107.136-.1ZM53.056 27.552l-.047.193c-.056-.008-.105-.03-.093-.095.014-.071.063-.108.14-.098ZM76.172 36.85c0-.072.03-.134.065-.196.119.085.108.116-.065.196ZM76.482 35.962l.042-.193c.053.008.108.025.094.088-.014.063-.066.1-.136.105ZM81.68 21.028c.01-.094.021-.188.083-.267.01.1.066.216-.083.267ZM53.668 25.16c-.056.052.006.146-.068.194-.145-.123-.062-.166.068-.194ZM53.516 25.777c-.053.062-.003.154-.062.215-.08-.1-.156-.2.062-.215ZM53.363 26.355c.01.073-.031.133-.048.2-.116-.1-.076-.16.048-.2ZM92.998 20.067c-.023-.082.023-.142.067-.204.028.083.12.188-.067.204ZM54.333 27.59c.022-.087-.052-.198.07-.256-.016.088.072.202-.07.256ZM79.41 15.052c-.059.038-.026.105-.048.154-.094-.021-.077-.097-.057-.153.02-.055.068-.044.105-.003v.002ZM55.522 17.83c0 .074-.014.143-.07.196-.031-.085-.109-.187.07-.196ZM81.11 22.69c0-.073.027-.136.063-.198.094.102.064.165-.064.197ZM92.861 20.57c.013-.067.007-.138.053-.195.05.083.092.163-.053.194ZM79.258 27.977a.403.403 0 0 1 .066-.196c.085.102.059.165-.066.196ZM81.264 22.227a.364.364 0 0 1 .07-.202c.031.087.113.19-.07.202ZM53.992 28.825c-.02-.078.045-.13.066-.192.078.098.047.16-.066.192ZM54.134 23.308c-.012.07-.018.14-.07.196-.03-.085-.107-.185.07-.196ZM52.125 31.254c-.02.072-.04.143-.062.216-.022-.084-.128-.192.062-.216ZM54.48 27.047c0-.056.005-.108.042-.153.09.062.082.094-.041.153ZM28.314 54.25a.321.321 0 0 1 0-.194c.082.065.08.13 0 .195ZM76.795 35.035l.05-.16c.087.086.095.148-.05.16ZM40.707 24.386c-.057.06 0 .153-.064.21-.023-.083-.123-.19.064-.21ZM55.055 19.68l-.04.155c-.057-.009-.072-.046-.063-.097.009-.06.058-.055.103-.059v.002ZM81.61 15.947h.23c-.076.04-.154.142-.23 0ZM82.346 19.14l.043-.154c.042.006.074.023.065.071-.011.06-.054.079-.108.083ZM77.707 32.41c0-.061.01-.117.06-.158.114.103.039.136-.06.159ZM80.682 23.924a.257.257 0 0 1 .048-.153c.042.006.074.023.065.074-.013.06-.057.079-.113.08v-.001ZM76.056 37.197c-.009-.059.025-.105.047-.154.095.078.088.1-.047.154ZM78.025 31.525l.053-.16c.102.093.048.134-.053.16ZM92.34 23.887c0-.042-.03-.09.028-.118.038.006.079.014.074.064-.006.061-.06.049-.102.054ZM55.228 24.195c-.03-.066.039-.102.048-.154.08.075.07.105-.048.154ZM106.15 32.715c-.052-.002-.113.036-.156-.028.063-.058.121-.075.156.028ZM41.02 23.308a.132.132 0 0 1-.035.116c-.03-.006-.07-.008-.062-.05.008-.05.052-.063.097-.066ZM51.098 39.743c.003-.04-.031-.087.023-.118.029.006.07.003.068.046-.004.054-.047.066-.093.072h.002ZM53.387 31.133c.015-.05.03-.1.048-.15.08.08.081.135-.048.15ZM76.342 36.341l.058-.148c.054.079.07.142-.058.148ZM53.861 29.361c.005-.053 0-.11.044-.152.058.07.077.13-.044.152ZM55.681 22.535c0-.043-.003-.087.033-.117.034.006.08.007.066.058-.012.048-.056.057-.1.059h.001ZM92.534 22.149c-.021-.05.013-.082.037-.116.039.006.074.02.065.066-.01.057-.062.045-.102.05ZM85.164 15.322v-.154c.102.05.102.103 0 .154ZM75.356 32.348a.333.333 0 0 1-.065-.167c.122.017.11.087.065.167ZM80.353 24.843c.022-.048.013-.11.06-.148.056.079.072.142-.06.148ZM82.978 17.32l.038-.113c.033.007.086.006.078.055-.009.062-.065.065-.115.06v-.001ZM38.12 37.848c.007-.052.002-.11.045-.151.057.072.078.134-.046.151ZM54.284 22.728l-.035.116c-.03-.006-.065-.01-.059-.05.01-.047.05-.061.093-.066h.001ZM55.207 19.111c-.014.053-.005.114-.062.148-.028-.07-.088-.152.062-.148ZM75.867 37.66l.039-.115c.038.006.072.021.063.067-.012.058-.062.045-.102.048ZM52.406 30.058c-.012.053.03.12-.04.156-.02-.06-.093-.136.04-.156ZM52.58 29.45c-.014.052-.005.113-.062.147-.028-.07-.088-.152.062-.148ZM55.831 16.634c-.012.039-.024.077-.038.116-.039-.006-.074-.02-.065-.068.01-.057.062-.045.102-.05l.002.002ZM54.874 20.338c-.008.058.017.123-.034.174-.013-.063-.108-.142.034-.174ZM53.796 24.582c-.007.06.016.125-.032.177-.008-.063-.116-.143.032-.177ZM79.109 28.4c-.008-.044.017-.08.038-.115.03.006.065.01.058.05-.01.049-.051.063-.096.066ZM35.577 50.16v.116c-.039-.007-.071-.019-.067-.067.005-.038.036-.043.065-.05h.002ZM82.516 18.631l.04-.114c.03.014.052.036.046.071-.01.048-.05.047-.086.045v-.002ZM82.886 17.6c.005-.04-.029-.092.031-.118.067.059.054.097-.03.117ZM74.123 28.67c-.006-.041-.134.028-.07-.077.051 0 .071.03.07.078ZM56.46 19.566c.003-.04-.03-.09.027-.117.066.055.058.096-.027.117ZM43.065 53.356l.009-.071c.05.008.085.03.058.083-.02.04-.047.014-.066-.012h-.002ZM76.048 33.646c.006.033-.01.057-.032.077-.025-.003-.06-.006-.059-.035.005-.057.057-.036.091-.042ZM76.606 35.499c-.006-.062.02-.11.064-.152-.008.056.026.13-.064.152ZM80.074 53.361l.006-.115c.091.043.088.082-.006.115ZM56.135 20.758c.012-.038.004-.084.043-.114.068.07.045.104-.043.114ZM34.81 15.09c-.033-.026-.107.019-.107-.061.065-.03.102-.011.107.061ZM92.875 55.29c.026-.04.052-.098.1-.095.031.002.022.06.013.096h-.113v-.002ZM53.71 29.942l.01-.116c.031.006.063.014.065.052.002.051-.035.059-.074.064ZM52.261 30.68l-.022.112c-.032-.008-.063-.017-.061-.059.003-.052.043-.054.082-.054l.001.002ZM73.43 51.548c-.022.044-.05.096-.097.093-.031-.003-.02-.058-.01-.09h.109l-.002-.003ZM70.73 15.947h.116c-.006.039-.02.07-.066.065-.037-.005-.043-.034-.05-.065ZM55.492 54.41l-.08.06c.008-.03.008-.066.025-.086.018-.02.043.003.055.026ZM79.342 27.667c.012-.027.026-.051.038-.078.025.005.058.011.053.04-.01.052-.059.031-.091.038ZM39.212 16.746c.027.034.117.052.032.117-.043-.03-.031-.075-.032-.117ZM74.673 30.407c0-.026-.004-.051-.005-.077.028.004.063.006.057.045-.003.013-.034.021-.052.032ZM54.65 26.395a.078.078 0 0 1 .028-.079c.06.051.025.068-.028.079ZM55.575 22.885c-.007-.031-.023-.064.02-.08.064.044.038.066-.02.08ZM75.414 39.003l.028-.07c.025.005.057.013.05.042-.007.042-.047.03-.078.03v-.002ZM21.502 55.088a.147.147 0 0 1 .091.08c-.06.006-.093-.017-.091-.08ZM94.265 14.93h-.078c.005-.024.007-.053.04-.053.031 0 .035.029.038.054ZM105.722 15.05l-.077-.001c.01-.019.018-.053.03-.054.041-.008.041.03.047.057v-.002ZM104.102 40.395c.015-.046.047-.03.078-.023-.012.055-.032.083-.078.023ZM40.904 22.228c.039.013.088.014.07.077-.048-.003-.071-.029-.07-.077ZM51.941 31.912l-.008.075c-.018-.01-.052-.02-.054-.034-.004-.041.034-.038.062-.041ZM37.172 41.093c.01-.027.022-.051.03-.078.058.054.02.068-.03.078ZM63.165 54.713v.077c-.019-.011-.051-.017-.054-.031-.01-.04.028-.04.055-.046h-.001ZM78.954 28.825c-.006-.031-.019-.065.026-.08.063.052.028.069-.026.08ZM55.883 21.724c-.007-.03-.021-.063.022-.08.063.047.035.068-.022.08ZM72.197 15.908h.077c-.004.024-.007.052-.038.052s-.034-.03-.039-.054v.002ZM85.082 15.935c.01-.043.05-.03.077-.039-.006.051-.012.102-.077.039ZM67.528 53.553c0-.026-.003-.05-.003-.077.039.023.042.05.003.077ZM39.68 32.373c-.008-.03-.022-.064.023-.078.064.047.033.067-.023.078ZM38.86 15.952c.052-.012.075.014.08.062-.044 0-.075-.014-.08-.062ZM17.2 49.627c-.009.023-.016.047-.024.07-.026-.008-.068-.005-.054-.048.01-.035.048-.022.077-.022ZM55.838 15.952c.05-.005.11-.062.142.026-.048-.005-.1.013-.142-.026ZM28.36 52.858l.033-.079c.074.062.023.072-.034.079ZM74.818 51.937h.078c-.007.028-.007.065-.047.056-.014-.003-.021-.036-.03-.054v-.002ZM80.953 15.947h.077c-.003.025-.007.054-.038.054s-.036-.03-.039-.054ZM46.182 38.357c.038.01.05.037.04.074-.045-.008-.09-.015-.04-.074ZM55.074 24.774c-.008-.031-.02-.065.025-.079.063.048.03.068-.025.079ZM56.347 19.953c-.008-.032-.019-.064.026-.078.063.05.028.068-.026.078ZM77.47 33.103l.016-.074c.019.012.053.025.053.037 0 .042-.039.035-.068.037ZM93.156 19.565c.011-.026.022-.05.031-.077.056.053.019.068-.03.077ZM75.036 51.087l-.026-.078c.021.01.052.013.061.028.016.028-.01.042-.035.05ZM39.063 34.534l.027-.077c.056.05.022.066-.028.077ZM25.084 17.908c.022.026.086.012.07.075-.048-.003-.07-.029-.07-.075ZM93.338 19.064c-.001-.03-.001-.061.031-.08.067.056.023.07-.03.08ZM38.1 55.483c0-.026-.003-.05-.004-.077.024.003.052.006.055.037.002.03-.026.037-.05.04ZM75.936 33.878c-.004.028-.022.042-.047.034-.038-.012-.023-.045-.021-.072l.068.038ZM96.281 55.252l.013-.05.049.053h-.062v-.003ZM28.364 51.51c-.005.02-.016.032-.037.023-.006-.004-.008-.016-.013-.023h.05Z"/><path fill="#48193C" d="M41.68 25.468c-.005-.034 0-.064.032-.084.004.034 0 .065-.033.084ZM92.877 51.587c-.046-.004-.04-.044-.049-.074.04.01.048.039.05.075ZM92.916 51.548l.03.028-.028.014v-.042h-.002ZM96.27 51.583c-.03.007-.037-.008-.032-.035l.032.035Z"/><path fill="#48193C" d="m92.917 51.587-.014.03-.028-.031h.042v.001ZM36.541 51.894c-.003-.032.016-.037.04-.03l-.04.03ZM83.276 16.402c-.01-.026.008-.037.03-.043l-.03.043ZM38.94 16.013Z"/><path fill="#48193C" d="M36.537 51.923s-.006-.015-.006-.023c0-.003.006-.006.011-.008.002.011 0 .022-.003.031h-.002ZM82.113 15.947c.026-.006.037.003.031.03l-.03-.03ZM52.875 32.952c-.011-.028.004-.038.027-.042l-.027.042ZM40.757 28.592c-.01-.028.007-.037.029-.043l-.03.043ZM61.432 15.949h.037c-.013.017-.025.017-.037 0ZM36.461 50.056l-.015.008-.012-.011c.01-.01.02-.008.027.003ZM76.564 35.615c-.006-.028.008-.037.032-.037l-.032.037ZM86.082 35.713l.014.005-.014-.011v.006ZM53.03 32.375c-.013-.026.003-.037.026-.043-.01.014-.017.03-.026.043ZM56.443 19.638l.013-.033a.043.043 0 0 1-.013.033ZM92.691 21.225c-.01-.027.005-.038.026-.044l-.026.044ZM18.103 49.602l-.019.004-.014-.01.033.007v-.001ZM55.96 21.378c-.01-.027.007-.038.028-.044l-.028.044ZM103.6 15.7c-.028.008-.037-.007-.041-.03l.041.03ZM103.369 15.625c-.023-.006-.047-.012-.068-.02a.922.922 0 0 1 .068.02ZM48.849 54.326c.006.028-.008.035-.033.03l.033-.03ZM48.77 54.363l-.013.03-.005-.03h.02-.002ZM98.285 15.586l.031.004c-.01 0-.022 0-.03-.004ZM102.29 15.353c-.026.008-.037-.008-.04-.031l.04.03ZM102.058 15.279c-.028.007-.04-.007-.046-.031l.046.03ZM50.714 41.094c-.01-.028.007-.037.028-.044l-.028.044ZM55.273 23.962c-.019-.03.003-.033.024-.037-.007.013-.017.025-.024.037ZM88.682 54.826a.047.047 0 0 1 .003-.035c.003.009.007.017.007.026 0 .003-.007.006-.01.01ZM77.951 31.68c-.008-.028.01-.037.031-.042l-.03.042ZM45.382 35.925l-.005-.02.002.012.003.008ZM92.384 23.654c0-.012 0-.025.002-.037.003.01.008.017.01.026 0 .003-.009.006-.013.01h.001ZM92.38 23.269c-.007-.028.009-.036.032-.039-.011.012-.02.026-.031.039ZM41.067 27.512c-.01-.028.008-.037.03-.044l-.03.044ZM100.127 14.853l-.037-.004c.015-.017.028-.014.037.004ZM65.715 55.366c-.024-.001-.04-.01-.031-.038a.36.36 0 0 1 .03.038Z"/></svg>