<svg width="22" height="20" viewBox="0 0 22 20" fill="none" xmlns="http://www.w3.org/2000/svg">
<path d="M10.0374 3.06211L10.0372 3.06236L4.40547 8.69408L4.06405 9.0355H4.54689L20.625 9.0355C20.9201 9.0355 21.203 9.15271 21.4117 9.36134C21.6203 9.56998 21.7375 9.85294 21.7375 10.148C21.7375 10.443 21.6203 10.726 21.4117 10.9347C21.203 11.1433 20.9201 11.2605 20.625 11.2605L4.54689 11.2605H4.06418L4.40544 11.6019L10.0372 17.2358L10.0372 17.2358C10.2462 17.4449 10.3637 17.7284 10.3637 18.0241C10.3637 18.3197 10.2462 18.6033 10.0372 18.8124C9.82812 19.0214 9.54458 19.1389 9.24892 19.1389C8.95326 19.1389 8.66971 19.0214 8.46065 18.8124L0.585654 10.9374L0.585408 10.9371C0.481693 10.8338 0.399401 10.7109 0.343251 10.5757C0.287101 10.4405 0.258197 10.2955 0.258197 10.1491C0.258197 10.0027 0.287101 9.85769 0.343251 9.72246C0.399401 9.58724 0.481693 9.46442 0.585408 9.36107L0.585653 9.36082L8.46065 1.48582L8.4609 1.48558C8.56425 1.38186 8.68707 1.29957 8.82229 1.24342C8.95752 1.18727 9.1025 1.15837 9.24892 1.15837C9.39534 1.15837 9.54032 1.18727 9.67555 1.24342C9.81077 1.29957 9.93359 1.38186 10.0369 1.48558L10.0374 1.48607C10.1411 1.58942 10.2234 1.71224 10.2796 1.84746C10.3357 1.98269 10.3646 2.12767 10.3646 2.27409C10.3646 2.42051 10.3357 2.56549 10.2796 2.70072C10.2234 2.83594 10.1411 2.95876 10.0374 3.06211Z" fill="url(#paint0_linear_2694_332)" stroke="white" stroke-width="0.4"/>
<defs>
<linearGradient id="paint0_linear_2694_332" x1="10.9978" y1="20.0708" x2="10.9978" y2="-0.879684" gradientUnits="userSpaceOnUse">
<stop stop-color="#162770"/>
<stop offset="0.202053" stop-color="#382361"/>
<stop offset="0.39085" stop-color="#8A357D"/>
<stop offset="0.595602" stop-color="#E64996"/>
<stop offset="0.7844" stop-color="#EB463D"/>
<stop offset="1" stop-color="#ED6550"/>
</linearGradient>
</defs>
</svg>
