<svg width="28" height="29" viewBox="0 0 28 29" fill="none" xmlns="http://www.w3.org/2000/svg">
<path d="M14.9626 7.06211L14.9628 7.06236L20.5946 12.6941L20.936 13.0355H20.4531L4.37502 13.0355C4.07996 13.0355 3.797 13.1527 3.58836 13.3613C3.37973 13.57 3.26252 13.8529 3.26252 14.148C3.26252 14.443 3.37973 14.726 3.58836 14.9347C3.797 15.1433 4.07996 15.2605 4.37502 15.2605L20.4531 15.2605H20.9359L20.5946 15.6019L14.9629 21.2358L14.9628 21.2358C14.7538 21.4449 14.6363 21.7284 14.6363 22.0241C14.6363 22.3197 14.7538 22.6033 14.9628 22.8124C15.1719 23.0214 15.4555 23.1389 15.7511 23.1389C16.0468 23.1389 16.3303 23.0214 16.5394 22.8124L24.4144 14.9374L24.4146 14.9371C24.5183 14.8338 24.6006 14.7109 24.6568 14.5757C24.7129 14.4405 24.7418 14.2955 24.7418 14.1491C24.7418 14.0027 24.7129 13.8577 24.6568 13.7225C24.6006 13.5872 24.5183 13.4644 24.4146 13.3611L24.4144 13.3608L16.5394 5.48582L16.5391 5.48558C16.4358 5.38186 16.313 5.29957 16.1777 5.24342C16.0425 5.18727 15.8975 5.15837 15.7511 5.15837C15.6047 5.15837 15.4597 5.18727 15.3245 5.24342C15.1893 5.29957 15.0664 5.38186 14.9631 5.48558L14.9626 5.48607C14.8589 5.58942 14.7766 5.71224 14.7204 5.84746C14.6643 5.98269 14.6354 6.12767 14.6354 6.27409C14.6354 6.42051 14.6643 6.56549 14.7204 6.70072C14.7766 6.83594 14.8589 6.95876 14.9626 7.06211Z" fill="url(#paint0_linear_2694_308)" stroke="white" stroke-width="0.4"/>
<defs>
<linearGradient id="paint0_linear_2694_308" x1="14.0022" y1="27.6605" x2="13.1967" y2="4.98698" gradientUnits="userSpaceOnUse">
<stop stop-color="#181B4E"/>
<stop offset="0.328448" stop-color="#9B3581"/>
<stop offset="0.635057" stop-color="#E84680"/>
<stop offset="1" stop-color="#EC614E"/>
</linearGradient>
</defs>
</svg>
