<svg width="41" height="40" viewBox="0 0 41 40" fill="none" xmlns="http://www.w3.org/2000/svg">
<g opacity="0.3" clip-path="url(#clip0_1466_2171)">
<path d="M15.387 20H4.27759V19.9844C4.27759 16.9297 5.79321 14.1016 8.33228 12.4062L15.301 7.75781C16.2151 7.14844 16.4573 5.92187 15.8479 5.00781C15.4651 4.4375 14.8401 4.125 14.1917 4.125C13.8167 4.125 13.4338 4.23437 13.0901 4.46094L6.12134 9.10938C2.48853 11.5312 0.308838 15.6016 0.308838 19.9844V35.0781C0.308838 35.5156 0.6604 35.875 1.10571 35.875H15.387C15.8245 35.875 16.1838 35.5234 16.1838 35.0781V20.7969C16.1838 20.3516 15.8323 20 15.387 20ZM39.1995 20H28.0901V19.9844C28.0901 16.9297 29.6057 14.1016 32.1448 12.4062L39.1135 7.75781C40.0276 7.14844 40.2698 5.92187 39.6604 5.00781C39.2776 4.4375 38.6526 4.125 38.0042 4.125C37.6292 4.125 37.2463 4.23437 36.9026 4.46094L29.9338 9.10938C26.2854 11.5391 24.1135 15.6016 24.1135 19.9844V35.0781C24.1135 35.5156 24.4651 35.875 24.9104 35.875H39.1995C39.637 35.875 39.9963 35.5234 39.9963 35.0781V20.7969C39.9963 20.3516 39.637 20 39.1995 20Z" fill="url(#paint0_linear_1466_2171)"/>
</g>
<defs>
<linearGradient id="paint0_linear_1466_2171" x1="-1.27164" y1="20" x2="43.9651" y2="20" gradientUnits="userSpaceOnUse">
<stop stop-color="#162770"/>
<stop offset="0.202053" stop-color="#382361"/>
<stop offset="0.39085" stop-color="#8A357D"/>
<stop offset="0.595602" stop-color="#E64996"/>
<stop offset="0.7844" stop-color="#EB463D"/>
<stop offset="1" stop-color="#ED6550"/>
</linearGradient>
<clipPath id="clip0_1466_2171">
<rect width="40" height="40" fill="white" transform="translate(0.152588)"/>
</clipPath>
</defs>
</svg>
