<svg width="44" height="45" viewBox="0 0 44 45" fill="none" xmlns="http://www.w3.org/2000/svg">
<rect x="0.5" y="0.647949" width="43" height="43" rx="21.5" fill="white"/>
<path d="M21.0374 15.0621L21.0372 15.0624L15.4055 20.6941L15.064 21.0355H15.5469H31.625C31.9201 21.0355 32.203 21.1527 32.4117 21.3613C32.6203 21.57 32.7375 21.8529 32.7375 22.148C32.7375 22.443 32.6203 22.726 32.4117 22.9347C32.203 23.1433 31.9201 23.2605 31.625 23.2605H15.5469H15.0642L15.4054 23.6019L21.0372 29.2358L21.0372 29.2358C21.2462 29.4449 21.3637 29.7284 21.3637 30.0241C21.3637 30.3197 21.2462 30.6033 21.0372 30.8124C20.8281 31.0214 20.5446 31.1389 20.2489 31.1389C19.9533 31.1389 19.6697 31.0214 19.4607 30.8124L11.5857 22.9374L11.5854 22.9371C11.4817 22.8338 11.3994 22.7109 11.3433 22.5757C11.2871 22.4405 11.2582 22.2955 11.2582 22.1491C11.2582 22.0027 11.2871 21.8577 11.3433 21.7225C11.3994 21.5872 11.4817 21.4644 11.5854 21.3611L11.5857 21.3608L19.4607 13.4858L19.4609 13.4856C19.5643 13.3819 19.6871 13.2996 19.8223 13.2434C19.9575 13.1873 20.1025 13.1584 20.2489 13.1584C20.3953 13.1584 20.5403 13.1873 20.6755 13.2434C20.8108 13.2996 20.9336 13.3819 21.0369 13.4856L21.0374 13.4861C21.1411 13.5894 21.2234 13.7122 21.2796 13.8475C21.3357 13.9827 21.3646 14.1277 21.3646 14.2741C21.3646 14.4205 21.3357 14.5655 21.2796 14.7007C21.2234 14.8359 21.1411 14.9588 21.0374 15.0621Z" fill="url(#paint0_linear_1466_2162)" stroke="white" stroke-width="0.4"/>
<rect x="0.5" y="0.647949" width="43" height="43" rx="21.5" stroke="url(#paint1_linear_1466_2162)"/>
<defs>
<linearGradient id="paint0_linear_1466_2162" x1="21.9978" y1="32.0708" x2="21.9978" y2="11.1203" gradientUnits="userSpaceOnUse">
<stop stop-color="#162770"/>
<stop offset="0.202053" stop-color="#382361"/>
<stop offset="0.39085" stop-color="#8A357D"/>
<stop offset="0.595602" stop-color="#E64996"/>
<stop offset="0.7844" stop-color="#EB463D"/>
<stop offset="1" stop-color="#ED6550"/>
</linearGradient>
<linearGradient id="paint1_linear_1466_2162" x1="-0.728582" y1="22.148" x2="45.4255" y2="22.148" gradientUnits="userSpaceOnUse">
<stop stop-color="#131D56"/>
<stop offset="0.269162" stop-color="#33145D"/>
<stop offset="0.522689" stop-color="#63166A"/>
<stop offset="0.702487" stop-color="#A4267B"/>
<stop offset="0.848653" stop-color="#DB327C"/>
<stop offset="1" stop-color="#EB4B46"/>
</linearGradient>
</defs>
</svg>
