<svg width="44" height="45" viewBox="0 0 44 45" fill="none" xmlns="http://www.w3.org/2000/svg">
<rect x="-0.5" y="0.5" width="43" height="43" rx="21.5" transform="matrix(-1 0 0 1 43 0.147949)" fill="white"/>
<path d="M22.9626 15.0621L22.9628 15.0624L28.5946 20.6941L28.936 21.0355H28.4531H12.375C12.08 21.0355 11.797 21.1527 11.5884 21.3613C11.3797 21.57 11.2625 21.8529 11.2625 22.148C11.2625 22.443 11.3797 22.726 11.5884 22.9347C11.797 23.1433 12.08 23.2605 12.375 23.2605H28.4531H28.9359L28.5946 23.6019L22.9629 29.2358L22.9628 29.2358C22.7538 29.4449 22.6363 29.7284 22.6363 30.0241C22.6363 30.3197 22.7538 30.6033 22.9628 30.8124C23.1719 31.0214 23.4555 31.1389 23.7511 31.1389C24.0468 31.1389 24.3303 31.0214 24.5394 30.8124L32.4144 22.9374L32.4146 22.9371C32.5183 22.8338 32.6006 22.7109 32.6568 22.5757C32.7129 22.4405 32.7418 22.2955 32.7418 22.1491C32.7418 22.0027 32.7129 21.8577 32.6568 21.7225C32.6006 21.5872 32.5183 21.4644 32.4146 21.3611L32.4144 21.3608L24.5394 13.4858L24.5391 13.4856C24.4358 13.3819 24.313 13.2996 24.1777 13.2434C24.0425 13.1873 23.8975 13.1584 23.7511 13.1584C23.6047 13.1584 23.4597 13.1873 23.3245 13.2434C23.1893 13.2996 23.0664 13.3819 22.9631 13.4856L22.9626 13.4861C22.8589 13.5894 22.7766 13.7122 22.7204 13.8475C22.6643 13.9827 22.6354 14.1277 22.6354 14.2741C22.6354 14.4205 22.6643 14.5655 22.7204 14.7007C22.7766 14.8359 22.8589 14.9588 22.9626 15.0621Z" fill="url(#paint0_linear_1466_2180)" stroke="white" stroke-width="0.4"/>
<rect x="-0.5" y="0.5" width="43" height="43" rx="21.5" transform="matrix(-1 0 0 1 43 0.147949)" stroke="url(#paint1_linear_1466_2180)"/>
<defs>
<linearGradient id="paint0_linear_1466_2180" x1="22.0022" y1="35.6605" x2="21.1967" y2="12.987" gradientUnits="userSpaceOnUse">
<stop stop-color="#181B4E"/>
<stop offset="0.328448" stop-color="#9B3581"/>
<stop offset="0.635057" stop-color="#E84680"/>
<stop offset="1" stop-color="#EC614E"/>
</linearGradient>
<linearGradient id="paint1_linear_1466_2180" x1="-0.728582" y1="22.0001" x2="45.4255" y2="22.0001" gradientUnits="userSpaceOnUse">
<stop stop-color="#131D56"/>
<stop offset="0.269162" stop-color="#33145D"/>
<stop offset="0.522689" stop-color="#63166A"/>
<stop offset="0.702487" stop-color="#A4267B"/>
<stop offset="0.848653" stop-color="#DB327C"/>
<stop offset="1" stop-color="#EB4B46"/>
</linearGradient>
</defs>
</svg>
