<svg width="48" height="48" viewBox="0 0 48 48" fill="none" xmlns="http://www.w3.org/2000/svg">
<g clip-path="url(#clip0_2877_16461)">
<path d="M40.9688 45.5375H40.6188V45.1875V36.6562V36.3062H40.9688H45.1875H45.5375V36.6562V45.1875V45.5375H45.1875H40.9688ZM28.2188 45.5375H27.8687V45.1875V28.2188V27.8687H28.2188H32.4375H32.7875V28.2188V45.1875V45.5375H32.4375H28.2188ZM15.5625 45.5375H15.2125V45.1875V25.4062V25.0562H15.5625H19.7812H20.1313V25.4062V45.1875V45.5375H19.7812H15.5625ZM2.8125 45.5375H2.4625V45.1875V14.1562V13.8063H2.8125H7.03125H7.38125V14.1562V45.1875V45.5375H7.03125H2.8125ZM46.5938 34.1938H39.5625C38.9791 34.1938 38.5063 34.6666 38.5063 35.25V46.5938C38.5063 47.1772 38.9791 47.65 39.5625 47.65H46.5938C47.1772 47.65 47.65 47.1772 47.65 46.5938V35.25C47.65 34.6666 47.1772 34.1938 46.5938 34.1938ZM33.8438 25.7563H26.8125C26.2291 25.7563 25.7563 26.2291 25.7563 26.8125V46.5938C25.7563 47.1772 26.2291 47.65 26.8125 47.65H33.8438C34.4272 47.65 34.9 47.1772 34.9 46.5938V26.8125C34.9 26.2291 34.4272 25.7563 33.8438 25.7563ZM21.1875 22.9438H14.1562C13.5728 22.9438 13.1 23.4166 13.1 24V46.5938C13.1 47.1772 13.5728 47.65 14.1562 47.65H21.1875C21.7709 47.65 22.2437 47.1772 22.2437 46.5938V24C22.2437 23.4166 21.7709 22.9438 21.1875 22.9438ZM8.4375 11.6937H1.40625C0.82283 11.6937 0.349998 12.1666 0.349998 12.75V46.5938C0.349998 47.1772 0.82283 47.65 1.40625 47.65H8.4375C9.02092 47.65 9.49375 47.1772 9.49375 46.5938V12.75C9.49375 12.1666 9.02092 11.6937 8.4375 11.6937Z" fill="#141330" stroke="#FAF5F9" stroke-width="0.7"/>
<path d="M17.6719 11.3438C16.9593 11.343 16.2583 11.524 15.6351 11.8696L8.82787 5.81034C9.0347 5.30522 9.14094 4.76458 9.14062 4.21875L17.6719 11.3438ZM17.6719 11.3438C19.8094 11.3438 21.5794 12.9419 21.8529 15.0055L17.6719 11.3438ZM39.2166 25.3879L39.4206 25.53L39.3535 25.7694C39.2604 26.1021 39.2094 26.4516 39.2094 26.8125C39.2094 28.9453 40.9452 30.6812 43.0781 30.6812C45.211 30.6812 46.9469 28.9453 46.9469 26.8125C46.9469 24.6797 45.211 22.9438 43.0781 22.9438C42.2442 22.9438 41.4722 23.2097 40.839 23.6607L40.6381 23.8038L40.4358 23.6628L34.8928 19.7996L34.6888 19.6575L34.7558 19.4181C34.849 19.0854 34.9 18.7359 34.9 18.375C34.9 16.2422 33.1642 14.5063 31.0312 14.5063C29.6358 14.5063 28.4097 15.2489 27.7289 16.3625L27.6 16.5733L27.3582 16.5224L21.7808 15.348L21.5385 15.297L21.506 15.0515C21.2551 13.1592 19.6312 11.6938 17.6719 11.6938L17.6715 11.6937C17.0184 11.6931 16.3759 11.859 15.8048 12.1757L15.5877 12.296L15.4024 12.131L8.59517 6.07178L8.41008 5.90703L8.50397 5.67772C8.69354 5.21475 8.79091 4.71923 8.79063 4.21895V4.21875C8.79063 2.08592 7.0547 0.35 4.92188 0.35C2.78905 0.35 1.05312 2.08592 1.05312 4.21875C1.05312 6.35158 2.78896 8.0875 4.92188 8.0875L4.92223 8.0875C5.57532 8.08817 6.2178 7.9223 6.78895 7.60557L7.006 7.4852L7.19139 7.65022L13.9986 13.7095L14.1837 13.8742L14.0898 14.1035C13.9002 14.5665 13.8028 15.062 13.8031 15.5623V15.5625C13.8031 17.6953 15.539 19.4312 17.6719 19.4312C19.0673 19.4312 20.2934 18.6886 20.9742 17.575L21.1031 17.3642L21.3449 17.4151L26.9223 18.5895L27.1646 18.6405L27.1972 18.886C27.448 20.7783 29.0722 22.2437 31.0312 22.2437C31.8652 22.2437 32.6373 21.9778 33.2705 21.5268L33.4713 21.3837L33.6737 21.5247L39.2166 25.3879ZM3.16563 4.21875C3.16563 3.25014 3.95326 2.4625 4.92188 2.4625C5.89049 2.4625 6.67812 3.25014 6.67812 4.21875C6.67812 5.18736 5.89049 5.975 4.92188 5.975C3.95326 5.975 3.16563 5.18736 3.16563 4.21875ZM15.9156 15.5625C15.9156 14.5939 16.7033 13.8062 17.6719 13.8062C18.6405 13.8062 19.4281 14.5939 19.4281 15.5625C19.4281 16.5311 18.6405 17.3188 17.6719 17.3188C16.7033 17.3188 15.9156 16.5311 15.9156 15.5625ZM29.275 18.375C29.275 17.4064 30.0626 16.6187 31.0312 16.6187C31.9999 16.6187 32.7875 17.4064 32.7875 18.375C32.7875 19.3436 31.9999 20.1313 31.0312 20.1313C30.0626 20.1313 29.275 19.3436 29.275 18.375ZM41.3219 26.8125C41.3219 25.8439 42.1095 25.0562 43.0781 25.0562C44.0467 25.0562 44.8344 25.8439 44.8344 26.8125C44.8344 27.7811 44.0467 28.5688 43.0781 28.5688C42.1095 28.5688 41.3219 27.7811 41.3219 26.8125Z" fill="#FC386D" stroke="#FAF5F9" stroke-width="0.7"/>
</g>
<defs>
<clipPath id="clip0_2877_16461">
<rect width="48" height="48" fill="white" transform="matrix(-1 0 0 1 48 0)"/>
</clipPath>
</defs>
</svg>
