<svg width="453" height="448" viewBox="0 0 453 448" fill="none" xmlns="http://www.w3.org/2000/svg">
<path d="M226.672 447.628C351.67 447.628 453 389.126 453 316.96C453 244.794 351.67 186.292 226.672 186.292C101.675 186.292 0.344238 244.794 0.344238 316.96C0.344238 389.126 101.675 447.628 226.672 447.628Z" fill="url(#paint0_linear_4758_25530)"/>
<path opacity="0.95" d="M226.672 447.628C351.67 447.628 453 389.126 453 316.96C453 244.794 351.67 186.292 226.672 186.292C101.675 186.292 0.344238 244.794 0.344238 316.96C0.344238 389.126 101.675 447.628 226.672 447.628Z" fill="white"/>
<g opacity="0.9">
<path d="M224.822 205.21C133.44 205.045 59.591 247.663 59.8798 300.43L164.629 300.636C164.629 291.683 170.447 282.731 182.287 275.924C205.927 262.268 244.337 262.35 268.142 276.089C291.905 289.827 292.029 311.982 268.43 325.637L342.733 368.544C374.954 349.937 390.962 327.453 390.838 301.09C390.549 248.323 316.246 205.416 224.864 205.251L224.822 205.21Z" fill="url(#paint1_linear_4758_25530)"/>
<path d="M164.546 176.454L59.8789 176.289V300.594H164.546V176.454Z" fill="#290D50"/>
<path d="M182.245 275.923C205.885 262.267 244.295 262.35 268.1 276.088C279.858 282.895 285.799 291.724 286.005 300.594V177.073C286.087 167.996 280.147 158.879 268.1 151.906C244.336 138.168 205.885 138.127 182.245 151.741C170.57 158.466 164.753 167.295 164.629 176.124H164.546V300.677H164.588C164.505 291.683 170.405 282.73 182.245 275.882V275.923Z" fill="url(#paint2_linear_4758_25530)"/>
<path d="M288.068 280.709H164.341V298.16C164.341 298.16 164.341 298.49 164.341 298.655C164.341 318.541 192.024 334.672 226.184 334.672C260.344 334.672 288.027 318.541 288.027 298.655C288.027 298.49 288.027 298.325 288.027 298.16V280.709H288.068Z" fill="url(#paint3_linear_4758_25530)"/>
<g style="mix-blend-mode:multiply">
<path d="M226.225 330.835C192.064 330.835 164.381 314.704 164.381 294.818V298.16C164.381 298.16 164.381 298.49 164.381 298.655C164.381 318.54 192.064 334.672 226.225 334.672C260.385 334.672 288.068 318.54 288.068 298.655C288.068 298.49 288.068 298.325 288.068 298.16V294.818C288.068 314.704 260.385 330.835 226.225 330.835Z" fill="url(#paint4_linear_4758_25530)"/>
</g>
<g style="mix-blend-mode:multiply">
<path d="M245.161 332.98C245.739 332.857 246.316 332.733 246.894 332.609V286.856H245.161V332.98Z" fill="#FDD65B"/>
<path d="M252.959 331.124C253.537 330.959 254.115 330.794 254.692 330.629V286.856H252.959V331.124Z" fill="#FDD65B"/>
<path d="M260.715 328.566C261.293 328.319 261.871 328.071 262.448 327.823V286.856H260.715V328.607V328.566Z" fill="#FDD65B"/>
<path d="M237.406 334.094C237.983 334.053 238.561 333.971 239.139 333.929V286.897H237.406V334.136V334.094Z" fill="#FDD65B"/>
<path d="M276.269 319.82C276.846 319.366 277.465 318.871 278.001 318.376V286.856H276.269V319.82Z" fill="#FDD65B"/>
<path d="M284.024 311.403C284.685 310.413 285.262 309.382 285.757 308.35V286.856H284.024V311.403Z" fill="#FDD65B"/>
<path d="M268.471 324.936C269.049 324.605 269.668 324.317 270.204 323.987V286.856H268.471V324.936Z" fill="#FDD65B"/>
<path d="M229.648 334.59C230.226 334.59 230.803 334.59 231.381 334.548V286.856H229.648V334.59Z" fill="#FDD65B"/>
<path d="M221.852 334.59C222.43 334.59 223.007 334.59 223.585 334.631V286.856H221.852V334.59Z" fill="#FDD65B"/>
<path d="M206.298 332.774C206.876 332.898 207.454 333.022 208.031 333.146V286.897H206.298V332.815V332.774Z" fill="#FDD65B"/>
<path d="M214.094 334.012C214.672 334.094 215.249 334.094 215.827 334.177V286.856H214.094V334.012Z" fill="#FDD65B"/>
<path d="M198.541 330.876C199.118 331.041 199.696 331.206 200.273 331.372V286.897H198.541V330.918V330.876Z" fill="#FDD65B"/>
<path d="M167.476 309.877C168.012 310.826 168.548 311.734 169.208 312.641V286.856H167.476V309.877Z" fill="#FDD65B"/>
<path d="M175.231 319.036C175.767 319.49 176.386 319.944 176.964 320.397V286.856H175.231V319.077V319.036Z" fill="#FDD65B"/>
<path d="M190.785 328.154C191.362 328.401 191.94 328.607 192.517 328.855V286.856H190.785V328.195V328.154Z" fill="#FDD65B"/>
<path d="M182.987 324.44C183.564 324.771 184.142 325.059 184.72 325.348V286.856H182.987V324.44Z" fill="#FDD65B"/>
</g>
<path d="M226.225 316.972C260.38 316.972 288.068 300.847 288.068 280.956C288.068 261.064 260.38 244.939 226.225 244.939C192.069 244.939 164.381 261.064 164.381 280.956C164.381 300.847 192.069 316.972 226.225 316.972Z" fill="url(#paint5_linear_4758_25530)"/>
<path style="mix-blend-mode:screen" d="M226.225 316.024C192.766 316.024 165.62 300.553 164.465 281.245C164.465 281.657 164.341 282.07 164.341 282.482C164.341 302.368 192.024 318.499 226.184 318.499C260.344 318.499 288.027 302.368 288.027 282.482C288.027 282.07 287.945 281.657 287.903 281.245C286.748 300.553 259.602 316.024 226.143 316.024H226.225Z" fill="url(#paint6_radial_4758_25530)"/>
<path d="M226.225 307.896C251.768 307.896 272.474 295.834 272.474 280.955C272.474 266.077 251.768 254.015 226.225 254.015C200.683 254.015 179.977 266.077 179.977 280.955C179.977 295.834 200.683 307.896 226.225 307.896Z" fill="url(#paint7_linear_4758_25530)"/>
<path style="mix-blend-mode:screen" d="M227.753 255.377C252.465 255.377 272.557 266.681 273.877 280.874C273.919 280.379 274.001 279.925 274.001 279.43C274.001 264.577 253.29 252.489 227.753 252.489C202.215 252.489 181.504 264.536 181.504 279.43C181.504 279.925 181.587 280.379 181.628 280.874C182.907 266.681 203.04 255.377 227.753 255.377Z" fill="url(#paint8_radial_4758_25530)"/>
<path style="mix-blend-mode:multiply" d="M226.225 256.945C250.938 256.945 271.03 268.249 272.35 282.441C272.391 281.946 272.474 281.492 272.474 280.997C272.474 266.145 251.763 254.057 226.225 254.057C200.688 254.057 179.977 266.103 179.977 280.997C179.977 281.492 180.06 281.946 180.101 282.441C181.38 268.249 201.513 256.945 226.225 256.945Z" fill="url(#paint9_linear_4758_25530)"/>
<path style="mix-blend-mode:color-dodge" d="M197.428 299.438C211.331 304.183 220.696 313.589 218.345 320.479C215.993 327.369 202.832 329.102 188.929 324.357C175.026 319.613 165.66 310.206 168.012 303.317C170.364 296.427 183.524 294.694 197.428 299.438Z" fill="url(#paint10_radial_4758_25530)"/>
<path style="mix-blend-mode:color-dodge" d="M258.694 246.259C272.598 251.004 281.963 260.41 279.611 267.3C277.26 274.19 264.099 275.923 250.196 271.178C236.292 266.434 226.927 257.027 229.279 250.138C231.63 243.248 244.791 241.515 258.694 246.259Z" fill="url(#paint11_radial_4758_25530)"/>
<g style="mix-blend-mode:multiply">
<path d="M229.773 272.499C228.618 272.705 227.422 272.994 226.225 273.324C225.152 273.571 224.039 273.901 222.801 274.314C221.604 274.727 220.408 275.139 219.335 275.634L223.048 277.78C223.42 277.615 223.832 277.491 224.245 277.326C224.699 277.202 225.152 277.037 225.606 276.831C227.71 276.088 229.691 275.469 231.547 274.974C233.404 274.479 235.178 274.149 236.828 273.943C238.478 273.778 240.046 273.819 241.531 274.066C243.016 274.314 244.46 274.85 245.822 275.634C247.431 276.583 248.462 277.573 248.916 278.646C249.329 279.719 249.329 280.791 248.916 281.905C248.503 282.978 247.72 284.092 246.606 285.164C245.492 286.237 244.172 287.268 242.645 288.217L247.637 291.105L243.47 293.498L238.396 290.569C235.838 291.848 233.115 293.003 230.186 294.035C227.257 295.066 224.41 295.85 221.646 296.427L218.964 289.826C220.367 289.538 221.811 289.249 223.296 288.836C224.534 288.506 225.936 288.135 227.504 287.64C229.031 287.145 230.516 286.567 231.877 285.948L228.247 283.844C226.968 284.339 225.606 284.793 224.245 285.247C222.182 285.948 220.284 286.485 218.593 286.856C216.901 287.227 215.375 287.475 213.931 287.516C212.528 287.599 211.208 287.516 210.053 287.227C208.856 286.98 207.742 286.526 206.67 285.907C205.184 285.041 204.194 284.092 203.658 283.102C203.122 282.07 202.998 281.039 203.245 279.925C203.493 278.811 204.07 277.738 205.019 276.624C205.968 275.51 207.165 274.438 208.65 273.406L204.483 271.014L208.65 268.621L212.858 271.055C214.096 270.477 215.375 269.9 216.695 269.405C217.974 268.909 219.294 268.456 220.532 268.043C221.811 267.63 223.048 267.3 224.204 266.97C225.4 266.64 226.473 266.352 227.463 266.104L229.732 272.457L229.773 272.499ZM215.828 279.141C216.241 279.389 216.736 279.471 217.355 279.43C217.974 279.389 218.716 279.224 219.624 278.935L216.489 277.119C215.251 277.986 215.003 278.687 215.828 279.141ZM235.673 282.441C235.301 282.235 234.724 282.153 234.023 282.235C233.321 282.318 232.496 282.483 231.588 282.772L234.641 284.546C235.425 284.051 235.879 283.597 236.003 283.267C236.127 282.937 236.003 282.689 235.673 282.483V282.441Z" fill="url(#paint12_linear_4758_25530)"/>
</g>
<path d="M229.773 270.972C228.618 271.178 227.422 271.467 226.225 271.797C225.152 272.044 224.039 272.374 222.801 272.787C221.604 273.199 220.408 273.612 219.335 274.107L223.048 276.252C223.42 276.087 223.832 275.964 224.245 275.799C224.699 275.675 225.152 275.51 225.606 275.304C227.71 274.561 229.691 273.942 231.547 273.447C233.404 272.952 235.178 272.622 236.828 272.416C238.478 272.251 240.046 272.292 241.531 272.539C243.016 272.787 244.46 273.323 245.822 274.107C247.431 275.056 248.462 276.046 248.916 277.119C249.329 278.191 249.329 279.264 248.916 280.378C248.503 281.451 247.72 282.565 246.606 283.637C245.492 284.71 244.172 285.741 242.645 286.69L247.637 289.578L243.47 291.971L238.396 289.042C235.838 290.321 233.115 291.476 230.186 292.507C227.257 293.539 224.41 294.323 221.646 294.9L218.964 288.299C220.367 288.01 221.811 287.722 223.296 287.309C224.534 286.979 225.936 286.608 227.504 286.113C229.031 285.618 230.516 285.04 231.877 284.421L228.247 282.317C226.968 282.812 225.606 283.266 224.245 283.72C222.182 284.421 220.284 284.958 218.593 285.329C216.901 285.7 215.375 285.948 213.931 285.989C212.528 286.071 211.208 285.989 210.053 285.7C208.856 285.453 207.742 284.999 206.67 284.38C205.184 283.514 204.194 282.565 203.658 281.574C203.122 280.543 202.998 279.512 203.245 278.398C203.493 277.284 204.07 276.211 205.019 275.097C205.968 273.983 207.165 272.911 208.65 271.879L204.483 269.486L208.65 267.094L212.858 269.528C214.096 268.95 215.375 268.372 216.695 267.877C217.974 267.382 219.294 266.928 220.532 266.516C221.811 266.103 223.048 265.773 224.204 265.443C225.4 265.113 226.473 264.824 227.463 264.577L229.732 270.93L229.773 270.972ZM215.828 277.614C216.241 277.861 216.736 277.944 217.355 277.903C217.974 277.861 218.716 277.696 219.624 277.408L216.489 275.592C215.251 276.459 215.003 277.16 215.828 277.614ZM235.673 280.914C235.301 280.708 234.724 280.626 234.023 280.708C233.321 280.791 232.496 280.956 231.588 281.244L234.641 283.018C235.425 282.523 235.879 282.07 236.003 281.74C236.127 281.409 236.003 281.162 235.673 280.956V280.914Z" fill="url(#paint13_linear_4758_25530)"/>
<path style="mix-blend-mode:color-dodge" d="M229.773 270.972C228.618 271.178 227.422 271.467 226.225 271.797C225.152 272.044 224.039 272.374 222.801 272.787C221.604 273.199 220.408 273.612 219.335 274.107L223.048 276.252C223.42 276.087 223.832 275.964 224.245 275.799C224.699 275.675 225.152 275.51 225.606 275.304C227.71 274.561 229.691 273.942 231.547 273.447C233.404 272.952 235.178 272.622 236.828 272.416C238.478 272.251 240.046 272.292 241.531 272.539C243.016 272.787 244.46 273.323 245.822 274.107C247.431 275.056 248.462 276.046 248.916 277.119C249.329 278.191 249.329 279.264 248.916 280.378C248.503 281.451 247.72 282.565 246.606 283.637C245.492 284.71 244.172 285.741 242.645 286.69L247.637 289.578L243.47 291.971L238.396 289.042C235.838 290.321 233.115 291.476 230.186 292.507C227.257 293.539 224.41 294.323 221.646 294.9L218.964 288.299C220.367 288.01 221.811 287.722 223.296 287.309C224.534 286.979 225.936 286.608 227.504 286.113C229.031 285.618 230.516 285.04 231.877 284.421L228.247 282.317C226.968 282.812 225.606 283.266 224.245 283.72C222.182 284.421 220.284 284.958 218.593 285.329C216.901 285.7 215.375 285.948 213.931 285.989C212.528 286.071 211.208 285.989 210.053 285.7C208.856 285.453 207.742 284.999 206.67 284.38C205.184 283.514 204.194 282.565 203.658 281.574C203.122 280.543 202.998 279.512 203.245 278.398C203.493 277.284 204.07 276.211 205.019 275.097C205.968 273.983 207.165 272.911 208.65 271.879L204.483 269.486L208.65 267.094L212.858 269.528C214.096 268.95 215.375 268.372 216.695 267.877C217.974 267.382 219.294 266.928 220.532 266.516C221.811 266.103 223.048 265.773 224.204 265.443C225.4 265.113 226.473 264.824 227.463 264.577L229.732 270.93L229.773 270.972ZM215.828 277.614C216.241 277.861 216.736 277.944 217.355 277.903C217.974 277.861 218.716 277.696 219.624 277.408L216.489 275.592C215.251 276.459 215.003 277.16 215.828 277.614ZM235.673 280.914C235.301 280.708 234.724 280.626 234.023 280.708C233.321 280.791 232.496 280.956 231.588 281.244L234.641 283.018C235.425 282.523 235.879 282.07 236.003 281.74C236.127 281.409 236.003 281.162 235.673 280.956V280.914Z" fill="url(#paint14_radial_4758_25530)"/>
<path style="mix-blend-mode:multiply" d="M225.235 280.049C250.731 280.049 271.4 271.441 271.4 260.823C271.4 250.205 250.731 241.598 225.235 241.598C199.738 241.598 179.069 250.205 179.069 260.823C179.069 271.441 199.738 280.049 225.235 280.049Z" fill="url(#paint15_radial_4758_25530)"/>
<path d="M288.068 209.79H164.341V227.241C164.341 227.241 164.341 227.571 164.341 227.736C164.341 247.622 192.024 263.753 226.184 263.753C260.344 263.753 288.027 247.622 288.027 227.736C288.027 227.571 288.027 227.406 288.027 227.241V209.79H288.068Z" fill="url(#paint16_linear_4758_25530)"/>
<g style="mix-blend-mode:multiply">
<path d="M226.225 259.916C192.064 259.916 164.381 243.784 164.381 223.899V227.241C164.381 227.241 164.381 227.571 164.381 227.736C164.381 247.621 192.064 263.752 226.225 263.752C260.385 263.752 288.068 247.621 288.068 227.736C288.068 227.571 288.068 227.406 288.068 227.241V223.899C288.068 243.784 260.385 259.916 226.225 259.916Z" fill="url(#paint17_linear_4758_25530)"/>
</g>
<g style="mix-blend-mode:multiply">
<path d="M245.161 262.061C245.739 261.938 246.316 261.814 246.894 261.69V215.937H245.161V262.061Z" fill="#FDD65B"/>
<path d="M252.959 260.205C253.537 260.04 254.115 259.875 254.692 259.71V215.937H252.959V260.205Z" fill="#FDD65B"/>
<path d="M260.715 257.647C261.293 257.399 261.871 257.152 262.448 256.904V215.937H260.715V257.647Z" fill="#FDD65B"/>
<path d="M237.406 263.175C237.983 263.134 238.561 263.051 239.139 263.01V215.978H237.406V263.217V263.175Z" fill="#FDD65B"/>
<path d="M276.269 248.901C276.846 248.447 277.465 247.952 278.001 247.457V215.937H276.269V248.901Z" fill="#FDD65B"/>
<path d="M284.024 240.484C284.685 239.494 285.262 238.463 285.757 237.431V215.937H284.024V240.484Z" fill="#FDD65B"/>
<path d="M268.471 254.016C269.049 253.686 269.668 253.397 270.204 253.067V215.937H268.471V254.016Z" fill="#FDD65B"/>
<path d="M229.648 263.67C230.226 263.67 230.803 263.67 231.381 263.629V215.937H229.648V263.67Z" fill="#FDD65B"/>
<path d="M221.852 263.67C222.43 263.67 223.007 263.67 223.585 263.712V215.937H221.852V263.67Z" fill="#FDD65B"/>
<path d="M206.298 261.855C206.876 261.979 207.454 262.103 208.031 262.226V215.978H206.298V261.896V261.855Z" fill="#FDD65B"/>
<path d="M214.094 263.093C214.672 263.175 215.249 263.175 215.827 263.258V215.937H214.094V263.093Z" fill="#FDD65B"/>
<path d="M198.541 259.957C199.118 260.122 199.696 260.287 200.273 260.452V215.978H198.541V259.999V259.957Z" fill="#FDD65B"/>
<path d="M167.476 238.958C168.012 239.907 168.548 240.814 169.208 241.722V215.937H167.476V238.958Z" fill="#FDD65B"/>
<path d="M175.231 248.117C175.767 248.57 176.386 249.024 176.964 249.478V215.937H175.231V248.158V248.117Z" fill="#FDD65B"/>
<path d="M190.785 257.234C191.362 257.482 191.94 257.688 192.517 257.936V215.937H190.785V257.276V257.234Z" fill="#FDD65B"/>
<path d="M182.987 253.521C183.564 253.851 184.142 254.14 184.72 254.429V215.937H182.987V253.521Z" fill="#FDD65B"/>
</g>
<path d="M226.225 246.053C260.38 246.053 288.068 229.928 288.068 210.037C288.068 190.145 260.38 174.02 226.225 174.02C192.069 174.02 164.381 190.145 164.381 210.037C164.381 229.928 192.069 246.053 226.225 246.053Z" fill="url(#paint18_linear_4758_25530)"/>
<path style="mix-blend-mode:screen" d="M226.225 245.105C192.766 245.105 165.62 229.633 164.465 210.325C164.465 210.738 164.341 211.151 164.341 211.563C164.341 231.449 192.024 247.58 226.184 247.58C260.344 247.58 288.027 231.449 288.027 211.563C288.027 211.151 287.945 210.738 287.903 210.325C286.748 229.633 259.602 245.105 226.143 245.105H226.225Z" fill="url(#paint19_radial_4758_25530)"/>
<path d="M272.474 210.036C272.474 224.889 251.763 236.977 226.225 236.977C200.688 236.977 179.977 224.93 179.977 210.036C179.977 195.143 200.688 183.096 226.225 183.096C251.763 183.096 272.474 195.143 272.474 210.036Z" fill="url(#paint20_linear_4758_25530)"/>
<path style="mix-blend-mode:screen" d="M227.753 184.458C252.465 184.458 272.557 195.762 273.877 209.954C273.919 209.459 274.001 209.005 274.001 208.51C274.001 193.658 253.29 181.57 227.753 181.57C202.215 181.57 181.504 193.617 181.504 208.51C181.504 209.005 181.587 209.459 181.628 209.954C182.907 195.762 203.04 184.458 227.753 184.458Z" fill="url(#paint21_radial_4758_25530)"/>
<path style="mix-blend-mode:multiply" d="M226.225 186.025C250.938 186.025 271.03 197.329 272.35 211.521C272.391 211.026 272.474 210.572 272.474 210.077C272.474 195.225 251.763 183.137 226.225 183.137C200.688 183.137 179.977 195.184 179.977 210.077C179.977 210.572 180.06 211.026 180.101 211.521C181.38 197.329 201.513 186.025 226.225 186.025Z" fill="url(#paint22_linear_4758_25530)"/>
<path style="mix-blend-mode:color-dodge" d="M197.428 228.519C211.331 233.263 220.696 242.67 218.345 249.56C215.993 256.449 202.832 258.182 188.929 253.438C175.026 248.693 165.66 239.287 168.012 232.397C170.364 225.507 183.524 223.774 197.428 228.519Z" fill="url(#paint23_radial_4758_25530)"/>
<path style="mix-blend-mode:color-dodge" d="M258.694 175.34C272.598 180.084 281.963 189.491 279.611 196.381C277.26 203.271 264.099 205.003 250.196 200.259C236.292 195.514 226.927 186.108 229.279 179.218C231.63 172.328 244.791 170.596 258.694 175.34Z" fill="url(#paint24_radial_4758_25530)"/>
<g style="mix-blend-mode:multiply">
<path d="M229.773 201.58C228.618 201.786 227.422 202.075 226.225 202.405C225.152 202.652 224.039 202.982 222.801 203.395C221.604 203.807 220.408 204.22 219.335 204.715L223.048 206.86C223.42 206.695 223.832 206.572 224.245 206.407C224.699 206.283 225.152 206.118 225.606 205.911C227.71 205.169 229.691 204.55 231.547 204.055C233.404 203.56 235.178 203.23 236.828 203.065C238.478 202.9 240.046 202.941 241.531 203.189C243.016 203.436 244.46 203.972 245.822 204.756C247.431 205.705 248.462 206.695 248.916 207.768C249.329 208.841 249.329 209.913 248.916 211.027C248.503 212.1 247.72 213.214 246.606 214.286C245.492 215.359 244.172 216.391 242.645 217.339L247.637 220.227L243.47 222.62L238.396 219.691C235.838 220.97 233.115 222.125 230.186 223.157C227.257 224.188 224.41 224.972 221.646 225.549L218.964 218.948C220.367 218.66 221.811 218.371 223.296 217.958C224.534 217.628 225.936 217.257 227.504 216.762C229.031 216.267 230.516 215.689 231.877 215.07L228.247 212.966C226.968 213.461 225.606 213.915 224.245 214.369C222.182 215.07 220.284 215.607 218.593 215.978C216.901 216.349 215.375 216.597 213.931 216.638C212.528 216.721 211.208 216.638 210.053 216.349C208.856 216.102 207.742 215.648 206.67 215.029C205.184 214.163 204.194 213.214 203.658 212.224C203.122 211.192 202.998 210.161 203.245 209.047C203.493 207.933 204.07 206.86 205.019 205.746C205.968 204.633 207.165 203.56 208.65 202.528L204.483 200.136L208.65 197.743L212.858 200.177C214.096 199.599 215.375 199.022 216.695 198.527C217.974 198.032 219.294 197.578 220.532 197.165C221.811 196.753 223.048 196.423 224.204 196.092C225.4 195.762 226.473 195.474 227.463 195.226L229.732 201.58H229.773ZM215.828 208.222C216.241 208.469 216.736 208.552 217.355 208.511C217.974 208.469 218.716 208.304 219.624 208.016L216.489 206.2C215.251 207.067 215.003 207.768 215.828 208.222ZM235.673 211.522C235.301 211.316 234.724 211.234 234.023 211.316C233.321 211.399 232.496 211.564 231.588 211.852L234.641 213.626C235.425 213.131 235.879 212.677 236.003 212.347C236.127 212.017 236.003 211.77 235.673 211.564V211.522Z" fill="url(#paint25_linear_4758_25530)"/>
</g>
<path d="M229.773 200.052C228.618 200.259 227.422 200.548 226.225 200.878C225.152 201.125 224.039 201.455 222.801 201.868C221.604 202.28 220.408 202.693 219.335 203.188L223.048 205.333C223.42 205.168 223.832 205.044 224.245 204.879C224.699 204.756 225.152 204.591 225.606 204.384C227.71 203.642 229.691 203.023 231.547 202.528C233.404 202.033 235.178 201.703 236.828 201.496C238.478 201.331 240.046 201.373 241.531 201.62C243.016 201.868 244.46 202.404 245.822 203.188C247.431 204.137 248.462 205.127 248.916 206.2C249.329 207.272 249.329 208.345 248.916 209.459C248.503 210.532 247.72 211.645 246.606 212.718C245.492 213.791 244.172 214.822 242.645 215.771L247.637 218.659L243.47 221.052L238.396 218.123C235.838 219.402 233.115 220.557 230.186 221.588C227.257 222.62 224.41 223.404 221.646 223.981L218.964 217.38C220.367 217.091 221.811 216.803 223.296 216.39C224.534 216.06 225.936 215.689 227.504 215.194C229.031 214.698 230.516 214.121 231.877 213.502L228.247 211.398C226.968 211.893 225.606 212.347 224.245 212.801C222.182 213.502 220.284 214.038 218.593 214.41C216.901 214.781 215.375 215.028 213.931 215.07C212.528 215.152 211.208 215.07 210.053 214.781C208.856 214.533 207.742 214.08 206.67 213.461C205.184 212.594 204.194 211.645 203.658 210.655C203.122 209.624 202.998 208.592 203.245 207.479C203.493 206.365 204.07 205.292 205.019 204.178C205.968 203.064 207.165 201.991 208.65 200.96L204.483 198.567L208.65 196.174L212.858 198.608C214.096 198.031 215.375 197.453 216.695 196.958C217.974 196.463 219.294 196.009 220.532 195.597C221.811 195.184 223.048 194.854 224.204 194.524C225.4 194.194 226.473 193.905 227.463 193.658L229.732 200.011L229.773 200.052ZM215.828 206.695C216.241 206.942 216.736 207.025 217.355 206.983C217.974 206.942 218.716 206.777 219.624 206.488L216.489 204.673C215.251 205.54 215.003 206.241 215.828 206.695ZM235.673 209.995C235.301 209.789 234.724 209.706 234.023 209.789C233.321 209.871 232.496 210.036 231.588 210.325L234.641 212.099C235.425 211.604 235.879 211.15 236.003 210.862C236.127 210.532 236.003 210.284 235.673 210.078V209.995Z" fill="url(#paint26_linear_4758_25530)"/>
<path style="mix-blend-mode:color-dodge" d="M229.773 200.052C228.618 200.259 227.422 200.548 226.225 200.878C225.152 201.125 224.039 201.455 222.801 201.868C221.604 202.28 220.408 202.693 219.335 203.188L223.048 205.333C223.42 205.168 223.832 205.044 224.245 204.879C224.699 204.756 225.152 204.591 225.606 204.384C227.71 203.642 229.691 203.023 231.547 202.528C233.404 202.033 235.178 201.703 236.828 201.496C238.478 201.331 240.046 201.373 241.531 201.62C243.016 201.868 244.46 202.404 245.822 203.188C247.431 204.137 248.462 205.127 248.916 206.2C249.329 207.272 249.329 208.345 248.916 209.459C248.503 210.532 247.72 211.645 246.606 212.718C245.492 213.791 244.172 214.822 242.645 215.771L247.637 218.659L243.47 221.052L238.396 218.123C235.838 219.402 233.115 220.557 230.186 221.588C227.257 222.62 224.41 223.404 221.646 223.981L218.964 217.38C220.367 217.091 221.811 216.803 223.296 216.39C224.534 216.06 225.936 215.689 227.504 215.194C229.031 214.698 230.516 214.121 231.877 213.502L228.247 211.398C226.968 211.893 225.606 212.347 224.245 212.801C222.182 213.502 220.284 214.038 218.593 214.41C216.901 214.781 215.375 215.028 213.931 215.07C212.528 215.152 211.208 215.07 210.053 214.781C208.856 214.533 207.742 214.08 206.67 213.461C205.184 212.594 204.194 211.645 203.658 210.655C203.122 209.624 202.998 208.592 203.245 207.479C203.493 206.365 204.07 205.292 205.019 204.178C205.968 203.064 207.165 201.991 208.65 200.96L204.483 198.567L208.65 196.174L212.858 198.608C214.096 198.031 215.375 197.453 216.695 196.958C217.974 196.463 219.294 196.009 220.532 195.597C221.811 195.184 223.048 194.854 224.204 194.524C225.4 194.194 226.473 193.905 227.463 193.658L229.732 200.011L229.773 200.052ZM215.828 206.695C216.241 206.942 216.736 207.025 217.355 206.983C217.974 206.942 218.716 206.777 219.624 206.488L216.489 204.673C215.251 205.54 215.003 206.241 215.828 206.695ZM235.673 209.995C235.301 209.789 234.724 209.706 234.023 209.789C233.321 209.871 232.496 210.036 231.588 210.325L234.641 212.099C235.425 211.604 235.879 211.15 236.003 210.862C236.127 210.532 236.003 210.284 235.673 210.078V209.995Z" fill="url(#paint27_radial_4758_25530)"/>
<path d="M342.692 244.321V368.668C374.913 350.061 390.921 327.576 390.797 301.214V176.867C390.921 203.23 374.913 225.756 342.692 244.321Z" fill="#B5416B"/>
<path d="M268.06 201.208L268.348 201.455V325.554L342.692 368.667V244.321L268.06 201.208Z" fill="#AD2C5B"/>
<path style="mix-blend-mode:color-dodge" d="M342.691 243.083L270.657 201.497C269.915 201.992 269.172 202.487 268.388 202.94L342.691 245.847C374.912 227.24 390.919 204.756 390.796 178.393C390.796 178.022 390.754 177.65 390.754 177.279C390.218 202.94 374.252 224.889 342.691 243.083Z" fill="url(#paint28_radial_4758_25530)"/>
<path d="M224.822 81.0281C133.44 80.863 59.591 123.481 59.8798 176.248L164.629 176.454C164.629 167.501 170.447 158.549 182.287 151.741C205.927 138.086 244.337 138.168 268.142 151.906C291.905 165.645 292.029 187.799 268.43 201.455L342.733 244.362C374.954 225.755 390.962 203.271 390.838 176.908C390.549 124.141 316.246 81.2344 224.864 81.0693L224.822 81.0281Z" fill="url(#paint29_linear_4758_25530)"/>
<path style="mix-blend-mode:color-dodge" d="M285.882 176.908C286.501 167.46 280.642 157.847 268.1 150.628C244.337 136.889 205.886 136.848 182.246 150.463C170.447 157.27 164.547 166.222 164.588 175.175L59.9621 174.969C59.9621 175.876 59.8384 176.825 59.8384 177.733L164.588 177.939C164.588 168.987 170.405 160.034 182.246 153.227C205.886 139.571 244.295 139.653 268.1 153.392C279.404 159.91 285.304 168.368 285.882 176.908Z" fill="url(#paint30_radial_4758_25530)"/>
<path style="mix-blend-mode:multiply" d="M225.235 208.139C250.731 208.139 271.4 199.532 271.4 188.914C271.4 178.296 250.731 169.688 225.235 169.688C199.738 169.688 179.069 178.296 179.069 188.914C179.069 199.532 199.738 208.139 225.235 208.139Z" fill="url(#paint31_radial_4758_25530)"/>
</g>
<path d="M269.006 281.863C268.8 281.987 268.594 282.152 268.387 282.276C256.547 289.124 240.952 292.507 225.357 292.466V335.826C240.952 335.868 256.547 332.485 268.387 325.636C268.594 325.512 268.8 325.388 269.006 325.223V281.863Z" fill="url(#paint32_linear_4758_25530)"/>
<path d="M225.853 351.133L225.523 291.765C225.523 291.765 225.605 291.765 225.646 291.765L225.316 291.394L225.853 396.432C271.565 396.515 310.511 387.273 342.691 368.667V323.367C310.469 341.974 271.523 351.215 225.853 351.133Z" fill="#CE5E5E"/>
<path d="M269.295 280.997C268.965 281.203 268.677 281.41 268.347 281.575C256.547 288.382 241.035 291.765 225.522 291.765L225.853 352.659C271.564 352.742 310.51 341.974 342.69 323.367L269.295 280.997Z" fill="#E96A6A"/>
<path d="M225.523 256.45C209.97 256.45 194.416 252.985 182.534 246.095C170.487 239.123 164.546 230.005 164.629 220.929H164.546V300.636H164.588C164.67 309.589 170.611 318.541 182.493 325.431C194.375 332.279 209.928 335.745 225.482 335.786V256.492L225.523 256.45Z" fill="url(#paint33_linear_4758_25530)"/>
<path d="M59.8789 220.516V300.594C60.1677 353.361 134.47 396.267 225.853 396.432V316.354C134.47 316.189 60.1677 273.282 59.8789 220.516Z" fill="#9AA9FF"/>
<path d="M182.534 246.095C170.405 239.081 164.464 229.881 164.67 220.722L59.8789 220.516C60.1677 273.282 134.47 316.189 225.853 316.354L225.523 256.45C209.969 256.45 194.416 252.984 182.534 246.095Z" fill="#B7C2FF"/>
<path style="mix-blend-mode:color-dodge" opacity="0.5" d="M243.551 73.0654C259.27 73.0654 272.06 117.828 272.142 173.112C272.225 228.395 259.518 273.2 243.799 273.2C228.08 273.2 215.291 228.437 215.208 173.153C215.126 117.87 227.833 73.0654 243.551 73.0654Z" fill="url(#paint34_radial_4758_25530)"/>
<path d="M288.068 135.569H164.341V153.021C164.341 153.021 164.341 153.351 164.341 153.516C164.341 173.401 192.024 189.533 226.184 189.533C260.344 189.533 288.027 173.401 288.027 153.516C288.027 153.351 288.027 153.186 288.027 153.021V135.569H288.068Z" fill="url(#paint35_linear_4758_25530)"/>
<g style="mix-blend-mode:multiply">
<path d="M226.225 185.696C192.064 185.696 164.381 169.564 164.381 149.679V153.021C164.381 153.021 164.381 153.351 164.381 153.516C164.381 173.401 192.064 189.533 226.225 189.533C260.385 189.533 288.068 173.401 288.068 153.516C288.068 153.351 288.068 153.186 288.068 153.021V149.679C288.068 169.564 260.385 185.696 226.225 185.696Z" fill="url(#paint36_linear_4758_25530)"/>
</g>
<g style="mix-blend-mode:multiply">
<path d="M245.161 187.841C245.739 187.718 246.316 187.594 246.894 187.47V141.717H245.161V187.841Z" fill="#FDD65B"/>
<path d="M252.959 185.985C253.537 185.82 254.115 185.655 254.692 185.49V141.717H252.959V185.985Z" fill="#FDD65B"/>
<path d="M260.715 183.427C261.293 183.179 261.871 182.932 262.448 182.684V141.717H260.715V183.427Z" fill="#FDD65B"/>
<path d="M237.406 188.955C237.983 188.914 238.561 188.831 239.139 188.79V141.758H237.406V188.996V188.955Z" fill="#FDD65B"/>
<path d="M276.269 174.639C276.846 174.185 277.465 173.69 278.001 173.195V141.675H276.269V174.639Z" fill="#FDD65B"/>
<path d="M284.024 166.264C284.685 165.274 285.262 164.243 285.757 163.211V141.717H284.024V166.264Z" fill="#FDD65B"/>
<path d="M268.471 179.796C269.049 179.466 269.668 179.178 270.204 178.847V141.717H268.471V179.796Z" fill="#FDD65B"/>
<path d="M229.648 189.45C230.226 189.45 230.803 189.45 231.381 189.409V141.717H229.648V189.45Z" fill="#FDD65B"/>
<path d="M221.852 189.45C222.43 189.45 223.007 189.45 223.585 189.492V141.717H221.852V189.45Z" fill="#FDD65B"/>
<path d="M206.298 187.635C206.876 187.759 207.454 187.882 208.031 188.006V141.758H206.298V187.676V187.635Z" fill="#FDD65B"/>
<path d="M214.094 188.873C214.672 188.955 215.249 188.955 215.827 189.038V141.717H214.094V188.873Z" fill="#FDD65B"/>
<path d="M198.541 185.737C199.118 185.902 199.696 186.067 200.273 186.232V141.758H198.541V185.778V185.737Z" fill="#FDD65B"/>
<path d="M167.476 164.738C168.012 165.687 168.548 166.594 169.208 167.502V141.717H167.476V164.738Z" fill="#FDD65B"/>
<path d="M175.231 173.897C175.767 174.351 176.386 174.804 176.964 175.258V141.717H175.231V173.938V173.897Z" fill="#FDD65B"/>
<path d="M190.785 183.014C191.362 183.262 191.94 183.468 192.517 183.716V141.717H190.785V183.056V183.014Z" fill="#FDD65B"/>
<path d="M182.987 179.301C183.564 179.631 184.142 179.92 184.72 180.209V141.717H182.987V179.301Z" fill="#FDD65B"/>
</g>
<path d="M226.225 171.833C260.38 171.833 288.068 155.708 288.068 135.816C288.068 115.925 260.38 99.7996 226.225 99.7996C192.069 99.7996 164.381 115.925 164.381 135.816C164.381 155.708 192.069 171.833 226.225 171.833Z" fill="url(#paint37_linear_4758_25530)"/>
<path style="mix-blend-mode:screen" d="M226.225 170.884C192.766 170.884 165.62 155.413 164.465 136.105C164.465 136.518 164.341 136.93 164.341 137.343C164.341 157.228 192.024 173.36 226.184 173.36C260.344 173.36 288.027 157.228 288.027 137.343C288.027 136.93 287.945 136.518 287.903 136.105C286.748 155.413 259.602 170.884 226.143 170.884H226.225Z" fill="url(#paint38_radial_4758_25530)"/>
<path d="M272.474 135.816C272.474 150.668 251.763 162.756 226.225 162.756C200.688 162.756 179.977 150.71 179.977 135.816C179.977 120.923 200.688 108.876 226.225 108.876C251.763 108.876 272.474 120.923 272.474 135.816Z" fill="url(#paint39_linear_4758_25530)"/>
<path style="mix-blend-mode:screen" d="M227.753 110.238C252.465 110.238 272.557 121.542 273.877 135.734C273.919 135.239 274.001 134.785 274.001 134.29C274.001 119.438 253.29 107.35 227.753 107.35C202.215 107.35 181.504 119.397 181.504 134.29C181.504 134.785 181.587 135.239 181.628 135.734C182.907 121.542 203.04 110.238 227.753 110.238Z" fill="url(#paint40_radial_4758_25530)"/>
<path style="mix-blend-mode:multiply" d="M226.225 111.805C250.938 111.805 271.03 123.109 272.35 137.302C272.391 136.806 272.474 136.353 272.474 135.858C272.474 121.005 251.763 108.917 226.225 108.917C200.688 108.917 179.977 120.964 179.977 135.858C179.977 136.353 180.06 136.806 180.101 137.302C181.38 123.109 201.513 111.805 226.225 111.805Z" fill="url(#paint41_linear_4758_25530)"/>
<path style="mix-blend-mode:color-dodge" d="M197.428 154.299C211.331 159.043 220.696 168.45 218.345 175.34C215.993 182.23 202.832 183.962 188.929 179.218C175.026 174.473 165.66 165.067 168.012 158.177C170.364 151.287 183.524 149.555 197.428 154.299Z" fill="url(#paint42_radial_4758_25530)"/>
<path style="mix-blend-mode:color-dodge" d="M258.694 101.12C272.598 105.865 281.963 115.271 279.611 122.161C277.26 129.051 264.099 130.784 250.196 126.039C236.292 121.295 226.927 111.888 229.279 104.998C231.63 98.1086 244.791 96.3758 258.694 101.12Z" fill="url(#paint43_radial_4758_25530)"/>
<g style="mix-blend-mode:multiply">
<path d="M229.773 127.359C228.618 127.566 227.422 127.854 226.225 128.184C225.152 128.432 224.039 128.762 222.801 129.175C221.604 129.587 220.408 130 219.335 130.495L223.048 132.64C223.42 132.475 223.832 132.351 224.245 132.186C224.699 132.063 225.152 131.898 225.606 131.691C227.71 130.949 229.691 130.33 231.547 129.835C233.404 129.34 235.178 129.01 236.828 128.803C238.478 128.638 240.046 128.68 241.531 128.927C243.016 129.175 244.46 129.711 245.822 130.495C247.431 131.444 248.462 132.434 248.916 133.507C249.329 134.579 249.329 135.652 248.916 136.766C248.503 137.838 247.72 138.952 246.606 140.025C245.492 141.098 244.172 142.129 242.645 143.078L247.637 145.966L243.47 148.359L238.396 145.43C235.838 146.709 233.115 147.864 230.186 148.895C227.257 149.927 224.41 150.71 221.646 151.288L218.964 144.687C220.367 144.398 221.811 144.109 223.296 143.697C224.534 143.367 225.936 142.995 227.504 142.5C229.031 142.005 230.516 141.428 231.877 140.809L228.247 138.705C226.968 139.2 225.606 139.654 224.245 140.108C222.182 140.809 220.284 141.345 218.593 141.717C216.901 142.088 215.375 142.335 213.931 142.377C212.528 142.459 211.208 142.377 210.053 142.088C208.856 141.84 207.742 141.386 206.67 140.768C205.184 139.901 204.194 138.952 203.658 137.962C203.122 136.931 202.998 135.899 203.245 134.785C203.493 133.672 204.07 132.599 205.019 131.485C205.968 130.371 207.165 129.298 208.65 128.267L204.483 125.874L208.65 123.481L212.858 125.915C214.096 125.338 215.375 124.76 216.695 124.265C217.974 123.77 219.294 123.316 220.532 122.904C221.811 122.491 223.048 122.161 224.204 121.831C225.4 121.501 226.473 121.212 227.463 120.965L229.732 127.318L229.773 127.359ZM215.828 134.002C216.241 134.249 216.736 134.332 217.355 134.29C217.974 134.249 218.716 134.084 219.624 133.795L216.489 131.98C215.251 132.846 215.003 133.548 215.828 134.002ZM235.673 137.302C235.301 137.096 234.724 137.013 234.023 137.096C233.321 137.178 232.496 137.343 231.588 137.632L234.641 139.406C235.425 138.911 235.879 138.457 236.003 138.168C236.127 137.838 236.003 137.591 235.673 137.385V137.302Z" fill="url(#paint44_linear_4758_25530)"/>
</g>
<path d="M229.773 125.832C228.618 126.039 227.422 126.328 226.225 126.658C225.152 126.905 224.039 127.235 222.801 127.648C221.604 128.06 220.408 128.473 219.335 128.968L223.048 131.113C223.42 130.948 223.832 130.824 224.245 130.659C224.699 130.536 225.152 130.371 225.606 130.164C227.71 129.422 229.691 128.803 231.547 128.308C233.404 127.813 235.178 127.483 236.828 127.318C238.478 127.153 240.046 127.194 241.531 127.441C243.016 127.689 244.46 128.225 245.822 129.009C247.431 129.958 248.462 130.948 248.916 132.021C249.329 133.094 249.329 134.166 248.916 135.28C248.503 136.353 247.72 137.467 246.606 138.539C245.492 139.612 244.172 140.643 242.645 141.592L247.637 144.48L243.47 146.873L238.396 143.944C235.838 145.223 233.115 146.378 230.186 147.41C227.257 148.441 224.41 149.225 221.646 149.802L218.964 143.201C220.367 142.913 221.811 142.624 223.296 142.211C224.534 141.881 225.936 141.51 227.504 141.015C229.031 140.52 230.516 139.942 231.877 139.323L228.247 137.219C226.968 137.714 225.606 138.168 224.245 138.622C222.182 139.323 220.284 139.86 218.593 140.231C216.901 140.602 215.375 140.85 213.931 140.891C212.528 140.974 211.208 140.891 210.053 140.602C208.856 140.355 207.742 139.901 206.67 139.282C205.184 138.416 204.194 137.467 203.658 136.477C203.122 135.445 202.998 134.414 203.245 133.3C203.493 132.186 204.07 131.113 205.019 129.999C205.968 128.885 207.165 127.813 208.65 126.781L204.483 124.388L208.65 121.996L212.858 124.43C214.096 123.852 215.375 123.275 216.695 122.78C217.974 122.284 219.294 121.831 220.532 121.418C221.811 121.005 223.048 120.675 224.204 120.345C225.4 120.015 226.473 119.727 227.463 119.479L229.732 125.832H229.773ZM215.828 132.475C216.241 132.722 216.736 132.805 217.355 132.764C217.974 132.722 218.716 132.557 219.624 132.268L216.489 130.453C215.251 131.32 215.003 132.021 215.828 132.475ZM235.673 135.775C235.301 135.569 234.724 135.486 234.023 135.569C233.321 135.651 232.496 135.816 231.588 136.105L234.641 137.879C235.425 137.384 235.879 136.93 236.003 136.6C236.127 136.27 236.003 136.023 235.673 135.816V135.775Z" fill="url(#paint45_linear_4758_25530)"/>
<path style="mix-blend-mode:color-dodge" d="M229.773 125.832C228.618 126.039 227.422 126.328 226.225 126.658C225.152 126.905 224.039 127.235 222.801 127.648C221.604 128.06 220.408 128.473 219.335 128.968L223.048 131.113C223.42 130.948 223.832 130.824 224.245 130.659C224.699 130.536 225.152 130.371 225.606 130.164C227.71 129.422 229.691 128.803 231.547 128.308C233.404 127.813 235.178 127.483 236.828 127.318C238.478 127.153 240.046 127.194 241.531 127.441C243.016 127.689 244.46 128.225 245.822 129.009C247.431 129.958 248.462 130.948 248.916 132.021C249.329 133.094 249.329 134.166 248.916 135.28C248.503 136.353 247.72 137.467 246.606 138.539C245.492 139.612 244.172 140.643 242.645 141.592L247.637 144.48L243.47 146.873L238.396 143.944C235.838 145.223 233.115 146.378 230.186 147.41C227.257 148.441 224.41 149.225 221.646 149.802L218.964 143.201C220.367 142.913 221.811 142.624 223.296 142.211C224.534 141.881 225.936 141.51 227.504 141.015C229.031 140.52 230.516 139.942 231.877 139.323L228.247 137.219C226.968 137.714 225.606 138.168 224.245 138.622C222.182 139.323 220.284 139.86 218.593 140.231C216.901 140.602 215.375 140.85 213.931 140.891C212.528 140.974 211.208 140.891 210.053 140.602C208.856 140.355 207.742 139.901 206.67 139.282C205.184 138.416 204.194 137.467 203.658 136.477C203.122 135.445 202.998 134.414 203.245 133.3C203.493 132.186 204.07 131.113 205.019 129.999C205.968 128.885 207.165 127.813 208.65 126.781L204.483 124.388L208.65 121.996L212.858 124.43C214.096 123.852 215.375 123.275 216.695 122.78C217.974 122.284 219.294 121.831 220.532 121.418C221.811 121.005 223.048 120.675 224.204 120.345C225.4 120.015 226.473 119.727 227.463 119.479L229.732 125.832H229.773ZM215.828 132.475C216.241 132.722 216.736 132.805 217.355 132.764C217.974 132.722 218.716 132.557 219.624 132.268L216.489 130.453C215.251 131.32 215.003 132.021 215.828 132.475ZM235.673 135.775C235.301 135.569 234.724 135.486 234.023 135.569C233.321 135.651 232.496 135.816 231.588 136.105L234.641 137.879C235.425 137.384 235.879 136.93 236.003 136.6C236.127 136.27 236.003 136.023 235.673 135.816V135.775Z" fill="url(#paint46_radial_4758_25530)"/>
<path d="M288.068 36.1414H164.341V53.5928C164.341 53.5928 164.341 53.9228 164.341 54.0878C164.341 73.9734 192.024 90.1046 226.184 90.1046C260.344 90.1046 288.027 73.9734 288.027 54.0878C288.027 53.9228 288.027 53.7578 288.027 53.5928V36.1414H288.068Z" fill="url(#paint47_linear_4758_25530)"/>
<g style="mix-blend-mode:multiply">
<path d="M226.225 86.2262C192.064 86.2262 164.381 70.095 164.381 50.2095V53.5512C164.381 53.5512 164.381 53.8813 164.381 54.0463C164.381 73.9318 192.064 90.0631 226.225 90.0631C260.385 90.0631 288.068 73.9318 288.068 54.0463C288.068 53.8813 288.068 53.7162 288.068 53.5512V50.2095C288.068 70.095 260.385 86.2262 226.225 86.2262Z" fill="url(#paint48_linear_4758_25530)"/>
</g>
<g style="mix-blend-mode:multiply">
<path d="M245.161 88.3719C245.738 88.2481 246.316 88.1243 246.893 88.0005V42.2473H245.161V88.3719Z" fill="#FDD65B"/>
<path d="M252.959 86.5153C253.537 86.3503 254.114 86.1853 254.692 86.0202V42.2473H252.959V86.5153Z" fill="#FDD65B"/>
<path d="M260.715 83.9989C261.292 83.7514 261.87 83.5039 262.448 83.2563V42.2888H260.715V83.9989Z" fill="#FDD65B"/>
<path d="M237.405 89.486C237.983 89.4448 238.56 89.3623 239.138 89.321V42.2888H237.405V89.5273V89.486Z" fill="#FDD65B"/>
<path d="M276.268 75.2111C276.846 74.7573 277.465 74.2622 278.001 73.7671V42.2473H276.268V75.2111Z" fill="#FDD65B"/>
<path d="M284.024 66.8363C284.684 65.8462 285.262 64.8148 285.757 63.7834V42.2888H284.024V66.8363Z" fill="#FDD65B"/>
<path d="M268.471 80.3269C269.048 79.9968 269.667 79.708 270.203 79.378V42.2473H268.471V80.3269Z" fill="#FDD65B"/>
<path d="M229.647 89.9809C230.225 89.9809 230.803 89.9809 231.38 89.9396V42.2473H229.647V89.9809Z" fill="#FDD65B"/>
<path d="M221.852 89.9809C222.429 89.9809 223.007 89.9808 223.584 90.0221V42.2473H221.852V89.9809Z" fill="#FDD65B"/>
<path d="M206.298 88.1658C206.875 88.2896 207.453 88.4134 208.031 88.5371V42.2888H206.298V88.2071V88.1658Z" fill="#FDD65B"/>
<path d="M214.094 89.4035C214.671 89.486 215.249 89.486 215.827 89.5686V42.2888H214.094V89.4448V89.4035Z" fill="#FDD65B"/>
<path d="M198.54 86.268C199.118 86.4331 199.695 86.5981 200.273 86.7631V42.2888H198.54V86.3093V86.268Z" fill="#FDD65B"/>
<path d="M167.475 65.3098C168.011 66.2587 168.548 67.1664 169.208 68.074V42.2888H167.475V65.3098Z" fill="#FDD65B"/>
<path d="M175.23 74.4687C175.767 74.9226 176.386 75.3764 176.963 75.8302V42.2888H175.23V74.51V74.4687Z" fill="#FDD65B"/>
<path d="M190.784 83.5864C191.362 83.8339 191.939 84.0402 192.517 84.2877V42.2888H190.784V83.6276V83.5864Z" fill="#FDD65B"/>
<path d="M182.986 79.8318C183.564 80.1619 184.142 80.4506 184.719 80.7394V42.2473H182.986V79.8318Z" fill="#FDD65B"/>
</g>
<path d="M226.225 72.4051C260.38 72.4051 288.068 56.2798 288.068 36.3883C288.068 16.4968 260.38 0.371582 226.225 0.371582C192.069 0.371582 164.381 16.4968 164.381 36.3883C164.381 56.2798 192.069 72.4051 226.225 72.4051Z" fill="url(#paint49_linear_4758_25530)"/>
<path style="mix-blend-mode:screen" d="M226.225 71.4151C192.766 71.4151 165.62 55.9439 164.465 36.636C164.465 37.0485 164.341 37.4611 164.341 37.8737C164.341 57.7592 192.024 73.8904 226.184 73.8904C260.344 73.8904 288.027 57.7592 288.027 37.8737C288.027 37.4611 287.945 37.0485 287.903 36.636C286.748 55.9439 259.602 71.4151 226.143 71.4151H226.225Z" fill="url(#paint50_radial_4758_25530)"/>
<path d="M272.474 36.3881C272.474 51.2404 251.763 63.3285 226.225 63.3285C200.688 63.3285 179.977 51.2816 179.977 36.3881C179.977 21.4946 200.688 9.44775 226.225 9.44775C251.763 9.44775 272.474 21.4946 272.474 36.3881Z" fill="url(#paint51_linear_4758_25530)"/>
<path style="mix-blend-mode:screen" d="M227.753 10.8096C252.465 10.8096 272.557 22.1138 273.877 36.306C273.919 35.8109 274.001 35.3571 274.001 34.862C274.001 20.0097 253.29 7.92163 227.753 7.92163C202.215 7.92163 181.504 19.9685 181.504 34.862C181.504 35.3571 181.587 35.8109 181.628 36.306C182.907 22.1138 203.04 10.8096 227.753 10.8096Z" fill="url(#paint52_radial_4758_25530)"/>
<path style="mix-blend-mode:multiply" d="M226.225 12.3357C250.938 12.3357 271.03 23.6399 272.35 37.8321C272.391 37.337 272.474 36.8832 272.474 36.3881C272.474 21.5358 251.763 9.44775 226.225 9.44775C200.688 9.44775 179.977 21.4946 179.977 36.3881C179.977 36.8832 180.06 37.337 180.101 37.8321C181.38 23.6399 201.513 12.3357 226.225 12.3357Z" fill="url(#paint53_linear_4758_25530)"/>
<path style="mix-blend-mode:color-dodge" d="M197.428 54.871C211.331 59.6155 220.696 69.0219 218.345 75.9117C215.993 82.8015 202.832 84.5343 188.929 79.7898C175.026 75.0453 165.66 65.6389 168.012 58.7491C170.364 51.8593 183.524 50.1266 197.428 54.871Z" fill="url(#paint54_radial_4758_25530)"/>
<g style="mix-blend-mode:multiply">
<path d="M229.773 27.9314C228.618 28.1376 227.422 28.4264 226.225 28.7565C225.152 29.004 224.039 29.3341 222.801 29.7466C221.604 30.1592 220.408 30.5718 219.335 31.0668L223.048 33.2122C223.42 33.0471 223.832 32.9234 224.245 32.7583C224.699 32.6346 225.152 32.4695 225.606 32.2633C227.71 31.5206 229.691 30.9018 231.547 30.4067C233.404 29.9117 235.178 29.5816 236.828 29.4166C238.478 29.2516 240.046 29.2928 241.531 29.5403C243.016 29.7879 244.46 30.3242 245.822 31.1081C247.431 32.057 248.462 33.0471 248.916 34.1198C249.329 35.1925 249.329 36.2651 248.916 37.3791C248.503 38.4517 247.72 39.5656 246.606 40.6383C245.492 41.711 244.172 42.7424 242.645 43.6913L247.637 46.5792L243.47 48.9721L238.396 46.0429C235.838 47.3218 233.115 48.477 230.186 49.5084C227.257 50.5398 224.41 51.3237 221.646 51.9013L218.964 45.3003C220.367 45.0115 221.811 44.7227 223.296 44.3101C224.534 43.9801 225.936 43.6087 227.504 43.1137C229.031 42.6186 230.516 42.041 231.877 41.4222L228.247 39.3181C226.968 39.8132 225.606 40.267 224.245 40.7208C222.182 41.4222 220.284 41.9585 218.593 42.3298C216.901 42.7011 215.375 42.9487 213.931 42.9899C212.528 43.0724 211.208 42.9899 210.053 42.7011C208.856 42.4536 207.742 41.9998 206.67 41.3809C205.184 40.5145 204.194 39.5656 203.658 38.5755C203.122 37.5441 202.998 36.5127 203.245 35.3988C203.493 34.2848 204.07 33.2122 205.019 32.0982C205.968 30.9843 207.165 29.9117 208.65 28.8802L204.483 26.4874L208.65 24.0945L212.858 26.5286C214.096 25.9511 215.375 25.3735 216.695 24.8784C217.974 24.3833 219.294 23.9295 220.532 23.5169C221.811 23.1044 223.048 22.7743 224.204 22.4443C225.4 22.1142 226.473 21.8254 227.463 21.5779L229.732 27.9314H229.773ZM215.828 34.5736C216.241 34.8212 216.736 34.9037 217.355 34.8624C217.974 34.8212 218.716 34.6561 219.624 34.3673L216.489 32.5521C215.251 33.4184 215.003 34.1198 215.828 34.5736ZM235.673 37.8741C235.301 37.6678 234.724 37.5853 234.023 37.6678C233.321 37.7504 232.496 37.9154 231.588 38.2042L234.641 39.9782C235.425 39.4831 235.879 39.0293 236.003 38.7405C236.127 38.4104 236.003 38.1629 235.673 37.9566V37.8741Z" fill="url(#paint55_linear_4758_25530)"/>
</g>
<path d="M229.773 26.3632C228.618 26.5695 227.422 26.8583 226.225 27.1884C225.152 27.4359 224.039 27.766 222.801 28.1785C221.604 28.5911 220.408 29.0036 219.335 29.4987L223.048 31.644C223.42 31.479 223.832 31.3552 224.245 31.1902C224.699 31.0665 225.152 30.9014 225.606 30.6952C227.71 29.9525 229.691 29.3337 231.547 28.8386C233.404 28.3435 235.178 28.0135 236.828 27.8072C238.478 27.6422 240.046 27.6834 241.531 27.931C243.016 28.1785 244.46 28.7148 245.822 29.4987C247.431 30.4476 248.462 31.4378 248.916 32.5104C249.329 33.5831 249.329 34.6558 248.916 35.7697C248.503 36.8423 247.72 37.9563 246.606 39.0289C245.492 40.1016 244.172 41.133 242.645 42.0819L247.637 44.9698L243.47 47.3627L238.396 44.4335C235.838 45.7124 233.115 46.8676 230.186 47.899C227.257 48.9304 224.41 49.7143 221.646 50.2919L218.964 43.6909C220.367 43.4021 221.811 43.1133 223.296 42.7007C224.534 42.3707 225.936 41.9994 227.504 41.5043C229.031 41.0092 230.516 40.4316 231.877 39.8128L228.247 37.7087C226.968 38.2038 225.606 38.6576 224.245 39.1114C222.182 39.8128 220.284 40.3491 218.593 40.7204C216.901 41.0917 215.375 41.3393 213.931 41.3805C212.528 41.463 211.208 41.3805 210.053 41.0917C208.856 40.8442 207.742 40.3904 206.67 39.7715C205.184 38.9051 204.194 37.9563 203.658 36.9661C203.122 35.9347 202.998 34.9033 203.245 33.7894C203.493 32.6755 204.07 31.6028 205.019 30.4889C205.968 29.3749 207.165 28.3023 208.65 27.2709L204.483 24.878L208.65 22.4851L212.858 24.9193C214.096 24.3417 215.375 23.7641 216.695 23.269C217.974 22.7739 219.294 22.3201 220.532 21.9076C221.811 21.495 223.048 21.165 224.204 20.8349C225.4 20.5048 226.473 20.216 227.463 19.9685L229.732 26.322L229.773 26.3632ZM215.828 33.0055C216.241 33.253 216.736 33.3355 217.355 33.2943C217.974 33.253 218.716 33.088 219.624 32.7992L216.489 30.9839C215.251 31.8503 215.003 32.5517 215.828 33.0055ZM235.673 36.306C235.301 36.0997 234.724 36.0172 234.023 36.0997C233.321 36.1822 232.496 36.3473 231.588 36.6361L234.641 38.4101C235.425 37.915 235.879 37.4612 236.003 37.1724C236.127 36.8423 236.003 36.5948 235.673 36.3885V36.306Z" fill="url(#paint56_linear_4758_25530)"/>
<path style="mix-blend-mode:color-dodge" d="M229.773 26.3632C228.618 26.5695 227.422 26.8583 226.225 27.1884C225.152 27.4359 224.039 27.766 222.801 28.1785C221.604 28.5911 220.408 29.0036 219.335 29.4987L223.048 31.644C223.42 31.479 223.832 31.3552 224.245 31.1902C224.699 31.0665 225.152 30.9014 225.606 30.6952C227.71 29.9525 229.691 29.3337 231.547 28.8386C233.404 28.3435 235.178 28.0135 236.828 27.8072C238.478 27.6422 240.046 27.6834 241.531 27.931C243.016 28.1785 244.46 28.7148 245.822 29.4987C247.431 30.4476 248.462 31.4378 248.916 32.5104C249.329 33.5831 249.329 34.6558 248.916 35.7697C248.503 36.8423 247.72 37.9563 246.606 39.0289C245.492 40.1016 244.172 41.133 242.645 42.0819L247.637 44.9698L243.47 47.3627L238.396 44.4335C235.838 45.7124 233.115 46.8676 230.186 47.899C227.257 48.9304 224.41 49.7143 221.646 50.2919L218.964 43.6909C220.367 43.4021 221.811 43.1133 223.296 42.7007C224.534 42.3707 225.936 41.9994 227.504 41.5043C229.031 41.0092 230.516 40.4316 231.877 39.8128L228.247 37.7087C226.968 38.2038 225.606 38.6576 224.245 39.1114C222.182 39.8128 220.284 40.3491 218.593 40.7204C216.901 41.0917 215.375 41.3393 213.931 41.3805C212.528 41.463 211.208 41.3805 210.053 41.0917C208.856 40.8442 207.742 40.3904 206.67 39.7715C205.184 38.9051 204.194 37.9563 203.658 36.9661C203.122 35.9347 202.998 34.9033 203.245 33.7894C203.493 32.6755 204.07 31.6028 205.019 30.4889C205.968 29.3749 207.165 28.3023 208.65 27.2709L204.483 24.878L208.65 22.4851L212.858 24.9193C214.096 24.3417 215.375 23.7641 216.695 23.269C217.974 22.7739 219.294 22.3201 220.532 21.9076C221.811 21.495 223.048 21.165 224.204 20.8349C225.4 20.5048 226.473 20.216 227.463 19.9685L229.732 26.322L229.773 26.3632ZM215.828 33.0055C216.241 33.253 216.736 33.3355 217.355 33.2943C217.974 33.253 218.716 33.088 219.624 32.7992L216.489 30.9839C215.251 31.8503 215.003 32.5517 215.828 33.0055ZM235.673 36.306C235.301 36.0997 234.724 36.0172 234.023 36.0997C233.321 36.1822 232.496 36.3473 231.588 36.6361L234.641 38.4101C235.425 37.915 235.879 37.4612 236.003 37.1724C236.127 36.8423 236.003 36.5948 235.673 36.3885V36.306Z" fill="url(#paint57_radial_4758_25530)"/>
<path style="mix-blend-mode:multiply" opacity="0.3" d="M165.235 168.645C190.731 168.645 211.4 160.038 211.4 149.42C211.4 138.802 190.731 130.195 165.235 130.195C139.738 130.195 119.069 138.802 119.069 149.42C119.069 160.038 139.738 168.645 165.235 168.645Z" fill="url(#paint58_radial_4758_25530)"/>
<defs>
<linearGradient id="paint0_linear_4758_25530" x1="-53.0943" y1="317.161" x2="600.692" y2="365.047" gradientUnits="userSpaceOnUse">
<stop stop-color="#181B4E"/>
<stop offset="0.363801" stop-color="#9B3581"/>
<stop offset="0.635057" stop-color="#E84680"/>
<stop offset="1" stop-color="#EC614E"/>
</linearGradient>
<linearGradient id="paint1_linear_4758_25530" x1="360.886" y1="132.847" x2="229.691" y2="295.644" gradientUnits="userSpaceOnUse">
<stop offset="0.1" stop-color="#45108A"/>
<stop offset="1" stop-color="#7C1DC9"/>
</linearGradient>
<linearGradient id="paint2_linear_4758_25530" x1="164.546" y1="221.134" x2="285.964" y2="221.134" gradientUnits="userSpaceOnUse">
<stop offset="0.1" stop-color="#45108A"/>
<stop offset="0.62" stop-color="#7C1DC9"/>
<stop offset="0.9" stop-color="#5C15A5"/>
<stop offset="1" stop-color="#501397"/>
</linearGradient>
<linearGradient id="paint3_linear_4758_25530" x1="164.96" y1="307.732" x2="286.707" y2="307.732" gradientUnits="userSpaceOnUse">
<stop stop-color="#FFBB96"/>
<stop offset="0.23" stop-color="#FFFBC9"/>
<stop offset="0.54" stop-color="#F9B673"/>
<stop offset="0.64" stop-color="#F9B876"/>
<stop offset="0.72" stop-color="#FABE81"/>
<stop offset="0.81" stop-color="#FCC892"/>
<stop offset="0.86" stop-color="#FED2A3"/>
<stop offset="0.97" stop-color="#FFC28C"/>
</linearGradient>
<linearGradient id="paint4_linear_4758_25530" x1="164.959" y1="314.745" x2="286.706" y2="314.745" gradientUnits="userSpaceOnUse">
<stop stop-color="#FFBB96"/>
<stop offset="0.23" stop-color="#FFFBC9"/>
<stop offset="0.54" stop-color="#F9B673"/>
<stop offset="0.64" stop-color="#F9B876"/>
<stop offset="0.72" stop-color="#FABE81"/>
<stop offset="0.81" stop-color="#FCC892"/>
<stop offset="0.86" stop-color="#FED2A3"/>
<stop offset="0.97" stop-color="#FFC28C"/>
</linearGradient>
<linearGradient id="paint5_linear_4758_25530" x1="340.504" y1="165.933" x2="219.541" y2="287.722" gradientUnits="userSpaceOnUse">
<stop offset="0.04" stop-color="#FFBA78"/>
<stop offset="0.4" stop-color="#FEC986"/>
<stop offset="1" stop-color="#FEECA8"/>
</linearGradient>
<radialGradient id="paint6_radial_4758_25530" cx="0" cy="0" r="1" gradientUnits="userSpaceOnUse" gradientTransform="translate(199.615 307.484) scale(77.7681 77.7682)">
<stop stop-color="white"/>
<stop offset="1"/>
</radialGradient>
<linearGradient id="paint7_linear_4758_25530" x1="275.939" y1="230.953" x2="185.464" y2="321.964" gradientUnits="userSpaceOnUse">
<stop offset="0.04" stop-color="#FFBA78"/>
<stop offset="0.4" stop-color="#FEC986"/>
<stop offset="1" stop-color="#FEECA8"/>
</linearGradient>
<radialGradient id="paint8_radial_4758_25530" cx="0" cy="0" r="1" gradientUnits="userSpaceOnUse" gradientTransform="translate(248.01 251.458) scale(34.2015 34.2015)">
<stop stop-color="white"/>
<stop offset="1"/>
</radialGradient>
<linearGradient id="paint9_linear_4758_25530" x1="292.566" y1="211.233" x2="207.206" y2="297.128" gradientUnits="userSpaceOnUse">
<stop stop-color="#FFBB96"/>
<stop offset="0.23" stop-color="#FFFBC9"/>
<stop offset="0.54" stop-color="#F9B673"/>
<stop offset="0.64" stop-color="#F9B876"/>
<stop offset="0.72" stop-color="#FABE81"/>
<stop offset="0.81" stop-color="#FCC892"/>
<stop offset="0.86" stop-color="#FED2A3"/>
<stop offset="0.97" stop-color="#FFC28C"/>
</linearGradient>
<radialGradient id="paint10_radial_4758_25530" cx="0" cy="0" r="1" gradientUnits="userSpaceOnUse" gradientTransform="translate(292.439 348.408) rotate(-71.21) scale(13.169 26.338)">
<stop stop-color="#F49587"/>
<stop offset="0.12" stop-color="#BC7368"/>
<stop offset="0.24" stop-color="#8B544C"/>
<stop offset="0.36" stop-color="#603A35"/>
<stop offset="0.48" stop-color="#3D2522"/>
<stop offset="0.61" stop-color="#221513"/>
<stop offset="0.74" stop-color="#0F0908"/>
<stop offset="0.86" stop-color="#030202"/>
<stop offset="1"/>
</radialGradient>
<radialGradient id="paint11_radial_4758_25530" cx="0" cy="0" r="1" gradientUnits="userSpaceOnUse" gradientTransform="translate(353.368 295.096) rotate(-71.21) scale(13.169 26.338)">
<stop stop-color="#F49587"/>
<stop offset="0.12" stop-color="#BC7368"/>
<stop offset="0.24" stop-color="#8B544C"/>
<stop offset="0.36" stop-color="#603A35"/>
<stop offset="0.48" stop-color="#3D2522"/>
<stop offset="0.61" stop-color="#221513"/>
<stop offset="0.74" stop-color="#0F0908"/>
<stop offset="0.86" stop-color="#030202"/>
<stop offset="1"/>
</radialGradient>
<linearGradient id="paint12_linear_4758_25530" x1="203.122" y1="281.328" x2="249.205" y2="281.328" gradientUnits="userSpaceOnUse">
<stop stop-color="#FFBB96"/>
<stop offset="0.23" stop-color="#FFFBC9"/>
<stop offset="0.54" stop-color="#F9B673"/>
<stop offset="0.64" stop-color="#F9B876"/>
<stop offset="0.72" stop-color="#FABE81"/>
<stop offset="0.81" stop-color="#FCC892"/>
<stop offset="0.86" stop-color="#FED2A3"/>
<stop offset="0.97" stop-color="#FFC28C"/>
</linearGradient>
<linearGradient id="paint13_linear_4758_25530" x1="271.359" y1="254.84" x2="232.042" y2="276.294" gradientUnits="userSpaceOnUse">
<stop offset="0.04" stop-color="#FFBA78"/>
<stop offset="0.4" stop-color="#FEC986"/>
<stop offset="1" stop-color="#FEECA8"/>
</linearGradient>
<radialGradient id="paint14_radial_4758_25530" cx="0" cy="0" r="1" gradientUnits="userSpaceOnUse" gradientTransform="translate(194.623 282.812) scale(41.2563 41.2563)">
<stop stop-color="#F49587"/>
<stop offset="0.12" stop-color="#BC7368"/>
<stop offset="0.24" stop-color="#8B544C"/>
<stop offset="0.36" stop-color="#603A35"/>
<stop offset="0.48" stop-color="#3D2522"/>
<stop offset="0.61" stop-color="#221513"/>
<stop offset="0.74" stop-color="#0F0908"/>
<stop offset="0.86" stop-color="#030202"/>
<stop offset="1"/>
</radialGradient>
<radialGradient id="paint15_radial_4758_25530" cx="0" cy="0" r="1" gradientUnits="userSpaceOnUse" gradientTransform="translate(258.188 285.802) rotate(180) scale(46.1509 19.1644)">
<stop offset="0.19" stop-color="#785C5D"/>
<stop offset="1" stop-color="white"/>
</radialGradient>
<linearGradient id="paint16_linear_4758_25530" x1="53.1963" y1="236.812" x2="57.322" y2="236.812" gradientUnits="userSpaceOnUse">
<stop stop-color="#FFBB96"/>
<stop offset="0.23" stop-color="#FFFBC9"/>
<stop offset="0.54" stop-color="#F9B673"/>
<stop offset="0.64" stop-color="#F9B876"/>
<stop offset="0.72" stop-color="#FABE81"/>
<stop offset="0.81" stop-color="#FCC892"/>
<stop offset="0.86" stop-color="#FED2A3"/>
<stop offset="0.97" stop-color="#FFC28C"/>
</linearGradient>
<linearGradient id="paint17_linear_4758_25530" x1="164.959" y1="243.826" x2="286.706" y2="243.826" gradientUnits="userSpaceOnUse">
<stop stop-color="#FFBB96"/>
<stop offset="0.23" stop-color="#FFFBC9"/>
<stop offset="0.54" stop-color="#F9B673"/>
<stop offset="0.64" stop-color="#F9B876"/>
<stop offset="0.72" stop-color="#FABE81"/>
<stop offset="0.81" stop-color="#FCC892"/>
<stop offset="0.86" stop-color="#FED2A3"/>
<stop offset="0.97" stop-color="#FFC28C"/>
</linearGradient>
<linearGradient id="paint18_linear_4758_25530" x1="340.504" y1="95.014" x2="219.541" y2="216.803" gradientUnits="userSpaceOnUse">
<stop offset="0.04" stop-color="#FFBA78"/>
<stop offset="0.4" stop-color="#FEC986"/>
<stop offset="1" stop-color="#FEECA8"/>
</linearGradient>
<radialGradient id="paint19_radial_4758_25530" cx="0" cy="0" r="1" gradientUnits="userSpaceOnUse" gradientTransform="translate(55.2592 236.564) scale(2.06281)">
<stop stop-color="white"/>
<stop offset="1"/>
</radialGradient>
<linearGradient id="paint20_linear_4758_25530" x1="275.939" y1="160.034" x2="185.464" y2="251.045" gradientUnits="userSpaceOnUse">
<stop offset="0.04" stop-color="#FFBA78"/>
<stop offset="0.4" stop-color="#FEC986"/>
<stop offset="1" stop-color="#FEECA8"/>
</linearGradient>
<radialGradient id="paint21_radial_4758_25530" cx="0" cy="0" r="1" gradientUnits="userSpaceOnUse" gradientTransform="translate(248.01 180.538) scale(34.2015 34.2015)">
<stop stop-color="white"/>
<stop offset="1"/>
</radialGradient>
<linearGradient id="paint22_linear_4758_25530" x1="292.566" y1="140.313" x2="207.206" y2="226.209" gradientUnits="userSpaceOnUse">
<stop stop-color="#FFBB96"/>
<stop offset="0.23" stop-color="#FFFBC9"/>
<stop offset="0.54" stop-color="#F9B673"/>
<stop offset="0.64" stop-color="#F9B876"/>
<stop offset="0.72" stop-color="#FABE81"/>
<stop offset="0.81" stop-color="#FCC892"/>
<stop offset="0.86" stop-color="#FED2A3"/>
<stop offset="0.97" stop-color="#FFC28C"/>
</linearGradient>
<radialGradient id="paint23_radial_4758_25530" cx="0" cy="0" r="1" gradientUnits="userSpaceOnUse" gradientTransform="translate(292.633 277.557) rotate(-71.21) scale(13.169 26.338)">
<stop stop-color="#F49587"/>
<stop offset="0.12" stop-color="#BC7368"/>
<stop offset="0.24" stop-color="#8B544C"/>
<stop offset="0.36" stop-color="#603A35"/>
<stop offset="0.48" stop-color="#3D2522"/>
<stop offset="0.61" stop-color="#221513"/>
<stop offset="0.74" stop-color="#0F0908"/>
<stop offset="0.86" stop-color="#030202"/>
<stop offset="1"/>
</radialGradient>
<radialGradient id="paint24_radial_4758_25530" cx="0" cy="0" r="1" gradientUnits="userSpaceOnUse" gradientTransform="translate(353.563 224.245) rotate(-71.21) scale(13.169 26.338)">
<stop stop-color="#F49587"/>
<stop offset="0.12" stop-color="#BC7368"/>
<stop offset="0.24" stop-color="#8B544C"/>
<stop offset="0.36" stop-color="#603A35"/>
<stop offset="0.48" stop-color="#3D2522"/>
<stop offset="0.61" stop-color="#221513"/>
<stop offset="0.74" stop-color="#0F0908"/>
<stop offset="0.86" stop-color="#030202"/>
<stop offset="1"/>
</radialGradient>
<linearGradient id="paint25_linear_4758_25530" x1="203.122" y1="210.408" x2="249.205" y2="210.408" gradientUnits="userSpaceOnUse">
<stop stop-color="#FFBB96"/>
<stop offset="0.23" stop-color="#FFFBC9"/>
<stop offset="0.54" stop-color="#F9B673"/>
<stop offset="0.64" stop-color="#F9B876"/>
<stop offset="0.72" stop-color="#FABE81"/>
<stop offset="0.81" stop-color="#FCC892"/>
<stop offset="0.86" stop-color="#FED2A3"/>
<stop offset="0.97" stop-color="#FFC28C"/>
</linearGradient>
<linearGradient id="paint26_linear_4758_25530" x1="271.359" y1="183.921" x2="232.042" y2="205.375" gradientUnits="userSpaceOnUse">
<stop offset="0.04" stop-color="#FFBA78"/>
<stop offset="0.4" stop-color="#FEC986"/>
<stop offset="1" stop-color="#FEECA8"/>
</linearGradient>
<radialGradient id="paint27_radial_4758_25530" cx="0" cy="0" r="1" gradientUnits="userSpaceOnUse" gradientTransform="translate(194.623 211.893) scale(41.2563 41.2563)">
<stop stop-color="#F49587"/>
<stop offset="0.12" stop-color="#BC7368"/>
<stop offset="0.24" stop-color="#8B544C"/>
<stop offset="0.36" stop-color="#603A35"/>
<stop offset="0.48" stop-color="#3D2522"/>
<stop offset="0.61" stop-color="#221513"/>
<stop offset="0.74" stop-color="#0F0908"/>
<stop offset="0.86" stop-color="#030202"/>
<stop offset="1"/>
</radialGradient>
<radialGradient id="paint28_radial_4758_25530" cx="0" cy="0" r="1" gradientUnits="userSpaceOnUse" gradientTransform="translate(329.613 211.563) scale(49.5901 49.5901)">
<stop stop-color="white"/>
<stop offset="1"/>
</radialGradient>
<linearGradient id="paint29_linear_4758_25530" x1="-14.1616" y1="80.7247" x2="401.561" y2="162.695" gradientUnits="userSpaceOnUse">
<stop stop-color="#131D56"/>
<stop offset="0.269162" stop-color="#33145D"/>
<stop offset="0.522689" stop-color="#63166A"/>
<stop offset="0.702487" stop-color="#A4267B"/>
<stop offset="0.848653" stop-color="#DB327C"/>
<stop offset="1" stop-color="#EB4B46"/>
</linearGradient>
<radialGradient id="paint30_radial_4758_25530" cx="0" cy="0" r="1" gradientUnits="userSpaceOnUse" gradientTransform="translate(238.973 130.288) scale(81.0274 81.0274)">
<stop stop-color="white"/>
<stop offset="1"/>
</radialGradient>
<radialGradient id="paint31_radial_4758_25530" cx="0" cy="0" r="1" gradientUnits="userSpaceOnUse" gradientTransform="translate(39172.8 214.118) rotate(180) scale(2.43412 1.01078)">
<stop offset="0.19" stop-color="#785C5D"/>
<stop offset="1" stop-color="white"/>
</radialGradient>
<linearGradient id="paint32_linear_4758_25530" x1="225.316" y1="308.845" x2="269.006" y2="308.845" gradientUnits="userSpaceOnUse">
<stop offset="0.04" stop-color="#9F19AB"/>
<stop offset="0.16" stop-color="#AE24B0"/>
<stop offset="0.41" stop-color="#D643BF"/>
<stop offset="0.63" stop-color="#FF63CE"/>
<stop offset="0.87" stop-color="#DC48C1"/>
</linearGradient>
<linearGradient id="paint33_linear_4758_25530" x1="164.546" y1="278.357" x2="225.523" y2="278.357" gradientUnits="userSpaceOnUse">
<stop stop-color="#671AB9"/>
<stop offset="0.34" stop-color="#AD34F1"/>
<stop offset="1" stop-color="#5513AB"/>
</linearGradient>
<radialGradient id="paint34_radial_4758_25530" cx="0" cy="0" r="1" gradientUnits="userSpaceOnUse" gradientTransform="translate(246.97 189.482) rotate(-90.07) scale(99.7998 28.4198)">
<stop stop-color="#972A74"/>
<stop offset="0.04" stop-color="#8A266A"/>
<stop offset="0.19" stop-color="#601A49"/>
<stop offset="0.35" stop-color="#3D112F"/>
<stop offset="0.51" stop-color="#22091A"/>
<stop offset="0.67" stop-color="#0F040B"/>
<stop offset="0.83" stop-color="#030102"/>
<stop offset="1"/>
</radialGradient>
<linearGradient id="paint35_linear_4758_25530" x1="53.1963" y1="162.551" x2="57.322" y2="162.551" gradientUnits="userSpaceOnUse">
<stop stop-color="#FFBB96"/>
<stop offset="0.23" stop-color="#FFFBC9"/>
<stop offset="0.54" stop-color="#F9B673"/>
<stop offset="0.64" stop-color="#F9B876"/>
<stop offset="0.72" stop-color="#FABE81"/>
<stop offset="0.81" stop-color="#FCC892"/>
<stop offset="0.86" stop-color="#FED2A3"/>
<stop offset="0.97" stop-color="#FFC28C"/>
</linearGradient>
<linearGradient id="paint36_linear_4758_25530" x1="164.959" y1="169.606" x2="286.706" y2="169.606" gradientUnits="userSpaceOnUse">
<stop stop-color="#FFBB96"/>
<stop offset="0.23" stop-color="#FFFBC9"/>
<stop offset="0.54" stop-color="#F9B673"/>
<stop offset="0.64" stop-color="#F9B876"/>
<stop offset="0.72" stop-color="#FABE81"/>
<stop offset="0.81" stop-color="#FCC892"/>
<stop offset="0.86" stop-color="#FED2A3"/>
<stop offset="0.97" stop-color="#FFC28C"/>
</linearGradient>
<linearGradient id="paint37_linear_4758_25530" x1="340.504" y1="20.7938" x2="219.541" y2="142.582" gradientUnits="userSpaceOnUse">
<stop offset="0.04" stop-color="#FFBA78"/>
<stop offset="0.4" stop-color="#FEC986"/>
<stop offset="1" stop-color="#FEECA8"/>
</linearGradient>
<radialGradient id="paint38_radial_4758_25530" cx="0" cy="0" r="1" gradientUnits="userSpaceOnUse" gradientTransform="translate(55.2592 162.344) scale(2.06281 2.06282)">
<stop stop-color="white"/>
<stop offset="1"/>
</radialGradient>
<linearGradient id="paint39_linear_4758_25530" x1="275.939" y1="85.8134" x2="185.464" y2="176.825" gradientUnits="userSpaceOnUse">
<stop offset="0.04" stop-color="#FFBA78"/>
<stop offset="0.4" stop-color="#FEC986"/>
<stop offset="1" stop-color="#FEECA8"/>
</linearGradient>
<radialGradient id="paint40_radial_4758_25530" cx="0" cy="0" r="1" gradientUnits="userSpaceOnUse" gradientTransform="translate(248.01 106.318) scale(34.2015 34.2015)">
<stop stop-color="white"/>
<stop offset="1"/>
</radialGradient>
<linearGradient id="paint41_linear_4758_25530" x1="292.566" y1="66.0932" x2="207.206" y2="151.989" gradientUnits="userSpaceOnUse">
<stop stop-color="#FFBB96"/>
<stop offset="0.23" stop-color="#FFFBC9"/>
<stop offset="0.54" stop-color="#F9B673"/>
<stop offset="0.64" stop-color="#F9B876"/>
<stop offset="0.72" stop-color="#FABE81"/>
<stop offset="0.81" stop-color="#FCC892"/>
<stop offset="0.86" stop-color="#FED2A3"/>
<stop offset="0.97" stop-color="#FFC28C"/>
</linearGradient>
<radialGradient id="paint42_radial_4758_25530" cx="0" cy="0" r="1" gradientUnits="userSpaceOnUse" gradientTransform="translate(292.85 203.412) rotate(-71.21) scale(13.169 26.338)">
<stop stop-color="#F49587"/>
<stop offset="0.12" stop-color="#BC7368"/>
<stop offset="0.24" stop-color="#8B544C"/>
<stop offset="0.36" stop-color="#603A35"/>
<stop offset="0.48" stop-color="#3D2522"/>
<stop offset="0.61" stop-color="#221513"/>
<stop offset="0.74" stop-color="#0F0908"/>
<stop offset="0.86" stop-color="#030202"/>
<stop offset="1"/>
</radialGradient>
<radialGradient id="paint43_radial_4758_25530" cx="0" cy="0" r="1" gradientUnits="userSpaceOnUse" gradientTransform="translate(353.78 150.1) rotate(-71.21) scale(13.169 26.338)">
<stop stop-color="#F49587"/>
<stop offset="0.12" stop-color="#BC7368"/>
<stop offset="0.24" stop-color="#8B544C"/>
<stop offset="0.36" stop-color="#603A35"/>
<stop offset="0.48" stop-color="#3D2522"/>
<stop offset="0.61" stop-color="#221513"/>
<stop offset="0.74" stop-color="#0F0908"/>
<stop offset="0.86" stop-color="#030202"/>
<stop offset="1"/>
</radialGradient>
<linearGradient id="paint44_linear_4758_25530" x1="203.122" y1="136.188" x2="249.205" y2="136.188" gradientUnits="userSpaceOnUse">
<stop stop-color="#FFBB96"/>
<stop offset="0.23" stop-color="#FFFBC9"/>
<stop offset="0.54" stop-color="#F9B673"/>
<stop offset="0.64" stop-color="#F9B876"/>
<stop offset="0.72" stop-color="#FABE81"/>
<stop offset="0.81" stop-color="#FCC892"/>
<stop offset="0.86" stop-color="#FED2A3"/>
<stop offset="0.97" stop-color="#FFC28C"/>
</linearGradient>
<linearGradient id="paint45_linear_4758_25530" x1="271.359" y1="109.701" x2="232.042" y2="131.155" gradientUnits="userSpaceOnUse">
<stop offset="0.04" stop-color="#FFBA78"/>
<stop offset="0.4" stop-color="#FEC986"/>
<stop offset="1" stop-color="#FEECA8"/>
</linearGradient>
<radialGradient id="paint46_radial_4758_25530" cx="0" cy="0" r="1" gradientUnits="userSpaceOnUse" gradientTransform="translate(194.623 137.673) scale(41.2563 41.2563)">
<stop stop-color="#F49587"/>
<stop offset="0.12" stop-color="#BC7368"/>
<stop offset="0.24" stop-color="#8B544C"/>
<stop offset="0.36" stop-color="#603A35"/>
<stop offset="0.48" stop-color="#3D2522"/>
<stop offset="0.61" stop-color="#221513"/>
<stop offset="0.74" stop-color="#0F0908"/>
<stop offset="0.86" stop-color="#030202"/>
<stop offset="1"/>
</radialGradient>
<linearGradient id="paint47_linear_4758_25530" x1="53.1963" y1="63.123" x2="57.322" y2="63.123" gradientUnits="userSpaceOnUse">
<stop stop-color="#FFBB96"/>
<stop offset="0.23" stop-color="#FFFBC9"/>
<stop offset="0.54" stop-color="#F9B673"/>
<stop offset="0.64" stop-color="#F9B876"/>
<stop offset="0.72" stop-color="#FABE81"/>
<stop offset="0.81" stop-color="#FCC892"/>
<stop offset="0.86" stop-color="#FED2A3"/>
<stop offset="0.97" stop-color="#FFC28C"/>
</linearGradient>
<linearGradient id="paint48_linear_4758_25530" x1="164.959" y1="70.1775" x2="286.706" y2="70.1775" gradientUnits="userSpaceOnUse">
<stop stop-color="#FFBB96"/>
<stop offset="0.23" stop-color="#FFFBC9"/>
<stop offset="0.54" stop-color="#F9B673"/>
<stop offset="0.64" stop-color="#F9B876"/>
<stop offset="0.72" stop-color="#FABE81"/>
<stop offset="0.81" stop-color="#FCC892"/>
<stop offset="0.86" stop-color="#FED2A3"/>
<stop offset="0.97" stop-color="#FFC28C"/>
</linearGradient>
<linearGradient id="paint49_linear_4758_25530" x1="340.504" y1="-78.6755" x2="219.541" y2="43.1131" gradientUnits="userSpaceOnUse">
<stop offset="0.04" stop-color="#FFBA78"/>
<stop offset="0.4" stop-color="#FEC986"/>
<stop offset="1" stop-color="#FEECA8"/>
</linearGradient>
<radialGradient id="paint50_radial_4758_25530" cx="0" cy="0" r="1" gradientUnits="userSpaceOnUse" gradientTransform="translate(55.2592 62.875) scale(2.06281)">
<stop stop-color="white"/>
<stop offset="1"/>
</radialGradient>
<linearGradient id="paint51_linear_4758_25530" x1="275.939" y1="-13.6558" x2="185.464" y2="77.3556" gradientUnits="userSpaceOnUse">
<stop offset="0.04" stop-color="#FFBA78"/>
<stop offset="0.4" stop-color="#FEC986"/>
<stop offset="1" stop-color="#FEECA8"/>
</linearGradient>
<radialGradient id="paint52_radial_4758_25530" cx="0" cy="0" r="1" gradientUnits="userSpaceOnUse" gradientTransform="translate(248.01 6.84897) scale(34.2015 34.2015)">
<stop stop-color="white"/>
<stop offset="1"/>
</radialGradient>
<linearGradient id="paint53_linear_4758_25530" x1="292.566" y1="-33.3763" x2="207.206" y2="52.5193" gradientUnits="userSpaceOnUse">
<stop stop-color="#FFBB96"/>
<stop offset="0.23" stop-color="#FFFBC9"/>
<stop offset="0.54" stop-color="#F9B673"/>
<stop offset="0.64" stop-color="#F9B876"/>
<stop offset="0.72" stop-color="#FABE81"/>
<stop offset="0.81" stop-color="#FCC892"/>
<stop offset="0.86" stop-color="#FED2A3"/>
<stop offset="0.97" stop-color="#FFC28C"/>
</linearGradient>
<radialGradient id="paint54_radial_4758_25530" cx="0" cy="0" r="1" gradientUnits="userSpaceOnUse" gradientTransform="translate(293.135 104.051) rotate(-71.21) scale(13.169 26.338)">
<stop stop-color="#F49587"/>
<stop offset="0.12" stop-color="#BC7368"/>
<stop offset="0.24" stop-color="#8B544C"/>
<stop offset="0.36" stop-color="#603A35"/>
<stop offset="0.48" stop-color="#3D2522"/>
<stop offset="0.61" stop-color="#221513"/>
<stop offset="0.74" stop-color="#0F0908"/>
<stop offset="0.86" stop-color="#030202"/>
<stop offset="1"/>
</radialGradient>
<linearGradient id="paint55_linear_4758_25530" x1="203.122" y1="36.7189" x2="249.205" y2="36.7189" gradientUnits="userSpaceOnUse">
<stop stop-color="#FFBB96"/>
<stop offset="0.23" stop-color="#FFFBC9"/>
<stop offset="0.54" stop-color="#F9B673"/>
<stop offset="0.64" stop-color="#F9B876"/>
<stop offset="0.72" stop-color="#FABE81"/>
<stop offset="0.81" stop-color="#FCC892"/>
<stop offset="0.86" stop-color="#FED2A3"/>
<stop offset="0.97" stop-color="#FFC28C"/>
</linearGradient>
<linearGradient id="paint56_linear_4758_25530" x1="271.359" y1="10.232" x2="232.042" y2="31.6853" gradientUnits="userSpaceOnUse">
<stop offset="0.04" stop-color="#FFBA78"/>
<stop offset="0.4" stop-color="#FEC986"/>
<stop offset="1" stop-color="#FEECA8"/>
</linearGradient>
<radialGradient id="paint57_radial_4758_25530" cx="0" cy="0" r="1" gradientUnits="userSpaceOnUse" gradientTransform="translate(194.623 38.2038) scale(41.2563 41.2563)">
<stop stop-color="#F49587"/>
<stop offset="0.12" stop-color="#BC7368"/>
<stop offset="0.24" stop-color="#8B544C"/>
<stop offset="0.36" stop-color="#603A35"/>
<stop offset="0.48" stop-color="#3D2522"/>
<stop offset="0.61" stop-color="#221513"/>
<stop offset="0.74" stop-color="#0F0908"/>
<stop offset="0.86" stop-color="#030202"/>
<stop offset="1"/>
</radialGradient>
<radialGradient id="paint58_radial_4758_25530" cx="0" cy="0" r="1" gradientUnits="userSpaceOnUse" gradientTransform="translate(39112.8 174.822) rotate(180) scale(2.43412 1.01078)">
<stop offset="0.19" stop-color="#785C5D"/>
<stop offset="1" stop-color="white"/>
</radialGradient>
</defs>
</svg>
