<svg xmlns="http://www.w3.org/2000/svg" width="16" height="16" viewBox="0 0 16 16" fill="none">
  <mask id="mask0_3980_23614" style="mask-type:alpha" maskUnits="userSpaceOnUse" x="0" y="0" width="16" height="16">
    <rect width="16" height="16" fill="#D9D9D9"/>
  </mask>
  <g mask="url(#mask0_3980_23614)">
    <path d="M4.64226 13.2601L7.50219 10.4001L10.3621 13.2601C10.4807 13.3787 10.6318 13.4372 10.8111 13.4372C10.9904 13.4372 11.1414 13.3787 11.2601 13.2601C11.3787 13.1414 11.4372 12.9904 11.4372 12.8111C11.4372 12.6318 11.3787 12.4807 11.2601 12.3621L8.40012 9.50219L11.2601 6.64226C11.3787 6.52364 11.4372 6.37261 11.4372 6.19329C11.4372 6.01397 11.3787 5.86294 11.2601 5.74432C11.1414 5.6257 10.9904 5.56719 10.8111 5.56719C10.6318 5.56719 10.4807 5.6257 10.3621 5.74432L7.50219 8.60425L4.64226 5.74432C4.52364 5.6257 4.37261 5.56719 4.19329 5.56719C4.01397 5.56719 3.86294 5.6257 3.74432 5.74432C3.6257 5.86294 3.56719 6.01397 3.56719 6.19329C3.56719 6.37261 3.6257 6.52364 3.74432 6.64226L6.60425 9.50219L3.74432 12.3621C3.6257 12.4807 3.56719 12.6318 3.56719 12.8111C3.56719 12.9904 3.6257 13.1414 3.74432 13.2601C3.86294 13.3787 4.01397 13.4372 4.19329 13.4372C4.37261 13.4372 4.52364 13.3787 4.64226 13.2601Z" fill="#87A0E5" stroke="#87A0E5" stroke-width="0.1"/>
  </g>
</svg>