<svg width="16" height="16" viewBox="0 0 16 16" fill="none" xmlns="http://www.w3.org/2000/svg">
<g clip-path="url(#clip0_3798_4100)">
<path d="M2.42566 7.53047C2.30068 7.65549 2.23047 7.82503 2.23047 8.00181C2.23047 8.17858 2.30068 8.34812 2.42566 8.47314L6.19699 12.2445C6.25849 12.3081 6.33205 12.3589 6.41339 12.3939C6.49473 12.4288 6.58221 12.4472 6.67073 12.448C6.75925 12.4487 6.84703 12.4319 6.92896 12.3984C7.01089 12.3648 7.08533 12.3153 7.14792 12.2527C7.21052 12.1901 7.26002 12.1157 7.29354 12.0338C7.32706 11.9518 7.34393 11.8641 7.34316 11.7755C7.34239 11.687 7.324 11.5995 7.28906 11.5182C7.25412 11.4369 7.20333 11.3633 7.13966 11.3018L4.50633 8.66847H13.335C13.5118 8.66847 13.6814 8.59823 13.8064 8.47321C13.9314 8.34819 14.0017 8.17862 14.0017 8.00181C14.0017 7.825 13.9314 7.65543 13.8064 7.5304C13.6814 7.40538 13.5118 7.33514 13.335 7.33514L4.50633 7.33514L7.13966 4.70181C7.2611 4.57607 7.32829 4.40767 7.32678 4.23287C7.32526 4.05807 7.25514 3.89087 7.13154 3.76726C7.00793 3.64365 6.84072 3.57354 6.66593 3.57202C6.49113 3.5705 6.32273 3.6377 6.19699 3.75914L2.42566 7.53047Z" fill="url(#paint0_linear_3798_4100)"/>
</g>
<defs>
<linearGradient id="paint0_linear_3798_4100" x1="0.334636" y1="8.00014" x2="17.0013" y2="8.00011" gradientUnits="userSpaceOnUse">
<stop stop-color="#162770"/>
<stop offset="0.202053" stop-color="#382361"/>
<stop offset="0.39085" stop-color="#8A357D"/>
<stop offset="0.595602" stop-color="#E64996"/>
<stop offset="0.7844" stop-color="#EB463D"/>
<stop offset="1" stop-color="#ED6550"/>
</linearGradient>
<clipPath id="clip0_3798_4100">
<rect width="16" height="16" fill="white" transform="matrix(0 -1 1 0 0 16)"/>
</clipPath>
</defs>
</svg>
