<svg width="41" height="41" viewBox="0 0 41 41" fill="none" xmlns="http://www.w3.org/2000/svg">
<rect x="0.5" y="0.285645" width="40" height="40" rx="20" fill="#F7F7F7"/>
<g clip-path="url(#clip0_3702_6068)">
<path d="M21.3805 9.83131C21.1461 9.59698 20.8282 9.46533 20.4968 9.46533C20.1653 9.46533 19.8474 9.59698 19.613 9.83131L12.5418 16.9026C12.4224 17.0179 12.3272 17.1558 12.2616 17.3083C12.1961 17.4608 12.1616 17.6248 12.1602 17.7908C12.1588 17.9568 12.1904 18.1214 12.2532 18.275C12.3161 18.4286 12.4089 18.5682 12.5263 18.6856C12.6436 18.8029 12.7832 18.8957 12.9368 18.9586C13.0904 19.0214 13.255 19.0531 13.421 19.0516C13.587 19.0502 13.751 19.0157 13.9035 18.9502C14.056 18.8847 14.194 18.7895 14.3093 18.6701L19.2468 13.7326V30.2863C19.2468 30.6178 19.3785 30.9358 19.6129 31.1702C19.8473 31.4046 20.1652 31.5363 20.4968 31.5363C20.8283 31.5363 21.1462 31.4046 21.3806 31.1702C21.6151 30.9358 21.7468 30.6178 21.7468 30.2863V13.7326L26.6843 18.6701C26.92 18.8978 27.2358 19.0238 27.5635 19.0209C27.8913 19.0181 28.2048 18.8866 28.4365 18.6548C28.6683 18.4231 28.7998 18.1096 28.8026 17.7818C28.8055 17.4541 28.6795 17.1383 28.4518 16.9026L21.3805 9.83131Z" fill="#2E173B"/>
</g>
<defs>
<clipPath id="clip0_3702_6068">
<rect width="30" height="30" fill="white" transform="translate(5.5 5.28564)"/>
</clipPath>
</defs>
</svg>

