<svg width="40" height="41" viewBox="0 0 40 41" fill="none" xmlns="http://www.w3.org/2000/svg">
<circle cx="20" cy="20.6125" r="20" fill="white"/>
<path d="M14.392 26.6125V24.7405L21.16 19.7965C21.784 19.3405 22.384 18.8845 22.768 18.3325C23.152 17.8285 23.368 17.2285 23.368 16.4605C23.368 15.6445 22.96 14.9965 22.264 14.5645C21.616 14.1805 20.752 13.9885 19.816 13.9885C17.992 13.9885 16.552 14.4205 14.944 15.4525L14.008 13.7005C15.904 12.4285 17.512 11.9485 19.912 11.9485C21.472 11.9485 22.96 12.2845 24.04 13.0525C25.12 13.7965 25.792 14.9485 25.792 16.4605C25.792 17.5885 25.48 18.4525 24.928 19.2205C24.376 19.9645 23.608 20.6125 22.648 21.2605L17.992 24.5725H25.696V26.6125H14.392Z" fill="url(#paint0_linear_6084_15753)"/>
<defs>
<linearGradient id="paint0_linear_6084_15753" x1="12.7682" y1="19.6126" x2="27.4536" y2="19.6126" gradientUnits="userSpaceOnUse">
<stop stop-color="#131D56"/>
<stop offset="0.269162" stop-color="#33145D"/>
<stop offset="0.522689" stop-color="#63166A"/>
<stop offset="0.702487" stop-color="#A4267B"/>
<stop offset="0.848653" stop-color="#DB327C"/>
<stop offset="1" stop-color="#EB4B46"/>
</linearGradient>
</defs>
</svg>
