<svg width="40" height="41" viewBox="0 0 40 41" fill="none" xmlns="http://www.w3.org/2000/svg">
<circle cx="20" cy="20.6125" r="20" fill="white"/>
<path d="M19.6396 24.8125C21.0556 24.8125 22.0636 24.4525 22.7596 23.8285C23.3116 23.3485 23.5756 22.7485 23.5756 21.9565C23.5756 21.2845 23.4076 20.7085 23.0236 20.3005C22.6156 19.8445 21.8956 19.5805 21.0316 19.5805H16.4956V17.6605H20.6236C21.2236 17.6605 21.7516 17.4925 22.1596 17.1325C22.4956 16.8445 22.6636 16.4125 22.6636 15.8365C22.6636 15.2365 22.3996 14.7805 21.8476 14.4445C21.2716 14.0605 20.5036 13.9165 19.3756 13.9165C17.8156 13.9165 16.5436 14.2045 15.0796 15.0445L14.1436 13.4365C15.7516 12.3325 17.4076 11.9485 19.5436 11.9485C21.2236 11.9485 22.6156 12.2605 23.6236 12.9565C24.5836 13.5805 25.1116 14.5405 25.1116 15.7405C25.1116 16.3165 24.9676 16.8685 24.6796 17.3245C24.4636 17.6845 24.1276 18.0205 23.7436 18.2845V18.3805C24.4636 18.6685 25.0156 19.1005 25.3996 19.6765C25.8316 20.3005 26.0716 21.0685 26.0716 21.9565C26.0716 23.2525 25.5436 24.4285 24.5596 25.3165C23.4316 26.2765 21.8956 26.8765 19.6396 26.8765C17.0476 26.8765 15.3196 26.2765 13.6876 25.0765L14.7436 23.3725C16.4956 24.4765 17.7196 24.8125 19.6396 24.8125Z" fill="url(#paint0_linear_6084_15762)"/>
<defs>
<linearGradient id="paint0_linear_6084_15762" x1="12.7682" y1="19.6126" x2="27.4536" y2="19.6126" gradientUnits="userSpaceOnUse">
<stop stop-color="#131D56"/>
<stop offset="0.269162" stop-color="#33145D"/>
<stop offset="0.522689" stop-color="#63166A"/>
<stop offset="0.702487" stop-color="#A4267B"/>
<stop offset="0.848653" stop-color="#DB327C"/>
<stop offset="1" stop-color="#EB4B46"/>
</linearGradient>
</defs>
</svg>
