<svg width="44" height="43" viewBox="0 0 44 43" fill="none" xmlns="http://www.w3.org/2000/svg">
<circle cx="22" cy="21.6125" r="20" fill="white"/>
<path d="M18.488 16.8605L17.84 15.2045L22.208 13.0205L23.384 13.2365V25.7165L25.232 25.8845V27.6125H18.464V25.9325L20.912 25.7405V15.8285L18.488 16.8605Z" fill="url(#paint0_linear_6084_15744)"/>
<path d="M22 0.753174C19.2751 0.753172 16.5768 1.28988 14.0593 2.33267C11.5418 3.37545 9.25436 4.90388 7.32754 6.8307C5.40073 8.75751 3.87229 11.045 2.8295 13.5625C1.78672 16.08 1.25 18.7782 1.25 21.5032C1.25 24.2281 1.78671 26.9263 2.8295 29.4438C3.87228 31.9614 5.40071 34.2488 7.32753 36.1756C9.25434 38.1025 11.5418 39.6309 14.0593 40.6737C16.5768 41.7165 19.2751 42.2532 22 42.2532C24.7249 42.2532 27.4232 41.7165 29.9407 40.6737C32.4582 39.6309 34.7456 38.1025 36.6725 36.1756C38.5993 34.2488 40.1277 31.9614 41.1705 29.4439C42.2133 26.9264 42.75 24.2281 42.75 21.5032C42.75 18.7782 42.2133 16.08 41.1705 13.5625C40.1277 11.045 38.5993 8.75753 36.6725 6.83071C34.7457 4.90389 32.4582 3.37546 29.9407 2.33267C27.4232 1.28989 24.7249 0.753174 22 0.753174L22 0.753174Z" stroke="url(#paint1_linear_6084_15744)" stroke-width="1.5"/>
<path d="M22 0.753174C19.2751 0.753172 16.5768 1.28988 14.0593 2.33267C11.5418 3.37545 9.25436 4.90388 7.32754 6.8307C5.40073 8.75751 3.87229 11.045 2.8295 13.5625C1.78672 16.08 1.25 18.7782 1.25 21.5032C1.25 24.2281 1.78671 26.9263 2.8295 29.4438C3.87228 31.9614 5.40071 34.2488 7.32753 36.1756C9.25434 38.1025 11.5418 39.6309 14.0593 40.6737C16.5768 41.7165 19.2751 42.2532 22 42.2532C24.7249 42.2532 27.4232 41.7165 29.9407 40.6737C32.4582 39.6309 34.7456 38.1025 36.6725 36.1756C38.5993 34.2488 40.1277 31.9614 41.1705 29.4439C42.2133 26.9264 42.75 24.2281 42.75 21.5032C42.75 18.7782 42.2133 16.08 41.1705 13.5625C40.1277 11.045 38.5993 8.75753 36.6725 6.83071C34.7457 4.90389 32.4582 3.37546 29.9407 2.33267C27.4232 1.28989 24.7249 0.753174 22 0.753174L22 0.753174Z" stroke="white" stroke-width="1.5"/>
<defs>
<linearGradient id="paint0_linear_6084_15744" x1="16.8344" y1="20.6126" x2="27.324" y2="20.6126" gradientUnits="userSpaceOnUse">
<stop stop-color="#131D56"/>
<stop offset="0.269162" stop-color="#33145D"/>
<stop offset="0.522689" stop-color="#63166A"/>
<stop offset="0.702487" stop-color="#A4267B"/>
<stop offset="0.848653" stop-color="#DB327C"/>
<stop offset="1" stop-color="#EB4B46"/>
</linearGradient>
<linearGradient id="paint1_linear_6084_15744" x1="1.33765" y1="21.5032" x2="43.2959" y2="21.5032" gradientUnits="userSpaceOnUse">
<stop stop-color="#131D56"/>
<stop offset="0.269162" stop-color="#33145D"/>
<stop offset="0.522689" stop-color="#63166A"/>
<stop offset="0.702487" stop-color="#A4267B"/>
<stop offset="0.848653" stop-color="#DB327C"/>
<stop offset="1" stop-color="#EB4B46"/>
</linearGradient>
</defs>
</svg>
