<svg width="1010" height="500" fill="none" xmlns="http://www.w3.org/2000/svg"><path opacity=".1" fill-rule="evenodd" clip-rule="evenodd" d="M394.409 279.335c35.234 110.251 35.714 111.739 69.025 215.975a6.927 6.927 0 0 0 1.642 2.743 6.485 6.485 0 0 0 2.657 1.649 6.254 6.254 0 0 0 3.081.187 6.404 6.404 0 0 0 2.82-1.317L897.991 155.22l24.594 51.663a6.759 6.759 0 0 0 2.435 2.785 6.311 6.311 0 0 0 3.469 1.012 6.32 6.32 0 0 0 3.454-1.068 6.772 6.772 0 0 0 2.393-2.825l74.154-161.96c.43-.945.65-1.983.65-3.032a7.3 7.3 0 0 0-.69-3.022 6.904 6.904 0 0 0-1.89-2.393 6.43 6.43 0 0 0-2.7-1.275L835.957.132a6.253 6.253 0 0 0-3.59.312 6.585 6.585 0 0 0-2.889 2.259 7.074 7.074 0 0 0-1.312 3.521 7.17 7.17 0 0 0 .662 3.717l34.829 73.16-286.029 146.002-68.829-215.37a6.927 6.927 0 0 0-1.713-2.814 6.475 6.475 0 0 0-2.775-1.632 6.246 6.246 0 0 0-3.181-.067 6.437 6.437 0 0 0-2.834 1.515L2.241 464.5a6.975 6.975 0 0 0-2.182 4.256 7.14 7.14 0 0 0 1.028 4.711c.876 1.388 2.201 2.395 3.73 2.834a6.263 6.263 0 0 0 4.586-.446l385.001-196.519h.005Z" fill="url(#a)"/><defs><linearGradient id="a" x1="-237.267" y1="250" x2="1000.12" y2="355.607" gradientUnits="userSpaceOnUse"><stop stop-color="#181B4E"/><stop offset=".328" stop-color="#9B3581"/><stop offset=".635" stop-color="#E84680"/><stop offset="1" stop-color="#EC614E"/></linearGradient></defs></svg>