<svg width="312" height="155" fill="none" xmlns="http://www.w3.org/2000/svg"><path opacity=".1" fill-rule="evenodd" clip-rule="evenodd" d="m121.941 86.364 21.341 66.773c.103.322.277.612.508.849a2 2 0 0 0 .821.509c.309.099.636.119.953.058.317-.061.616-.2.872-.407L277.637 47.99l7.604 15.973c.169.355.43.654.752.861.323.208.694.316 1.073.313a1.956 1.956 0 0 0 1.068-.33c.319-.213.576-.516.74-.874l22.925-50.073a2.204 2.204 0 0 0-.013-1.872 2.101 2.101 0 0 0-.584-.74 1.978 1.978 0 0 0-.834-.394L258.457.04a1.934 1.934 0 0 0-1.11.096c-.354.14-.663.383-.893.699-.229.316-.37.693-.406 1.088-.035.396.036.794.205 1.15l10.768 22.619-88.433 45.14-21.28-66.587a2.143 2.143 0 0 0-.53-.87 1.995 1.995 0 0 0-.858-.505 1.93 1.93 0 0 0-.983-.02c-.324.078-.625.239-.876.468L.693 143.612c-.37.338-.61.805-.675 1.315-.065.51.048 1.028.318 1.457.27.429.68.741 1.153.876.473.136.977.087 1.418-.138L121.94 86.363h.001Z" fill="url(#a)"/><defs><linearGradient id="a" x1="-73.357" y1="77.294" x2="309.213" y2="109.945" gradientUnits="userSpaceOnUse"><stop stop-color="#181B4E"/><stop offset=".328" stop-color="#9B3581"/><stop offset=".635" stop-color="#E84680"/><stop offset="1" stop-color="#EC614E"/></linearGradient></defs></svg>