<svg width="24" height="24" viewBox="0 0 24 24" fill="none" xmlns="http://www.w3.org/2000/svg">
<mask id="mask0_3437_216" style="mask-type:alpha" maskUnits="userSpaceOnUse" x="0" y="0" width="24" height="24">
<rect y="24" width="24" height="24" transform="rotate(-90 0 24)" fill="#D9D9D9"/>
</mask>
<g mask="url(#mask0_3437_216)">
<path d="M12.4879 14.2691L19.8379 6.91914C20.0879 6.66914 20.3796 6.54831 20.7129 6.55664C21.0462 6.56497 21.3379 6.69414 21.5879 6.94414C21.8379 7.19414 21.9629 7.48581 21.9629 7.81914C21.9629 8.15247 21.8379 8.44414 21.5879 8.69414L13.9129 16.3941C13.7129 16.5941 13.4879 16.7441 13.2379 16.8441C12.9879 16.9441 12.7379 16.9941 12.4879 16.9941C12.2379 16.9941 11.9879 16.9441 11.7379 16.8441C11.4879 16.7441 11.2629 16.5941 11.0629 16.3941L3.3629 8.69414C3.1129 8.44414 2.99207 8.14831 3.0004 7.80664C3.00874 7.46497 3.1379 7.16914 3.3879 6.91914C3.6379 6.66914 3.92957 6.54414 4.2629 6.54414C4.59624 6.54414 4.8879 6.66914 5.1379 6.91914L12.4879 14.2691Z" fill="#4E4E4E"/>
</g>
</svg>
