<svg width="24" height="24" viewBox="0 0 24 24" fill="none" xmlns="http://www.w3.org/2000/svg">
<mask id="mask0_3437_209" style="mask-type:alpha" maskUnits="userSpaceOnUse" x="0" y="0" width="24" height="24">
<rect width="24" height="24" transform="matrix(0 1 1 0 0 0)" fill="#D9D9D9"/>
</mask>
<g mask="url(#mask0_3437_209)">
<path d="M12.4879 9.73086L19.8379 17.0809C20.0879 17.3309 20.3796 17.4517 20.7129 17.4434C21.0462 17.435 21.3379 17.3059 21.5879 17.0559C21.8379 16.8059 21.9629 16.5142 21.9629 16.1809C21.9629 15.8475 21.8379 15.5559 21.5879 15.3059L13.9129 7.60586C13.7129 7.40586 13.4879 7.25586 13.2379 7.15586C12.9879 7.05586 12.7379 7.00586 12.4879 7.00586C12.2379 7.00586 11.9879 7.05586 11.7379 7.15586C11.4879 7.25586 11.2629 7.40586 11.0629 7.60586L3.3629 15.3059C3.1129 15.5559 2.99207 15.8517 3.0004 16.1934C3.00874 16.535 3.1379 16.8309 3.3879 17.0809C3.6379 17.3309 3.92957 17.4559 4.2629 17.4559C4.59624 17.4559 4.8879 17.3309 5.1379 17.0809L12.4879 9.73086Z" fill="#4E4E4E"/>
</g>
</svg>
