<svg width="54" height="54" viewBox="0 0 54 54" fill="none" xmlns="http://www.w3.org/2000/svg">
<rect width="54" height="54" rx="4" fill="#FCF6FA"/>
<path fill-rule="evenodd" clip-rule="evenodd" d="M21 39C21 40.654 22.346 42 24 42C25.654 42 27 40.654 27 39C27 37.346 25.654 36.125 24 36.125C22.346 36.125 21 37.346 21 39ZM25 39C25 38.449 24.551 38 24 38C23.449 38 23 38.449 23 39C23 39.551 23.449 40 24 40C24.551 40 25 39.551 25 39Z" fill="#ED0056"/>
<path fill-rule="evenodd" clip-rule="evenodd" d="M41 34H22C21.449 34 21 33.551 21 33V32H36C37.56 32 39.077 30.815 39.455 29.302L41.97 19.242C42.0068 19.0946 42.0095 18.9408 41.9779 18.7922C41.9463 18.6436 41.8813 18.5042 41.7878 18.3845C41.6943 18.2648 41.5748 18.1679 41.4383 18.1013C41.3018 18.0347 41.1519 18 41 18H18.136L17.41 14.735C17.069 13.201 15.791 12 14.5 12H13C12.7348 12 12.4804 12.1054 12.2929 12.2929C12.1054 12.4804 12 12.7348 12 13C12 13.2652 12.1054 13.5196 12.2929 13.7071C12.4804 13.8946 12.7348 14 13 14H14.5C14.746 14 15.297 14.444 15.458 15.169L16.339 19.135C16.347 19.192 16.359 19.246 16.376 19.3L19 31.109V33C19 34.654 20.346 36 22 36H41C41.2652 36 41.5196 35.8946 41.7071 35.7071C41.8946 35.5196 42 35.2652 42 35C42 34.7348 41.8946 34.4804 41.7071 34.2929C41.5196 34.1054 41.2652 34 41 34ZM39.719 20L37.514 28.817C37.36 29.436 36.638 30 36 30H20.802L18.58 20H39.719Z" fill="#12122C"/>
<path fill-rule="evenodd" clip-rule="evenodd" d="M34 39C34 40.654 35.346 42 37 42C38.654 42 40 40.654 40 39C40 37.346 38.654 36.125 37 36.125C35.346 36.125 34 37.346 34 39ZM38 39C38 38.449 37.551 38 37 38C36.449 38 36 38.449 36 39C36 39.551 36.449 40 37 40C37.551 40 38 39.551 38 39Z" fill="#ED0056"/>
</svg>
