<svg width="54" height="54" viewBox="0 0 54 54" fill="none" xmlns="http://www.w3.org/2000/svg">
<rect width="54" height="54" rx="4" fill="#FCF6FA"/>
<path fill-rule="evenodd" clip-rule="evenodd" d="M24 37V34H25C25.2652 34 25.5196 33.8946 25.7071 33.7071C25.8946 33.5196 26 33.2652 26 33C26 32.7348 25.8946 32.4804 25.7071 32.2929C25.5196 32.1054 25.2652 32 25 32H16C14.897 32 14 31.103 14 30V16C14 14.897 14.897 14 16 14H34C35.103 14 36 14.897 36 16V20.34C36 20.6052 36.1054 20.8596 36.2929 21.0471C36.4804 21.2346 36.7348 21.34 37 21.34C37.2652 21.34 37.5196 21.2346 37.7071 21.0471C37.8946 20.8596 38 20.6052 38 20.34V16C38 13.794 36.206 12 34 12H16C13.794 12 12 13.794 12 16V30C12 32.206 13.794 34 16 34H22V37H20C19.7348 37 19.4804 37.1054 19.2929 37.2929C19.1054 37.4804 19 37.7348 19 38C19 38.2652 19.1054 38.5196 19.2929 38.7071C19.4804 38.8946 19.7348 39 20 39H25C25.2652 39 25.5196 38.8946 25.7071 38.7071C25.8946 38.5196 26 38.2652 26 38C26 37.7348 25.8946 37.4804 25.7071 37.2929C25.5196 37.1054 25.2652 37 25 37H24ZM23 28H25C25.2652 28 25.5196 28.1054 25.7071 28.2929C25.8946 28.4804 26 28.7348 26 29C26 29.2652 25.8946 29.5196 25.7071 29.7071C25.5196 29.8946 25.2652 30 25 30H23C22.7348 30 22.4804 29.8946 22.2929 29.7071C22.1054 29.5196 22 29.2652 22 29C22 28.7348 22.1054 28.4804 22.2929 28.2929C22.4804 28.1054 22.7348 28 23 28Z" fill="black"/>
<path fill-rule="evenodd" clip-rule="evenodd" d="M42 27V39C42 40.654 40.654 42 39 42H31C29.346 42 28 40.654 28 39V27C28 26.7348 28.1054 26.4804 28.2929 26.2929C28.4804 26.1054 28.7348 26 29 26H32C32 24.346 33.346 23 35 23C36.654 23 38 24.346 38 26H41C41.2652 26 41.5196 26.1054 41.7071 26.2929C41.8946 26.4804 42 26.7348 42 27ZM36 26H34C34 25.7348 34.1054 25.4804 34.2929 25.2929C34.4804 25.1054 34.7348 25 35 25C35.2652 25 35.5196 25.1054 35.7071 25.2929C35.8946 25.4804 36 25.7348 36 26ZM38 28H40V39C40 39.2652 39.8946 39.5196 39.7071 39.7071C39.5196 39.8946 39.2652 40 39 40H31C30.7348 40 30.4804 39.8946 30.2929 39.7071C30.1054 39.5196 30 39.2652 30 39V28H32C32 28.2652 32.1054 28.5196 32.2929 28.7071C32.4804 28.8946 32.7348 29 33 29C33.2652 29 33.5196 28.8946 33.7071 28.7071C33.8946 28.5196 34 28.2652 34 28H36C36 28.2652 36.1054 28.5196 36.2929 28.7071C36.4804 28.8946 36.7348 29 37 29C37.2652 29 37.5196 28.8946 37.7071 28.7071C37.8946 28.5196 38 28.2652 38 28Z" fill="#ED0056"/>
</svg>
