<svg width="54" height="46" viewBox="0 0 54 46" fill="none" xmlns="http://www.w3.org/2000/svg">
<rect width="54" height="46" rx="4" fill="#FCF6FA"/>
<path fill-rule="evenodd" clip-rule="evenodd" d="M22 31V29H16V31H22ZM37 32V20C37 18.346 35.654 17 34 17H15C13.346 17 12 18.346 12 20V32C12 33.654 13.346 35 15 35H34C35.654 35 37 33.654 37 32ZM14 22V20C14 19.449 14.448 19 15 19H34C34.552 19 35 19.449 35 20V22H14ZM35 24V32C35 32.551 34.552 33 34 33H15C14.448 33 14 32.551 14 32V24H35Z" fill="black"/>
<path d="M39 11H20C18.346 11 17 12.346 17 14V15H19V14C19 13.449 19.448 13 20 13H39C39.552 13 40 13.449 40 14V26C40 26.551 39.552 27 39 27V29C40.654 29 42 27.654 42 26V14C42 12.346 40.654 11 39 11Z" fill="#ED0056"/>
</svg>
