<svg width="54" height="46" viewBox="0 0 54 46" fill="none" xmlns="http://www.w3.org/2000/svg">
<rect width="54" height="46" rx="4" fill="#FCF6FA"/>
<path d="M38.3125 23.7596H35.1801C34.7538 23.7596 34.3411 23.8179 33.9482 23.925C33.1734 22.4017 31.5914 21.3551 29.7684 21.3551H24.2316C22.4086 21.3551 20.8266 22.4017 20.0518 23.925C19.6503 23.8153 19.236 23.7597 18.8199 23.7596H15.6875C13.1028 23.7596 11 25.8624 11 28.4471V33.4545C11 35.0053 12.2617 36.267 13.8125 36.267H40.1875C41.7383 36.267 43 35.0053 43 33.4545V28.4471C43 25.8624 40.8972 23.7596 38.3125 23.7596ZM19.5441 26.0427V34.392H13.8125C13.2956 34.392 12.875 33.9715 12.875 33.4545V28.4472C12.875 26.8964 14.1367 25.6347 15.6875 25.6347H18.8199C19.0744 25.6347 19.3208 25.6692 19.5554 25.7329C19.5482 25.836 19.5445 25.9394 19.5441 26.0427ZM32.5809 34.392H21.4191V26.0427C21.4191 24.4919 22.6807 23.2302 24.2316 23.2302H29.7684C31.3193 23.2302 32.5809 24.4919 32.5809 26.0427V34.392ZM41.125 33.4545C41.125 33.9715 40.7044 34.392 40.1875 34.392H34.4559V26.0427C34.4555 25.9393 34.4518 25.836 34.4446 25.7329C34.6843 25.6677 34.9317 25.6346 35.1801 25.6346H38.3125C39.8633 25.6346 41.125 26.8963 41.125 28.4471V33.4545Z" fill="black"/>
<path fill-rule="evenodd" clip-rule="evenodd" d="M13.0898 19.072C13.0898 16.7752 14.9584 14.9066 17.2552 14.9066C19.552 14.9066 21.4206 16.7752 21.4206 19.072C21.4206 21.3688 19.552 23.2373 17.2552 23.2373C14.9584 23.2373 13.0898 21.3688 13.0898 19.072ZM14.9648 19.072C14.9648 20.3349 15.9922 21.3623 17.2552 21.3623C18.5181 21.3623 19.5455 20.3349 19.5455 19.072C19.5455 17.809 18.5181 16.7816 17.2552 16.7816C15.9922 16.7816 14.9648 17.809 14.9648 19.072ZM32.5823 19.072C32.5823 16.7752 34.451 14.9066 36.7477 14.9066C39.0445 14.9066 40.9131 16.7752 40.9131 19.072C40.9131 21.3688 39.0445 23.2373 36.7477 23.2373C34.451 23.2373 32.5824 21.3688 32.5823 19.072ZM34.4573 19.072C34.4573 20.3349 35.4848 21.3623 36.7477 21.3623C38.0107 21.3623 39.0381 20.3349 39.0381 19.072C39.0381 17.809 38.0107 16.7816 36.7477 16.7816C35.4848 16.7816 34.4574 17.809 34.4573 19.072Z" fill="black"/>
<path fill-rule="evenodd" clip-rule="evenodd" d="M27.0015 9.73315C23.933 9.73315 21.4366 12.2295 21.4366 15.298C21.4366 18.3665 23.933 20.8629 27.0015 20.8629C30.07 20.8629 32.5663 18.3665 32.5663 15.298C32.5663 12.2296 30.07 9.73315 27.0015 9.73315ZM23.3116 15.298C23.3116 17.3327 24.9668 18.9879 27.0015 18.9879C29.0361 18.9879 30.6913 17.3327 30.6913 15.298C30.6913 13.2634 29.0361 11.6082 27.0015 11.6082C24.9668 11.6082 23.3116 13.2635 23.3116 15.298Z" fill="#ED0056"/>
</svg>
