<svg width="16" height="16" viewBox="0 0 16 16" fill="none" xmlns="http://www.w3.org/2000/svg">
<mask id="mask0_3702_25167" style="mask-type:alpha" maskUnits="userSpaceOnUse" x="0" y="0" width="16" height="16">
<rect y="16" width="16" height="16" transform="rotate(-90 0 16)" fill="#D9D9D9"/>
</mask>
<g mask="url(#mask0_3702_25167)">
<path d="M8.00408 10.2756L12.6553 5.62439C12.8135 5.46619 12.998 5.38973 13.209 5.395C13.4199 5.40027 13.6045 5.48201 13.7627 5.64021C13.9209 5.79842 14 5.98299 14 6.19393C14 6.40487 13.9209 6.58944 13.7627 6.74764L8.90584 11.6203C8.77928 11.7469 8.6369 11.8418 8.47869 11.9051C8.32049 11.9684 8.16229 12 8.00408 12C7.84588 12 7.68768 11.9684 7.52947 11.9051C7.37127 11.8418 7.22889 11.7469 7.10232 11.6203L2.22965 6.74764C2.07145 6.58944 1.99498 6.40223 2.00026 6.18602C2.00553 5.96981 2.08727 5.7826 2.24547 5.62439C2.40367 5.46619 2.58825 5.38709 2.79918 5.38709C3.01012 5.38709 3.19469 5.46619 3.3529 5.62439L8.00408 10.2756Z" fill="#4E4E4E"/>
</g>
</svg>
