<svg width="100" height="101" viewBox="0 0 100 101" fill="none" xmlns="http://www.w3.org/2000/svg">
<path d="M50 91.125C72.4366 91.125 90.625 72.9366 90.625 50.5C90.625 28.0634 72.4366 9.875 50 9.875C27.5634 9.875 9.375 28.0634 9.375 50.5C9.375 72.9366 27.5634 91.125 50 91.125Z" fill="#63BA6B"/>
<path d="M78.7234 21.7749C86.2265 29.4171 90.4082 39.7129 90.359 50.4226C90.3098 61.1322 86.0336 71.3892 78.4607 78.9621C70.8877 86.5351 60.6308 90.8113 49.9211 90.8605C39.2115 90.9097 28.9156 86.7279 21.2734 79.2249L78.7234 21.7749Z" fill="#4AAE50"/>
<path d="M43.7509 66.1249H43.6697C43.215 66.1123 42.7684 66.0009 42.361 65.7986C41.9536 65.5962 41.5951 65.3077 41.3103 64.953L28.8103 49.328C28.2923 48.6807 28.0527 47.8542 28.1441 47.0302C28.2355 46.2062 28.6505 45.4523 29.2978 44.9343C29.9451 44.4163 30.7717 44.1766 31.5956 44.268C32.4196 44.3595 33.1736 44.7745 33.6916 45.4218L43.8759 58.153L66.4166 32.7999C66.6845 32.4776 67.0145 32.2125 67.3869 32.0204C67.7593 31.8283 68.1666 31.713 68.5845 31.6815C69.0024 31.6499 69.4224 31.7028 69.8194 31.8369C70.2165 31.971 70.5825 32.1835 70.8958 32.462C71.209 32.7404 71.463 33.079 71.6427 33.4576C71.8224 33.8362 71.9242 34.247 71.9418 34.6657C71.9595 35.0845 71.8928 35.5025 71.7457 35.8949C71.5985 36.2873 71.3739 36.6461 71.0853 36.9499L46.0853 65.0749C45.7925 65.4049 45.433 65.6692 45.0307 65.8501C44.6283 66.0311 44.1921 66.1248 43.7509 66.1249Z" fill="#F2F2F2"/>
</svg>
