<svg width="50" height="50" viewBox="0 0 50 50" fill="none" xmlns="http://www.w3.org/2000/svg">
<rect width="50" height="50" rx="4" fill="#FCF6FA"/>
<path fill-rule="evenodd" clip-rule="evenodd" d="M20.2 34.6C20.2 35.9232 21.2768 37 22.6 37C23.9232 37 25 35.9232 25 34.6C25 33.2768 23.9232 32.3 22.6 32.3C21.2768 32.3 20.2 33.2768 20.2 34.6ZM23.4 34.6C23.4 34.1592 23.0408 33.8 22.6 33.8C22.1592 33.8 21.8 34.1592 21.8 34.6C21.8 35.0408 22.1592 35.4 22.6 35.4C23.0408 35.4 23.4 35.0408 23.4 34.6Z" fill="url(#paint0_linear_4540_37194)"/>
<path fill-rule="evenodd" clip-rule="evenodd" d="M36.2 30.6H21C20.5592 30.6 20.2 30.2408 20.2 29.8V29H32.2C33.448 29 34.6616 28.052 34.964 26.8416L36.976 18.7936C37.0054 18.6757 37.0076 18.5526 36.9823 18.4338C36.9571 18.3149 36.9051 18.2034 36.8303 18.1076C36.7555 18.0118 36.6598 17.9343 36.5506 17.881C36.4414 17.8277 36.3215 17.8 36.2 17.8H17.9088L17.328 15.188C17.0552 13.9608 16.0328 13 15 13H13.8C13.5878 13 13.3843 13.0843 13.2343 13.2343C13.0843 13.3843 13 13.5878 13 13.8C13 14.0122 13.0843 14.2157 13.2343 14.3657C13.3843 14.5157 13.5878 14.6 13.8 14.6H15C15.1968 14.6 15.6376 14.9552 15.7664 15.5352L16.4712 18.708C16.4776 18.7536 16.4872 18.7968 16.5008 18.84L18.6 28.2872V29.8C18.6 31.1232 19.6768 32.2 21 32.2H36.2C36.4122 32.2 36.6157 32.1157 36.7657 31.9657C36.9157 31.8157 37 31.6122 37 31.4C37 31.1878 36.9157 30.9843 36.7657 30.8343C36.6157 30.6843 36.4122 30.6 36.2 30.6ZM35.1752 19.4L33.4112 26.4536C33.288 26.9488 32.7104 27.4 32.2 27.4H20.0416L18.264 19.4H35.1752Z" fill="url(#paint1_linear_4540_37194)"/>
<path fill-rule="evenodd" clip-rule="evenodd" d="M30.6 34.6C30.6 35.9232 31.6768 37 33 37C34.3232 37 35.4 35.9232 35.4 34.6C35.4 33.2768 34.3232 32.3 33 32.3C31.6768 32.3 30.6 33.2768 30.6 34.6ZM33.8 34.6C33.8 34.1592 33.4408 33.8 33 33.8C32.5592 33.8 32.2 34.1592 32.2 34.6C32.2 35.0408 32.5592 35.4 33 35.4C33.4408 35.4 33.8 35.0408 33.8 34.6Z" fill="url(#paint2_linear_4540_37194)"/>
<defs>
<linearGradient id="paint0_linear_4540_37194" x1="7.3103" y1="25.7169" x2="37.778" y2="25.0223" gradientUnits="userSpaceOnUse">
<stop stop-color="#131D56"/>
<stop offset="0.269162" stop-color="#33145D"/>
<stop offset="0.522689" stop-color="#63166A"/>
<stop offset="0.702487" stop-color="#A4267B"/>
<stop offset="0.848653" stop-color="#DB327C"/>
<stop offset="1" stop-color="#EB4B46"/>
</linearGradient>
<linearGradient id="paint1_linear_4540_37194" x1="7.3103" y1="25.7169" x2="37.778" y2="25.0223" gradientUnits="userSpaceOnUse">
<stop stop-color="#131D56"/>
<stop offset="0.269162" stop-color="#33145D"/>
<stop offset="0.522689" stop-color="#63166A"/>
<stop offset="0.702487" stop-color="#A4267B"/>
<stop offset="0.848653" stop-color="#DB327C"/>
<stop offset="1" stop-color="#EB4B46"/>
</linearGradient>
<linearGradient id="paint2_linear_4540_37194" x1="7.3103" y1="25.7169" x2="37.778" y2="25.0223" gradientUnits="userSpaceOnUse">
<stop stop-color="#131D56"/>
<stop offset="0.269162" stop-color="#33145D"/>
<stop offset="0.522689" stop-color="#63166A"/>
<stop offset="0.702487" stop-color="#A4267B"/>
<stop offset="0.848653" stop-color="#DB327C"/>
<stop offset="1" stop-color="#EB4B46"/>
</linearGradient>
</defs>
</svg>
