<svg width="264" height="64" viewBox="0 0 264 64" fill="none" xmlns="http://www.w3.org/2000/svg">
<g opacity="0.06">
<path d="M-140.472 164.55L-80.22 162.126L-80.274 162.15L61.086 0.138L61.206 0L282.804 131.208L282.528 131.214L374.256 69.138L374.388 69.048L374.508 69.156L473.952 154.704L473.796 154.68L579 109.536L473.91 154.962L473.826 154.998L473.754 154.938L374.232 69.48L374.484 69.492L282.822 131.652L282.684 131.748L282.546 131.664L61.14 0.486L61.422 0.438L-80.154 162.258L-80.178 162.288H-80.214L-140.472 164.55Z" fill="url(#paint0_linear_7014_28613)"/>
<path d="M-140.394 169.92L-81.63 165.906L-81.684 165.93L58.392 6.828L58.506 6.696L58.662 6.774L150.87 54.72L157.74 58.818L281.262 132.834H280.998L373.242 78.186L373.368 78.108L373.482 78.204L385.59 88.5L387.102 89.79L388.686 90.99L448.992 136.35C451.146 137.892 453.126 139.662 455.172 141.348L473.46 156.666L473.31 156.642L578.94 117.39L473.418 156.93L473.34 156.96L473.274 156.906L454.98 141.612C452.934 139.926 450.954 138.162 448.8 136.62L388.44 91.32L386.856 90.126L385.338 88.842L373.212 78.552L373.452 78.57L281.256 133.302L281.124 133.38L280.992 133.302L157.464 59.322L150.6 55.218L58.452 7.194L58.722 7.146L-81.564 166.038L-81.588 166.062H-81.618L-140.388 169.92H-140.394Z" fill="url(#paint1_linear_7014_28613)"/>
<path d="M-140.316 175.29L-83.04 169.68L-83.094 169.704L55.698 13.518L55.806 13.398L55.95 13.464L149.016 55.284L149.034 55.29L149.046 55.296L279.714 134.472L279.468 134.46L372.234 87.246L372.36 87.186L372.462 87.27L386.298 98.898L386.28 98.886L450.216 140.064L450.228 140.076L472.992 158.64L472.854 158.61L578.904 125.244L472.944 158.904L472.866 158.928L472.806 158.874L450.024 140.334L450.036 140.346L386.064 99.228L386.052 99.222L386.046 99.216L372.198 87.6L372.426 87.624L279.702 134.928L279.57 134.994L279.45 134.922L148.77 55.77L148.8 55.782L55.77 13.878L56.028 13.824L-82.974 169.812L-82.998 169.836L-83.028 169.842L-140.316 175.29Z" fill="url(#paint2_linear_7014_28613)"/>
<path d="M-140.238 180.654L-84.456 173.46L-84.504 173.484L52.998 20.208L53.1 20.1L53.244 20.148L147.012 55.758L147.03 55.77L147.054 55.782L278.172 136.104L277.938 136.086L371.232 96.3L371.346 96.252L371.442 96.33L385.428 107.952L385.398 107.928L449.364 142.224L449.376 142.23L449.388 142.242L472.518 160.602L472.386 160.578L578.856 133.104L472.458 160.872L472.386 160.89L472.332 160.848L449.184 142.506L449.208 142.524L385.212 108.288L385.194 108.282L385.176 108.264L371.178 96.66L371.394 96.69L278.136 136.566L278.016 136.62L146.778 56.25L146.82 56.274L53.088 20.574L53.328 20.514L-84.384 173.592L-84.408 173.61L-84.432 173.616L-140.238 180.654Z" fill="url(#paint3_linear_7014_28613)"/>
<path d="M-140.16 186.024L-85.866 177.234L-85.908 177.258L50.304 26.898L50.4 26.796L50.532 26.838L144.996 56.238L145.032 56.244L145.062 56.262L276.624 137.736L276.408 137.712L370.224 105.354L370.332 105.318L370.422 105.39L384.564 117.006L384.516 116.976L448.512 144.384L448.53 144.396L448.548 144.408L472.038 162.57L471.918 162.546L578.814 140.958L471.978 162.846L471.912 162.858L471.852 162.816L448.344 144.672L448.38 144.696L384.36 117.348L384.336 117.336L384.312 117.318L370.158 105.72L370.356 105.756L276.576 138.204L276.462 138.246L276.36 138.18L144.78 56.73L144.84 56.76L50.4 27.27L50.628 27.204L-85.8 177.366L-85.818 177.384L-85.842 177.39L-140.16 186.024Z" fill="url(#paint4_linear_7014_28613)"/>
<path d="M-140.082 191.388L-87.276 181.014L-87.318 181.038L47.61 33.594L47.694 33.498L47.82 33.528L142.986 56.712L143.028 56.724L143.064 56.748L275.082 139.368L274.884 139.338L369.216 114.408L369.318 114.384L369.402 114.45L383.694 126.06L383.628 126.024L447.654 146.55L447.684 146.556L447.708 146.574L471.558 164.538L471.45 164.508L578.766 148.812L471.492 164.814L471.432 164.826L471.378 164.784L447.51 146.844L447.558 146.868L383.508 126.408L383.478 126.396L383.448 126.372L369.144 114.78L369.324 114.816L275.01 139.842L274.908 139.872L142.782 57.21L142.86 57.246L47.718 33.96L47.934 33.894L-87.21 181.14L-87.228 181.164H-87.252L-140.082 191.388Z" fill="url(#paint5_linear_7014_28613)"/>
<path d="M-140.004 196.758L-88.692 184.794L-88.728 184.818L44.91 40.284L44.994 40.194L45.108 40.218L140.976 57.192L141.03 57.204L141.072 57.228L273.534 141L273.354 140.97L368.214 123.468L368.304 123.45L368.382 123.51L382.824 135.114L382.746 135.072L446.802 148.71L446.838 148.722L446.862 148.74L471.084 166.506L470.976 166.476L578.718 156.666L471.006 166.782L470.952 166.788L470.904 166.758L446.67 149.016L446.736 149.04L382.662 135.468L382.614 135.456L382.578 135.426L368.124 123.84L368.286 123.882L273.444 141.48L273.348 141.498L273.264 141.444L140.79 57.69L140.886 57.726L45.036 40.656L45.234 40.59L-88.62 184.92L-88.638 184.938L-88.656 184.944L-140.004 196.758Z" fill="url(#paint6_linear_7014_28613)"/>
<path d="M-139.926 202.128L-90.102 188.574L-90.138 188.592L42.216 46.974L42.294 46.896L138.966 57.672L139.026 57.684L139.074 57.714L271.992 142.632L271.83 142.596L367.212 132.522L367.296 132.516L367.362 132.564L381.96 144.162L381.858 144.12L445.944 150.876L445.986 150.882L446.022 150.906L470.604 168.474L470.508 168.444L578.67 164.526L470.52 168.756H470.472L445.83 151.182L445.908 151.212L381.816 144.522L381.756 144.516L381.714 144.48L367.104 132.9L367.254 132.942L271.884 143.112L271.794 143.124L271.716 143.076L138.792 58.17L138.906 58.212L42.354 47.346L42.534 47.28L-90.03 188.694L-90.042 188.712L-90.066 188.718L-139.926 202.128Z" fill="url(#paint7_linear_7014_28613)"/>
<path d="M-139.848 207.492L-91.518 192.348L-91.548 192.372L39.522 53.664L39.588 53.592L39.69 53.598L136.95 58.158H137.022L137.082 58.2L270.444 144.264L270.3 144.228L366.204 141.582L366.282 141.576L366.342 141.624L381.09 153.216L380.97 153.174L445.086 153.042H445.14L445.182 153.072L470.124 170.442L470.04 170.412L578.622 172.38L470.034 170.724H469.992L469.95 170.694L444.996 153.354L445.086 153.384L380.97 153.576H380.904L380.85 153.534L366.084 141.96L366.216 142.002L270.318 144.744L270.24 144.75L270.174 144.702L136.8 58.65L136.926 58.692L39.666 54.036L39.834 53.97L-91.44 192.474L-91.452 192.486L-91.47 192.492L-139.848 207.492Z" fill="url(#paint8_linear_7014_28613)"/>
<path d="M-139.77 212.862L-92.928 196.128L-92.952 196.146L36.828 60.354L36.888 60.294L36.978 60.288L134.94 58.638H135.018L135.09 58.68L268.902 145.896L268.776 145.854L365.202 150.636L365.268 150.642L380.226 162.27L380.082 162.228L444.234 155.214L444.294 155.208L444.342 155.238L469.644 172.41L469.572 172.38L578.574 180.234L469.554 172.692H469.512L469.476 172.668L444.156 155.526L444.27 155.55L380.124 162.63L380.046 162.636L379.98 162.588L365.064 151.02L365.184 151.062L268.752 146.376H268.68L268.626 146.334L134.802 59.13L134.952 59.172L36.984 60.726L37.134 60.66L-92.85 196.248L-92.862 196.26L-92.88 196.266L-139.77 212.862Z" fill="url(#paint9_linear_7014_28613)"/>
<path d="M-139.692 218.226L-94.338 199.908L-94.362 199.926L34.134 67.05L34.188 66.99L34.266 66.984L132.93 59.124L133.02 59.118L133.092 59.166L267.36 147.528L267.252 147.486L364.2 159.696L364.254 159.708L364.302 159.738L379.356 171.318L379.194 171.282L443.376 157.38L443.442 157.368L443.502 157.404L469.17 174.378L469.104 174.354L578.532 188.088L469.068 174.66L469.032 174.654L469.002 174.636L443.316 157.692L443.442 157.716L379.278 171.678L379.188 171.702L379.116 171.642L364.044 160.08L364.146 160.122L267.186 148.008L267.126 148.002L267.078 147.966L132.81 59.61L132.972 59.652L34.302 67.416L34.434 67.35L-94.266 200.022L-94.272 200.034L-94.29 200.04L-139.692 218.226Z" fill="url(#paint10_linear_7014_28613)"/>
<path d="M-139.614 223.596L-95.754 203.688L-95.772 203.7L31.44 73.74L31.488 73.692L31.56 73.68L130.92 59.61L131.016 59.598L131.1 59.652L265.812 149.16L265.722 149.118L363.192 168.762L363.24 168.768L363.282 168.798L378.486 180.372L378.306 180.342L442.518 159.552L442.596 159.528L442.662 159.576L468.69 176.346L468.636 176.322L578.484 195.948L468.582 176.628L468.552 176.622L468.528 176.604L442.482 159.864L442.62 159.882L378.432 180.732L378.33 180.762L378.246 180.696L363.024 169.14L363.114 169.182L265.62 149.64L265.572 149.628L265.53 149.598L130.812 60.09L130.992 60.132L31.62 74.1L31.74 74.04L-95.676 203.802L-95.682 203.808L-95.694 203.814L-139.614 223.596Z" fill="url(#paint11_linear_7014_28613)"/>
<path d="M-139.542 228.96L-97.164 207.468L-97.182 207.48L28.746 80.43L28.788 80.388L28.848 80.376L128.91 60.096L129.012 60.078L129.102 60.138L264.27 150.786L264.198 150.756L362.19 177.822L362.226 177.834L362.262 177.858L377.622 189.42L377.424 189.396L441.666 161.73L441.744 161.694L441.822 161.742L468.21 178.308L468.168 178.29L578.436 203.802L468.096 178.596L468.072 178.59L468.048 178.578L441.642 162.03L441.798 162.042L377.58 189.78L377.472 189.822L377.382 189.756L362.004 178.2L362.076 178.236L264.06 151.266L264.018 151.254L263.982 151.236L128.82 60.57L129.012 60.612L28.932 80.79L29.04 80.73L-97.086 207.576L-97.092 207.582L-97.104 207.588L-139.542 228.96Z" fill="url(#paint12_linear_7014_28613)"/>
<path d="M-139.464 234.33L-98.574 211.248L-98.592 211.26L26.052 87.126L26.088 87.084L26.142 87.072L126.9 60.582L127.014 60.558L127.104 60.618L262.728 152.418L262.668 152.388L361.182 186.882L361.212 186.894L361.242 186.912L376.752 198.474L376.536 198.456L440.814 163.902L440.898 163.854L440.976 163.908L467.736 180.276L467.694 180.264L578.388 211.656L467.616 180.564L467.592 180.558L467.574 180.546L440.802 164.202L440.97 164.208L376.728 198.822L376.614 198.888L376.512 198.81L360.984 187.266L361.044 187.296L262.494 152.898L262.464 152.886L262.434 152.868L126.822 61.05L127.026 61.086L26.244 87.474L26.34 87.42L-98.496 211.35L-98.502 211.356L-98.514 211.362L-139.464 234.33Z" fill="url(#paint13_linear_7014_28613)"/>
<path d="M-139.386 239.7L-99.99 215.028L-99.996 215.034L23.358 93.816L23.388 93.786L23.436 93.768L124.896 61.074L125.01 61.032L125.112 61.104L261.186 154.05L261.138 154.026L360.174 195.948L360.198 195.954L360.222 195.972L375.888 207.522L375.654 207.516L440.046 166.02L440.136 166.074L467.256 182.244L467.226 182.232L578.34 219.51L467.13 182.532L467.112 182.526L467.1 182.514L439.968 166.368H440.142L375.876 207.87L375.756 207.948L375.648 207.864L359.97 196.326L360.012 196.35L260.934 154.524L260.886 154.5L124.83 61.53L125.046 61.56L23.556 94.158L23.64 94.11L-99.906 215.13L-99.912 215.136H-99.918L-139.386 239.7Z" fill="url(#paint14_linear_7014_28613)"/>
<path d="M-139.308 245.064L-101.4 218.808L-101.406 218.814L20.664 100.506L20.694 100.482L20.73 100.464L122.886 61.56L123.006 61.512L123.114 61.59L259.638 155.676L259.608 155.658L359.172 205.008L359.184 205.014L359.202 205.026L375.018 216.576H374.778L439.11 168.252L439.2 168.186L439.296 168.24L466.776 184.212L466.758 184.2L578.292 227.37L466.644 184.494H466.632L466.626 184.488L439.128 168.54L439.314 168.528L375.024 216.918L374.904 217.008L374.778 216.918L358.95 205.386L358.98 205.404L259.368 156.15L259.356 156.144L259.338 156.132L122.832 62.01L123.066 62.04L20.868 100.848L20.94 100.8L-101.322 218.904V218.91H-101.328L-139.308 245.064Z" fill="url(#paint15_linear_7014_28613)"/>
<path d="M-139.23 250.434L-102.81 222.588H-102.816L17.97 107.202L17.994 107.178L18.024 107.166L120.882 62.052L121.008 61.992L121.122 62.076L258.096 157.308L258.078 157.296L358.164 214.074L358.17 214.08L358.182 214.086L374.154 225.624L373.896 225.636L438.264 170.424L438.354 170.346L438.456 170.406L466.302 186.18L466.284 186.174L578.25 235.224L466.164 186.462H466.158L466.146 186.456L438.288 170.712L438.486 170.688L374.166 225.966L374.046 226.068L373.908 225.972L357.93 214.446L357.948 214.458L257.808 157.776L257.802 157.77L257.79 157.764L120.84 62.49L121.08 62.514L18.18 107.532L18.24 107.49L-102.732 222.678V222.684H-102.738L-139.23 250.434Z" fill="url(#paint16_linear_7014_28613)"/>
<path d="M-139.152 255.798L-109.092 230.472L-104.088 226.242L15.27 113.898L15.288 113.88L15.312 113.868L118.866 62.544L118.998 62.478L256.62 158.982L341.514 213.162C346.896 216.612 352.314 220.014 357.666 223.512L373.284 234.684L373.014 234.702L437.412 172.602L437.502 172.518L437.61 172.578L465.594 188.028C466.32 188.412 467.064 188.754 467.796 189.114L578.196 243.078L467.658 189.396C466.926 189.03 466.176 188.688 465.456 188.31L437.454 172.884L437.652 172.86L373.314 235.02L373.188 235.14L373.044 235.038L357.426 223.884C352.068 220.392 346.65 217.002 341.262 213.552L256.32 159.456L252.39 156.708L118.842 62.982L119.088 63L15.486 114.228L15.534 114.198L-104.016 226.35L-109.032 230.568L-139.158 255.822L-139.152 255.798Z" fill="url(#paint17_linear_7014_28613)"/>
<path d="M-139.074 261.168L12.582 120.588L12.6 120.57L12.618 120.558L116.874 63.03L117.006 62.952L117.132 63.042L372.42 243.726L372.144 243.756L436.572 174.774L436.662 174.678L436.776 174.738L578.154 250.932L436.614 175.05L436.818 175.014L372.456 244.056L372.324 244.194L372.174 244.086L116.85 63.45L117.108 63.462L12.798 120.9L12.84 120.87L-139.074 261.168Z" fill="url(#paint18_linear_7014_28613)"/>
<path d="M-139.182 263.202L10.104 127.62L10.116 127.602L10.14 127.59L115.638 69.6L115.776 69.528L115.896 69.612L361.686 246.282L361.416 246.294L436.98 179.328L437.07 179.25L437.172 179.304L578.154 254.382L437.016 179.61L437.208 179.586L361.698 246.624L361.572 246.738L361.434 246.642L115.614 70.02L115.872 70.038L10.32 127.932L10.356 127.902L-139.182 263.202Z" fill="url(#paint19_linear_7014_28613)"/>
<path d="M-139.29 265.23L7.62001 134.652L7.638 134.634L7.65601 134.628L114.408 76.17L114.54 76.098L114.666 76.188L350.946 248.832H350.688L437.394 183.876L437.478 183.816L437.574 183.864L578.154 257.826L437.412 184.176L437.598 184.158L350.952 249.192L350.82 249.294L350.688 249.198L114.384 76.59L114.642 76.608L7.836 134.964L7.87201 134.94L-139.29 265.23Z" fill="url(#paint20_linear_7014_28613)"/>
<path d="M-139.398 267.264L5.14201 141.684L5.17801 141.66L113.31 82.668L113.436 82.758L340.212 251.382L339.954 251.376L437.886 188.382L437.97 188.424L578.154 261.276L437.814 188.736L437.982 188.73L340.2 251.76L340.068 251.844L339.942 251.754L113.148 83.16L113.406 83.178L5.35201 141.99L5.382 141.972L-139.398 267.264Z" fill="url(#paint21_linear_7014_28613)"/>
<path d="M-139.5 269.292L2.664 148.716L2.67601 148.704L2.69402 148.692L111.942 89.316L112.08 89.238L112.2 89.334L329.478 253.932L329.226 253.914L438.21 192.99L438.288 192.948L438.372 192.99L578.154 264.72L438.216 193.302L438.378 193.296L329.448 254.322L329.316 254.4L329.202 254.304L111.912 89.73L112.17 89.748L2.86801 149.022L2.89801 149.004L-139.5 269.292Z" fill="url(#paint22_linear_7014_28613)"/>
<path d="M-139.608 271.326L0.186005 155.748L0.198013 155.736L0.216003 155.73L110.712 95.886L110.85 95.814L110.97 95.91L318.738 256.482L318.498 256.458L438.618 197.55L438.696 197.514L438.768 197.55L578.154 268.17L438.618 197.862H438.768L318.702 256.89L318.57 256.95L318.456 256.86L110.676 96.3L110.94 96.318L0.384003 156.054L0.414001 156.036L-139.608 271.326Z" fill="url(#paint23_linear_7014_28613)"/>
<path d="M-139.716 273.36L-2.29199 162.78L-2.28 162.768L-2.26799 162.762L109.476 102.456L109.614 102.384L109.74 102.48L308.004 259.032L307.764 259.002L439.026 202.11L439.098 202.074L578.154 271.614L439.014 202.422L439.158 202.428L307.95 259.452L307.824 259.506L109.446 102.864L109.704 102.888L-2.09399 163.086L-2.06999 163.068L-139.716 273.36Z" fill="url(#paint24_linear_7014_28613)"/>
<path d="M-139.824 275.388L-4.76999 169.812L-4.76399 169.8L-4.746 169.794L108.246 109.032L108.384 108.954L297.27 261.588L297.03 261.546L439.428 206.67L439.5 206.64L439.566 206.676L578.154 275.064L439.416 206.988L439.554 206.994L297.204 262.014L297.072 262.062L296.964 261.972L108.21 109.434L108.468 109.458L-4.578 170.118L-4.55399 170.1L-139.824 275.388Z" fill="url(#paint25_linear_7014_28613)"/>
<path d="M-139.932 277.422L-7.254 176.844L-7.242 176.838L-7.23 176.826L107.016 115.602L107.154 115.524L107.274 115.626L286.536 264.138L286.296 264.096L439.836 211.23L439.902 211.206L439.962 211.236L578.154 278.508L439.818 211.548L439.944 211.56L286.458 264.57L286.326 264.618L286.218 264.528L106.974 116.004L107.238 116.028L-7.062 177.15L-7.03799 177.132L-139.932 277.422Z" fill="url(#paint26_linear_7014_28613)"/>
<path d="M-140.04 279.456L-9.73199 183.876L-9.71999 183.87L-9.70799 183.864L105.78 122.172L105.924 122.1L275.802 266.688L275.562 266.64L440.238 215.79L440.304 215.772L440.364 215.796L578.154 281.958L440.22 216.114L440.34 216.12L275.712 267.132L275.58 267.174L275.472 267.084L105.738 122.574L106.002 122.604L-9.54599 184.176L-9.528 184.164L-140.04 279.456Z" fill="url(#paint27_linear_7014_28613)"/>
<path d="M-140.142 281.484L-12.21 190.908L-12.198 190.902L-12.192 190.896L104.55 128.748L104.694 128.67L104.814 128.778L265.068 269.238L264.828 269.184L440.646 220.35L440.706 220.332L440.76 220.362L578.154 285.402L440.616 220.674L440.736 220.686L264.966 269.694L264.834 269.73L264.726 269.64L104.502 129.138L104.766 129.174L-12.03 191.208L-12.012 191.196L-140.142 281.484Z" fill="url(#paint28_linear_7014_28613)"/>
<path d="M-140.25 283.518L-14.688 197.94L-14.682 197.934H-14.67L103.314 135.318L103.464 135.24L103.584 135.354L254.334 271.794L254.094 271.734L441.048 224.91L441.108 224.898L441.162 224.922L578.154 288.852L441.018 225.24L441.132 225.252L254.22 272.256L254.082 272.286L253.98 272.196L103.266 135.708L103.536 135.744L-14.514 198.24L-14.496 198.228L-140.25 283.518Z" fill="url(#paint29_linear_7014_28613)"/>
<path d="M-140.358 285.552L-17.166 204.972L-17.16 204.966H-17.154L102.084 141.888L102.228 141.81L102.354 141.924L243.6 274.344L243.36 274.278L441.45 229.47L441.51 229.458L441.558 229.482L578.154 292.302L441.42 229.8L441.528 229.812L243.474 274.812L243.336 274.848L243.234 274.746L102.036 142.278L102.3 142.314L-16.992 205.272L-16.98 205.26L-140.358 285.552Z" fill="url(#paint30_linear_7014_28613)"/>
<path d="M-140.466 287.58L-19.644 212.004H-19.638L-19.632 211.998L100.854 148.464L100.998 148.386L101.124 148.5L232.866 276.9L232.62 276.822L441.852 234.036L441.906 234.024L441.96 234.048L578.154 295.746L441.816 234.366L441.924 234.378L232.734 277.374L232.59 277.404L232.488 277.302L100.8 148.842L101.07 148.884L-19.476 212.304L-19.47 212.298L-140.466 287.58Z" fill="url(#paint31_linear_7014_28613)"/>
<path d="M-140.574 289.614L-22.23 219.102L99.618 155.034L99.768 154.956L99.894 155.076L222.138 279.45L221.886 279.372L442.26 238.596L442.308 238.584L442.356 238.608L578.154 299.196L442.218 238.926L442.32 238.938L221.988 279.936L221.844 279.96L221.736 279.852L99.564 155.412L99.834 155.454L-22.068 219.396L-140.574 289.614Z" fill="url(#paint32_linear_7014_28613)"/>
<path d="M-140.682 291.642L-29.574 228.876C-27.096 227.49 -24.654 226.056 -22.122 224.772L98.388 161.604L98.544 161.526L98.664 161.652L211.41 282.006L211.152 281.922L442.662 243.162H442.71L442.758 243.174L578.154 302.646L442.62 243.492L442.716 243.504L211.242 282.498L211.092 282.522L210.984 282.408L98.322 161.976L98.598 162.024L-21.972 225.066C-24.504 226.344 -26.952 227.778 -29.424 229.164L-140.682 291.642Z" fill="url(#paint33_linear_7014_28613)"/>
<path d="M-140.784 293.676L-81.432 262.044C-61.638 251.514 -41.88 240.918 -22.05 230.472L97.152 168.174L97.308 168.09L97.428 168.222L200.67 284.55L200.412 284.454L443.058 247.71H443.106L443.148 247.722L578.148 306.078L443.016 248.04L443.106 248.052L200.496 285.042L200.34 285.066L200.232 284.946L97.08 168.534L97.356 168.588L-21.906 230.766L-140.784 293.676Z" fill="url(#paint34_linear_7014_28613)"/>
<path d="M-140.892 295.71L-29.376 240.042L95.922 174.75L96.084 174.666L189.942 287.118L189.678 287.01L443.466 252.282L443.508 252.276L443.55 252.294L578.154 309.534L443.418 252.612L443.508 252.624L189.756 287.61L189.594 287.634L189.486 287.508L95.85 175.11L96.132 175.164L-29.232 240.33L-140.892 295.71Z" fill="url(#paint35_linear_7014_28613)"/>
<path d="M-141 297.738L-32.028 247.164L94.692 181.326L94.86 181.236L94.974 181.386L179.208 289.68L178.938 289.566L443.868 256.842H443.91L443.952 256.854L578.154 312.984L443.82 257.178L443.91 257.19L179.01 290.166L178.848 290.184L178.746 290.052L94.614 181.674L94.896 181.734L-29.154 246.036L-30.978 246.978L-31.89 247.452L-32.82 247.884L-141 297.738Z" fill="url(#paint36_linear_7014_28613)"/>
<path d="M-140.97 302.982L-35.994 253.836L-35.088 253.41L-34.2 252.948L88.092 189.102L88.248 189.018L154.512 265.626C158.214 269.85 161.802 274.176 165.42 278.472L176.268 291.378L176.016 291.276L381.576 270.57L432.864 264.438L439.278 263.7C440.358 263.598 441.396 263.43 442.524 263.4C443.1 263.496 443.598 263.658 444.12 263.82C444.636 263.976 445.146 264.15 445.662 264.324C449.742 265.722 453.78 267.234 457.818 268.746C465.888 271.782 473.934 274.89 481.974 278.01C498.048 284.274 514.086 290.61 530.118 296.976C546.144 303.36 562.182 309.708 578.154 316.224C562.164 309.756 546.108 303.45 530.064 297.12C514.014 290.802 497.952 284.514 481.866 278.298C473.826 275.184 465.774 272.088 457.704 269.058C453.666 267.552 449.628 266.04 445.554 264.648C444.54 264.324 443.496 263.94 442.5 263.748C441.48 263.778 440.382 263.946 439.32 264.048L432.906 264.792L381.624 270.978L176.076 291.87L175.926 291.888L175.824 291.768L164.994 278.856C161.382 274.554 157.794 270.228 154.098 265.998L88.02 189.462L88.296 189.516L-34.956 253.71L-35.862 254.13L-140.97 302.982Z" fill="url(#paint37_linear_7014_28613)"/>
<path d="M-140.94 308.22L-39.036 260.076L-38.16 259.662L-37.302 259.212L-35.58 258.306L81.48 196.884L81.624 196.806L81.738 196.926L150.87 268.614C154.764 272.544 158.418 276.708 162.156 280.794L173.322 293.088L173.088 292.992L379.716 276.84C396.864 274.836 414.024 272.796 431.19 270.9L437.634 270.216C438.708 270.108 439.782 270.006 440.874 269.934C441.456 269.934 441.978 270.06 442.512 270.168C443.046 270.282 443.568 270.414 444.096 270.552C448.278 271.68 452.382 273.048 456.486 274.41C464.688 277.164 472.842 280.056 480.984 282.972C497.262 288.834 513.48 294.858 529.68 300.936L553.956 310.11L566.076 314.742C570.108 316.308 574.164 317.82 578.16 319.476C574.158 317.832 570.102 316.332 566.064 314.778L553.926 310.182L529.62 301.08C513.402 295.05 497.166 289.08 480.876 283.26C472.734 280.35 464.58 277.464 456.378 274.722C452.274 273.366 448.17 272.004 444.006 270.882C443.484 270.744 442.962 270.618 442.44 270.504C441.918 270.396 441.378 270.282 440.88 270.282C439.812 270.354 438.738 270.456 437.664 270.564L431.226 271.254C414.06 273.168 396.912 275.226 379.752 277.248L173.13 293.574L172.992 293.586L172.896 293.478L161.748 281.178C158.016 277.092 154.368 272.928 150.48 268.992L81.426 197.244L81.69 197.286L-37.158 259.494L-38.022 259.944L-38.898 260.358L-42.414 262.014L-140.94 308.22Z" fill="url(#paint38_linear_7014_28613)"/>
<path d="M-140.91 313.458L-45.492 267.936L-42.084 266.316C-41.514 266.052 -40.95 265.77 -40.398 265.47L74.868 204.654L75.006 204.582L75.12 204.69L147.228 271.542C151.314 275.172 155.028 279.198 158.886 283.068L170.376 294.774L170.154 294.69L377.838 283.098C395.052 281.142 412.284 279.138 429.528 277.35C431.682 277.128 433.842 276.912 436.002 276.72C437.082 276.618 438.162 276.534 439.254 276.474C440.376 276.444 441.444 276.666 442.512 276.864C446.772 277.74 450.942 278.952 455.112 280.164C463.434 282.624 471.696 285.294 479.94 288.006C496.422 293.46 512.826 299.154 529.2 304.926C537.384 307.818 545.562 310.728 553.728 313.674L565.968 318.12L572.076 320.37C574.104 321.138 576.156 321.852 578.148 322.716C576.156 321.858 574.098 321.156 572.07 320.388L565.956 318.156L553.704 313.752C545.526 310.83 537.342 307.944 529.146 305.076C512.754 299.352 496.332 293.718 479.844 288.3C471.6 285.594 463.338 282.936 455.016 280.482C450.852 279.276 446.682 278.064 442.446 277.2C441.39 277.002 440.316 276.792 439.266 276.822C438.192 276.888 437.112 276.966 436.032 277.074C433.878 277.266 431.718 277.488 429.564 277.71C412.32 279.516 395.112 281.538 377.874 283.512L170.184 295.272H170.058L169.968 295.188L158.496 283.476C154.644 279.6 150.936 275.574 146.856 271.938L74.826 205.014L75.078 205.05L-40.254 265.746C-40.806 266.046 -41.37 266.328 -41.94 266.592L-140.91 313.458Z" fill="url(#paint39_linear_7014_28613)"/>
<path d="M-140.88 318.702L-61.638 280.506C-52.848 276.234 -43.956 272.166 -35.394 267.432L68.262 212.436L68.388 212.37L68.502 212.46L146.706 277.02C146.964 277.236 147.234 277.446 147.48 277.674L167.424 296.478L167.22 296.4L376.122 289.362H376.104C393.39 287.43 410.682 285.492 427.998 283.806C430.164 283.602 432.33 283.398 434.496 283.23C435.576 283.134 436.668 283.074 437.754 283.008C438.864 282.972 439.95 283.11 441.03 283.26C445.344 283.914 449.574 284.97 453.798 286.032C462.234 288.204 470.592 290.64 478.932 293.142C495.606 298.17 512.184 303.516 528.726 308.97C536.994 311.7 545.256 314.466 553.5 317.268L565.854 321.51L572.022 323.67L575.1 324.774C576.114 325.158 577.158 325.494 578.142 325.962C577.164 325.494 576.114 325.17 575.1 324.786L572.022 323.694L565.848 321.552L553.482 317.346C545.226 314.568 536.964 311.826 528.684 309.126C512.13 303.72 495.534 298.44 478.854 293.448C470.514 290.958 462.15 288.528 453.726 286.368C449.508 285.312 445.278 284.262 440.994 283.614C439.926 283.47 438.84 283.332 437.778 283.368C436.698 283.434 435.612 283.494 434.532 283.59C432.366 283.758 430.2 283.968 428.04 284.172C410.73 285.876 393.444 287.832 376.164 289.782H376.152L167.25 296.982H167.13L167.046 296.904L147.126 278.094C146.874 277.866 146.61 277.662 146.352 277.44L68.226 212.808L68.466 212.832L-41.73 271.152C-42.816 271.71 -43.878 272.328 -44.988 272.838L-140.88 318.702Z" fill="url(#paint40_linear_7014_28613)"/>
<path d="M-140.85 323.94L-64.152 286.572C-55.644 282.39 -47.046 278.4 -38.742 273.798L61.656 220.212L61.776 220.146L61.884 220.224L143.718 280.08H143.73L143.736 280.092L164.484 298.176L164.298 298.104L374.214 295.632H374.196C391.572 293.742 408.948 291.864 426.354 290.28C428.532 290.094 430.71 289.902 432.888 289.752C433.974 289.662 435.072 289.62 436.164 289.554C437.268 289.5 438.366 289.584 439.458 289.686C443.82 290.154 448.11 291.042 452.382 291.966C460.926 293.85 469.392 296.058 477.834 298.338C494.712 302.934 511.488 307.926 528.216 313.044C536.58 315.612 544.932 318.216 553.266 320.874L565.758 324.906L571.986 326.97L575.094 328.032L576.642 328.578C577.146 328.776 577.686 328.926 578.154 329.196C577.686 328.926 577.146 328.776 576.636 328.578L575.088 328.038L571.98 326.988L565.746 324.942L553.248 320.946C544.902 318.312 536.544 315.732 528.174 313.194C511.428 308.124 494.64 303.198 477.756 298.632C469.314 296.358 460.848 294.162 452.31 292.29C448.038 291.378 443.754 290.49 439.422 290.034C438.342 289.932 437.256 289.854 436.176 289.902C435.09 289.968 433.998 290.01 432.912 290.106C430.734 290.262 428.562 290.454 426.384 290.64C408.984 292.242 391.608 294.138 374.238 296.052H374.214L164.304 298.674H164.196L164.118 298.602L143.388 280.5L143.406 280.512L61.632 220.572L61.86 220.59L-44.874 277.416C-46.95 278.562 -49.092 279.576 -51.228 280.608L-140.85 323.94Z" fill="url(#paint41_linear_7014_28613)"/>
<path d="M-140.826 329.184L-66.666 292.65C-58.44 288.564 -50.13 284.652 -42.096 280.176L55.05 228L55.158 227.94L55.26 228.006L140.052 282.594H140.064L140.076 282.612L161.532 299.892L161.358 299.832L372.282 301.926H372.258C389.73 300.084 407.202 298.266 424.704 296.784C426.894 296.61 429.084 296.436 431.274 296.292C432.372 296.214 433.47 296.172 434.568 296.112C435.672 296.058 436.776 296.1 437.874 296.166C442.272 296.478 446.61 297.216 450.936 297.996C459.582 299.598 468.15 301.572 476.694 303.63C493.776 307.782 510.744 312.402 527.67 317.172C536.13 319.566 544.572 322.008 553.002 324.516C557.214 325.77 561.426 327.036 565.626 328.326L571.92 330.294L575.058 331.308L576.618 331.836C577.128 332.034 577.674 332.172 578.136 332.454C577.674 332.172 577.122 332.034 576.612 331.842L575.046 331.32L571.908 330.312L565.608 328.368C561.402 327.09 557.19 325.836 552.972 324.594C544.536 322.116 536.082 319.698 527.616 317.334C510.684 312.606 493.698 308.064 476.616 303.936C468.072 301.884 459.504 299.922 450.87 298.332C446.55 297.558 442.212 296.826 437.844 296.52C435.66 296.34 433.482 296.52 431.286 296.652C429.096 296.796 426.906 296.97 424.722 297.15C407.226 298.65 389.754 300.486 372.288 302.352H372.264L161.34 300.402H161.244L161.166 300.342L139.722 283.038L139.746 283.056L55.008 228.378H55.224L-48.054 283.716C-50.064 284.832 -52.134 285.822 -54.198 286.83L-140.826 329.184Z" fill="url(#paint42_linear_7014_28613)"/>
<path d="M-140.796 334.422L-69.186 298.722C-61.242 294.732 -53.22 290.892 -45.456 286.548L48.432 235.776L48.534 235.722L48.636 235.776L136.386 285.096H136.398L136.41 285.114L158.58 301.59L158.424 301.536L370.356 308.196H370.326C387.894 306.408 405.474 304.65 423.084 303.27C425.286 303.102 427.488 302.952 429.696 302.814C431.898 302.706 434.112 302.532 436.332 302.652C440.754 302.844 445.146 303.432 449.514 304.086C458.25 305.424 466.92 307.158 475.56 308.994C492.84 312.702 510.006 316.932 527.118 321.342C535.674 323.556 544.212 325.824 552.738 328.164C556.998 329.334 561.258 330.522 565.506 331.74L571.872 333.6L575.04 334.566L576.618 335.076L577.404 335.346C577.656 335.454 577.944 335.514 578.148 335.688C577.938 335.514 577.65 335.454 577.404 335.346L576.618 335.076L575.04 334.572L571.866 333.612L565.5 331.776C561.246 330.57 556.986 329.4 552.726 328.242C544.194 325.926 535.65 323.682 527.088 321.498C509.964 317.136 492.78 312.984 475.506 309.3C466.866 307.47 458.196 305.748 449.472 304.422C445.11 303.774 440.73 303.192 436.326 303.006C434.13 302.892 431.934 303.06 429.726 303.174C427.524 303.312 425.322 303.462 423.12 303.636C405.522 305.034 387.948 306.81 370.38 308.616H370.356L158.418 302.088H158.334L158.262 302.034L136.11 285.534L136.14 285.552L48.438 236.136H48.636L-45.306 286.812C-53.076 291.156 -61.11 294.96 -69.072 298.926L-140.796 334.422Z" fill="url(#paint43_linear_7014_28613)"/>
<path d="M-140.766 339.66L-71.7 304.788C-64.032 300.894 -56.304 297.132 -48.804 292.914L41.826 243.552L41.916 243.504L42.012 243.552L132.726 287.604H132.744L132.762 287.622L155.64 303.294L155.502 303.246L368.442 314.472H368.412C386.088 312.738 403.77 311.052 421.494 309.768C423.708 309.606 425.928 309.474 428.142 309.342C430.356 309.246 432.582 309.084 434.808 309.156C439.26 309.264 443.688 309.714 448.098 310.248C456.918 311.34 465.684 312.84 474.42 314.454C491.892 317.712 509.25 321.54 526.56 325.572C535.212 327.594 543.852 329.688 552.468 331.854C556.776 332.94 561.084 334.044 565.38 335.178C567.528 335.748 569.676 336.324 571.812 336.924L575.016 337.842L576.612 338.328L577.404 338.592C577.656 338.694 577.95 338.754 578.148 338.94C577.95 338.754 577.65 338.7 577.398 338.598L576.606 338.34L575.01 337.86L571.8 336.954C569.658 336.366 567.51 335.796 565.362 335.232C561.06 334.11 556.752 333.018 552.444 331.944C543.816 329.802 535.176 327.738 526.518 325.746C509.202 321.762 491.826 318.018 474.36 314.778C465.624 313.176 456.864 311.688 448.056 310.608C443.652 310.08 439.23 309.636 434.802 309.534C432.588 309.468 430.38 309.63 428.16 309.726C425.946 309.858 423.732 309.996 421.518 310.158C403.812 311.46 386.13 313.164 368.454 314.916H368.418L155.472 303.816H155.394L155.328 303.768L132.462 288.072L132.498 288.09L41.832 243.942H42.018L-48.672 293.202C-56.172 297.414 -63.924 301.14 -71.598 305.016L-140.766 339.66Z" fill="url(#paint44_linear_7014_28613)"/>
<path d="M-140.736 344.904L-74.208 310.866C-66.828 307.068 -59.382 303.39 -52.152 299.292L35.226 251.34L35.31 251.292L35.4 251.328L129.072 290.112H129.09L129.108 290.13L152.7 304.998L152.574 304.956L366.528 320.748H366.492C375.39 319.902 384.288 319.092 393.186 318.336C402.09 317.58 410.994 316.854 419.91 316.278C422.136 316.128 424.368 316.008 426.6 315.882C428.832 315.786 431.064 315.642 433.308 315.678C437.784 315.72 442.248 316.05 446.694 316.476C455.592 317.346 464.448 318.606 473.274 319.998C490.926 322.812 508.482 326.22 525.984 329.856C534.732 331.686 543.468 333.582 552.186 335.568C556.542 336.564 560.898 337.578 565.242 338.628C567.414 339.156 569.586 339.69 571.746 340.248C572.826 340.53 573.912 340.812 574.986 341.112L576.6 341.574L577.398 341.826L577.794 341.97C577.914 342.03 578.076 342.06 578.148 342.174C578.076 342.054 577.914 342.03 577.794 341.97L577.398 341.826L576.6 341.574L574.986 341.118C573.906 340.824 572.826 340.542 571.746 340.266C569.58 339.714 567.408 339.186 565.236 338.664C560.886 337.626 556.53 336.624 552.174 335.646C543.45 333.69 534.714 331.818 525.954 330.018C508.446 326.424 490.878 323.1 473.226 320.304C464.4 318.924 455.55 317.67 446.664 316.812C442.218 316.392 437.766 316.068 433.308 316.032C431.082 316.002 428.856 316.146 426.624 316.242C424.398 316.368 422.166 316.488 419.94 316.644C411.03 317.232 402.126 317.964 393.222 318.732C384.324 319.5 375.426 320.316 366.534 321.174H366.498L152.538 305.502H152.472L152.412 305.46L128.838 290.568L128.874 290.586L35.244 251.7L35.418 251.688L-52.014 299.55C-59.25 303.63 -66.714 307.284 -74.106 311.058L-140.736 344.904Z" fill="url(#paint45_linear_7014_28613)"/>
<path d="M-140.706 350.142L-76.728 316.932C-69.63 313.224 -62.472 309.63 -55.506 305.658L28.62 259.11L28.698 259.068L28.782 259.098L125.412 292.614H125.436L125.46 292.632L149.76 306.696L149.652 306.66L364.614 327.024H364.572C373.53 326.208 382.488 325.44 391.446 324.72C400.41 324 409.374 323.328 418.35 322.782C422.838 322.536 427.326 322.236 431.832 322.194C436.332 322.182 440.832 322.416 445.314 322.74C454.284 323.4 463.224 324.438 472.14 325.614C489.972 327.984 507.714 330.966 525.414 334.194C534.258 335.82 543.096 337.518 551.91 339.312C556.32 340.212 560.718 341.13 565.116 342.096C567.312 342.576 569.508 343.068 571.698 343.59C572.79 343.848 573.888 344.112 574.974 344.394C575.52 344.532 576.06 344.676 576.606 344.832C576.876 344.91 577.146 344.988 577.416 345.078C577.548 345.12 577.68 345.168 577.812 345.216C577.932 345.276 578.1 345.306 578.16 345.426C578.094 345.3 577.932 345.276 577.806 345.216C577.674 345.168 577.542 345.12 577.41 345.078C577.14 344.994 576.87 344.91 576.6 344.838C576.06 344.688 575.514 344.544 574.968 344.406C573.876 344.13 572.784 343.866 571.686 343.614C569.496 343.104 567.3 342.618 565.104 342.144C560.706 341.196 556.302 340.29 551.892 339.402C543.072 337.638 534.234 335.964 525.384 334.368C507.684 331.188 489.924 328.29 472.098 325.932C463.182 324.768 454.248 323.742 445.29 323.088C440.808 322.77 436.32 322.542 431.832 322.56C427.35 322.608 422.856 322.908 418.374 323.16C409.404 323.712 400.44 324.396 391.476 325.122C382.518 325.854 373.56 326.628 364.608 327.456H364.572L149.598 307.206H149.538L149.49 307.17L125.202 293.082L125.244 293.1L28.65 259.476L28.812 259.464L-55.368 305.922C-62.34 309.87 -69.51 313.446 -76.626 317.13L-140.706 350.142Z" fill="url(#paint46_linear_7014_28613)"/>
<path d="M-140.676 355.38L-79.242 322.998C-72.426 319.386 -65.556 315.87 -58.86 312.03L22.008 266.886L22.08 266.844L22.158 266.868L121.746 295.122H121.77L121.794 295.14L146.808 308.4L146.712 308.37L362.682 333.3H362.64C380.676 331.758 398.724 330.33 416.796 329.298C421.314 329.064 425.832 328.794 430.368 328.722C434.898 328.674 439.428 328.818 443.946 329.052C452.988 329.532 462.006 330.354 471.006 331.314C489.006 333.252 506.94 335.796 524.826 338.604C533.766 340.014 542.7 341.508 551.61 343.098C556.068 343.896 560.52 344.712 564.96 345.582C567.18 346.014 569.4 346.464 571.614 346.932C572.718 347.166 573.828 347.412 574.926 347.67C575.478 347.802 576.024 347.934 576.576 348.084C576.852 348.156 577.122 348.234 577.392 348.318C577.53 348.36 577.662 348.402 577.794 348.456C577.662 348.408 577.524 348.36 577.392 348.318C577.122 348.234 576.846 348.162 576.576 348.084C576.03 347.94 575.478 347.808 574.926 347.676C573.822 347.418 572.718 347.178 571.608 346.944C569.394 346.476 567.174 346.038 564.948 345.612C560.502 344.76 556.05 343.95 551.592 343.17C542.676 341.61 533.742 340.146 524.796 338.766C506.904 336.006 488.964 333.552 470.97 331.626C452.988 329.784 434.88 328.17 416.814 329.67C398.748 330.726 380.706 332.172 362.676 333.732H362.628L146.646 308.91H146.598L146.556 308.88L121.56 295.596L121.608 295.614L22.05 267.252L22.2 267.234L-58.728 312.282C-65.436 316.104 -72.318 319.596 -79.146 323.19L-140.676 355.38Z" fill="url(#paint47_linear_7014_28613)"/>
<path d="M-140.646 360.624L-81.762 329.082C-75.228 325.566 -68.646 322.128 -62.214 318.414L15.402 274.674L15.468 274.638L15.54 274.656L118.086 297.642H118.116L118.14 297.66L143.862 310.116L143.784 310.092L360.768 339.588H360.72C378.888 338.118 397.068 336.792 415.272 335.826C433.476 334.512 451.746 335.616 469.902 337.098C488.07 338.61 506.184 340.716 524.256 343.08C533.292 344.274 542.316 345.546 551.328 346.92C555.834 347.61 560.334 348.324 564.828 349.092C567.072 349.476 569.322 349.872 571.56 350.298C572.682 350.508 573.798 350.73 574.914 350.97C575.472 351.09 576.03 351.216 576.582 351.354C576.858 351.42 577.134 351.498 577.41 351.576C577.548 351.618 577.68 351.66 577.818 351.708C577.686 351.66 577.548 351.618 577.41 351.576C577.134 351.498 576.858 351.426 576.582 351.354C576.03 351.216 575.472 351.096 574.914 350.976C573.798 350.742 572.682 350.526 571.56 350.316C569.322 349.896 567.072 349.512 564.828 349.134C560.334 348.384 555.828 347.682 551.322 347.01C542.31 345.66 533.28 344.418 524.238 343.254C506.16 340.932 488.04 338.928 469.878 337.416C451.722 335.958 433.488 334.878 415.296 336.204C397.104 337.194 378.924 338.544 360.762 340.026H360.714L143.718 310.626H143.676L143.64 310.602L117.93 298.122L117.984 298.14L15.462 275.046L15.6 275.028L-62.076 318.672C-68.52 322.368 -75.108 325.782 -81.66 329.274L-140.646 360.624Z" fill="url(#paint48_linear_7014_28613)"/>
<path d="M-140.616 365.862L-84.276 335.154C-78.024 331.734 -71.73 328.38 -65.562 324.792L8.802 282.456L8.86201 282.42L8.92801 282.432L114.432 300.15H114.462L114.492 300.168L140.928 311.82L140.862 311.802L358.854 345.864H358.806C377.112 344.478 395.43 343.254 413.766 342.342C418.35 342.138 422.934 341.904 427.524 341.79C432.114 341.688 436.704 341.7 441.294 341.784C450.474 341.952 459.648 342.378 468.81 342.93C487.134 344.04 505.428 345.69 523.686 347.61C532.812 348.576 541.932 349.62 551.04 350.772C555.594 351.348 560.142 351.954 564.69 352.608C566.964 352.938 569.232 353.28 571.494 353.652C572.628 353.838 573.756 354.036 574.884 354.252C575.448 354.36 576.012 354.474 576.57 354.6C576.852 354.666 577.128 354.732 577.404 354.81C577.542 354.852 577.68 354.888 577.812 354.942C577.68 354.894 577.542 354.852 577.404 354.816C577.128 354.738 576.846 354.672 576.57 354.612C576.012 354.486 575.448 354.372 574.884 354.27C573.756 354.06 572.622 353.868 571.494 353.682C569.226 353.316 566.958 352.98 564.684 352.662C560.142 352.02 555.588 351.432 551.034 350.868C541.926 349.746 532.8 348.726 523.668 347.79C505.41 345.918 487.116 344.364 468.792 343.26C450.474 342.186 432.108 341.55 413.784 342.732C395.454 343.662 377.142 344.91 358.842 346.314H358.794L140.79 312.342H140.754L140.724 312.324L114.3 300.648L114.36 300.666L8.87401 282.834L9 282.81L-65.424 325.05C-71.598 328.62 -77.904 331.95 -84.168 335.352L-140.616 365.862Z" fill="url(#paint49_linear_7014_28613)"/>
<path d="M-140.586 371.1L-86.796 341.22C-80.826 337.89 -74.82 334.62 -68.922 331.158L2.19 290.22L2.244 290.19H2.304L110.766 302.646H110.796L110.826 302.664L137.97 313.512L137.922 313.5L356.928 352.128H356.874C375.324 350.838 393.786 349.71 412.26 348.852C416.88 348.648 421.5 348.438 426.12 348.306C430.746 348.186 435.366 348.15 439.992 348.168C449.238 348.21 458.484 348.456 467.73 348.81C486.21 349.53 504.672 350.73 523.11 352.182C532.326 352.92 541.542 353.724 550.74 354.642C555.342 355.104 559.938 355.59 564.534 356.13C566.832 356.4 569.124 356.688 571.416 357.006C572.562 357.168 573.702 357.336 574.848 357.528C575.418 357.624 575.988 357.726 576.552 357.84C576.834 357.9 577.116 357.96 577.398 358.038C577.536 358.074 577.68 358.116 577.812 358.164C577.878 358.188 577.95 358.212 578.01 358.248C578.064 358.284 578.154 358.314 578.154 358.398C578.154 358.314 578.07 358.284 578.01 358.248C577.944 358.218 577.878 358.188 577.812 358.164C577.674 358.116 577.536 358.074 577.398 358.038C577.116 357.966 576.834 357.9 576.552 357.846C575.988 357.732 575.418 357.63 574.848 357.54C573.708 357.354 572.562 357.186 571.416 357.03C569.124 356.718 566.832 356.442 564.534 356.178C559.938 355.65 555.342 355.182 550.74 354.732C541.536 353.844 532.32 353.064 523.104 352.356C504.666 350.946 486.204 349.842 467.724 349.128C458.484 348.78 449.244 348.546 439.998 348.516C435.378 348.504 430.752 348.546 426.138 348.672C421.518 348.804 416.898 349.026 412.284 349.23C393.816 350.106 375.354 351.258 356.91 352.56H356.862L137.844 314.016H137.82L137.796 314.004L110.664 303.132L110.724 303.15L2.274 290.58L2.388 290.556L-68.784 331.392C-74.694 334.83 -80.706 338.088 -86.688 341.394L-140.586 371.1Z" fill="url(#paint50_linear_7014_28613)"/>
<path d="M-140.556 376.344L-89.316 347.304C-83.628 344.07 -77.916 340.878 -72.276 337.548L-4.41 298.014L-4.362 297.984H-4.30798L107.112 305.172H107.148L107.178 305.184L135.036 315.228L135 315.216L355.014 358.416H354.96C373.56 357.234 392.172 356.202 410.79 355.392C429.408 354.45 448.062 354.42 466.692 354.774C485.328 355.122 503.952 355.866 522.564 356.856C531.87 357.354 541.17 357.918 550.464 358.59C555.114 358.926 559.758 359.292 564.396 359.712C566.718 359.922 569.034 360.15 571.35 360.408C572.508 360.54 573.666 360.678 574.818 360.84C575.394 360.924 575.97 361.008 576.546 361.116C576.834 361.17 577.116 361.224 577.404 361.296C577.548 361.332 577.686 361.368 577.824 361.416C577.896 361.44 577.962 361.464 578.028 361.5C578.082 361.536 578.178 361.572 578.166 361.656C578.178 361.572 578.088 361.536 578.028 361.506C577.962 361.476 577.896 361.446 577.824 361.422C577.686 361.374 577.542 361.338 577.404 361.302C577.122 361.236 576.834 361.176 576.546 361.128C575.97 361.026 575.394 360.936 574.818 360.858C573.666 360.696 572.508 360.564 571.35 360.438C569.034 360.186 566.712 359.97 564.396 359.766C559.752 359.358 555.108 359.016 550.458 358.692C541.164 358.05 531.858 357.516 522.552 357.048C503.94 356.112 485.316 355.458 466.686 355.11C448.056 354.774 429.414 354.822 410.808 355.788C392.19 356.622 373.584 357.672 354.99 358.872H354.93L134.898 315.75H134.88L134.862 315.738L107.016 305.664L107.082 305.676L-4.332 298.374L-4.23 298.35L-72.156 337.782C-77.802 341.094 -83.526 344.268 -89.226 347.484L-140.556 376.344Z" fill="url(#paint51_linear_7014_28613)"/>
<path d="M-140.526 381.582L-91.836 353.376C-86.43 350.238 -81.006 347.13 -75.636 343.926L-11.016 305.79L-10.974 305.766H-10.926L103.452 307.686H103.488L103.524 307.698L132.09 316.932H132.066L353.088 364.692H353.028C371.784 363.624 390.546 362.694 409.32 361.914C428.088 361.056 446.88 360.768 465.666 360.774C484.452 360.774 503.238 361.068 522.018 361.572C531.408 361.83 540.798 362.142 550.182 362.562C554.874 362.772 559.566 363.006 564.252 363.294C566.598 363.438 568.938 363.6 571.278 363.798C572.448 363.9 573.618 364.008 574.782 364.14C575.364 364.206 575.946 364.284 576.528 364.374C576.816 364.422 577.11 364.47 577.392 364.536C577.536 364.572 577.68 364.602 577.818 364.65C577.89 364.674 577.956 364.698 578.022 364.734C578.082 364.77 578.172 364.806 578.154 364.89C578.166 364.806 578.076 364.764 578.022 364.734C577.956 364.698 577.89 364.674 577.818 364.65C577.68 364.602 577.536 364.572 577.392 364.536C577.104 364.47 576.816 364.422 576.528 364.374C575.946 364.284 575.364 364.212 574.782 364.146C573.618 364.014 572.448 363.912 571.278 363.816C568.938 363.624 566.592 363.474 564.252 363.336C559.566 363.06 554.874 362.844 550.182 362.646C540.798 362.262 531.408 361.974 522.018 361.746C503.238 361.296 484.458 361.086 465.672 361.092C446.886 361.11 428.106 361.416 409.344 362.292C390.576 363.09 371.814 364.044 353.064 365.124H353.004L131.964 317.43H131.952L131.94 317.424L103.386 308.154L103.452 308.166L-10.926 306.126L-10.836 306.102L-75.516 344.13C-80.898 347.316 -86.328 350.412 -91.746 353.532L-140.526 381.582Z" fill="url(#paint52_linear_7014_28613)"/>
<path d="M-140.496 386.82L-109.74 368.574C-99.492 362.478 -89.22 356.436 -78.996 350.304L-17.622 313.566L-17.586 313.542H-17.538L99.798 310.188H99.834L99.87 310.2L128.994 318.588C129.648 318.756 130.302 318.9 130.956 319.056L351.168 370.962H351.108L407.88 368.49C417.342 368.052 426.804 367.716 436.272 367.458C445.74 367.194 455.208 366.984 464.676 366.816C483.612 366.474 502.554 366.336 521.496 366.354C530.964 366.366 540.438 366.426 549.906 366.57C554.64 366.648 559.374 366.744 564.108 366.9C566.472 366.978 568.842 367.074 571.206 367.2C572.388 367.266 573.57 367.344 574.752 367.446C575.34 367.5 575.928 367.56 576.516 367.638C576.81 367.68 577.104 367.722 577.392 367.782C577.536 367.812 577.68 367.848 577.824 367.89C577.896 367.914 577.962 367.938 578.028 367.974C578.088 368.01 578.178 368.052 578.154 368.136C578.172 368.052 578.082 368.01 578.028 367.974C577.962 367.938 577.89 367.914 577.824 367.89C577.68 367.848 577.536 367.812 577.392 367.782C577.104 367.722 576.81 367.68 576.516 367.644C575.928 367.566 575.34 367.512 574.752 367.458C573.57 367.356 572.388 367.284 571.206 367.224C568.842 367.098 566.478 367.014 564.108 366.942C559.374 366.804 554.64 366.72 549.906 366.66C540.438 366.54 530.964 366.516 521.496 366.534C502.554 366.57 483.618 366.798 464.682 367.14C455.214 367.32 445.746 367.536 436.284 367.812C426.816 368.082 417.354 368.424 407.898 368.874L351.132 371.406H351.072L130.83 319.566C130.176 319.41 129.516 319.266 128.868 319.092L126.924 318.528L99.744 310.668L99.816 310.68L-17.526 313.902L-17.442 313.878L-78.876 350.502C-89.118 356.598 -99.408 362.616 -109.674 368.676L-140.496 386.82Z" fill="url(#paint53_linear_7014_28613)"/>
<path d="M-140.472 392.064L-24.24 321.348L-24.204 321.324H-24.162L96.132 312.702H96.168L96.204 312.708L349.242 377.238H349.176C387.348 375.66 425.526 374.202 463.71 372.9C482.802 372.246 501.894 371.67 520.992 371.196C530.538 370.962 540.09 370.758 549.642 370.626C554.418 370.566 559.194 370.518 563.97 370.536C566.358 370.542 568.746 370.566 571.134 370.626C572.328 370.656 573.522 370.698 574.716 370.77C575.31 370.806 575.91 370.848 576.504 370.908C576.798 370.938 577.098 370.98 577.392 371.028C577.536 371.052 577.686 371.082 577.83 371.13C577.902 371.148 577.974 371.178 578.04 371.208C578.1 371.244 578.184 371.292 578.16 371.376C578.178 371.292 578.1 371.244 578.034 371.208C577.968 371.172 577.896 371.148 577.824 371.13C577.68 371.088 577.536 371.058 577.386 371.034C577.092 370.98 576.798 370.944 576.498 370.914C575.904 370.854 575.31 370.812 574.71 370.776C573.516 370.71 572.322 370.674 571.134 370.644C568.746 370.59 566.358 370.578 563.97 370.578C559.194 370.578 554.418 370.638 549.642 370.716C540.09 370.872 530.544 371.112 520.998 371.376C501.906 371.91 482.814 372.564 463.722 373.224C425.544 374.568 387.366 376.074 349.194 377.682H349.164L349.134 377.676L96.096 313.17H96.168L-24.138 321.66L-24.06 321.636L-140.472 392.064Z" fill="url(#paint54_linear_7014_28613)"/>
<path d="M-140.472 395.238L-23.436 328.44L-23.4 328.422H-23.364L96.708 320.274H96.78L349.734 381.216H349.674C387.774 379.728 425.874 378.348 463.98 377.118C483.036 376.5 502.092 375.96 521.148 375.51C530.676 375.288 540.204 375.096 549.738 374.976C554.502 374.916 559.272 374.88 564.036 374.892C566.418 374.898 568.8 374.922 571.182 374.976C572.376 375.006 573.564 375.042 574.752 375.108C575.346 375.144 575.94 375.18 576.534 375.24C576.828 375.27 577.128 375.306 577.422 375.354C577.566 375.378 577.716 375.408 577.86 375.45C577.932 375.468 578.004 375.492 578.07 375.528C578.13 375.558 578.22 375.606 578.202 375.69C578.22 375.606 578.13 375.564 578.07 375.528C578.004 375.498 577.932 375.474 577.86 375.456C577.716 375.414 577.572 375.39 577.422 375.366C577.128 375.318 576.834 375.282 576.534 375.252C575.94 375.192 575.346 375.156 574.752 375.126C573.564 375.066 572.37 375.03 571.182 375.006C568.8 374.958 566.418 374.946 564.036 374.946C559.272 374.946 554.508 375.006 549.738 375.078C540.21 375.228 530.682 375.456 521.154 375.702C502.098 376.206 483.048 376.83 463.992 377.448C425.886 378.72 387.786 380.142 349.692 381.666H349.632L96.678 320.748H96.75L-23.334 328.764L-23.262 328.74L-140.472 395.238Z" fill="url(#paint55_linear_7014_28613)"/>
<path d="M-140.472 398.418L-22.638 335.538L-22.608 335.52H-22.572L97.278 327.852H97.344L223.794 356.466L350.214 385.212H350.16C388.182 383.814 426.21 382.518 464.238 381.36C483.252 380.778 502.272 380.268 521.292 379.854C530.802 379.65 540.312 379.464 549.822 379.356C554.58 379.302 559.332 379.266 564.09 379.278C566.466 379.284 568.848 379.302 571.224 379.356C572.412 379.386 573.6 379.422 574.788 379.482C575.382 379.512 575.976 379.548 576.57 379.608C576.864 379.638 577.164 379.668 577.458 379.716C577.602 379.74 577.752 379.764 577.896 379.806C577.968 379.824 578.04 379.848 578.106 379.878C578.166 379.908 578.256 379.95 578.244 380.028C578.256 379.944 578.166 379.908 578.106 379.878C578.04 379.848 577.968 379.824 577.896 379.806C577.752 379.77 577.608 379.74 577.458 379.722C577.164 379.674 576.87 379.644 576.57 379.62C575.976 379.566 575.382 379.53 574.788 379.5C573.6 379.44 572.412 379.41 571.224 379.386C568.848 379.338 566.466 379.326 564.09 379.326C559.332 379.326 554.58 379.38 549.822 379.452C540.312 379.596 530.802 379.806 521.292 380.04C502.272 380.514 483.258 381.102 464.244 381.69C426.216 382.89 388.188 384.228 350.172 385.662H350.112L223.662 357.06L97.236 328.326H97.302L-22.554 335.868L-22.488 335.85L-140.472 398.418Z" fill="url(#paint56_linear_7014_28613)"/>
<path d="M-140.472 401.592L-21.834 342.636L-21.804 342.618H-21.768L97.86 335.424H97.92L224.328 362.25L350.706 389.202H350.652C388.602 387.894 426.552 386.676 464.508 385.596C483.486 385.05 502.464 384.576 521.448 384.186C530.94 383.994 540.432 383.826 549.924 383.724C554.67 383.676 559.416 383.64 564.162 383.652C566.538 383.658 568.908 383.676 571.284 383.73C572.472 383.754 573.654 383.79 574.842 383.85C575.436 383.88 576.024 383.916 576.618 383.97C576.912 383.994 577.206 384.03 577.5 384.072C577.644 384.096 577.794 384.12 577.938 384.156C577.794 384.12 577.65 384.096 577.5 384.078C577.206 384.036 576.912 384.006 576.618 383.982C576.024 383.934 575.436 383.898 574.842 383.868C573.654 383.814 572.472 383.784 571.284 383.76C568.914 383.718 566.538 383.706 564.168 383.706C559.422 383.706 554.676 383.76 549.93 383.826C540.438 383.958 530.946 384.162 521.46 384.384C502.482 384.834 483.504 385.386 464.526 385.932C426.576 387.054 388.626 388.314 350.676 389.658H350.622L97.83 335.904H97.89L-21.744 342.966L-21.678 342.948L-140.472 401.592Z" fill="url(#paint57_linear_7014_28613)"/>
<path d="M-140.472 404.772L-21.036 349.734L-21.006 349.722H-20.976L98.43 343.002H98.49L351.198 393.192H351.15C389.022 391.974 426.9 390.84 464.778 389.832C483.72 389.322 502.662 388.884 521.604 388.524C531.078 388.344 540.546 388.188 550.02 388.092C554.754 388.044 559.494 388.014 564.228 388.026C566.598 388.032 568.962 388.05 571.332 388.098C572.514 388.122 573.702 388.152 574.884 388.206C575.478 388.236 576.066 388.266 576.654 388.314C576.948 388.338 577.242 388.368 577.536 388.41C577.68 388.428 577.83 388.452 577.974 388.488C578.046 388.506 578.118 388.524 578.19 388.548C578.25 388.572 578.352 388.602 578.346 388.686C578.346 388.602 578.256 388.578 578.19 388.548C578.118 388.524 578.046 388.506 577.974 388.488C577.83 388.458 577.686 388.434 577.536 388.416C577.242 388.374 576.948 388.35 576.654 388.326C576.066 388.278 575.472 388.248 574.878 388.224C573.696 388.176 572.514 388.146 571.326 388.122C568.956 388.08 566.592 388.074 564.222 388.074C559.488 388.074 554.748 388.122 550.014 388.188C540.54 388.314 531.072 388.5 521.598 388.71C502.656 389.13 483.72 389.652 464.778 390.162C426.9 391.212 389.028 392.388 351.156 393.648H351.108L98.4 343.482H98.46L-20.952 350.07L-20.892 350.052L-140.472 404.772Z" fill="url(#paint58_linear_7014_28613)"/>
<path d="M-140.472 407.946L-20.232 356.826L-20.202 356.814H-20.172L99.012 350.568H99.072L225.396 373.806L351.696 397.176H351.648C389.448 396.042 427.248 394.992 465.054 394.056C483.954 393.582 502.86 393.18 521.766 392.844C531.216 392.682 540.672 392.538 550.122 392.448C554.85 392.406 559.578 392.376 564.3 392.388C566.664 392.394 569.028 392.412 571.392 392.454C572.574 392.478 573.756 392.508 574.938 392.556C575.526 392.58 576.12 392.61 576.708 392.658C577.002 392.682 577.296 392.706 577.59 392.742C577.734 392.76 577.884 392.784 578.028 392.814C578.1 392.826 578.172 392.844 578.244 392.868C578.304 392.892 578.406 392.916 578.406 392.994C578.406 392.91 578.304 392.892 578.244 392.868C578.172 392.844 578.1 392.826 578.028 392.814C577.884 392.784 577.734 392.766 577.59 392.748C577.296 392.712 577.002 392.688 576.708 392.664C576.12 392.622 575.526 392.592 574.938 392.568C573.756 392.52 572.574 392.496 571.392 392.478C569.028 392.442 566.664 392.43 564.3 392.436C559.572 392.436 554.844 392.484 550.122 392.544C540.672 392.664 531.216 392.838 521.766 393.03C502.86 393.42 483.96 393.906 465.06 394.386C427.26 395.364 389.46 396.456 351.66 397.626H351.612L225.288 374.4L98.988 351.042H99.042L-20.148 357.156L-20.094 357.144L-140.472 407.946Z" fill="url(#paint59_linear_7014_28613)"/>
<path d="M-140.472 411.126L-19.434 363.924L-19.41 363.912H-19.38L99.582 358.146H99.63L225.912 379.59L352.17 401.166H352.128C389.85 400.122 427.578 399.156 465.306 398.292C484.17 397.854 503.034 397.482 521.904 397.182C531.336 397.032 540.774 396.9 550.206 396.822C554.922 396.786 559.638 396.756 564.36 396.768C566.718 396.774 569.076 396.792 571.434 396.834C572.616 396.858 573.792 396.882 574.968 396.93C575.556 396.954 576.144 396.984 576.732 397.026C577.026 397.05 577.32 397.074 577.614 397.104C577.758 397.122 577.908 397.14 578.052 397.17C578.124 397.182 578.196 397.2 578.268 397.218C578.328 397.242 578.43 397.254 578.436 397.338C578.436 397.254 578.328 397.242 578.268 397.218C578.196 397.194 578.124 397.182 578.052 397.17C577.908 397.146 577.758 397.122 577.614 397.11C577.32 397.074 577.026 397.056 576.732 397.032C576.144 396.99 575.556 396.966 574.968 396.942C573.792 396.9 572.61 396.876 571.434 396.858C569.076 396.822 566.718 396.816 564.36 396.816C559.644 396.816 554.928 396.864 550.212 396.918C540.78 397.026 531.348 397.194 521.916 397.374C503.052 397.74 484.188 398.19 465.324 398.628C427.596 399.534 389.874 400.542 352.152 401.628H352.104L225.822 380.196L99.564 358.632H99.612L-19.356 364.272L-19.302 364.26L-140.472 411.126Z" fill="url(#paint60_linear_7014_28613)"/>
<path d="M-140.472 414.3L-18.63 371.016H-18.606L-18.582 371.004L100.158 365.712H100.206L226.446 385.368L352.662 405.15H352.62C390.27 404.196 427.92 403.308 465.57 402.522C484.398 402.12 503.226 401.784 522.054 401.508C531.468 401.37 540.882 401.25 550.296 401.178C555.006 401.142 559.71 401.118 564.42 401.13C566.772 401.136 569.13 401.148 571.482 401.19C572.658 401.208 573.834 401.238 575.01 401.28C575.598 401.304 576.186 401.328 576.774 401.364C577.068 401.382 577.362 401.406 577.656 401.436C577.8 401.454 577.95 401.472 578.094 401.496C578.166 401.508 578.238 401.52 578.31 401.544C578.37 401.568 578.472 401.574 578.484 401.658C578.472 401.58 578.37 401.568 578.31 401.55C578.238 401.532 578.166 401.52 578.094 401.502C577.95 401.478 577.8 401.46 577.656 401.442C577.362 401.412 577.068 401.388 576.774 401.37C576.186 401.334 575.598 401.31 575.01 401.292C573.834 401.256 572.658 401.232 571.482 401.214C569.13 401.184 566.772 401.178 564.42 401.178C559.71 401.178 555.006 401.22 550.296 401.268C540.882 401.37 531.468 401.52 522.054 401.688L465.576 402.846C427.926 403.674 390.276 404.604 352.626 405.6H352.59L226.35 385.956L100.128 366.18H100.176L-18.57 371.34L-18.522 371.328L-140.472 414.3Z" fill="url(#paint61_linear_7014_28613)"/>
<path d="M-140.472 417.48L-17.832 378.114H-17.808L-17.784 378.108L100.734 373.29H100.77L226.968 391.152L353.148 409.146H353.112C390.684 408.282 428.262 407.478 465.84 406.764C484.626 406.404 503.418 406.098 522.21 405.846C531.606 405.726 541.002 405.618 550.398 405.552C555.096 405.522 559.794 405.504 564.492 405.51C566.844 405.516 569.19 405.528 571.536 405.564C572.712 405.582 573.882 405.606 575.058 405.642C575.646 405.66 576.234 405.684 576.816 405.72C577.11 405.738 577.404 405.756 577.692 405.786C577.836 405.798 577.986 405.816 578.13 405.84C577.986 405.816 577.836 405.804 577.692 405.786C577.398 405.756 577.104 405.738 576.816 405.72C576.228 405.684 575.64 405.666 575.058 405.648C573.882 405.612 572.712 405.594 571.536 405.576C569.19 405.546 566.838 405.54 564.492 405.546C559.794 405.546 555.096 405.588 550.398 405.63C541.002 405.726 531.606 405.864 522.216 406.014L465.852 407.07C428.274 407.826 390.702 408.672 353.13 409.578H353.094L226.896 391.728L100.716 373.746H100.758L-17.766 378.432H-17.724L-140.472 417.48Z" fill="url(#paint62_linear_7014_28613)"/>
<path d="M-140.472 420.654L-17.028 385.206H-17.01L-16.992 385.2L101.304 380.856H101.34L227.49 396.924L353.628 413.124H353.598C391.098 412.344 428.598 411.624 466.098 410.982C484.848 410.658 503.598 410.388 522.354 410.166L550.482 409.908L564.546 409.872L571.578 409.92L575.094 409.992L576.852 410.064L577.728 410.124C577.872 410.136 578.022 410.154 578.166 410.172C578.298 410.202 578.478 410.19 578.568 410.304C578.478 410.196 578.298 410.208 578.166 410.178C578.022 410.16 577.872 410.142 577.728 410.13L576.852 410.07L575.094 410.004L571.578 409.944L564.546 409.914L550.482 409.992L522.354 410.346L466.104 411.306C428.604 411.99 391.104 412.752 353.604 413.568H353.568L227.412 397.512L101.274 381.324H101.31L-16.992 385.536H-16.95L-140.472 420.654Z" fill="url(#paint63_linear_7014_28613)"/>
<path d="M-140.472 423.828L-16.23 392.298H-16.194L101.88 388.428H101.916L228.024 402.702L354.12 417.108H354.09C391.512 416.418 428.94 415.782 466.368 415.212C485.082 414.924 503.796 414.69 522.51 414.492L550.584 414.264L564.618 414.234L571.638 414.282L575.148 414.348L576.9 414.414L577.776 414.468L576.9 414.42L575.148 414.36L571.638 414.306L564.618 414.282L550.584 414.354L522.516 414.672L466.374 415.53C428.946 416.142 391.524 416.82 354.102 417.552H354.078L227.964 403.284L101.868 388.884H101.904L-16.17 392.622H-16.134L-140.472 423.828Z" fill="url(#paint64_linear_7014_28613)"/>
<path d="M-140.472 427.008L-15.426 399.396H-15.39L102.462 396.006H102.486L228.552 408.492L354.606 421.11H354.582L466.632 419.46C485.31 419.208 503.982 419.004 522.66 418.842L550.674 418.65L564.684 418.632L571.686 418.674L575.19 418.734L576.942 418.788L577.818 418.836L578.256 418.872C578.394 418.896 578.562 418.884 578.67 418.974C578.562 418.884 578.394 418.902 578.256 418.872L577.818 418.836L576.942 418.794L575.19 418.746L571.686 418.698L564.684 418.68L550.674 418.746L522.66 419.028L466.632 419.79L354.582 421.566H354.558L228.486 409.092L102.432 396.486H102.462L-15.39 399.744H-15.36L-140.472 427.008Z" fill="url(#paint65_linear_7014_28613)"/>
<path d="M-140.472 430.182L-14.622 406.494H-14.598L103.032 403.578H103.056L229.08 414.27L355.092 425.094H355.068L466.896 423.69C485.532 423.474 504.174 423.306 522.81 423.168L550.77 423.012L564.75 423L571.74 423.036L575.232 423.084L576.978 423.132L577.848 423.174C578.13 423.204 578.442 423.18 578.7 423.294C578.442 423.186 578.13 423.21 577.842 423.18L576.972 423.144L575.226 423.102L571.734 423.06L564.744 423.048L550.764 423.108L522.804 423.36L466.89 424.02L355.062 425.55H355.038L229.014 414.87L102.996 404.058H103.02L-14.61 406.842H-14.586L-140.472 430.182Z" fill="url(#paint66_linear_7014_28613)"/>
<path d="M-140.472 433.362L-13.824 413.592H-13.8L103.608 411.15H103.632L229.614 420.048L355.59 429.078H355.572L467.178 427.92L522.984 427.5L550.884 427.374H564.834L571.812 427.398L575.298 427.44L577.044 427.482C577.62 427.518 578.22 427.482 578.772 427.614C578.214 427.488 577.62 427.518 577.044 427.488L575.298 427.452L571.812 427.422L564.834 427.41L550.884 427.464L522.984 427.68L467.184 428.244L355.584 429.534H355.56L103.602 411.624H103.62L-13.788 413.934H-13.764L-140.472 433.362Z" fill="url(#paint67_linear_7014_28613)"/>
<path d="M-140.472 436.536L-13.02 420.684H-13.002L104.184 418.716H104.196L222.768 425.4L356.154 433.062L460.056 432.198L519.432 431.838L549.12 431.736H563.964L571.386 431.754L575.1 431.79L576.954 431.826C577.572 431.856 578.196 431.826 578.802 431.934C578.202 431.832 577.572 431.856 576.954 431.832L575.1 431.802L571.386 431.778H563.964L549.12 431.832L519.432 432.03L356.142 433.506L222.738 425.994L104.166 419.178H104.184L-13.002 421.014H-12.984L-140.472 436.536Z" fill="url(#paint68_linear_7014_28613)"/>
<path d="M-140.472 439.716L-12.222 427.782H-12.21L98.652 426.366C104.814 426.138 110.964 426.588 117.12 426.81L357.12 437.052L431.034 436.59L504.948 436.218L541.902 436.116L560.382 436.104L569.622 436.122L574.242 436.152C575.778 436.182 577.326 436.152 578.856 436.272C577.326 436.158 575.778 436.194 574.242 436.17L569.622 436.158L560.382 436.17L541.902 436.242L357.132 437.508L283.278 434.424L117.12 427.308C110.964 427.08 104.814 426.624 98.652 426.846L-12.204 428.136H-12.192L-140.472 439.716Z" fill="url(#paint69_linear_7014_28613)"/>
<path d="M-140.472 442.89L-11.388 434.874L105.282 433.866L106.686 433.902L219.096 437.04L356.796 441.042C357.726 441.054 358.668 441.042 359.604 441.042L488.922 440.556L533.904 440.484L567.642 440.49C571.392 440.514 575.142 440.478 578.886 440.598C575.142 440.49 571.392 440.538 567.642 440.526L556.398 440.55L533.91 440.634L359.61 441.486C358.674 441.486 357.738 441.504 356.796 441.492L219.096 437.646L105.282 434.34L101.064 434.376L-11.376 435.228L-50.664 437.592L-140.472 442.89Z" fill="url(#paint70_linear_7014_28613)"/>
<path d="M-140.472 446.07L-11.244 441.99C-9.37199 441.948 -7.49399 441.966 -5.62199 441.948L106.806 441.438L219.216 442.974L354.108 444.972C357.858 445.056 361.602 445.002 365.346 445.008L399.072 444.954C459.03 444.864 518.988 444.702 578.946 444.918C563.958 444.852 548.964 444.942 533.976 444.972L365.34 445.464C361.596 445.464 357.84 445.518 354.096 445.44L219.204 443.598L106.794 441.936L-5.62799 442.308C-7.5 442.32 -9.37799 442.308 -11.25 442.344L-140.472 446.07Z" fill="url(#paint71_linear_7014_28613)"/>
<path d="M-140.472 449.244L219.264 448.944L579 449.244L219.264 449.55L-140.472 449.244Z" fill="url(#paint72_linear_7014_28613)"/>
</g>
<defs>
<linearGradient id="paint0_linear_7014_28613" x1="-152.922" y1="224.776" x2="602.326" y2="224.776" gradientUnits="userSpaceOnUse">
<stop stop-color="#131D56"/>
<stop offset="0.269162" stop-color="#33145D"/>
<stop offset="0.522689" stop-color="#63166A"/>
<stop offset="0.702487" stop-color="#A4267B"/>
<stop offset="0.848653" stop-color="#DB327C"/>
<stop offset="1" stop-color="#EB4B46"/>
</linearGradient>
<linearGradient id="paint1_linear_7014_28613" x1="-152.922" y1="224.776" x2="602.326" y2="224.776" gradientUnits="userSpaceOnUse">
<stop stop-color="#131D56"/>
<stop offset="0.269162" stop-color="#33145D"/>
<stop offset="0.522689" stop-color="#63166A"/>
<stop offset="0.702487" stop-color="#A4267B"/>
<stop offset="0.848653" stop-color="#DB327C"/>
<stop offset="1" stop-color="#EB4B46"/>
</linearGradient>
<linearGradient id="paint2_linear_7014_28613" x1="-152.922" y1="224.776" x2="602.326" y2="224.776" gradientUnits="userSpaceOnUse">
<stop stop-color="#131D56"/>
<stop offset="0.269162" stop-color="#33145D"/>
<stop offset="0.522689" stop-color="#63166A"/>
<stop offset="0.702487" stop-color="#A4267B"/>
<stop offset="0.848653" stop-color="#DB327C"/>
<stop offset="1" stop-color="#EB4B46"/>
</linearGradient>
<linearGradient id="paint3_linear_7014_28613" x1="-152.922" y1="224.776" x2="602.326" y2="224.776" gradientUnits="userSpaceOnUse">
<stop stop-color="#131D56"/>
<stop offset="0.269162" stop-color="#33145D"/>
<stop offset="0.522689" stop-color="#63166A"/>
<stop offset="0.702487" stop-color="#A4267B"/>
<stop offset="0.848653" stop-color="#DB327C"/>
<stop offset="1" stop-color="#EB4B46"/>
</linearGradient>
<linearGradient id="paint4_linear_7014_28613" x1="-152.922" y1="224.776" x2="602.326" y2="224.776" gradientUnits="userSpaceOnUse">
<stop stop-color="#131D56"/>
<stop offset="0.269162" stop-color="#33145D"/>
<stop offset="0.522689" stop-color="#63166A"/>
<stop offset="0.702487" stop-color="#A4267B"/>
<stop offset="0.848653" stop-color="#DB327C"/>
<stop offset="1" stop-color="#EB4B46"/>
</linearGradient>
<linearGradient id="paint5_linear_7014_28613" x1="-152.922" y1="224.776" x2="602.326" y2="224.776" gradientUnits="userSpaceOnUse">
<stop stop-color="#131D56"/>
<stop offset="0.269162" stop-color="#33145D"/>
<stop offset="0.522689" stop-color="#63166A"/>
<stop offset="0.702487" stop-color="#A4267B"/>
<stop offset="0.848653" stop-color="#DB327C"/>
<stop offset="1" stop-color="#EB4B46"/>
</linearGradient>
<linearGradient id="paint6_linear_7014_28613" x1="-152.922" y1="224.776" x2="602.326" y2="224.776" gradientUnits="userSpaceOnUse">
<stop stop-color="#131D56"/>
<stop offset="0.269162" stop-color="#33145D"/>
<stop offset="0.522689" stop-color="#63166A"/>
<stop offset="0.702487" stop-color="#A4267B"/>
<stop offset="0.848653" stop-color="#DB327C"/>
<stop offset="1" stop-color="#EB4B46"/>
</linearGradient>
<linearGradient id="paint7_linear_7014_28613" x1="-152.922" y1="224.776" x2="602.326" y2="224.776" gradientUnits="userSpaceOnUse">
<stop stop-color="#131D56"/>
<stop offset="0.269162" stop-color="#33145D"/>
<stop offset="0.522689" stop-color="#63166A"/>
<stop offset="0.702487" stop-color="#A4267B"/>
<stop offset="0.848653" stop-color="#DB327C"/>
<stop offset="1" stop-color="#EB4B46"/>
</linearGradient>
<linearGradient id="paint8_linear_7014_28613" x1="-152.922" y1="224.776" x2="602.326" y2="224.776" gradientUnits="userSpaceOnUse">
<stop stop-color="#131D56"/>
<stop offset="0.269162" stop-color="#33145D"/>
<stop offset="0.522689" stop-color="#63166A"/>
<stop offset="0.702487" stop-color="#A4267B"/>
<stop offset="0.848653" stop-color="#DB327C"/>
<stop offset="1" stop-color="#EB4B46"/>
</linearGradient>
<linearGradient id="paint9_linear_7014_28613" x1="-152.922" y1="224.776" x2="602.326" y2="224.776" gradientUnits="userSpaceOnUse">
<stop stop-color="#131D56"/>
<stop offset="0.269162" stop-color="#33145D"/>
<stop offset="0.522689" stop-color="#63166A"/>
<stop offset="0.702487" stop-color="#A4267B"/>
<stop offset="0.848653" stop-color="#DB327C"/>
<stop offset="1" stop-color="#EB4B46"/>
</linearGradient>
<linearGradient id="paint10_linear_7014_28613" x1="-152.922" y1="224.776" x2="602.326" y2="224.776" gradientUnits="userSpaceOnUse">
<stop stop-color="#131D56"/>
<stop offset="0.269162" stop-color="#33145D"/>
<stop offset="0.522689" stop-color="#63166A"/>
<stop offset="0.702487" stop-color="#A4267B"/>
<stop offset="0.848653" stop-color="#DB327C"/>
<stop offset="1" stop-color="#EB4B46"/>
</linearGradient>
<linearGradient id="paint11_linear_7014_28613" x1="-152.922" y1="224.776" x2="602.326" y2="224.776" gradientUnits="userSpaceOnUse">
<stop stop-color="#131D56"/>
<stop offset="0.269162" stop-color="#33145D"/>
<stop offset="0.522689" stop-color="#63166A"/>
<stop offset="0.702487" stop-color="#A4267B"/>
<stop offset="0.848653" stop-color="#DB327C"/>
<stop offset="1" stop-color="#EB4B46"/>
</linearGradient>
<linearGradient id="paint12_linear_7014_28613" x1="-152.922" y1="224.776" x2="602.326" y2="224.776" gradientUnits="userSpaceOnUse">
<stop stop-color="#131D56"/>
<stop offset="0.269162" stop-color="#33145D"/>
<stop offset="0.522689" stop-color="#63166A"/>
<stop offset="0.702487" stop-color="#A4267B"/>
<stop offset="0.848653" stop-color="#DB327C"/>
<stop offset="1" stop-color="#EB4B46"/>
</linearGradient>
<linearGradient id="paint13_linear_7014_28613" x1="-152.922" y1="224.776" x2="602.326" y2="224.776" gradientUnits="userSpaceOnUse">
<stop stop-color="#131D56"/>
<stop offset="0.269162" stop-color="#33145D"/>
<stop offset="0.522689" stop-color="#63166A"/>
<stop offset="0.702487" stop-color="#A4267B"/>
<stop offset="0.848653" stop-color="#DB327C"/>
<stop offset="1" stop-color="#EB4B46"/>
</linearGradient>
<linearGradient id="paint14_linear_7014_28613" x1="-152.922" y1="224.776" x2="602.326" y2="224.776" gradientUnits="userSpaceOnUse">
<stop stop-color="#131D56"/>
<stop offset="0.269162" stop-color="#33145D"/>
<stop offset="0.522689" stop-color="#63166A"/>
<stop offset="0.702487" stop-color="#A4267B"/>
<stop offset="0.848653" stop-color="#DB327C"/>
<stop offset="1" stop-color="#EB4B46"/>
</linearGradient>
<linearGradient id="paint15_linear_7014_28613" x1="-152.922" y1="224.776" x2="602.326" y2="224.776" gradientUnits="userSpaceOnUse">
<stop stop-color="#131D56"/>
<stop offset="0.269162" stop-color="#33145D"/>
<stop offset="0.522689" stop-color="#63166A"/>
<stop offset="0.702487" stop-color="#A4267B"/>
<stop offset="0.848653" stop-color="#DB327C"/>
<stop offset="1" stop-color="#EB4B46"/>
</linearGradient>
<linearGradient id="paint16_linear_7014_28613" x1="-152.922" y1="224.776" x2="602.326" y2="224.776" gradientUnits="userSpaceOnUse">
<stop stop-color="#131D56"/>
<stop offset="0.269162" stop-color="#33145D"/>
<stop offset="0.522689" stop-color="#63166A"/>
<stop offset="0.702487" stop-color="#A4267B"/>
<stop offset="0.848653" stop-color="#DB327C"/>
<stop offset="1" stop-color="#EB4B46"/>
</linearGradient>
<linearGradient id="paint17_linear_7014_28613" x1="-152.922" y1="224.776" x2="602.326" y2="224.776" gradientUnits="userSpaceOnUse">
<stop stop-color="#131D56"/>
<stop offset="0.269162" stop-color="#33145D"/>
<stop offset="0.522689" stop-color="#63166A"/>
<stop offset="0.702487" stop-color="#A4267B"/>
<stop offset="0.848653" stop-color="#DB327C"/>
<stop offset="1" stop-color="#EB4B46"/>
</linearGradient>
<linearGradient id="paint18_linear_7014_28613" x1="-152.922" y1="224.776" x2="602.326" y2="224.776" gradientUnits="userSpaceOnUse">
<stop stop-color="#131D56"/>
<stop offset="0.269162" stop-color="#33145D"/>
<stop offset="0.522689" stop-color="#63166A"/>
<stop offset="0.702487" stop-color="#A4267B"/>
<stop offset="0.848653" stop-color="#DB327C"/>
<stop offset="1" stop-color="#EB4B46"/>
</linearGradient>
<linearGradient id="paint19_linear_7014_28613" x1="-152.922" y1="224.776" x2="602.326" y2="224.776" gradientUnits="userSpaceOnUse">
<stop stop-color="#131D56"/>
<stop offset="0.269162" stop-color="#33145D"/>
<stop offset="0.522689" stop-color="#63166A"/>
<stop offset="0.702487" stop-color="#A4267B"/>
<stop offset="0.848653" stop-color="#DB327C"/>
<stop offset="1" stop-color="#EB4B46"/>
</linearGradient>
<linearGradient id="paint20_linear_7014_28613" x1="-152.922" y1="224.776" x2="602.326" y2="224.776" gradientUnits="userSpaceOnUse">
<stop stop-color="#131D56"/>
<stop offset="0.269162" stop-color="#33145D"/>
<stop offset="0.522689" stop-color="#63166A"/>
<stop offset="0.702487" stop-color="#A4267B"/>
<stop offset="0.848653" stop-color="#DB327C"/>
<stop offset="1" stop-color="#EB4B46"/>
</linearGradient>
<linearGradient id="paint21_linear_7014_28613" x1="-152.922" y1="224.776" x2="602.326" y2="224.776" gradientUnits="userSpaceOnUse">
<stop stop-color="#131D56"/>
<stop offset="0.269162" stop-color="#33145D"/>
<stop offset="0.522689" stop-color="#63166A"/>
<stop offset="0.702487" stop-color="#A4267B"/>
<stop offset="0.848653" stop-color="#DB327C"/>
<stop offset="1" stop-color="#EB4B46"/>
</linearGradient>
<linearGradient id="paint22_linear_7014_28613" x1="-152.922" y1="224.776" x2="602.326" y2="224.776" gradientUnits="userSpaceOnUse">
<stop stop-color="#131D56"/>
<stop offset="0.269162" stop-color="#33145D"/>
<stop offset="0.522689" stop-color="#63166A"/>
<stop offset="0.702487" stop-color="#A4267B"/>
<stop offset="0.848653" stop-color="#DB327C"/>
<stop offset="1" stop-color="#EB4B46"/>
</linearGradient>
<linearGradient id="paint23_linear_7014_28613" x1="-152.922" y1="224.776" x2="602.326" y2="224.776" gradientUnits="userSpaceOnUse">
<stop stop-color="#131D56"/>
<stop offset="0.269162" stop-color="#33145D"/>
<stop offset="0.522689" stop-color="#63166A"/>
<stop offset="0.702487" stop-color="#A4267B"/>
<stop offset="0.848653" stop-color="#DB327C"/>
<stop offset="1" stop-color="#EB4B46"/>
</linearGradient>
<linearGradient id="paint24_linear_7014_28613" x1="-152.922" y1="224.776" x2="602.326" y2="224.776" gradientUnits="userSpaceOnUse">
<stop stop-color="#131D56"/>
<stop offset="0.269162" stop-color="#33145D"/>
<stop offset="0.522689" stop-color="#63166A"/>
<stop offset="0.702487" stop-color="#A4267B"/>
<stop offset="0.848653" stop-color="#DB327C"/>
<stop offset="1" stop-color="#EB4B46"/>
</linearGradient>
<linearGradient id="paint25_linear_7014_28613" x1="-152.922" y1="224.776" x2="602.326" y2="224.776" gradientUnits="userSpaceOnUse">
<stop stop-color="#131D56"/>
<stop offset="0.269162" stop-color="#33145D"/>
<stop offset="0.522689" stop-color="#63166A"/>
<stop offset="0.702487" stop-color="#A4267B"/>
<stop offset="0.848653" stop-color="#DB327C"/>
<stop offset="1" stop-color="#EB4B46"/>
</linearGradient>
<linearGradient id="paint26_linear_7014_28613" x1="-152.922" y1="224.776" x2="602.326" y2="224.776" gradientUnits="userSpaceOnUse">
<stop stop-color="#131D56"/>
<stop offset="0.269162" stop-color="#33145D"/>
<stop offset="0.522689" stop-color="#63166A"/>
<stop offset="0.702487" stop-color="#A4267B"/>
<stop offset="0.848653" stop-color="#DB327C"/>
<stop offset="1" stop-color="#EB4B46"/>
</linearGradient>
<linearGradient id="paint27_linear_7014_28613" x1="-152.922" y1="224.776" x2="602.326" y2="224.776" gradientUnits="userSpaceOnUse">
<stop stop-color="#131D56"/>
<stop offset="0.269162" stop-color="#33145D"/>
<stop offset="0.522689" stop-color="#63166A"/>
<stop offset="0.702487" stop-color="#A4267B"/>
<stop offset="0.848653" stop-color="#DB327C"/>
<stop offset="1" stop-color="#EB4B46"/>
</linearGradient>
<linearGradient id="paint28_linear_7014_28613" x1="-152.922" y1="224.776" x2="602.326" y2="224.776" gradientUnits="userSpaceOnUse">
<stop stop-color="#131D56"/>
<stop offset="0.269162" stop-color="#33145D"/>
<stop offset="0.522689" stop-color="#63166A"/>
<stop offset="0.702487" stop-color="#A4267B"/>
<stop offset="0.848653" stop-color="#DB327C"/>
<stop offset="1" stop-color="#EB4B46"/>
</linearGradient>
<linearGradient id="paint29_linear_7014_28613" x1="-152.922" y1="224.776" x2="602.326" y2="224.776" gradientUnits="userSpaceOnUse">
<stop stop-color="#131D56"/>
<stop offset="0.269162" stop-color="#33145D"/>
<stop offset="0.522689" stop-color="#63166A"/>
<stop offset="0.702487" stop-color="#A4267B"/>
<stop offset="0.848653" stop-color="#DB327C"/>
<stop offset="1" stop-color="#EB4B46"/>
</linearGradient>
<linearGradient id="paint30_linear_7014_28613" x1="-152.922" y1="224.776" x2="602.326" y2="224.776" gradientUnits="userSpaceOnUse">
<stop stop-color="#131D56"/>
<stop offset="0.269162" stop-color="#33145D"/>
<stop offset="0.522689" stop-color="#63166A"/>
<stop offset="0.702487" stop-color="#A4267B"/>
<stop offset="0.848653" stop-color="#DB327C"/>
<stop offset="1" stop-color="#EB4B46"/>
</linearGradient>
<linearGradient id="paint31_linear_7014_28613" x1="-152.922" y1="224.776" x2="602.326" y2="224.776" gradientUnits="userSpaceOnUse">
<stop stop-color="#131D56"/>
<stop offset="0.269162" stop-color="#33145D"/>
<stop offset="0.522689" stop-color="#63166A"/>
<stop offset="0.702487" stop-color="#A4267B"/>
<stop offset="0.848653" stop-color="#DB327C"/>
<stop offset="1" stop-color="#EB4B46"/>
</linearGradient>
<linearGradient id="paint32_linear_7014_28613" x1="-152.922" y1="224.776" x2="602.326" y2="224.776" gradientUnits="userSpaceOnUse">
<stop stop-color="#131D56"/>
<stop offset="0.269162" stop-color="#33145D"/>
<stop offset="0.522689" stop-color="#63166A"/>
<stop offset="0.702487" stop-color="#A4267B"/>
<stop offset="0.848653" stop-color="#DB327C"/>
<stop offset="1" stop-color="#EB4B46"/>
</linearGradient>
<linearGradient id="paint33_linear_7014_28613" x1="-152.922" y1="224.776" x2="602.326" y2="224.776" gradientUnits="userSpaceOnUse">
<stop stop-color="#131D56"/>
<stop offset="0.269162" stop-color="#33145D"/>
<stop offset="0.522689" stop-color="#63166A"/>
<stop offset="0.702487" stop-color="#A4267B"/>
<stop offset="0.848653" stop-color="#DB327C"/>
<stop offset="1" stop-color="#EB4B46"/>
</linearGradient>
<linearGradient id="paint34_linear_7014_28613" x1="-152.922" y1="224.776" x2="602.326" y2="224.776" gradientUnits="userSpaceOnUse">
<stop stop-color="#131D56"/>
<stop offset="0.269162" stop-color="#33145D"/>
<stop offset="0.522689" stop-color="#63166A"/>
<stop offset="0.702487" stop-color="#A4267B"/>
<stop offset="0.848653" stop-color="#DB327C"/>
<stop offset="1" stop-color="#EB4B46"/>
</linearGradient>
<linearGradient id="paint35_linear_7014_28613" x1="-152.922" y1="224.776" x2="602.326" y2="224.776" gradientUnits="userSpaceOnUse">
<stop stop-color="#131D56"/>
<stop offset="0.269162" stop-color="#33145D"/>
<stop offset="0.522689" stop-color="#63166A"/>
<stop offset="0.702487" stop-color="#A4267B"/>
<stop offset="0.848653" stop-color="#DB327C"/>
<stop offset="1" stop-color="#EB4B46"/>
</linearGradient>
<linearGradient id="paint36_linear_7014_28613" x1="-152.922" y1="224.776" x2="602.326" y2="224.776" gradientUnits="userSpaceOnUse">
<stop stop-color="#131D56"/>
<stop offset="0.269162" stop-color="#33145D"/>
<stop offset="0.522689" stop-color="#63166A"/>
<stop offset="0.702487" stop-color="#A4267B"/>
<stop offset="0.848653" stop-color="#DB327C"/>
<stop offset="1" stop-color="#EB4B46"/>
</linearGradient>
<linearGradient id="paint37_linear_7014_28613" x1="-152.922" y1="224.776" x2="602.326" y2="224.776" gradientUnits="userSpaceOnUse">
<stop stop-color="#131D56"/>
<stop offset="0.269162" stop-color="#33145D"/>
<stop offset="0.522689" stop-color="#63166A"/>
<stop offset="0.702487" stop-color="#A4267B"/>
<stop offset="0.848653" stop-color="#DB327C"/>
<stop offset="1" stop-color="#EB4B46"/>
</linearGradient>
<linearGradient id="paint38_linear_7014_28613" x1="-152.922" y1="224.776" x2="602.326" y2="224.776" gradientUnits="userSpaceOnUse">
<stop stop-color="#131D56"/>
<stop offset="0.269162" stop-color="#33145D"/>
<stop offset="0.522689" stop-color="#63166A"/>
<stop offset="0.702487" stop-color="#A4267B"/>
<stop offset="0.848653" stop-color="#DB327C"/>
<stop offset="1" stop-color="#EB4B46"/>
</linearGradient>
<linearGradient id="paint39_linear_7014_28613" x1="-152.922" y1="224.776" x2="602.326" y2="224.776" gradientUnits="userSpaceOnUse">
<stop stop-color="#131D56"/>
<stop offset="0.269162" stop-color="#33145D"/>
<stop offset="0.522689" stop-color="#63166A"/>
<stop offset="0.702487" stop-color="#A4267B"/>
<stop offset="0.848653" stop-color="#DB327C"/>
<stop offset="1" stop-color="#EB4B46"/>
</linearGradient>
<linearGradient id="paint40_linear_7014_28613" x1="-152.922" y1="224.776" x2="602.326" y2="224.776" gradientUnits="userSpaceOnUse">
<stop stop-color="#131D56"/>
<stop offset="0.269162" stop-color="#33145D"/>
<stop offset="0.522689" stop-color="#63166A"/>
<stop offset="0.702487" stop-color="#A4267B"/>
<stop offset="0.848653" stop-color="#DB327C"/>
<stop offset="1" stop-color="#EB4B46"/>
</linearGradient>
<linearGradient id="paint41_linear_7014_28613" x1="-152.922" y1="224.776" x2="602.326" y2="224.776" gradientUnits="userSpaceOnUse">
<stop stop-color="#131D56"/>
<stop offset="0.269162" stop-color="#33145D"/>
<stop offset="0.522689" stop-color="#63166A"/>
<stop offset="0.702487" stop-color="#A4267B"/>
<stop offset="0.848653" stop-color="#DB327C"/>
<stop offset="1" stop-color="#EB4B46"/>
</linearGradient>
<linearGradient id="paint42_linear_7014_28613" x1="-152.922" y1="224.776" x2="602.326" y2="224.776" gradientUnits="userSpaceOnUse">
<stop stop-color="#131D56"/>
<stop offset="0.269162" stop-color="#33145D"/>
<stop offset="0.522689" stop-color="#63166A"/>
<stop offset="0.702487" stop-color="#A4267B"/>
<stop offset="0.848653" stop-color="#DB327C"/>
<stop offset="1" stop-color="#EB4B46"/>
</linearGradient>
<linearGradient id="paint43_linear_7014_28613" x1="-152.922" y1="224.776" x2="602.326" y2="224.776" gradientUnits="userSpaceOnUse">
<stop stop-color="#131D56"/>
<stop offset="0.269162" stop-color="#33145D"/>
<stop offset="0.522689" stop-color="#63166A"/>
<stop offset="0.702487" stop-color="#A4267B"/>
<stop offset="0.848653" stop-color="#DB327C"/>
<stop offset="1" stop-color="#EB4B46"/>
</linearGradient>
<linearGradient id="paint44_linear_7014_28613" x1="-152.922" y1="224.776" x2="602.326" y2="224.776" gradientUnits="userSpaceOnUse">
<stop stop-color="#131D56"/>
<stop offset="0.269162" stop-color="#33145D"/>
<stop offset="0.522689" stop-color="#63166A"/>
<stop offset="0.702487" stop-color="#A4267B"/>
<stop offset="0.848653" stop-color="#DB327C"/>
<stop offset="1" stop-color="#EB4B46"/>
</linearGradient>
<linearGradient id="paint45_linear_7014_28613" x1="-152.922" y1="224.776" x2="602.326" y2="224.776" gradientUnits="userSpaceOnUse">
<stop stop-color="#131D56"/>
<stop offset="0.269162" stop-color="#33145D"/>
<stop offset="0.522689" stop-color="#63166A"/>
<stop offset="0.702487" stop-color="#A4267B"/>
<stop offset="0.848653" stop-color="#DB327C"/>
<stop offset="1" stop-color="#EB4B46"/>
</linearGradient>
<linearGradient id="paint46_linear_7014_28613" x1="-152.922" y1="224.776" x2="602.326" y2="224.776" gradientUnits="userSpaceOnUse">
<stop stop-color="#131D56"/>
<stop offset="0.269162" stop-color="#33145D"/>
<stop offset="0.522689" stop-color="#63166A"/>
<stop offset="0.702487" stop-color="#A4267B"/>
<stop offset="0.848653" stop-color="#DB327C"/>
<stop offset="1" stop-color="#EB4B46"/>
</linearGradient>
<linearGradient id="paint47_linear_7014_28613" x1="-152.922" y1="224.776" x2="602.326" y2="224.776" gradientUnits="userSpaceOnUse">
<stop stop-color="#131D56"/>
<stop offset="0.269162" stop-color="#33145D"/>
<stop offset="0.522689" stop-color="#63166A"/>
<stop offset="0.702487" stop-color="#A4267B"/>
<stop offset="0.848653" stop-color="#DB327C"/>
<stop offset="1" stop-color="#EB4B46"/>
</linearGradient>
<linearGradient id="paint48_linear_7014_28613" x1="-152.922" y1="224.776" x2="602.326" y2="224.776" gradientUnits="userSpaceOnUse">
<stop stop-color="#131D56"/>
<stop offset="0.269162" stop-color="#33145D"/>
<stop offset="0.522689" stop-color="#63166A"/>
<stop offset="0.702487" stop-color="#A4267B"/>
<stop offset="0.848653" stop-color="#DB327C"/>
<stop offset="1" stop-color="#EB4B46"/>
</linearGradient>
<linearGradient id="paint49_linear_7014_28613" x1="-152.922" y1="224.776" x2="602.326" y2="224.776" gradientUnits="userSpaceOnUse">
<stop stop-color="#131D56"/>
<stop offset="0.269162" stop-color="#33145D"/>
<stop offset="0.522689" stop-color="#63166A"/>
<stop offset="0.702487" stop-color="#A4267B"/>
<stop offset="0.848653" stop-color="#DB327C"/>
<stop offset="1" stop-color="#EB4B46"/>
</linearGradient>
<linearGradient id="paint50_linear_7014_28613" x1="-152.922" y1="224.776" x2="602.326" y2="224.776" gradientUnits="userSpaceOnUse">
<stop stop-color="#131D56"/>
<stop offset="0.269162" stop-color="#33145D"/>
<stop offset="0.522689" stop-color="#63166A"/>
<stop offset="0.702487" stop-color="#A4267B"/>
<stop offset="0.848653" stop-color="#DB327C"/>
<stop offset="1" stop-color="#EB4B46"/>
</linearGradient>
<linearGradient id="paint51_linear_7014_28613" x1="-152.922" y1="224.776" x2="602.326" y2="224.776" gradientUnits="userSpaceOnUse">
<stop stop-color="#131D56"/>
<stop offset="0.269162" stop-color="#33145D"/>
<stop offset="0.522689" stop-color="#63166A"/>
<stop offset="0.702487" stop-color="#A4267B"/>
<stop offset="0.848653" stop-color="#DB327C"/>
<stop offset="1" stop-color="#EB4B46"/>
</linearGradient>
<linearGradient id="paint52_linear_7014_28613" x1="-152.922" y1="224.776" x2="602.326" y2="224.776" gradientUnits="userSpaceOnUse">
<stop stop-color="#131D56"/>
<stop offset="0.269162" stop-color="#33145D"/>
<stop offset="0.522689" stop-color="#63166A"/>
<stop offset="0.702487" stop-color="#A4267B"/>
<stop offset="0.848653" stop-color="#DB327C"/>
<stop offset="1" stop-color="#EB4B46"/>
</linearGradient>
<linearGradient id="paint53_linear_7014_28613" x1="-152.922" y1="224.776" x2="602.326" y2="224.776" gradientUnits="userSpaceOnUse">
<stop stop-color="#131D56"/>
<stop offset="0.269162" stop-color="#33145D"/>
<stop offset="0.522689" stop-color="#63166A"/>
<stop offset="0.702487" stop-color="#A4267B"/>
<stop offset="0.848653" stop-color="#DB327C"/>
<stop offset="1" stop-color="#EB4B46"/>
</linearGradient>
<linearGradient id="paint54_linear_7014_28613" x1="-152.922" y1="224.776" x2="602.326" y2="224.776" gradientUnits="userSpaceOnUse">
<stop stop-color="#131D56"/>
<stop offset="0.269162" stop-color="#33145D"/>
<stop offset="0.522689" stop-color="#63166A"/>
<stop offset="0.702487" stop-color="#A4267B"/>
<stop offset="0.848653" stop-color="#DB327C"/>
<stop offset="1" stop-color="#EB4B46"/>
</linearGradient>
<linearGradient id="paint55_linear_7014_28613" x1="-152.922" y1="224.776" x2="602.326" y2="224.776" gradientUnits="userSpaceOnUse">
<stop stop-color="#131D56"/>
<stop offset="0.269162" stop-color="#33145D"/>
<stop offset="0.522689" stop-color="#63166A"/>
<stop offset="0.702487" stop-color="#A4267B"/>
<stop offset="0.848653" stop-color="#DB327C"/>
<stop offset="1" stop-color="#EB4B46"/>
</linearGradient>
<linearGradient id="paint56_linear_7014_28613" x1="-152.922" y1="224.776" x2="602.326" y2="224.776" gradientUnits="userSpaceOnUse">
<stop stop-color="#131D56"/>
<stop offset="0.269162" stop-color="#33145D"/>
<stop offset="0.522689" stop-color="#63166A"/>
<stop offset="0.702487" stop-color="#A4267B"/>
<stop offset="0.848653" stop-color="#DB327C"/>
<stop offset="1" stop-color="#EB4B46"/>
</linearGradient>
<linearGradient id="paint57_linear_7014_28613" x1="-152.922" y1="224.776" x2="602.326" y2="224.776" gradientUnits="userSpaceOnUse">
<stop stop-color="#131D56"/>
<stop offset="0.269162" stop-color="#33145D"/>
<stop offset="0.522689" stop-color="#63166A"/>
<stop offset="0.702487" stop-color="#A4267B"/>
<stop offset="0.848653" stop-color="#DB327C"/>
<stop offset="1" stop-color="#EB4B46"/>
</linearGradient>
<linearGradient id="paint58_linear_7014_28613" x1="-152.922" y1="224.776" x2="602.326" y2="224.776" gradientUnits="userSpaceOnUse">
<stop stop-color="#131D56"/>
<stop offset="0.269162" stop-color="#33145D"/>
<stop offset="0.522689" stop-color="#63166A"/>
<stop offset="0.702487" stop-color="#A4267B"/>
<stop offset="0.848653" stop-color="#DB327C"/>
<stop offset="1" stop-color="#EB4B46"/>
</linearGradient>
<linearGradient id="paint59_linear_7014_28613" x1="-152.922" y1="224.776" x2="602.326" y2="224.776" gradientUnits="userSpaceOnUse">
<stop stop-color="#131D56"/>
<stop offset="0.269162" stop-color="#33145D"/>
<stop offset="0.522689" stop-color="#63166A"/>
<stop offset="0.702487" stop-color="#A4267B"/>
<stop offset="0.848653" stop-color="#DB327C"/>
<stop offset="1" stop-color="#EB4B46"/>
</linearGradient>
<linearGradient id="paint60_linear_7014_28613" x1="-152.922" y1="224.776" x2="602.326" y2="224.776" gradientUnits="userSpaceOnUse">
<stop stop-color="#131D56"/>
<stop offset="0.269162" stop-color="#33145D"/>
<stop offset="0.522689" stop-color="#63166A"/>
<stop offset="0.702487" stop-color="#A4267B"/>
<stop offset="0.848653" stop-color="#DB327C"/>
<stop offset="1" stop-color="#EB4B46"/>
</linearGradient>
<linearGradient id="paint61_linear_7014_28613" x1="-152.922" y1="224.776" x2="602.326" y2="224.776" gradientUnits="userSpaceOnUse">
<stop stop-color="#131D56"/>
<stop offset="0.269162" stop-color="#33145D"/>
<stop offset="0.522689" stop-color="#63166A"/>
<stop offset="0.702487" stop-color="#A4267B"/>
<stop offset="0.848653" stop-color="#DB327C"/>
<stop offset="1" stop-color="#EB4B46"/>
</linearGradient>
<linearGradient id="paint62_linear_7014_28613" x1="-152.922" y1="224.776" x2="602.326" y2="224.776" gradientUnits="userSpaceOnUse">
<stop stop-color="#131D56"/>
<stop offset="0.269162" stop-color="#33145D"/>
<stop offset="0.522689" stop-color="#63166A"/>
<stop offset="0.702487" stop-color="#A4267B"/>
<stop offset="0.848653" stop-color="#DB327C"/>
<stop offset="1" stop-color="#EB4B46"/>
</linearGradient>
<linearGradient id="paint63_linear_7014_28613" x1="-152.922" y1="224.776" x2="602.326" y2="224.776" gradientUnits="userSpaceOnUse">
<stop stop-color="#131D56"/>
<stop offset="0.269162" stop-color="#33145D"/>
<stop offset="0.522689" stop-color="#63166A"/>
<stop offset="0.702487" stop-color="#A4267B"/>
<stop offset="0.848653" stop-color="#DB327C"/>
<stop offset="1" stop-color="#EB4B46"/>
</linearGradient>
<linearGradient id="paint64_linear_7014_28613" x1="-152.922" y1="224.776" x2="602.326" y2="224.776" gradientUnits="userSpaceOnUse">
<stop stop-color="#131D56"/>
<stop offset="0.269162" stop-color="#33145D"/>
<stop offset="0.522689" stop-color="#63166A"/>
<stop offset="0.702487" stop-color="#A4267B"/>
<stop offset="0.848653" stop-color="#DB327C"/>
<stop offset="1" stop-color="#EB4B46"/>
</linearGradient>
<linearGradient id="paint65_linear_7014_28613" x1="-152.922" y1="224.776" x2="602.326" y2="224.776" gradientUnits="userSpaceOnUse">
<stop stop-color="#131D56"/>
<stop offset="0.269162" stop-color="#33145D"/>
<stop offset="0.522689" stop-color="#63166A"/>
<stop offset="0.702487" stop-color="#A4267B"/>
<stop offset="0.848653" stop-color="#DB327C"/>
<stop offset="1" stop-color="#EB4B46"/>
</linearGradient>
<linearGradient id="paint66_linear_7014_28613" x1="-152.922" y1="224.776" x2="602.326" y2="224.776" gradientUnits="userSpaceOnUse">
<stop stop-color="#131D56"/>
<stop offset="0.269162" stop-color="#33145D"/>
<stop offset="0.522689" stop-color="#63166A"/>
<stop offset="0.702487" stop-color="#A4267B"/>
<stop offset="0.848653" stop-color="#DB327C"/>
<stop offset="1" stop-color="#EB4B46"/>
</linearGradient>
<linearGradient id="paint67_linear_7014_28613" x1="-152.922" y1="224.776" x2="602.326" y2="224.776" gradientUnits="userSpaceOnUse">
<stop stop-color="#131D56"/>
<stop offset="0.269162" stop-color="#33145D"/>
<stop offset="0.522689" stop-color="#63166A"/>
<stop offset="0.702487" stop-color="#A4267B"/>
<stop offset="0.848653" stop-color="#DB327C"/>
<stop offset="1" stop-color="#EB4B46"/>
</linearGradient>
<linearGradient id="paint68_linear_7014_28613" x1="-152.922" y1="224.776" x2="602.326" y2="224.776" gradientUnits="userSpaceOnUse">
<stop stop-color="#131D56"/>
<stop offset="0.269162" stop-color="#33145D"/>
<stop offset="0.522689" stop-color="#63166A"/>
<stop offset="0.702487" stop-color="#A4267B"/>
<stop offset="0.848653" stop-color="#DB327C"/>
<stop offset="1" stop-color="#EB4B46"/>
</linearGradient>
<linearGradient id="paint69_linear_7014_28613" x1="-152.922" y1="224.776" x2="602.326" y2="224.776" gradientUnits="userSpaceOnUse">
<stop stop-color="#131D56"/>
<stop offset="0.269162" stop-color="#33145D"/>
<stop offset="0.522689" stop-color="#63166A"/>
<stop offset="0.702487" stop-color="#A4267B"/>
<stop offset="0.848653" stop-color="#DB327C"/>
<stop offset="1" stop-color="#EB4B46"/>
</linearGradient>
<linearGradient id="paint70_linear_7014_28613" x1="-152.922" y1="224.776" x2="602.326" y2="224.776" gradientUnits="userSpaceOnUse">
<stop stop-color="#131D56"/>
<stop offset="0.269162" stop-color="#33145D"/>
<stop offset="0.522689" stop-color="#63166A"/>
<stop offset="0.702487" stop-color="#A4267B"/>
<stop offset="0.848653" stop-color="#DB327C"/>
<stop offset="1" stop-color="#EB4B46"/>
</linearGradient>
<linearGradient id="paint71_linear_7014_28613" x1="-152.922" y1="224.776" x2="602.326" y2="224.776" gradientUnits="userSpaceOnUse">
<stop stop-color="#131D56"/>
<stop offset="0.269162" stop-color="#33145D"/>
<stop offset="0.522689" stop-color="#63166A"/>
<stop offset="0.702487" stop-color="#A4267B"/>
<stop offset="0.848653" stop-color="#DB327C"/>
<stop offset="1" stop-color="#EB4B46"/>
</linearGradient>
<linearGradient id="paint72_linear_7014_28613" x1="-152.922" y1="224.776" x2="602.326" y2="224.776" gradientUnits="userSpaceOnUse">
<stop stop-color="#131D56"/>
<stop offset="0.269162" stop-color="#33145D"/>
<stop offset="0.522689" stop-color="#63166A"/>
<stop offset="0.702487" stop-color="#A4267B"/>
<stop offset="0.848653" stop-color="#DB327C"/>
<stop offset="1" stop-color="#EB4B46"/>
</linearGradient>
</defs>
</svg>
