<svg width="84" height="24" viewBox="0 0 84 24" fill="none" xmlns="http://www.w3.org/2000/svg">
<path d="M47.5859 8.10381C47.5859 5.66781 47.6279 3.3998 47.7539 1.2998L41.3279 2.5178V3.1058L41.9579 3.1898C42.4199 3.2318 42.7139 3.3998 42.8819 3.6518C43.0499 3.9458 43.1759 4.3658 43.2599 4.99581C43.3439 6.21381 43.4279 8.98581 43.3859 13.3538C43.3859 17.6798 43.3439 20.4098 43.2599 21.4598C45.5699 21.9638 47.3759 22.1738 48.7199 22.1738C51.2399 22.1738 53.2139 21.4598 54.6419 19.9898C56.0699 18.5618 56.8259 16.5458 56.8259 14.0678C56.8259 12.0938 56.2799 10.4558 55.1879 9.15381C54.0959 7.85181 52.7099 7.22181 51.0719 7.22181C49.9799 7.22181 48.8459 7.51581 47.5859 8.10381ZM47.7119 21.0398C47.6279 19.6958 47.5439 15.6638 47.5439 9.06981C47.9219 8.94381 48.4259 8.85981 49.0559 8.85981C50.0639 8.85981 50.8619 9.36381 51.4499 10.4138C52.0379 11.4638 52.3319 12.7238 52.3319 14.3198C52.3319 16.2938 51.9959 17.8898 51.3239 19.2338C50.6519 20.5358 49.8119 21.2078 48.7619 21.2078C48.4259 21.1238 48.0899 21.0818 47.7119 21.0398ZM17.2199 1.7198H0.419922V2.5598L1.30192 2.6438C1.97392 2.7698 2.43592 3.0218 2.72992 3.3998C3.02392 3.8198 3.19192 4.4918 3.23392 5.4158C3.56992 9.95181 3.56992 14.1938 3.23392 18.0998C3.14992 19.0238 2.98192 19.6958 2.72992 20.1158C2.43592 20.5358 1.97392 20.7878 1.30192 20.8718L0.419922 20.9978V21.8378H11.2559V20.9978L10.1219 20.9138C9.44992 20.8298 8.98792 20.5358 8.69392 20.1578C8.39992 19.7378 8.23192 19.0658 8.18992 18.1418C8.06392 16.4618 7.97992 14.5298 7.97992 12.3878L10.2479 12.4298C11.4659 12.4718 12.3059 13.3958 12.7259 15.2438H13.5659V8.3978H12.7259C12.3059 10.2038 11.5079 11.1278 10.2479 11.1698L7.97992 11.2118C7.97992 7.43181 8.06392 4.7438 8.18992 3.1058H11.5079C13.8599 3.1058 15.4559 4.61781 16.3799 7.64181L17.3879 7.3478L17.2199 1.7198ZM15.2459 14.6558C15.2459 16.8398 15.8759 18.6458 17.0939 20.0738C18.3119 21.5018 20.1179 22.1738 22.3859 22.1738C24.6539 22.1738 26.5019 21.4598 27.8459 19.9898C29.1899 18.5618 29.8199 16.7558 29.8199 14.5718C29.8199 12.3878 29.1899 10.5818 27.9719 9.15381C26.7539 7.72581 24.9479 7.0538 22.6799 7.0538C20.4119 7.0538 18.5639 7.7678 17.2199 9.2378C15.8759 10.6658 15.2459 12.4718 15.2459 14.6558ZM24.6119 9.8678C25.1159 11.0858 25.3259 12.6818 25.3259 14.6138C25.3259 19.0658 24.4019 21.2498 22.5959 21.2498C21.6719 21.2498 20.9579 20.6198 20.4539 19.3598C19.9499 18.0998 19.7399 16.5038 19.7399 14.6138C19.7399 10.2038 20.6639 8.0198 22.4699 8.0198C23.3939 7.97781 24.1079 8.6078 24.6119 9.8678ZM60.1019 20.0738C61.4879 21.4598 63.2519 22.1738 65.3519 22.1738C66.6539 22.1738 67.7879 21.9218 68.7959 21.3758C69.8039 20.8718 70.6019 20.2418 71.1479 19.4858L70.7279 18.9818C69.8039 19.6958 68.7539 20.0318 67.5359 20.0318C65.8559 20.0318 64.5539 19.4858 63.6719 18.3518C62.7479 17.2178 62.3279 15.7898 62.4119 13.9418H71.3999C71.3999 11.9258 70.8959 10.2878 69.8459 8.9858C68.7959 7.7258 67.3259 7.09581 65.4359 7.09581C63.0839 7.09581 61.2779 7.85181 59.9759 9.32181C58.6739 10.7918 58.0439 12.5978 58.0439 14.7398C58.0439 16.9238 58.7159 18.6878 60.1019 20.0738ZM63.2099 9.53181C63.6719 8.52381 64.2599 8.0198 65.0579 8.0198C66.3179 8.0198 66.9479 9.6158 66.9479 12.8498L62.4959 12.9338C62.5379 11.6738 62.7479 10.5398 63.2099 9.53181ZM82.6979 7.85181C81.5639 7.34781 80.1359 7.0538 78.4139 7.0538C76.6499 7.0538 75.2639 7.5158 74.2139 8.3978C73.1639 9.2798 72.6179 10.3718 72.6179 11.6738C72.6179 12.8078 72.9539 13.6898 73.5839 14.3198C74.2139 14.9498 75.2219 15.4958 76.5239 15.9578C77.6999 16.3778 78.5399 16.7978 78.9599 17.1758C79.3799 17.5958 79.6319 18.0578 79.6319 18.6878C79.6319 19.2758 79.4219 19.8218 78.9599 20.2418C78.5399 20.7038 77.9519 20.9138 77.1959 20.9138C75.3479 20.9138 73.9619 19.5698 72.9959 16.8818L72.2819 17.0918L72.4499 21.2918C73.9619 21.8798 75.6419 22.1738 77.4899 22.1738C79.4219 22.1738 80.8919 21.7538 81.9839 20.8718C83.0759 20.0318 83.6219 18.8138 83.6219 17.3018C83.6219 16.2938 83.3699 15.4538 82.8239 14.8238C82.2779 14.1938 81.3959 13.6478 80.1359 13.1438C78.7499 12.6398 77.7839 12.1778 77.2799 11.7578C76.7759 11.3378 76.5239 10.8338 76.5239 10.2038C76.5239 9.57381 76.6919 9.06981 77.0699 8.64981C77.4479 8.2298 77.9099 8.06181 78.4979 8.06181C80.1779 8.06181 81.3959 9.27981 82.1519 11.6738L82.8659 11.4638L82.6979 7.85181ZM42.2939 7.47381C41.7059 7.17981 41.0759 7.0538 40.3619 7.0538C39.6479 7.0538 38.9339 7.3478 38.1359 7.9358C37.3379 8.5238 36.7499 9.32181 36.2879 10.4138L36.3299 7.0538L29.9459 8.31381V8.9018L30.5759 8.94381C31.3739 9.02781 31.8359 9.65781 31.9199 10.7918C32.1719 13.3958 32.1719 16.1678 31.9199 19.1078C31.8359 20.2418 31.3739 20.8298 30.5759 20.9558L29.9459 21.0398V21.8378H38.8499V21.0398L37.7159 20.9558C36.9179 20.8718 36.4559 20.2418 36.3719 19.1078C36.1199 16.6718 36.0779 14.0678 36.2879 11.3798C36.5399 10.9598 37.0859 10.7078 37.9259 10.6238C38.7659 10.5398 39.7319 10.7918 40.7399 11.3798L42.2939 7.47381Z" fill="white"/>
</svg>
