<svg width="50" height="50" viewBox="0 0 50 50" fill="none" xmlns="http://www.w3.org/2000/svg">
<rect width="50" height="50" rx="4" fill="#FFF5FA"/>
<g clip-path="url(#clip0_7016_30819)">
<path d="M38.2942 13.0029H20.2535C19.5358 13.0029 18.8474 13.288 18.34 13.7955C17.8325 14.303 17.5474 14.9913 17.5474 15.709V23.8274H13.0372C12.3195 23.8274 11.6312 24.1125 11.1237 24.62C10.6162 25.1275 10.3311 25.8158 10.3311 26.5335V35.5539C10.3311 36.75 10.8062 37.8972 11.6521 38.743C12.4979 39.5889 13.6451 40.064 14.8412 40.064H36.4901C37.6863 40.064 38.8335 39.5889 39.6793 38.743C40.5251 37.8972 41.0003 36.75 41.0003 35.5539V15.709C41.0003 14.9913 40.7152 14.303 40.2077 13.7955C39.7002 13.288 39.0119 13.0029 38.2942 13.0029ZM14.8412 38.26C14.1235 38.26 13.4352 37.9749 12.9277 37.4674C12.4202 36.9599 12.1351 36.2716 12.1351 35.5539V26.5335C12.1351 26.2943 12.2302 26.0648 12.3993 25.8957C12.5685 25.7265 12.7979 25.6315 13.0372 25.6315H17.5474V35.5539C17.5474 36.2716 17.2622 36.9599 16.7548 37.4674C16.2473 37.9749 15.5589 38.26 14.8412 38.26ZM39.1962 35.5539C39.1962 36.2716 38.9111 36.9599 38.4036 37.4674C37.8962 37.9749 37.2078 38.26 36.4901 38.26H18.4494C19.0362 37.48 19.3529 36.53 19.3514 35.5539V15.709C19.3514 15.4698 19.4465 15.2404 19.6156 15.0712C19.7848 14.902 20.0142 14.807 20.2535 14.807H38.2942C38.5334 14.807 38.7629 14.902 38.932 15.0712C39.1012 15.2404 39.1962 15.4698 39.1962 15.709V35.5539ZM24.7637 18.4152C24.7637 18.1759 24.8587 17.9465 25.0279 17.7773C25.197 17.6082 25.4265 17.5131 25.6657 17.5131H32.882C33.1212 17.5131 33.3507 17.6082 33.5198 17.7773C33.689 17.9465 33.784 18.1759 33.784 18.4152C33.784 18.6544 33.689 18.8838 33.5198 19.053C33.3507 19.2222 33.1212 19.3172 32.882 19.3172H25.6657C25.4265 19.3172 25.197 19.2222 25.0279 19.053C24.8587 18.8838 24.7637 18.6544 24.7637 18.4152ZM34.6861 22.0233H31.9799C31.5015 22.0233 31.0426 22.2134 30.7043 22.5517C30.3659 22.89 30.1759 23.3489 30.1759 23.8274V25.6315C30.1759 26.1099 30.3659 26.5688 30.7043 26.9071C31.0426 27.2455 31.5015 27.4355 31.9799 27.4355H34.6861C35.1645 27.4355 35.6234 27.2455 35.9617 26.9071C36.3001 26.5688 36.4901 26.1099 36.4901 25.6315V23.8274C36.4901 23.3489 36.3001 22.89 35.9617 22.5517C35.6234 22.2134 35.1645 22.0233 34.6861 22.0233ZM34.6861 25.6315H31.9799V23.8274H34.6861V25.6315ZM22.0575 22.9253C22.0575 22.6861 22.1526 22.4567 22.3217 22.2875C22.4909 22.1183 22.7203 22.0233 22.9596 22.0233H27.4698C27.709 22.0233 27.9384 22.1183 28.1076 22.2875C28.2768 22.4567 28.3718 22.6861 28.3718 22.9253C28.3718 23.1646 28.2768 23.394 28.1076 23.5632C27.9384 23.7323 27.709 23.8274 27.4698 23.8274H22.9596C22.7203 23.8274 22.4909 23.7323 22.3217 23.5632C22.1526 23.394 22.0575 23.1646 22.0575 22.9253ZM22.0575 26.5335C22.0575 26.2943 22.1526 26.0648 22.3217 25.8957C22.4909 25.7265 22.7203 25.6315 22.9596 25.6315H27.4698C27.709 25.6315 27.9384 25.7265 28.1076 25.8957C28.2768 26.0648 28.3718 26.2943 28.3718 26.5335C28.3718 26.7727 28.2768 27.0022 28.1076 27.1713C27.9384 27.3405 27.709 27.4355 27.4698 27.4355H22.9596C22.7203 27.4355 22.4909 27.3405 22.3217 27.1713C22.1526 27.0022 22.0575 26.7727 22.0575 26.5335ZM36.4901 30.1416C36.4901 30.3809 36.3951 30.6103 36.2259 30.7795C36.0568 30.9486 35.8273 31.0437 35.5881 31.0437H22.9596C22.7203 31.0437 22.4909 30.9486 22.3217 30.7795C22.1526 30.6103 22.0575 30.3809 22.0575 30.1416C22.0575 29.9024 22.1526 29.673 22.3217 29.5038C22.4909 29.3346 22.7203 29.2396 22.9596 29.2396H35.5881C35.8273 29.2396 36.0568 29.3346 36.2259 29.5038C36.3951 29.673 36.4901 29.9024 36.4901 30.1416ZM36.4901 33.7498C36.4901 33.989 36.3951 34.2185 36.2259 34.3876C36.0568 34.5568 35.8273 34.6518 35.5881 34.6518H22.9596C22.7203 34.6518 22.4909 34.5568 22.3217 34.3876C22.1526 34.2185 22.0575 33.989 22.0575 33.7498C22.0575 33.5106 22.1526 33.2811 22.3217 33.1119C22.4909 32.9428 22.7203 32.8478 22.9596 32.8478H35.5881C35.8273 32.8478 36.0568 32.9428 36.2259 33.1119C36.3951 33.2811 36.4901 33.5106 36.4901 33.7498Z" fill="url(#paint0_linear_7016_30819)"/>
</g>
<defs>
<linearGradient id="paint0_linear_7016_30819" x1="9.82321" y1="26.5335" x2="41.9939" y2="26.5335" gradientUnits="userSpaceOnUse">
<stop stop-color="#131D56"/>
<stop offset="0.269162" stop-color="#33145D"/>
<stop offset="0.522689" stop-color="#63166A"/>
<stop offset="0.702487" stop-color="#A4267B"/>
<stop offset="0.848653" stop-color="#DB327C"/>
<stop offset="1" stop-color="#EB4B46"/>
</linearGradient>
<clipPath id="clip0_7016_30819">
<rect width="32" height="32" fill="white" transform="translate(9 9)"/>
</clipPath>
</defs>
</svg>
