<svg width="50" height="50" viewBox="0 0 50 50" fill="none" xmlns="http://www.w3.org/2000/svg">
<rect width="50" height="50" rx="4" fill="#FFF5FA"/>
<path d="M35.4691 21.3292H12.652C12.1843 21.3292 11.7964 20.9427 11.7964 20.4766C11.7964 20.0105 12.1843 19.624 12.652 19.624H35.4691C35.9369 19.624 36.3248 20.0105 36.3248 20.4766C36.3248 20.9427 35.9369 21.3292 35.4691 21.3292Z" fill="url(#paint0_linear_4758_10044)"/>
<path d="M27.1625 33.2615H17.7176C13.177 33.2615 11.7852 31.8974 11.7852 27.4184V18.0739C11.7852 14.493 12.5495 12.5037 16.6224 12.2649C16.9646 12.2536 17.3297 12.2422 17.7176 12.2422H30.3925C34.9331 12.2422 36.3249 13.6063 36.3249 18.0853L36.2536 28.7142L34.6137 25.9965V18.0853C34.6137 14.5726 33.9862 13.9474 30.3925 13.9474H17.7176C17.3525 13.9474 17.0217 13.9587 16.7022 13.9701C14.2266 14.1179 13.4964 14.6749 13.4964 18.0853V27.4298C13.4964 30.9425 14.1239 31.5677 17.7176 31.5677H26.5475L27.1625 33.2615Z" fill="url(#paint1_linear_4758_10044)"/>
<path d="M21.7799 28.1382H17.2165C16.7487 28.1382 16.3608 27.7517 16.3608 27.2856C16.3608 26.8195 16.7487 26.433 17.2165 26.433H21.7799C22.2476 26.433 22.6355 26.8195 22.6355 27.2856C22.6355 27.7517 22.2476 28.1382 21.7799 28.1382Z" fill="url(#paint2_linear_4758_10044)"/>
<g clip-path="url(#clip0_4758_10044)">
<path d="M31.6052 25.1016C30.4073 25.1016 29.2363 25.4568 28.2402 26.1223C27.2442 26.7879 26.4678 27.7338 26.0094 28.8406C25.551 29.9473 25.431 31.1652 25.6647 32.3401C25.8984 33.515 26.4753 34.5942 27.3224 35.4413C28.1694 36.2884 29.2487 36.8653 30.4236 37.099C31.5985 37.3327 32.8164 37.2127 33.9231 36.7543C35.0299 36.2959 35.9758 35.5195 36.6414 34.5235C37.3069 33.5274 37.6621 32.3564 37.6621 31.1585C37.6602 29.5526 37.0215 28.0132 35.886 26.8777C34.7505 25.7422 33.211 25.1035 31.6052 25.1016ZM31.6052 36.1141C30.6251 36.1141 29.667 35.8234 28.852 35.2789C28.0371 34.7344 27.4019 33.9604 27.0268 33.0549C26.6517 32.1494 26.5536 31.153 26.7448 30.1917C26.936 29.2304 27.408 28.3473 28.1011 27.6543C28.7941 26.9612 29.6771 26.4893 30.6384 26.298C31.5997 26.1068 32.5961 26.205 33.5017 26.58C34.4072 26.9551 35.1812 27.5903 35.7257 28.4052C36.2702 29.2202 36.5609 30.1783 36.5609 31.1585C36.5593 32.4723 36.0366 33.7318 35.1076 34.6608C34.1786 35.5899 32.9191 36.1125 31.6052 36.1141Z" fill="url(#paint3_linear_4758_10044)"/>
<path d="M32.1545 30.9331V27.8573C32.1545 27.7112 32.0965 27.5712 31.9932 27.4679C31.8899 27.3647 31.7499 27.3066 31.6038 27.3066C31.4578 27.3066 31.3178 27.3647 31.2145 27.4679C31.1112 27.5712 31.0532 27.7112 31.0532 27.8573V31.161C31.0533 31.307 31.1113 31.4471 31.2146 31.5503L32.8664 33.2022C32.9703 33.3025 33.1094 33.358 33.2537 33.3567C33.3981 33.3555 33.5362 33.2976 33.6383 33.1955C33.7404 33.0934 33.7983 32.9553 33.7996 32.8109C33.8008 32.6665 33.7453 32.5275 33.645 32.4236L32.1545 30.9331Z" fill="url(#paint4_linear_4758_10044)"/>
</g>
<defs>
<linearGradient id="paint0_linear_4758_10044" x1="5.98143" y1="20.5276" x2="34.1112" y2="11.3032" gradientUnits="userSpaceOnUse">
<stop stop-color="#131D56"/>
<stop offset="0.269162" stop-color="#33145D"/>
<stop offset="0.522689" stop-color="#63166A"/>
<stop offset="0.702487" stop-color="#A4267B"/>
<stop offset="0.848653" stop-color="#DB327C"/>
<stop offset="1" stop-color="#EB4B46"/>
</linearGradient>
<linearGradient id="paint1_linear_4758_10044" x1="5.9675" y1="23.3797" x2="37.1146" y2="22.5507" gradientUnits="userSpaceOnUse">
<stop stop-color="#131D56"/>
<stop offset="0.269162" stop-color="#33145D"/>
<stop offset="0.522689" stop-color="#63166A"/>
<stop offset="0.702487" stop-color="#A4267B"/>
<stop offset="0.848653" stop-color="#DB327C"/>
<stop offset="1" stop-color="#EB4B46"/>
</linearGradient>
<linearGradient id="paint2_linear_4758_10044" x1="11.6277" y1="29.8818" x2="36.9412" y2="28.815" gradientUnits="userSpaceOnUse">
<stop stop-color="#131D56"/>
<stop offset="0.269162" stop-color="#33145D"/>
<stop offset="0.522689" stop-color="#63166A"/>
<stop offset="0.702487" stop-color="#A4267B"/>
<stop offset="0.848653" stop-color="#DB327C"/>
<stop offset="1" stop-color="#EB4B46"/>
</linearGradient>
<linearGradient id="paint3_linear_4758_10044" x1="22.6765" y1="31.5203" x2="38.0548" y2="31.1697" gradientUnits="userSpaceOnUse">
<stop stop-color="#131D56"/>
<stop offset="0.269162" stop-color="#33145D"/>
<stop offset="0.522689" stop-color="#63166A"/>
<stop offset="0.702487" stop-color="#A4267B"/>
<stop offset="0.848653" stop-color="#DB327C"/>
<stop offset="1" stop-color="#EB4B46"/>
</linearGradient>
<linearGradient id="paint4_linear_4758_10044" x1="30.4021" y1="30.5124" x2="33.8901" y2="30.4763" gradientUnits="userSpaceOnUse">
<stop stop-color="#131D56"/>
<stop offset="0.269162" stop-color="#33145D"/>
<stop offset="0.522689" stop-color="#63166A"/>
<stop offset="0.702487" stop-color="#A4267B"/>
<stop offset="0.848653" stop-color="#DB327C"/>
<stop offset="1" stop-color="#EB4B46"/>
</linearGradient>
<clipPath id="clip0_4758_10044">
<rect width="13.215" height="13.215" fill="white" transform="translate(25 24.5427)"/>
</clipPath>
</defs>
</svg>
