<svg width="50" height="50" viewBox="0 0 50 50" fill="none" xmlns="http://www.w3.org/2000/svg">
<rect width="50" height="50" rx="4" fill="#FFF5FA"/>
<path d="M11.0574 34.8045H33.6451C34.1905 34.8039 34.7135 34.587 35.0992 34.2013C35.4849 33.8156 35.7019 33.2926 35.7024 32.7471V31.5813C35.8314 31.5792 37.4807 31.8597 37.6089 31.8282C38.1026 31.8241 38.5784 31.6433 38.9503 31.3186C39.3222 30.9939 39.5655 30.5467 39.6361 30.0581L40.9809 20.4825C41.0548 19.9437 40.9122 19.3975 40.5844 18.9636C40.2565 18.5297 39.77 18.2434 39.2315 18.1673L16.8639 15.0196C16.3236 14.9447 15.7756 15.0865 15.3394 15.4141C14.9032 15.7417 14.6143 16.2285 14.5357 16.7683L13.939 21.0236H11.0574C10.5119 21.0242 9.9889 21.2411 9.60319 21.6268C9.21748 22.0125 9.00054 22.5355 9 23.081V32.7471C9.00054 33.2926 9.21748 33.8156 9.60319 34.2013C9.9889 34.587 10.5119 34.8039 11.0574 34.8045ZM16.0314 22.3952H28.6711C28.8361 23.5022 29.3927 24.5134 30.2399 25.2449C31.087 25.9764 32.1685 26.3798 33.2878 26.3817H34.3309V29.4457H33.2878C32.1683 29.4476 31.0867 29.8511 30.2394 30.5827C29.3921 31.3143 28.8354 32.3257 28.6704 33.4329H16.0314C15.8665 32.3258 15.3101 31.3146 14.463 30.583C13.616 29.8513 12.5346 29.4478 11.4153 29.4457H10.3716V26.3817H11.4153C12.5345 26.3796 13.6158 25.9762 14.4628 25.2447C15.3098 24.5132 15.8664 23.5021 16.0314 22.3952ZM34.3309 25.0101H33.2878C32.5319 25.0089 31.7994 24.7487 31.2121 24.2729C30.6248 23.797 30.2184 23.1343 30.0605 22.3952H33.6451C33.827 22.3952 34.0014 22.4674 34.13 22.596C34.2586 22.7247 34.3309 22.8991 34.3309 23.081V25.0101ZM10.3716 32.7471V30.8173H11.4153C12.1713 30.8185 12.9039 31.0788 13.4912 31.5548C14.0785 32.0308 14.4849 32.6936 14.6426 33.4329H11.0574C10.8755 33.4327 10.7012 33.3604 10.5726 33.2318C10.4441 33.1033 10.3718 32.9289 10.3716 32.7471ZM33.6451 33.4329H30.0598C30.2176 32.6935 30.6241 32.0305 31.2115 31.5546C31.7989 31.0786 32.5317 30.8184 33.2878 30.8173H34.3309V32.7471C34.3309 32.929 34.2586 33.1034 34.13 33.232C34.0014 33.3606 33.827 33.4329 33.6451 33.4329ZM15.8942 16.9576C15.9209 16.7782 16.0172 16.6166 16.1623 16.5079C16.3074 16.3991 16.4895 16.352 16.6691 16.3767L39.0422 19.5259C39.2209 19.551 39.3823 19.646 39.491 19.79C39.5998 19.934 39.647 20.1152 39.6224 20.2939L38.2789 29.8634C38.2665 29.9529 38.2365 30.0391 38.1907 30.117C38.1448 30.1949 38.0841 30.263 38.0119 30.3174C37.9398 30.3718 37.8576 30.4115 37.77 30.434C37.6825 30.4566 37.5914 30.4617 37.5019 30.449L35.7024 30.1967V23.081C35.7019 22.5355 35.4849 22.0125 35.0992 21.6268C34.7135 21.2411 34.1905 21.0242 33.6451 21.0236H15.325L15.8942 16.9576ZM11.0574 22.3952H14.642C14.4841 23.1342 14.0777 23.7968 13.4906 24.2727C12.9035 24.7485 12.171 25.0087 11.4153 25.0101H10.3716V23.081C10.3718 22.8991 10.4441 22.7248 10.5726 22.5962C10.7012 22.4677 10.8755 22.3954 11.0574 22.3952Z" fill="url(#paint0_linear_4540_37178)"/>
<path d="M22.4831 33.0025C23.7986 33.001 25.0597 32.4778 25.9898 31.5477C26.92 30.6175 27.4432 29.3564 27.4446 28.041C27.2119 21.4756 17.7537 21.4763 17.5224 28.041C17.5238 29.3563 18.0469 30.6173 18.9769 31.5474C19.9069 32.4775 21.1679 33.0008 22.4831 33.0025ZM22.4831 24.4653C27.2105 24.6156 27.2085 31.4678 22.4831 31.6174C17.7578 31.4671 17.7585 24.6149 22.4831 24.4653Z" fill="url(#paint1_linear_4540_37178)"/>
<defs>
<linearGradient id="paint0_linear_4540_37178" x1="1.41374" y1="25.4938" x2="42.0034" y2="23.9987" gradientUnits="userSpaceOnUse">
<stop stop-color="#131D56"/>
<stop offset="0.269162" stop-color="#33145D"/>
<stop offset="0.522689" stop-color="#63166A"/>
<stop offset="0.702487" stop-color="#A4267B"/>
<stop offset="0.848653" stop-color="#DB327C"/>
<stop offset="1" stop-color="#EB4B46"/>
</linearGradient>
<linearGradient id="paint1_linear_4540_37178" x1="15.1701" y1="28.3551" x2="27.7662" y2="28.0669" gradientUnits="userSpaceOnUse">
<stop stop-color="#131D56"/>
<stop offset="0.269162" stop-color="#33145D"/>
<stop offset="0.522689" stop-color="#63166A"/>
<stop offset="0.702487" stop-color="#A4267B"/>
<stop offset="0.848653" stop-color="#DB327C"/>
<stop offset="1" stop-color="#EB4B46"/>
</linearGradient>
</defs>
</svg>
