<svg width="50" height="50" viewBox="0 0 50 50" fill="none" xmlns="http://www.w3.org/2000/svg">
<rect width="50" height="50" rx="4" fill="#FFF5FA"/>
<g clip-path="url(#clip0_4540_37223)">
<path d="M20.0312 29.1406C19.5943 29.1406 19.2109 28.7317 19.2109 28.2656C19.2109 27.9219 19.4278 27.6119 19.7505 27.4944C20.1716 27.3409 20.6623 27.549 21.0961 28.0656C21.3876 28.4125 21.905 28.4575 22.2519 28.1661C22.5988 27.8748 22.6438 27.3573 22.3525 27.0104C21.909 26.4824 21.3928 26.1194 20.8516 25.9372V24.9844C20.8516 24.5313 20.4843 24.1641 20.0312 24.1641C19.5782 24.1641 19.2109 24.5313 19.2109 24.9844V25.9453C19.2036 25.9479 19.1963 25.9502 19.189 25.9528C18.2208 26.3055 17.5703 27.2349 17.5703 28.2656C17.5703 28.9194 17.8217 29.5424 18.2782 30.0199C18.7475 30.5109 19.3701 30.7812 20.0312 30.7812C20.4836 30.7812 20.8516 31.1492 20.8516 31.6016C20.8517 31.7629 20.8043 31.9207 20.7152 32.0552C20.6261 32.1897 20.4993 32.2949 20.3507 32.3576C19.9833 32.5131 19.5438 32.3804 19.1443 31.9935C18.8189 31.6782 18.2997 31.6864 17.9844 32.0118C17.6691 32.3372 17.6773 32.8565 18.0027 33.1717C18.3731 33.5305 18.7848 33.784 19.2109 33.9271V34.8828C19.2109 35.3358 19.5782 35.7031 20.0312 35.7031C20.4843 35.7031 20.8516 35.3358 20.8516 34.8828V33.9219C21.8521 33.5662 22.4922 32.6326 22.4922 31.6016C22.4922 30.2446 21.3882 29.1406 20.0312 29.1406Z" fill="black"/>
<path d="M20.0312 29.1406C19.5943 29.1406 19.2109 28.7317 19.2109 28.2656C19.2109 27.9219 19.4278 27.6119 19.7505 27.4944C20.1716 27.3409 20.6623 27.549 21.0961 28.0656C21.3876 28.4125 21.905 28.4575 22.2519 28.1661C22.5988 27.8748 22.6438 27.3573 22.3525 27.0104C21.909 26.4824 21.3928 26.1194 20.8516 25.9372V24.9844C20.8516 24.5313 20.4843 24.1641 20.0312 24.1641C19.5782 24.1641 19.2109 24.5313 19.2109 24.9844V25.9453C19.2036 25.9479 19.1963 25.9502 19.189 25.9528C18.2208 26.3055 17.5703 27.2349 17.5703 28.2656C17.5703 28.9194 17.8217 29.5424 18.2782 30.0199C18.7475 30.5109 19.3701 30.7812 20.0312 30.7812C20.4836 30.7812 20.8516 31.1492 20.8516 31.6016C20.8517 31.7629 20.8043 31.9207 20.7152 32.0552C20.6261 32.1897 20.4993 32.2949 20.3507 32.3576C19.9833 32.5131 19.5438 32.3804 19.1443 31.9935C18.8189 31.6782 18.2997 31.6864 17.9844 32.0118C17.6691 32.3372 17.6773 32.8565 18.0027 33.1717C18.3731 33.5305 18.7848 33.784 19.2109 33.9271V34.8828C19.2109 35.3358 19.5782 35.7031 20.0312 35.7031C20.4843 35.7031 20.8516 35.3358 20.8516 34.8828V33.9219C21.8521 33.5662 22.4922 32.6326 22.4922 31.6016C22.4922 30.2446 21.3882 29.1406 20.0312 29.1406Z" fill="url(#paint0_linear_4540_37223)"/>
<path d="M36.3281 12.0227C34.8176 11.3582 32.8366 10.9922 30.75 10.9922C26.4799 10.9922 22.5469 12.5601 22.5469 15.0938V21.2486C21.7295 21.0107 20.8825 20.8902 20.0312 20.8906C17.6265 20.8906 15.3606 21.8409 13.6509 23.5664C11.9465 25.2865 11.0078 27.5602 11.0078 29.9688C11.0078 34.9443 15.0557 38.9922 20.0312 38.9922C21.6916 38.9922 23.2879 38.546 24.6829 37.7104C26.2086 38.5289 28.3827 38.9922 30.75 38.9922C32.8366 38.9922 34.8176 38.6262 36.3281 37.9617C38.0561 37.2014 39.0078 36.1108 39.0078 34.8906V15.0938C39.0078 13.8736 38.0561 12.7829 36.3281 12.0227ZM20.0312 37.3516C15.9604 37.3516 12.6484 34.0396 12.6484 29.9688C12.6484 25.8677 15.9604 22.5312 20.0312 22.5312C24.1323 22.5312 27.4688 25.8677 27.4688 29.9688C27.4688 34.0396 24.1323 37.3516 20.0312 37.3516ZM37.3672 34.8906C37.3672 35.894 34.7894 37.3516 30.75 37.3516C29.0316 37.3516 27.4083 37.0762 26.1765 36.5936C26.2637 36.5137 26.3495 36.4322 26.4337 36.3491C27.1723 35.6172 27.7684 34.7832 28.2092 33.8801C29.0242 34.0058 29.8756 34.0703 30.75 34.0703C32.907 34.0703 35.582 33.651 37.3672 32.4833V34.8906ZM37.3672 29.9688C37.3672 30.9722 34.7894 32.4297 30.75 32.4297C30.0808 32.4297 29.4284 32.3879 28.7998 32.3069C29.0057 31.5446 29.1098 30.7584 29.1094 29.9688C29.1094 29.6467 29.0918 29.3271 29.0582 29.0108C29.6108 29.0655 30.1763 29.0938 30.75 29.0938C32.9072 29.0938 35.5819 28.6744 37.3672 27.5068V29.9688ZM37.3672 24.9922C37.3672 25.9956 34.7894 27.4531 30.75 27.4531C30.0518 27.4531 29.3686 27.4075 28.7116 27.3187C28.2858 25.9377 27.5263 24.6666 26.4739 23.6023C27.7422 23.9726 29.2154 24.1719 30.75 24.1719C32.9072 24.1719 35.5819 23.7525 37.3672 22.5849V24.9922ZM37.3672 20.0703C37.3672 21.0737 34.7894 22.5312 30.75 22.5312C28.8902 22.5312 27.1546 22.215 25.8627 21.6409C24.8294 21.1817 24.1875 20.5798 24.1875 20.0703V17.62C25.9634 18.7841 28.6157 19.1953 30.75 19.1953C32.9072 19.1953 35.5819 18.776 37.3672 17.6083V20.0703ZM30.75 17.5547C26.7427 17.5547 24.1875 16.1189 24.1875 15.0938C24.1875 14.0655 26.75 12.6328 30.75 12.6328C34.7894 12.6328 37.3672 14.0903 37.3672 15.0938C37.3672 16.0972 34.7894 17.5547 30.75 17.5547Z" fill="url(#paint1_linear_4540_37223)"/>
</g>
<defs>
<linearGradient id="paint0_linear_4540_37223" x1="16.391" y1="30.2783" x2="22.7086" y2="30.2162" gradientUnits="userSpaceOnUse">
<stop stop-color="#131D56"/>
<stop offset="0.269162" stop-color="#33145D"/>
<stop offset="0.522689" stop-color="#63166A"/>
<stop offset="0.702487" stop-color="#A4267B"/>
<stop offset="0.848653" stop-color="#DB327C"/>
<stop offset="1" stop-color="#EB4B46"/>
</linearGradient>
<linearGradient id="paint1_linear_4540_37223" x1="4.36983" y1="25.8286" x2="39.9155" y2="25.0183" gradientUnits="userSpaceOnUse">
<stop stop-color="#131D56"/>
<stop offset="0.269162" stop-color="#33145D"/>
<stop offset="0.522689" stop-color="#63166A"/>
<stop offset="0.702487" stop-color="#A4267B"/>
<stop offset="0.848653" stop-color="#DB327C"/>
<stop offset="1" stop-color="#EB4B46"/>
</linearGradient>
<clipPath id="clip0_4540_37223">
<rect width="28" height="28" fill="white" transform="translate(11 11)"/>
</clipPath>
</defs>
</svg>
