<svg width="50" height="50" viewBox="0 0 50 50" fill="none" xmlns="http://www.w3.org/2000/svg">
<rect width="50" height="50" rx="4" fill="#FFF5FA"/>
<path d="M28.882 12.9327H31.278C32.7271 12.9327 33.9058 14.11 33.9058 15.5576V18.8134V18.9088V19.0041L33.9057 27.5476C34.6524 27.8472 35.6255 28.09 36.8209 28.2726C36.9668 28.2948 37.0999 28.3686 37.1961 28.4805C37.2923 28.5925 37.3453 28.7352 37.3454 28.8828V28.8828V32.194C37.3454 32.2002 37.3452 32.2063 37.345 32.2121L28.882 12.9327ZM28.882 12.9327V12.8331C28.8819 12.252 28.4083 11.7796 27.8266 11.7796H19.6088C19.0271 11.7796 18.5535 12.252 18.5535 12.8331V12.9327H16.1574C14.7086 12.9327 13.5296 14.11 13.5296 15.5576V34.8002C13.5296 36.2478 14.7084 37.4252 16.1574 37.4252H29.8446C30.3019 37.8169 30.6794 38.1255 31.0269 38.3368C31.3831 38.5534 31.7136 38.6717 32.0732 38.6721H32.0733H32.0754C32.4799 38.6721 32.8472 38.5239 33.2545 38.2552C33.6582 37.9888 34.1106 37.5977 34.6844 37.1014L34.6909 37.0957L34.691 37.0957C36.3414 35.6669 37.2391 34.0299 37.3441 32.2304L28.882 12.9327ZM27.3313 28.2725C27.227 28.2884 27.1287 28.3308 27.0458 28.3955H17.7833C17.4424 28.3955 17.1658 28.6718 17.1658 29.0128C17.1658 29.3538 17.4424 29.6301 17.7833 29.6301H26.8068V31.5087H17.4327C17.0918 31.5087 16.8152 31.785 16.8152 32.126C16.8152 32.4671 17.0918 32.7433 17.4327 32.7433H26.8609C27.0412 33.9792 27.6062 35.1335 28.5428 36.1904H16.1574C15.3891 36.1904 14.7644 35.5665 14.7644 34.8002V15.5576C14.7644 14.7913 15.3891 14.1675 16.1574 14.1675H18.5535V14.2656C18.5535 14.8467 19.0271 15.3191 19.6088 15.3191H27.8266C28.4084 15.3191 28.8819 14.8467 28.8819 14.2656V14.1675H31.278C32.0463 14.1675 32.6712 14.7913 32.6712 15.5576L32.6712 18.8134L32.6712 18.9088V19.0041L32.671 26.8353C32.6187 26.7891 32.5701 26.7423 32.5252 26.6948L32.5252 26.6947C32.4675 26.6338 32.398 26.5852 32.3208 26.552C32.2437 26.5188 32.1607 26.5017 32.0767 26.5017C31.9928 26.5017 31.9097 26.5188 31.8326 26.552C31.7555 26.5852 31.686 26.6338 31.6283 26.6947L31.6976 26.7603L31.6283 26.6948C31.2966 27.0454 30.7729 27.3569 30.0528 27.6227C29.3338 27.8881 28.4254 28.1057 27.3313 28.2725ZM27.3313 28.2725L27.3456 28.3668M27.3313 28.2725C27.3313 28.2725 27.3313 28.2726 27.3313 28.2726L27.3456 28.3668M27.3456 28.3668C27.2471 28.3818 27.1549 28.4249 27.0802 28.4908M27.3456 28.3668L27.0802 28.4908M27.0802 28.4908H17.7833C17.495 28.4908 17.2612 28.7245 17.2612 29.0128C17.2612 29.3011 17.495 29.5347 17.7833 29.5347H26.8068L27.0802 28.4908ZM19.7883 13.0144H27.6471V14.0842H19.7883V13.0144ZM36.1106 32.1754C36.0213 33.6132 35.2775 34.9545 33.8829 36.1619C33.4298 36.5539 33.0578 36.8756 32.7531 37.0998C32.6009 37.2117 32.4684 37.2972 32.3534 37.3543C32.2375 37.412 32.1464 37.4373 32.0751 37.4373H32.0749C32.0036 37.4372 31.9147 37.4131 31.8022 37.3579C31.6903 37.3029 31.5613 37.2201 31.4114 37.11C31.1113 36.8894 30.7396 36.5678 30.2707 36.1621C28.8761 34.9548 28.1321 33.6136 28.0415 32.1754V29.4071C29.8726 29.0848 31.2073 28.6054 32.0768 27.9437C32.3378 28.1421 32.6403 28.3241 32.9849 28.4902C33.0116 28.5053 33.0389 28.5178 33.0662 28.5284C33.8591 28.8979 34.8699 29.1885 36.1106 29.4071V32.1754Z" fill="url(#paint0_linear_4540_37208)" stroke="url(#paint1_linear_4540_37208)" stroke-width="0.190727"/>
<path d="M31.4684 33.1075L30.5503 32.2462C30.34 32.049 30.0095 32.0593 29.8124 32.2698C29.615 32.48 29.6256 32.8103 29.8358 33.0077L31.1406 34.2316C31.2373 34.3224 31.3651 34.373 31.4977 34.373C31.5705 34.373 31.6424 34.3578 31.7089 34.3284C31.7754 34.299 31.835 34.256 31.884 34.2023L34.5305 31.293C34.7246 31.0797 34.7089 30.7494 34.4956 30.5555C34.2823 30.3614 33.9521 30.3771 33.7582 30.5904L31.4684 33.1075Z" fill="url(#paint2_linear_4540_37208)"/>
<defs>
<linearGradient id="paint0_linear_4540_37208" x1="8.02421" y1="26.0235" x2="38.0193" y2="25.4185" gradientUnits="userSpaceOnUse">
<stop stop-color="#131D56"/>
<stop offset="0.269162" stop-color="#33145D"/>
<stop offset="0.522689" stop-color="#63166A"/>
<stop offset="0.702487" stop-color="#A4267B"/>
<stop offset="0.848653" stop-color="#DB327C"/>
<stop offset="1" stop-color="#EB4B46"/>
</linearGradient>
<linearGradient id="paint1_linear_4540_37208" x1="8.02421" y1="26.0235" x2="38.0193" y2="25.4185" gradientUnits="userSpaceOnUse">
<stop stop-color="#131D56"/>
<stop offset="0.269162" stop-color="#33145D"/>
<stop offset="0.522689" stop-color="#63166A"/>
<stop offset="0.702487" stop-color="#A4267B"/>
<stop offset="0.848653" stop-color="#DB327C"/>
<stop offset="1" stop-color="#EB4B46"/>
</linearGradient>
<linearGradient id="paint2_linear_4540_37208" x1="28.4867" y1="27.833" x2="34.8312" y2="27.781" gradientUnits="userSpaceOnUse">
<stop stop-color="#131D56"/>
<stop offset="0.269162" stop-color="#33145D"/>
<stop offset="0.522689" stop-color="#63166A"/>
<stop offset="0.702487" stop-color="#A4267B"/>
<stop offset="0.848653" stop-color="#DB327C"/>
<stop offset="1" stop-color="#EB4B46"/>
</linearGradient>
</defs>
</svg>
