<svg width="24" height="25" viewBox="0 0 24 25" fill="none" xmlns="http://www.w3.org/2000/svg">
<rect y="0.132812" width="24" height="24" rx="12" fill="white"/>
<g clip-path="url(#clip0_7014_24820)">
<path d="M6.59863 12.1295C6.59863 12.8386 6.73831 13.5408 7.00968 14.196C7.28106 14.8511 7.67882 15.4464 8.18026 15.9479C8.68169 16.4493 9.27698 16.8471 9.93214 17.1184C10.5873 17.3898 11.2895 17.5295 11.9986 17.5295C12.7078 17.5295 13.41 17.3898 14.0651 17.1184C14.7203 16.8471 15.3156 16.4493 15.817 15.9479C16.3184 15.4464 16.7162 14.8511 16.9876 14.196C17.259 13.5408 17.3986 12.8386 17.3986 12.1295C17.3986 11.4204 17.259 10.7182 16.9876 10.063C16.7162 9.40784 16.3184 8.81255 15.817 8.31112C15.3156 7.80968 14.7203 7.41192 14.0651 7.14054C13.41 6.86917 12.7078 6.72949 11.9986 6.72949C11.2895 6.72949 10.5873 6.86917 9.93214 7.14054C9.27698 7.41192 8.68169 7.80968 8.18026 8.31112C7.67882 8.81255 7.28106 9.40784 7.00968 10.063C6.73831 10.7182 6.59863 11.4204 6.59863 12.1295Z" stroke="#E54696" stroke-width="0.9" stroke-linecap="round" stroke-linejoin="round"/>
<path d="M11.999 12.1357L13.799 13.3357" stroke="#E54696" stroke-width="0.9" stroke-linecap="round" stroke-linejoin="round"/>
<path d="M11.999 9.13574V12.1357" stroke="#E54696" stroke-width="0.9" stroke-linecap="round" stroke-linejoin="round"/>
</g>
<defs>
<clipPath id="clip0_7014_24820">
<rect width="14.4" height="14.4" fill="white" transform="translate(4.7998 4.93262)"/>
</clipPath>
</defs>
</svg>
