<svg width="16" height="16" viewBox="0 0 16 16" fill="none" xmlns="http://www.w3.org/2000/svg">
<path d="M7.61649 11.8942L7.65129 11.8584L7.61649 11.8942L1.4502 5.89458C1.45014 5.89452 1.45008 5.89446 1.45001 5.8944C1.39744 5.84428 1.35531 5.78425 1.32607 5.71776C1.29678 5.65119 1.28099 5.57948 1.27961 5.50677C1.27823 5.43406 1.29128 5.36179 1.318 5.29416C1.34473 5.22653 1.3846 5.16487 1.43532 5.11274C1.48604 5.06062 1.54658 5.01908 1.61346 4.99051C1.68034 4.96194 1.75222 4.94692 1.82494 4.94632C1.89766 4.94571 1.96978 4.95954 2.03712 4.98699C2.1044 5.01442 2.16558 5.0549 2.21712 5.1061C2.21717 5.10615 2.21722 5.1062 2.21727 5.10625L8.00002 10.7333L13.7828 5.10625C13.7828 5.10619 13.7829 5.10612 13.783 5.10606C13.8345 5.05488 13.8957 5.01441 13.9629 4.98699C14.0303 4.95954 14.1024 4.94571 14.1751 4.94632C14.2478 4.94692 14.3197 4.96194 14.3866 4.99051C14.4535 5.01908 14.514 5.06062 14.5647 5.11274C14.6154 5.16487 14.6553 5.22653 14.682 5.29416C14.7088 5.36179 14.7218 5.43406 14.7204 5.50677C14.719 5.57948 14.7033 5.65119 14.674 5.71776C14.6447 5.78425 14.6026 5.84429 14.55 5.8944C14.55 5.89446 14.5499 5.89452 14.5498 5.89458L8.38356 11.8942L8.34869 11.8584L8.38355 11.8942C8.28088 11.9941 8.14328 12.05 8.00002 12.05C7.85677 12.05 7.71917 11.9941 7.61649 11.8942Z" fill="url(#paint0_linear_7067_4922)" stroke="url(#paint1_linear_7067_4922)" stroke-width="0.1"/>
<defs>
<linearGradient id="paint0_linear_7067_4922" x1="8.00001" y1="12.116" x2="7.99977" y2="4.95846" gradientUnits="userSpaceOnUse">
<stop stop-color="#131D56"/>
<stop offset="0.202053" stop-color="#33145D"/>
<stop offset="0.39085" stop-color="#63166A"/>
<stop offset="0.595602" stop-color="#A4267B"/>
<stop offset="0.7844" stop-color="#DB327C"/>
<stop offset="1" stop-color="#EB4B46"/>
</linearGradient>
<linearGradient id="paint1_linear_7067_4922" x1="8.00001" y1="12.116" x2="7.99977" y2="4.95846" gradientUnits="userSpaceOnUse">
<stop stop-color="#131D56"/>
<stop offset="0.202053" stop-color="#33145D"/>
<stop offset="0.39085" stop-color="#63166A"/>
<stop offset="0.595602" stop-color="#A4267B"/>
<stop offset="0.7844" stop-color="#DB327C"/>
<stop offset="1" stop-color="#EB4B46"/>
</linearGradient>
</defs>
</svg>
