<svg width="119" height="32" viewBox="0 0 119 32" fill="none" xmlns="http://www.w3.org/2000/svg">
<path d="M67.1421 10.7875C67.1421 7.35046 67.2014 4.15046 67.3792 1.1875L58.3125 2.90602V3.73565L59.2014 3.85417C59.8533 3.91343 60.2681 4.15046 60.5051 4.50602C60.7421 4.92083 60.9199 5.51343 61.0384 6.40232C61.157 8.12083 61.2755 12.0319 61.2162 18.1949C61.2162 24.2986 61.157 28.1505 61.0384 29.6319C64.2977 30.3431 66.8458 30.6394 68.7421 30.6394C72.2977 30.6394 75.0829 29.6319 77.0977 27.5579C79.1125 25.5431 80.1792 22.6986 80.1792 19.2023C80.1792 16.4171 79.4088 14.106 77.8681 12.269C76.3273 10.4319 74.3718 9.54306 72.0607 9.54306C70.5199 9.54306 68.9199 9.95787 67.1421 10.7875ZM67.3199 29.0394C67.2014 27.1431 67.0829 21.4542 67.0829 12.1505C67.6162 11.9727 68.3273 11.8542 69.2162 11.8542C70.6384 11.8542 71.7644 12.5653 72.594 14.0468C73.4236 15.5282 73.8384 17.306 73.8384 19.5579C73.8384 22.3431 73.3644 24.5949 72.4162 26.4912C71.4681 28.3282 70.2829 29.2764 68.8014 29.2764C68.3273 29.1579 67.8533 29.0986 67.3199 29.0394ZM24.2977 1.78009H0.593994V2.96528L1.83844 3.0838C2.78659 3.26157 3.43844 3.61713 3.85325 4.15046C4.26807 4.74306 4.50511 5.6912 4.56436 6.99491C5.03844 13.3949 5.03844 19.3801 4.56436 24.8912C4.44585 26.1949 4.20881 27.1431 3.85325 27.7356C3.43844 28.3282 2.78659 28.6838 1.83844 28.8023L0.593994 28.9801V30.1653H15.8829V28.9801L14.2829 28.8616C13.3347 28.7431 12.6829 28.3282 12.2681 27.7949C11.8533 27.2023 11.6162 26.2542 11.557 24.9505C11.3792 22.5801 11.2607 19.8542 11.2607 16.8319L14.4607 16.8912C16.1792 16.9505 17.3644 18.2542 17.957 20.8616H19.1421V11.2023H17.957C17.3644 13.7505 16.2384 15.0542 14.4607 15.1134L11.2607 15.1727C11.2607 9.83935 11.3792 6.04676 11.557 3.73565H16.2384C19.557 3.73565 21.8088 5.86898 23.1125 10.1356L24.5347 9.72083L24.2977 1.78009ZM21.5125 20.0319C21.5125 23.1134 22.4014 25.6616 24.1199 27.6764C25.8384 29.6912 28.3866 30.6394 31.5866 30.6394C34.7866 30.6394 37.394 29.6319 39.2903 27.5579C41.1866 25.5431 42.0755 22.9949 42.0755 19.9134C42.0755 16.8319 41.1866 14.2838 39.4681 12.269C37.7495 10.2542 35.2014 9.30602 32.0014 9.30602C28.8014 9.30602 26.194 10.3134 24.2977 12.3875C22.4014 14.4023 21.5125 16.9505 21.5125 20.0319ZM34.7273 13.2764C35.4384 14.9949 35.7347 17.2468 35.7347 19.9727C35.7347 26.2542 34.431 29.3356 31.8829 29.3356C30.5792 29.3356 29.5718 28.4468 28.8607 26.669C28.1495 24.8912 27.8533 22.6394 27.8533 19.9727C27.8533 13.7505 29.157 10.669 31.7051 10.669C33.0088 10.6097 34.0162 11.4986 34.7273 13.2764ZM84.8014 27.6764C86.757 29.6319 89.2458 30.6394 92.2088 30.6394C94.0459 30.6394 95.6459 30.2838 97.0681 29.5134C98.4903 28.8023 99.6162 27.9134 100.387 26.8468L99.794 26.1356C98.4903 27.1431 97.0088 27.6171 95.2903 27.6171C92.9199 27.6171 91.0829 26.8468 89.8384 25.2468C88.5347 23.6468 87.9421 21.6319 88.0607 19.0245H100.742C100.742 16.1801 100.031 13.869 98.5496 12.0319C97.0681 10.2542 94.994 9.36528 92.3273 9.36528C89.0088 9.36528 86.4607 10.4319 84.6236 12.506C82.7866 14.5801 81.8977 17.1282 81.8977 20.1505C81.8977 23.2319 82.8458 25.7208 84.8014 27.6764ZM89.1866 12.8023C89.8384 11.3801 90.6681 10.669 91.794 10.669C93.5718 10.669 94.4607 12.9208 94.4607 17.4838L88.1792 17.6023C88.2384 15.8245 88.5347 14.2245 89.1866 12.8023ZM116.683 10.4319C115.083 9.72083 113.068 9.30602 110.638 9.30602C108.15 9.30602 106.194 9.95787 104.713 11.2023C103.231 12.4468 102.461 13.9875 102.461 15.8245C102.461 17.4245 102.935 18.669 103.824 19.5579C104.713 20.4468 106.135 21.2171 107.972 21.869C109.631 22.4616 110.816 23.0542 111.409 23.5875C112.001 24.1801 112.357 24.8319 112.357 25.7208C112.357 26.5505 112.061 27.3208 111.409 27.9134C110.816 28.5653 109.987 28.8616 108.92 28.8616C106.313 28.8616 104.357 26.9653 102.994 23.1727L101.987 23.469L102.224 29.3949C104.357 30.2245 106.727 30.6394 109.335 30.6394C112.061 30.6394 114.135 30.0468 115.675 28.8023C117.216 27.6171 117.987 25.8986 117.987 23.7653C117.987 22.3431 117.631 21.1579 116.861 20.269C116.09 19.3801 114.846 18.6097 113.068 17.8986C111.113 17.1875 109.75 16.5356 109.038 15.9431C108.327 15.3505 107.972 14.6394 107.972 13.7505C107.972 12.8616 108.209 12.1505 108.742 11.5579C109.275 10.9653 109.927 10.7282 110.757 10.7282C113.127 10.7282 114.846 12.4468 115.913 15.8245L116.92 15.5282L116.683 10.4319ZM59.6755 9.89861C58.8458 9.4838 57.957 9.30602 56.9496 9.30602C55.9421 9.30602 54.9347 9.72083 53.8088 10.5505C52.6829 11.3801 51.8533 12.506 51.2014 14.0468L51.2607 9.30602L42.2533 11.0838V11.9134L43.1421 11.9727C44.2681 12.0912 44.9199 12.9801 45.0384 14.5801C45.394 18.2542 45.394 22.1653 45.0384 26.3134C44.9199 27.9134 44.2681 28.7431 43.1421 28.9208L42.2533 29.0394V30.1653H54.8162V29.0394L53.2162 28.9208C52.0903 28.8023 51.4384 27.9134 51.3199 26.3134C50.9644 22.8764 50.9051 19.2023 51.2014 15.4097C51.557 14.8171 52.3273 14.4616 53.5125 14.3431C54.6977 14.2245 56.0607 14.5801 57.4829 15.4097L59.6755 9.89861Z" fill="black"/>
</svg>
