<svg width="16" height="17" viewBox="0 0 16 17" fill="none" xmlns="http://www.w3.org/2000/svg">
<path d="M11.8942 9.00717L11.8584 8.97237L11.8942 9.00717L5.89458 15.1735C5.89452 15.1735 5.89446 15.1736 5.8944 15.1736C5.84428 15.2262 5.78425 15.2683 5.71776 15.2976C5.6512 15.3269 5.57948 15.3427 5.50677 15.344C5.43406 15.3454 5.3618 15.3324 5.29416 15.3057C5.22653 15.2789 5.16487 15.2391 5.11275 15.1883C5.06062 15.1376 5.01908 15.0771 4.99051 15.0102C4.96194 14.9433 4.94692 14.8714 4.94632 14.7987C4.94572 14.726 4.95954 14.6539 4.98699 14.5865C5.01442 14.5193 5.0549 14.4581 5.1061 14.4065C5.10615 14.4065 5.1062 14.4064 5.10625 14.4064L10.7333 8.62364L5.10625 2.84089C5.10619 2.84083 5.10612 2.84076 5.10606 2.8407C5.05488 2.78916 5.01441 2.728 4.98699 2.66074C4.95954 2.5934 4.94571 2.52128 4.94632 2.44856C4.94692 2.37584 4.96194 2.30396 4.99051 2.23708C5.01908 2.1702 5.06062 2.10965 5.11274 2.05894C5.16487 2.00822 5.22653 1.96835 5.29416 1.94162C5.36179 1.91489 5.43406 1.90184 5.50677 1.90323C5.57948 1.90461 5.65119 1.9204 5.71776 1.94968C5.78425 1.97893 5.84429 2.02106 5.8944 2.07363C5.89446 2.0737 5.89452 2.07376 5.89458 2.07382L11.8942 8.2401L11.8584 8.27497L11.8942 8.2401C11.9941 8.34278 12.05 8.48038 12.05 8.62364C12.05 8.76689 11.9941 8.90449 11.8942 9.00717Z" fill="url(#paint0_linear_7014_28576)" stroke="url(#paint1_linear_7014_28576)" stroke-width="0.1"/>
<defs>
<linearGradient id="paint0_linear_7014_28576" x1="12.116" y1="8.62365" x2="4.95846" y2="8.62389" gradientUnits="userSpaceOnUse">
<stop stop-color="#131D56"/>
<stop offset="0.202053" stop-color="#33145D"/>
<stop offset="0.39085" stop-color="#63166A"/>
<stop offset="0.595602" stop-color="#A4267B"/>
<stop offset="0.7844" stop-color="#DB327C"/>
<stop offset="1" stop-color="#EB4B46"/>
</linearGradient>
<linearGradient id="paint1_linear_7014_28576" x1="12.116" y1="8.62365" x2="4.95846" y2="8.62389" gradientUnits="userSpaceOnUse">
<stop stop-color="#131D56"/>
<stop offset="0.202053" stop-color="#33145D"/>
<stop offset="0.39085" stop-color="#63166A"/>
<stop offset="0.595602" stop-color="#A4267B"/>
<stop offset="0.7844" stop-color="#DB327C"/>
<stop offset="1" stop-color="#EB4B46"/>
</linearGradient>
</defs>
</svg>
