<svg width="18" height="19" viewBox="0 0 18 19" fill="none" xmlns="http://www.w3.org/2000/svg">
<g clip-path="url(#clip0_7014_28403)">
<path d="M4.5 3.62423V15.6242C4.49996 15.7577 4.53553 15.8887 4.60304 16.0038C4.67054 16.119 4.76754 16.214 4.88402 16.2791C5.0005 16.3442 5.13225 16.3771 5.26566 16.3743C5.39908 16.3715 5.52934 16.3332 5.643 16.2632L15.393 10.2632C15.5022 10.1961 15.5924 10.1022 15.6549 9.9903C15.7175 9.87844 15.7503 9.7524 15.7503 9.62424C15.7503 9.49607 15.7175 9.37003 15.6549 9.25817C15.5924 9.1463 15.5022 9.05234 15.393 8.98524L5.643 2.98523C5.52934 2.91531 5.39908 2.87697 5.26566 2.87419C5.13225 2.8714 5.0005 2.90426 4.88402 2.96938C4.76754 3.0345 4.67054 3.12952 4.60304 3.24463C4.53553 3.35975 4.49996 3.49079 4.5 3.62423Z" fill="white"/>
</g>
<defs>
<clipPath id="clip0_7014_28403">
<rect width="18" height="18" fill="white" transform="translate(0 0.624023)"/>
</clipPath>
</defs>
</svg>
