<svg width="24" height="25" viewBox="0 0 24 25" fill="none" xmlns="http://www.w3.org/2000/svg">
<rect y="0.624023" width="24" height="24" rx="12" fill="white"/>
<g clip-path="url(#clip0_7014_28360)">
<path d="M6.59863 12.6207C6.59863 13.3298 6.73831 14.032 7.00968 14.6872C7.28106 15.3424 7.67882 15.9376 8.18026 16.4391C8.68169 16.9405 9.27698 17.3383 9.93214 17.6097C10.5873 17.881 11.2895 18.0207 11.9986 18.0207C12.7078 18.0207 13.41 17.881 14.0651 17.6097C14.7203 17.3383 15.3156 16.9405 15.817 16.4391C16.3184 15.9376 16.7162 15.3424 16.9876 14.6872C17.259 14.032 17.3986 13.3298 17.3986 12.6207C17.3986 11.9116 17.259 11.2094 16.9876 10.5542C16.7162 9.89905 16.3184 9.30376 15.817 8.80233C15.3156 8.30089 14.7203 7.90313 14.0651 7.63175C13.41 7.36038 12.7078 7.2207 11.9986 7.2207C11.2895 7.2207 10.5873 7.36038 9.93214 7.63175C9.27698 7.90313 8.68169 8.30089 8.18026 8.80233C7.67882 9.30376 7.28106 9.89905 7.00968 10.5542C6.73831 11.2094 6.59863 11.9116 6.59863 12.6207Z" stroke="#E54696" stroke-width="0.9" stroke-linecap="round" stroke-linejoin="round"/>
<path d="M11.999 12.627L13.799 13.827" stroke="#E54696" stroke-width="0.9" stroke-linecap="round" stroke-linejoin="round"/>
<path d="M11.999 9.62695V12.627" stroke="#E54696" stroke-width="0.9" stroke-linecap="round" stroke-linejoin="round"/>
</g>
<defs>
<clipPath id="clip0_7014_28360">
<rect width="14.4" height="14.4" fill="white" transform="translate(4.7998 5.42383)"/>
</clipPath>
</defs>
</svg>
