<svg width="165" height="61" fill="none" xmlns="http://www.w3.org/2000/svg"><path d="M37.479 27.554H38.5v9.115l-.165.151-.857.434v-9.7Zm2.044 8.183 1.022-.932v-7.25h-1.021v8.182Zm6.134.156.637.045.385-.67v-7.714h-1.022v8.339Zm-20.446-5.305.566.76.456.602v-4.396h-1.022v3.035Zm16.357 9.27 1.022-1.003v-.91l-.47-1.424.47.009v-8.976h-1.022v12.304Zm-6.134-5.984.616-.122.407 1.575v-7.773h-1.023v6.32Zm-4.09 2.526 1.023-.772v-8.074h-1.022V36.4ZM29.3 38.184l.391.882.632-.386V27.554H29.3v10.631Zm-2.044-4.372.707-.605.314 2.064v-7.719h-1.021v6.26Zm6.133 1.04 1.023-.773v-6.526h-1.023v7.298Zm10.223.893 1.023.074v-8.266h-1.023v8.192Zm-22.489-4.38v3.586l1.023-.554V31.81l-.461-.471-.562.027ZM36.36 39.02l.757-1.523-1.173-.065.416 1.588ZM47.7 33.488l.69-1.2-.69-3.229v4.43ZM45.435 44.62c.05-.048.687-1.632.687-1.632l-1.03 1.351s.294.33.343.28v.001Zm1.426-5.506.92 2.503-.513-4.648-.407 2.145Zm-5.14 3.375 1.787 1.104-.337-1.916-1.45.812Zm-2.197-3.115.976 1.534.044-.044v-5.882l-1.02 2.804v1.588ZM38.38 42.16l1.188 1.009.285-1.214-1.056-1.048-.417 1.253ZM23.167 30.157l.914-1.087.108.145v-1.66h-1.022v2.602Zm27.46 1.82 1.241-.832.132-1.51-1.373 2.342Zm-1.063-1.574.84-.872.105-2.611-.447-.585-.498 4.068ZM47.7 27.554v1.387l.996-.72-.65-.667H47.7Zm-30.668.029v7.42l1.022-.276v-7.173H17.04l-.007.029Zm2.044 6.867 1.023-.277v-2.757l-.344-2.007.317-.592.027.021v-1.284h-1.023v6.896Zm2.045-4.786 1.023.827v-2.937h-1.022l-.001 2.11Zm-4.09-5.487-.734.39L16 26.813l1.04-.129-.007-2.507Zm34.05.528-.313.254v-2.55l.533.379-.22 1.917ZM33.39 18.939l-1.022 1.685v-4.22l.653-.104.37.54v2.099Zm-10.222-.327v8.942h-1.023v-5.988l.056-.04.298-1.007.152-1.596.517-.311Zm20.445.184v8.758H42.59v-9.001l.206-.036.816.28Zm2.045 1.083v7.675h-1.022v-8.406l.855.293.167.438Zm-8.178-1.958v9.633h-1.023v-9.4l1.023-.233Zm-2.045.178v9.455h-1.022v-9.77l1.022.315Zm4.09.311v9.145H38.5v-9.61l1.023.465Zm8.177 8.44v.703H46.68v-7.506l.175-.18-.04-1.144.887.86v6.5l-.516.238.516.529Zm2.045-1.075-1.022.231v-5.434l.72.697.302.284v4.222Zm-8.178-1.555v3.334h-1.023v-8.968l1.023.03v5.605-.001Zm-20.445-1.926v5.26H20.1v-4.502l.519-.4.504-.358Zm-2.046 1.58v3.68h-1.022v-3.646l.946-.01.03-.024h.046ZM29.3 16.325v11.228h-1.023V16.51l1.023-.183Zm4.09 5.916v5.312h-1.023V22.44l1.022-.198Zm-2.045-6.116v11.428h-1.022V16.146L31.14 16l.204.126Zm-4.09 1.611v9.817h-1.021v-9.758l1.022-.059Zm-2.044.117v9.7H24.19V18l.158-.094.864-.05ZM68.418 20.895l6.01 13.257h-1.946l-1.171-2.585h-8.262l-1.171 2.585H60l6.01-13.257h2.408Zm-4.684 9.125h6.894l-3.27-7.423h-.354l-3.27 7.423ZM84.945 24.983c-.906-.331-2.497-.552-3.955-.552-1.083 0-2.386.088-3.138.53-.353.222-.596.531-.596.951 0 .464.22.795.596 1.016.398.243.928.331 1.48.398l2.785.309c1.126.11 2.275.398 3.049 1.038.618.487 1.016 1.127 1.016 2.123 0 1.17-.465 1.966-1.26 2.518-1.104.774-2.85 1.039-4.86 1.039-1.592 0-2.983-.2-4.574-.795l.464-1.415c1.311.439 2.683.67 4.066.685 1.17 0 2.407-.066 3.27-.42.684-.287 1.126-.773 1.126-1.525 0-.508-.243-.927-.64-1.148-.465-.288-.95-.376-1.923-.509l-3.049-.353c-1.17-.155-2.01-.487-2.54-.95-.53-.464-.774-1.083-.774-1.923 0-.994.464-1.723 1.26-2.231 1.038-.641 2.607-.862 4.242-.862 1.568 0 3.159.265 4.44.729l-.486 1.347ZM87.574 23.105h3.137v11.047h-1.79v-9.677l-1.347-.133v-1.237Zm3.58-2.895c0 .663-.487 1.194-1.326 1.194-.84 0-1.304-.53-1.304-1.194 0-.662.464-1.192 1.304-1.192.84 0 1.325.53 1.325 1.192ZM103.969 31.037c0 1.105.088 1.878.53 2.85l-1.038.398c-.398-.332-.796-.84-.994-1.37-1.105.885-2.52 1.436-4.242 1.436-1.723 0-2.983-.265-3.955-.994-.773-.596-1.282-1.524-1.282-2.85s.597-2.254 1.547-2.873c.95-.64 2.276-.95 3.602-.95 1.415 0 2.562.11 4.043.531v-.795c0-.663-.354-1.171-.862-1.48-.641-.376-1.701-.509-2.585-.509-1.68 0-2.673.177-4.242.708l-.376-1.263c1.592-.663 3.027-.972 4.75-.972 1.657 0 3.071.376 3.911 1.039.817.662 1.193 1.592 1.193 2.562v4.532Zm-8.33-2.232c-.53.376-.84.907-.84 1.68 0 .795.332 1.348.862 1.723.663.464 1.635.64 2.674.64 1.592 0 2.607-.397 3.844-1.148v-3.225c-1.547-.199-2.43-.287-4.087-.287-.928-.001-1.834.176-2.453.617ZM117.116 32.605v1.547h-10.207V20.895h1.833v11.71h8.374ZM117.844 23.105h3.138V34.15h-1.79v-9.677l-1.348-.133v-1.236ZM125.07 23.105l.397 1.215c1.039-.884 2.365-1.415 4.11-1.415s3.049.398 3.892 1.26c.839.839 1.281 2.143 1.281 3.999v5.987h-1.79v-5.942c0-1.348-.265-2.32-.839-2.916-.597-.62-1.458-.862-2.629-.862-1.592 0-2.674.375-3.892 1.325v8.396h-1.789V23.105h1.259ZM148.444 37.466h-1.79v-4.441c-1.038.84-2.496 1.325-4.087 1.325-1.812 0-3.248-.53-4.264-1.502-.972-.972-1.525-2.364-1.525-4.22 0-1.546.464-2.806 1.282-3.778.927-1.17 2.386-1.946 4.374-1.946 1.812 0 3.226.42 4.331 1.415l.398-1.215h1.281v14.362Zm-8.97-11.688c-.553.729-.906 1.635-.906 2.85 0 1.392.376 2.519 1.149 3.248.662.619 1.635.928 2.938.928 1.702 0 2.983-.552 3.999-1.392v-5.678c-1.303-.906-2.408-1.304-4.154-1.304-1.368 0-2.385.53-3.026 1.348ZM63.75 37.541v3.99h-.707v-3.99h.708ZM72.047 37.541v3.99h-.672l-2.388-2.98v2.98h-.672v-3.99h.672l2.388 2.967V37.54h.672ZM78.092 41.532l-1.716-3.991h.751l1.364 3.302h.093l1.356-3.302h.732l-1.723 3.99h-.857ZM85.005 37.541h3.227v.572H85.71v1.044h2.24v.56h-2.24v1.243h2.61v.572h-3.315V37.54ZM92.969 37.82c.34-.246.851-.353 1.503-.353.612 0 1.03.08 1.563.295l-.192.512a3.853 3.853 0 0 0-1.344-.226c-.446 0-.805.053-1.003.173a.372.372 0 0 0-.206.332.333.333 0 0 0 .146.3c.118.086.306.14.53.172l.966.154c.498.08.878.192 1.117.419.186.177.286.413.286.75a1.023 1.023 0 0 1-.492.913c-.366.235-.884.345-1.556.345a4.876 4.876 0 0 1-1.69-.285l.166-.531c.486.144.99.22 1.497.226.413 0 .825-.04 1.097-.193a.508.508 0 0 0 .273-.465c0-.393-.346-.48-.792-.546l-1.024-.153c-.392-.053-.685-.153-.891-.313a.867.867 0 0 1-.34-.725.951.951 0 0 1 .386-.8ZM100.306 37.541h3.878v.566h-1.592v3.425h-.707v-3.425h-1.579v-.566ZM109.553 37.541l1.324 3.306 1.331-3.306h1.024v3.99h-.692V38.38h-.033l-1.27 3.152h-.767l-1.269-3.152h-.033v3.152h-.652v-3.99l1.037-.001ZM117.796 37.541h3.226v.572H118.5v1.044h2.241v.56H118.5v1.243h2.608v.572h-3.312V37.54ZM129.27 37.541v3.99h-.671l-2.388-2.98v2.98h-.673v-3.99h.673l2.388 2.967V37.54h.671ZM133.605 37.541h3.878v.566h-1.592v3.425h-.708v-3.425h-1.578v-.566ZM142.031 37.82c.34-.246.852-.353 1.503-.353.612 0 1.032.08 1.564.295l-.193.512a3.853 3.853 0 0 0-1.344-.226c-.446 0-.805.053-1.002.173a.376.376 0 0 0-.207.332.34.34 0 0 0 .146.3c.118.086.306.14.531.172l.964.154c.5.08.879.192 1.12.419.187.177.286.413.286.75a1.017 1.017 0 0 1-.492.912c-.366.236-.884.346-1.557.346a4.877 4.877 0 0 1-1.689-.285l.166-.531c.486.144.99.22 1.497.226.413 0 .825-.04 1.097-.193a.512.512 0 0 0 .273-.465c0-.393-.346-.48-.792-.546l-1.024-.153c-.392-.053-.685-.153-.891-.313a.871.871 0 0 1-.339-.725.955.955 0 0 1 .383-.8ZM119.424 19c-.282 0-.557.082-.792.235a1.4 1.4 0 0 0-.524.623 1.347 1.347 0 0 0-.08.803c.055.27.191.516.39.71a1.457 1.457 0 0 0 1.553.3c.261-.105.483-.284.639-.512a1.353 1.353 0 0 0 .131-1.303 1.42 1.42 0 0 0-.772-.75 1.456 1.456 0 0 0-.545-.106Zm0 1.91a.547.547 0 0 1-.496-.324.514.514 0 0 1 .118-.57.54.54 0 0 1 .586-.113c.098.04.182.107.241.193a.514.514 0 0 1-.067.663.545.545 0 0 1-.382.154v-.002Z" fill="#48193C"/></svg>