<svg xmlns="http://www.w3.org/2000/svg" width="165" height="58" fill="none"><path fill="#48193C" d="M108.662 27.2c-.498.918-1.006 1.828-1.504 2.746a8.848 8.848 0 0 0-.341.717c-.149.367-.438.577-.814.595a11.6 11.6 0 0 1-1.828-.018c-.437-.043-.761-.288-.953-.682-.236-.472-.446-.953-.708-1.408-.14-.245-.28-.481-.307-.76-.026-.316-.035-.64-.052-.954 0-.07.035-.158-.044-.193-.087-.035-.14.027-.21.079-.157.131-.183.254-.175.464.018.297-.017.612-.035.918-.061 1.767-.026 3.533 0 5.3v1.269c0 .376 0 .752.009 1.12 0 .288-.149.27-.297.279-.236.017-.473-.009-.709 0-.385 0-.778-.026-1.172 0-.41.035-.83-.018-1.25-.044-.184-.008-.22-.14-.22-.315-.017-1.093.097-2.178.097-3.262-.017-2.712-.009-5.423-.061-8.143-.018-.875 0-1.75-.035-2.624-.018-.358.052-.42.42-.42.866 0 1.732.026 2.597-.009.49-.017.779.184 1.015.578.682 1.146 1.303 2.318 1.793 3.55.262.648.665 1.208.98 1.82.157.306.262.297.454.009.455-.665.761-1.408 1.146-2.108a73.022 73.022 0 0 0 1.671-3.157c.245-.499.542-.744 1.137-.7.761.052 1.53.008 2.3.017.35 0 .367.026.367.376V36.2c0 .446-.078.498-.516.524-.752.053-1.495-.148-2.256-.06-.193.025-.385.087-.586.07-.105-.01-.14-.045-.14-.15V29.806c0-.726.079-1.434.359-2.108.078-.201-.027-.367-.132-.507v.009ZM127.074 28.966c0 .813-.018 1.618 0 2.432.052 1.591-.621 2.86-1.732 3.935-.376.368-.857.569-1.347.735-.603.21-1.198.455-1.819.586a4.929 4.929 0 0 1-1.644.044c-.42-.061-.84-.131-1.251-.236-.254-.062-.472-.184-.709-.28-1.618-.7-2.693-1.916-3.271-3.569-.157-.446-.201-.936-.245-1.417-.096-1.154-.157-2.317-.113-3.472.061-1.828.839-3.306 2.221-4.47 1.015-.865 2.213-1.25 3.543-1.338a6.627 6.627 0 0 1 3.848.875c1.207.7 2.125 1.653 2.423 3.07.096.464.078.945.078 1.417v1.697l.018-.009Zm-3.639.429c.027-.831.088-1.662-.061-2.493-.113-.665-.42-1.18-.997-1.496-1.084-.577-2.239-.428-3.166.42-.227.21-.341.49-.367.761-.088.918-.097 1.846-.114 2.773-.009.516.035 1.04-.035 1.548-.149 1.032.323 2.011 1.338 2.361.831.289 1.662.184 2.432-.183.411-.193.734-.56.83-1.032.07-.36.149-.718.149-1.094v-1.583l-.009.018ZM11.498 34.232c0-2.87.018-5.738.018-8.607 0-1.006-.026-2.012-.096-3.009-.062-.752-.07-.752.673-.752H21.6c.22 0 .263.053.263.263a173.43 173.43 0 0 0 0 3.008c0 .193-.053.237-.236.237-2.17 0-4.339 0-6.508-.01-.218 0-.27.062-.262.272.017.551.009 1.11 0 1.67 0 .22.052.324.306.324 1.732-.009 3.464 0 5.195-.017.193 0 .377.043.56.07.149.017.263.113.236.28-.052.437.053.865.053 1.303 0 .34-.061.664-.07.997 0 .236-.114.367-.394.367-1.33-.009-2.659 0-3.988 0h-1.688c-.175 0-.21.053-.21.21.009.726.009 1.46 0 2.187 0 .2.052.236.245.236 2.195 0 4.39 0 6.586-.009.254 0 .324.096.341.315.061.69.052 1.373.052 2.064 0 .21-.06.402-.096.604-.035.2-.14.245-.323.245H11.69c-.21-.027-.324-.14-.324-.36 0-.445.044-.891.105-1.337.009-.07 0-.14 0-.219.105-.087.07-.192.035-.297l-.009-.035ZM67.397 26.657c.097.087.062.2.062.306h-.044c0 .035.017.043.052.035.035.297.035.586-.008.883-.114.061-.062.166-.053.254.096 1.005.044 2.011.088 3.008.043 1.129-.289 2.16-.945 3.088-.079.114-.123.271-.306.262.035.131-.053.193-.131.271-.91.954-2.056 1.444-3.315 1.74-.455.106-.919.202-1.382.21-.577 0-1.146-.148-1.688-.358a9.604 9.604 0 0 1-.63-.262c-1.496-.682-2.598-1.74-3.131-3.324a7.299 7.299 0 0 1-.324-1.61c-.114-1.101-.07-2.212-.035-3.323.026-.944.158-1.898.63-2.746.743-1.32 1.802-2.318 3.245-2.843.56-.2 1.137-.288 1.732-.332 1.338-.105 2.589.175 3.726.866a5.712 5.712 0 0 1 2.16 2.37c.227.455.332.936.289 1.443l-.01.018c0 .017.01.026.018.044Zm-5.694 6.857c.175 0 .385.017.595 0 .709-.062 1.435-.508 1.645-1.242.078-.289.148-.586.157-.884.026-1.548.088-3.096 0-4.635a1.65 1.65 0 0 0-.446-1.05c-.805-.84-1.994-1.12-3.219-.63-.9.35-1.33 1.006-1.303 1.968 0 .271.018.543.026.814.009 1.25.026 2.492.018 3.743 0 .508.175.927.542 1.268.551.525 1.216.709 1.994.648h-.009ZM135.601 21.863c1.172-.035 2.291.114 3.411.315.262.044.49.114.595.35.07.149.087.333.096.499.044.665.07 1.338.114 2.003.017.245-.097.332-.315.385-.464.113-.91.026-1.365-.044-.726-.114-1.469-.105-2.204-.114-.271 0-.533-.061-.805-.061-.402 0-.787.087-1.172.192a1.065 1.065 0 0 0-.314.158c-.49.376-.499.682-.07 1.11.428.43.979.622 1.539.788.778.236 1.574.437 2.37.612 1.024.236 1.863.752 2.511 1.583.314.402.498.875.524 1.382.018.446.079.883.07 1.33 0 .288.07.568.018.865-.105.604-.411 1.111-.726 1.618-.42.683-1.111 1.041-1.811 1.347-.691.298-1.434.464-2.169.543-.621.07-1.268.096-1.898-.035a.374.374 0 0 0-.14 0c-.568.035-1.119-.079-1.688-.14-.472-.053-.936-.079-1.399-.201-.166-.044-.35-.08-.499-.158-.498-.271-.516-.428-.437-1.014.052-.377.096-.761.131-1.146.026-.324.044-.656.158-.971.07-.184.183-.227.358-.184.927.228 1.863.42 2.816.481.473.035.954.105 1.426.096.472-.008.945-.06 1.4-.218a1.61 1.61 0 0 0 .699-.499c.368-.446.088-1.067-.332-1.233-.752-.297-1.539-.498-2.309-.717-.884-.254-1.767-.507-2.528-1.058-.988-.718-1.714-1.627-1.95-2.852-.07-.376-.044-.778.017-1.172.263-1.767 1.295-2.869 2.948-3.455.953-.34 1.95-.402 2.912-.376l.018-.009ZM148.765 21.864c.866-.035 1.846.07 2.825.271.114.026.236 0 .35.009.394.044.673.341.665.735-.018.734.052 1.469.061 2.204 0 .227-.096.306-.289.34a3.547 3.547 0 0 1-.962-.008 12.666 12.666 0 0 0-1.294-.105c-.735-.026-1.461-.148-2.196-.096-.542.035-1.11.052-1.565.437-.333.289-.341.578-.026.875.341.332.734.577 1.18.76.875.36 1.793.56 2.694.84.919.28 1.714.683 2.344 1.391.49.551.805 1.172.761 1.942-.026.472.07.936.053 1.408-.07 1.653-.91 3.009-2.782 3.542-1.233.359-2.484.35-3.734.306-.595-.017-1.199-.122-1.802-.192-.586-.07-1.163-.201-1.749-.297-.377-.062-.552-.271-.543-.648.009-.594.088-1.18.158-1.766.026-.263.026-.534.148-.779.035-.087.07-.078.167-.087.463-.044.909.114 1.364.131.332.017.682.157 1.032.184.516.043 1.023.14 1.548.105.333-.018.682.043 1.024.043.507 0 .979-.13 1.346-.446.455-.385.455-1.12-.096-1.425-.542-.298-1.146-.455-1.74-.604-1.059-.262-2.126-.516-3.035-1.172-.849-.612-1.566-1.33-1.916-2.353-.271-.804-.21-1.583.035-2.387.595-1.942 2.064-2.72 3.91-3.053.638-.114 1.277-.096 2.055-.105h.009ZM69.024 22.267c0-.437-.009-.402.402-.402h9.945c.245 0 .324.052.324.306 0 .918.026 1.837.035 2.755 0 .402-.044.438-.438.438-.98 0-1.968.008-2.947 0-.236 0-.271.07-.271.288 0 3.088 0 6.175.008 9.263 0 .454-.07.9-.06 1.355 0 .096-.027.149-.14.149-.08 0-.158.035-.237.035-.9 0-1.802.017-2.703.017-.367 0-.367 0-.367-.384V25.652c0-.219-.044-.289-.271-.289-.988.018-1.986 0-2.983.018-.27 0-.332-.096-.332-.324 0-.918-.044-1.836.026-2.755l.009-.008h-.009l.009-.027ZM86.017 21.864h4.758c.193 0 .377.018.56.061.166.035.166.184.175.315.009.621.018 1.242.018 1.855 0 .314 0 .638.008.953 0 .21-.07.315-.297.306h-2.921c-.499 0-.525.009-.507.516.034 1.61.017 3.227.017 4.837 0 .533.026 1.076 0 1.61-.035.55 0 1.101.035 1.643.035.56.009 1.12.035 1.68.009.183-.017.367-.061.533-.062.228-.28.324-.525.324-.857-.009-1.714-.035-2.572 0-.323.017-.314-.263-.323-.429a11.82 11.82 0 0 1 .026-1.574c.053-.656.018-1.33.018-1.994v-6.77c0-.376 0-.385-.376-.376-.49.018-.98.026-1.461.026-.542 0-1.085 0-1.627-.026-.227 0-.245-.201-.245-.324 0-.97-.026-1.95.026-2.92.01-.22.105-.263.306-.263h4.951l-.017.017ZM28.563 27.576c-.009 1.758.044 3.516-.017 5.274-.01.35.026.384.41.384h5.764c.202 0 .263.035.254.245a42.357 42.357 0 0 0 0 1.828c0 .254-.052.499-.07.753-.017.297-.166.393-.472.393h-8.72c-.508 0-.613-.052-.569-.542.053-.612 0-1.225.123-1.828.026-.122-.035-.262-.035-.394.008-2.99.026-5.973.043-8.965 0-.883-.078-1.767.01-2.65.017-.184.078-.219.244-.219h2.458c.14 0 .28.035.42.053.13.017.113.131.113.219.018.332.018.673.027 1.005v4.426l.017.018ZM40.318 27.882v5.082c0 .297.166.271.35.271h5.107c.254 0 .499.044.753.053.166 0 .183.122.2.244.08.866.036 1.724-.043 2.58-.026.237-.14.35-.394.35h-8.877c-.306 0-.446-.2-.455-.62 0-.525.052-1.05.052-1.575V24.76c0-.857.027-1.715.027-2.572 0-.253.06-.35.332-.34.857.017 1.714 0 2.571 0 .324 0 .438.078.377.384-.044.21.017.385.017.577v5.056l-.017.017ZM48.968 29.168v-7.05c0-.192.035-.262.245-.253 1.015.018 2.02.009 3.035 0 .166 0 .227.026.227.219v13.355c0 .272-.06.534-.06.814 0 .21-.202.192-.342.192-.612.009-1.216.009-1.828.018-.35 0-.69-.009-1.04 0-.184 0-.237-.044-.228-.228.009-.472 0-.944 0-1.417v-5.65h-.009Z"/><path fill="#48193C" d="M11.498 34.232c.035.105.08.21-.035.298-.105-.114-.087-.21.035-.298ZM67.405 28.136c-.009-.088-.07-.184.052-.254.026.096.088.192-.052.253ZM67.396 26.657s-.018-.026-.018-.044c0 0 0-.017.009-.017.009.017.035.035.035.052 0 .026-.017.026-.026.009ZM67.467 26.998s-.053 0-.053-.035h.044c0 .009.017.017.026.026 0 0-.017 0-.017.009ZM69.023 22.268l.01.008-.01.018-.008-.018.008-.008Z"/></svg>