<svg width="164" height="58" fill="none" xmlns="http://www.w3.org/2000/svg"><path d="M24.543 15.98c.194.189.458.13.685.165 2.035.328 3.895 1.058 5.572 2.279a11.091 11.091 0 0 1 3.012 3.277c.59.977.997 2.02 1.398 3.085.243.65.255 1.28.312 1.93.044.493.108.986.113 1.48.007.913-.165 1.803-.328 2.703-.22 1.209-.737 2.28-1.318 3.334a6.38 6.38 0 0 1-.668.958c-.196.24-.132.394.069.58.425.393.838.799 1.251 1.205 1.098 1.086 2.191 2.174 3.287 3.263.311.311.332.33.028.651-.586.614-1.18 1.221-1.84 1.757H36c-.064-.168-.244-.208-.36-.321-.967-.944-1.862-1.962-2.884-2.852-.532-.46-.987-1.001-1.528-1.46-.321-.27-.35-.297-.696-.044-.994.72-2.12 1.18-3.242 1.643-.48.198-1.013.203-1.513.33-.46.119-.928.21-1.393.215-1.086.012-2.165.04-3.25-.203-1.217-.273-2.4-.609-3.5-1.194a10.564 10.564 0 0 1-2.087-1.424c-.673-.597-1.306-1.225-1.835-1.945-.765-1.044-1.419-2.154-1.834-3.386-.35-1.036-.692-2.078-.668-3.194 0-.055.02-.12-.057-.147v-.649c.113-.068.059-.177.057-.264-.017-.614.014-1.235.146-1.825.415-1.851 1.154-3.565 2.316-5.079 1.964-2.57 4.576-4.084 7.734-4.698.32-.061.657-.007.957-.172h2.184l-.003.002Zm.47 3.25a.973.973 0 0 0-.354-.131 8.38 8.38 0 0 0-2.368-.029c-.158.022-.33.05-.406.23a2.547 2.547 0 0 0-.643.016c-.821.14-1.55.491-2.264.902-.814.47-1.57 1.015-2.207 1.704-1.004 1.089-1.74 2.324-2.134 3.773-.305 1.122-.451 2.234-.31 3.388a8.99 8.99 0 0 0 .827 2.86c.444.908 1.046 1.716 1.747 2.44 1.003 1.037 2.219 1.745 3.56 2.241 1.022.378 2.09.491 3.17.46 1.044-.03 2.08-.12 3.051-.566.921-.423 1.854-.845 2.6-1.535.965-.892 1.858-1.853 2.408-3.093.547-1.23.805-2.507.88-3.838.015-.23-.075-.442-.061-.666.024-.4-.11-.782-.144-1.176-.043-.503-.29-.954-.465-1.424a8.314 8.314 0 0 0-1.627-2.64c-.413-.457-.852-.901-1.367-1.26a12.776 12.776 0 0 0-2.198-1.247c-.54-.231-1.128-.283-1.695-.415v.007Z" fill="#48193C"/><path d="M29.518 30.089c-.45.014-.902.035-1.353.038-1.985.007-3.97.005-5.956.016-.246 0-.331-.047-.329-.319.015-3.38.015-6.761.017-10.14 0-.127-.007-.255-.01-.382.076-.182.248-.208.407-.23.79-.108 1.579-.089 2.368.03.13.018.243.067.354.131 0 2.517.004 5.032-.003 7.548 0 .274.168.243.328.243 1.327.003 2.654.008 3.981-.004.198 0 .236.045.246.236.035.812.02 1.624.026 2.436 0 .137.004.274-.062.402h-.012l-.002-.005Z" fill="#48193C"/><path d="M29.517 30.089h.012l-.005.012-.007-.012ZM153.093 31.787c-.713.094-1.428.033-2.144.033-1.818-.005-3.638-.003-5.456 0-.314 0-.628.014-.942.016-.139 0-.201.033-.196.199.017.637.279 1.17.649 1.667.765 1.022 1.804 1.274 3.013 1.1.609-.088 1.143-.333 1.643-.666.189-.125.291-.333.366-.543.052-.147.137-.215.293-.215.822.002 1.646-.012 2.465.057.099.01.13.035.137.137a.837.837 0 0 1-.078.399c-.494 1.083-1.171 2.018-2.21 2.649-.866.526-1.816.736-2.824.743-.661.005-1.331.05-1.969-.106-.725-.18-1.395-.526-2.002-.963-.708-.508-1.192-1.214-1.641-1.955-.722-1.195-.871-2.5-.772-3.839.062-.833.203-1.67.631-2.422.255-.451.484-.938.833-1.306.694-.734 1.504-1.315 2.51-1.61a6.778 6.778 0 0 1 2.406-.276c1.23.085 2.361.437 3.333 1.244.756.628 1.254 1.421 1.603 2.314.156.399.187.838.236 1.263.017.132.033.257.121.363v1.712l-.005.005Zm-5.466-1.802c.662-.011 1.514.017 2.366-.02.229-.01.232-.107.194-.27-.012-.054-.033-.109-.045-.165-.208-.86-.685-1.5-1.497-1.88a3.033 3.033 0 0 0-1.723-.278 2.88 2.88 0 0 0-1.946 1.116c-.271.352-.415.765-.557 1.181-.102.3-.08.357.224.342.93-.042 1.861-.023 2.984-.028v.002ZM101.62 27.947a6.141 6.141 0 0 1 1.16-1.995c.422-.477.979-.75 1.605-.895 1.14-.264 2.267-.17 3.303.324.673.32 1.228.869 1.44 1.657.043.154.036.404.232.416.12.007.167-.234.224-.366a3.612 3.612 0 0 1 1.381-1.66c.444-.29.954-.418 1.454-.472.921-.1 1.84 0 2.704.363.441.187.774.543 1.081.91.543.646.812 1.418.982 2.223.09.423.102.862.121 1.294.023.522 0 1.046.023 1.568.071 1.808-.007 3.614 0 5.423 0 .175-.054.245-.236.245-.855-.002-1.712 0-2.566.01-.151 0-.203-.045-.203-.2.004-1.455 0-2.91 0-4.366 0-.805.023-1.613-.015-2.418-.028-.625-.203-1.242-.635-1.71-.571-.613-1.331-.762-2.12-.57-.968.233-1.664.958-1.664 2.046.004 2.281-.007 4.562.002 6.843 0 .283-.078.382-.363.377-.758-.01-1.514.01-2.272.012-.434 0-.434-.005-.434-.422 0-2.144.005-4.288-.002-6.43 0-.677-.225-1.3-.621-1.841-.253-.342-.652-.505-1.058-.593-.72-.153-1.384-.018-1.983.435-.487.368-.753.852-.758 1.445-.017 2.29-.007 4.58-.007 6.872 0 .069.004.14 0 .206-.022.22-.085.35-.366.342a40.24 40.24 0 0 0-2.387.017c-.295.01-.35-.092-.35-.361.007-3.204.005-6.406.005-9.61 0-.547-.045-1.095.005-1.643.012-.125.035-.189.175-.186.677.01 1.357.01 2.035.019.16.002.233.026.2.262-.073.507-.08 1.031-.073 1.546.005.295-.113.583-.014.885l-.005-.002ZM63.45 37.36c-.68-.021-1.369.014-2.03-.158-.512-.135-.982-.404-1.442-.666a5.664 5.664 0 0 1-2.286-2.42c-.37-.734-.654-1.51-.7-2.373-.05-.946.01-1.86.32-2.752.515-1.493 1.502-2.588 2.866-3.355.763-.43 1.592-.614 2.456-.702a8.675 8.675 0 0 1 1.048-.047c1.35.026 2.588.387 3.728 1.148 1.1.732 1.78 1.747 2.227 2.948.144.385.195.799.233 1.207.026.28.045.567.047.843.003 1.05-.12 2.08-.654 3.026-.368.657-.743 1.3-1.317 1.802-.234.205-.472.404-.758.536-.46.215-.873.526-1.353.694-.772.27-1.58.267-2.384.274v-.005Zm-3.378-6.212c-.052.36.083.803.191 1.242.204.817.666 1.478 1.384 1.908.85.51 1.792.531 2.741.345.571-.114 1.096-.319 1.49-.782 1.072-1.249 1.256-2.658.746-4.181-.177-.529-.453-1.044-.885-1.393-.853-.687-1.842-.951-2.942-.753-.871.158-1.54.626-2.066 1.31-.496.645-.652 1.4-.656 2.304h-.003ZM129.898 33.116c0 1.339-.009 2.44.005 3.54.005.278-.101.358-.359.356a50.652 50.652 0 0 0-1.799 0c-.219.005-.276-.088-.259-.281.04-.503-.055-1.013.047-1.516.012-.054.045-.149-.047-.177-.088-.026-.104.06-.142.116-.274.399-.461.857-.848 1.178-.67.56-1.407.932-2.309.944-.385.005-.762.038-1.154.007a4.23 4.23 0 0 1-2.255-.852c-.777-.583-1.254-1.376-1.324-2.361-.041-.58-.109-1.178.077-1.742a3.16 3.16 0 0 1 1.445-1.778c.853-.5 1.788-.683 2.758-.782.989-.101 1.976-.007 2.965-.044.182-.008.281-.043.246-.239-.073-.41-.099-.85-.38-1.178-.258-.3-.626-.467-1.013-.531-1.018-.173-2.04-.095-3.062-.01-.553.045-1.11.052-1.667.074-.149.004-.104-.13-.106-.197-.01-.413-.01-.826-.005-1.237.002-.344.019-.687.021-1.031 0-.14.031-.201.196-.203 1.313-.017 2.626-.107 3.938-.048.992.045 1.99.12 2.895.59.909.473 1.624 1.13 1.851 2.18.111.507.191 1.02.226 1.544.09 1.305.012 2.609.05 3.674l.009.004Zm-4.459-1.534c-.558.007-1.112.014-1.672.08-.793.094-1.473 1.154-1.417 1.686.069.632.381 1.142.938 1.468.635.373 1.327.368 2.007.175.739-.21 1.293-.645 1.511-1.433.148-.536.127-1.08.148-1.625.01-.264-.056-.368-.333-.354-.392.021-.786.005-1.18.005l-.002-.002ZM93.806 34.69c-.243.42-.453.863-.739 1.253-.526.722-1.206 1.235-2.134 1.329-.997.1-1.998.163-2.937-.253-.218-.094-.444-.269-.659-.344-.305-.107-.312-.454-.602-.56-.125-.045-.146-.335-.248-.493-.401-.614-.703-1.263-.812-1.995-.061-.416-.045-.836-.047-1.254-.02-2.25-.031-4.5-.043-6.75 0-.404 0-.401.413-.399.817.007 1.632.014 2.449.007.186 0 .226.07.193.222-.097.437-.04.878-.042 1.315 0 1.809.037 3.617.007 5.426-.014.861.297 1.522.942 2.054.319.262.715.34 1.107.328.46-.014.94.019 1.355-.255.593-.392 1.04-.886 1.12-1.63.212-1.994.091-3.999.103-5.999 0-.403-.02-.816-.047-1.225-.01-.172.028-.238.222-.236.876.012 1.75.01 2.625 0 .173 0 .241.033.239.224-.01 3.735-.012 7.473-.012 11.208 0 .229-.083.34-.319.338-.6-.005-1.199-.003-1.799 0-.19 0-.264-.064-.26-.274.012-.678 0-1.356-.004-2.033.012-.033-.002-.057-.033-.057-.028 0-.052.014-.038.05v.002ZM83.322 29.602c-.932 0-1.836-.002-2.74.002-.175 0-.237-.115-.289-.238-.061-.14-.097-.288-.15-.43-.334-.876-1.042-1.23-1.904-1.405-.562-.113-1.081-.016-1.603.184-1.095.42-1.589 1.422-1.742 2.477-.116.793-.144 1.591.122 2.361.305.878.695 1.705 1.689 2.024.904.29 1.785.214 2.623-.206.597-.3.901-.852 1.043-1.48.05-.218.118-.281.333-.284.656-.014 1.315-.028 1.972-.014.203.005.403.109.62.017.1-.043.173.082.15.193a7.886 7.886 0 0 1-.478 1.55c-.734 1.68-2.118 2.58-3.825 2.943-.746.159-1.56.095-2.346.045-.999-.064-1.828-.522-2.623-1.067-.99-.675-1.587-1.646-2.019-2.724a5.411 5.411 0 0 1-.394-1.93c-.012-.807-.007-1.62.196-2.4.16-.624.47-1.2.812-1.752a5.395 5.395 0 0 1 1.407-1.526c.666-.488 1.428-.774 2.24-.944 1.47-.307 2.886-.14 4.208.545.895.463 1.697 1.077 2.16 2.017.276.56.413 1.164.491 1.782.01.073.028.147.05.258l-.003.002ZM46.18 29.1c0-2.506.005-5.013-.007-7.518 0-.293.092-.361.366-.354.786.024 1.572.026 2.359.021.238 0 .32.076.328.324.09 3.232.028 6.464.042 9.696.005.855.031 1.71-.014 2.564-.021.44.007.458.446.458h5.397c.605 0 .593 0 .61.602.018.654-.118 1.306-.031 1.962.021.16-.111.118-.196.12-.383.008-.767.01-1.15.012l-6.075.022c-.637.002-1.275.002-1.912.019-.127.002-.156-.043-.16-.144-.005-.078 0-.159 0-.236v-7.549h-.003ZM136.145 29.986v2.036c0 .384-.064.762-.002 1.159.111.736.703 1.315 1.447 1.317.649 0 1.298.005 1.945-.002.218-.003.279.064.269.293a39.34 39.34 0 0 0-.016 1.973c.002.265-.061.378-.359.369-.904-.031-1.808-.014-2.71-.043-.399-.012-.772-.165-1.15-.297-1.164-.404-1.825-1.259-2.175-2.394-.059-.191-.047-.406-.056-.602-.019-.4-.069-.796-.083-1.195-.061-1.617-.005-3.232.007-4.847 0-.255-.156-.267-.311-.274a28.37 28.37 0 0 0-1.268-.007c-.357.005-.364-.04-.331-.378.045-.465.071-.937-.019-1.402-.056-.3-.026-.345.26-.404.458-.092.918-.026 1.379-.045.219-.01.283-.087.295-.288.033-.547-.078-1.088-.064-1.634.012-.406-.026-.814.059-1.218.019-.087.064-.104.14-.116.838-.122 1.681-.03 2.521-.042.151 0 .234.066.231.255-.014.895.003 1.79-.016 2.682-.007.293.092.364.373.356.826-.016 1.65-.002 2.477.005.233 0 .462.073.698.05.078-.007.135.014.121.113-.085.6-.003 1.202-.012 1.804-.002.203-.057.248-.25.248-1.001 0-2.005.012-3.006.019-.394.002-.394 0-.394.387v2.122Z" fill="#48193C"/><path d="M93.806 34.69c-.014-.036.01-.052.038-.05.03 0 .045.026.033.056l-.07-.006Z" fill="#48193C"/></svg>