<svg xmlns="http://www.w3.org/2000/svg" width="165" height="58" fill="none"><path fill="#48193C" d="M16.464 41.147c-.892-.138-1.8-.195-2.667-.476-.897-.291-1.695-.728-2.264-1.512-.097-.135-.193-.262-.187-.437 1.734.092 2.023-.053 2.599-1.3.29-1.031.58-2.062.872-3.093.154-.247.157-.54.246-.805.646-1.929 1.047-3.93 1.765-5.84.566-1.503 1.503-2.565 3.136-2.939.87-.198 1.725-.155 2.595-.064.92.097 1.816.268 2.63.737-.127.45-.034.9.006 1.348.025.284-.06.477-.36.534-.208-.107-.345.03-.447.168-.22.295-.439.597-.542.96-.22.777-.434 1.557-.65 2.334-.503 1.567-.994 3.137-1.383 4.736l-.42 1.434c-.384 1.311-.88 2.552-2.05 3.39-.183.132-.441.188-.527.44-.77.212-1.54.423-2.35.385h-.002ZM45.117 37.419c.216.942 1.293 1.539 2.253 1.307a1.06 1.06 0 0 1 .405-.015 4.057 4.057 0 0 1-1.277 1.357c-.863.588-1.887.654-2.858.907-.362.095-.75-.053-1.082.17-.855.046-1.654-.209-2.456-.448-.924-.423-1.632-1.079-2.09-1.985-.342-.675-.582-1.391-.786-2.12-.315-1.127-.696-2.234-.947-3.377-.161-.18.035-.365-.002-.547.17-.583.338-1.166.51-1.748.44-1.49.87-2.982 1.324-4.467.223-.728.327-1.518.947-2.066.038-.112.147-.204.115-.335-.139-.58-.042-1.169-.065-1.752 1.021.355 1.86.944 2.162 2.023.268.955.563 1.9.83 2.855.48 1.706.98 3.406 1.482 5.104.214.72.35 1.465.687 2.147.167 1.03.528 2.004.85 2.991l-.002-.001Z"/><path fill="#48193C" d="M14.816 34.328c-.29 1.03-.58 2.061-.872 3.092-.113-.028-.168-.105-.217-.209-.783-1.703-1.367-3.465-1.634-5.329a19.355 19.355 0 0 1-.172-3.782c.066-1.26.346-2.49.674-3.708.27-1.004.647-1.964 1.104-2.89.55-1.113 1.203-2.17 2.01-3.13.471-.561.924-1.138 1.453-1.649 1.626-1.563 3.47-2.81 5.554-3.666 2.46-1.013 5.03-1.5 7.697-1.363 1.505.077 2.978.358 4.422.794-.613.492-1.205 1.003-1.644 1.666-.687-.125-1.368-.284-2.06-.369-1.335-.165-2.67-.109-4.003.086-1.293.188-2.544.517-3.735 1.042-2.096.923-3.933 2.218-5.483 3.919a15.16 15.16 0 0 0-2.586 3.905c-1.081 2.359-1.574 4.847-1.374 7.451.068.893.102 1.794.344 2.66.14.502.146 1.059.522 1.48Z"/><path fill="#48193C" d="M33.19 14.155c.439-.663 1.032-1.174 1.644-1.666.776-.286 1.553-.604 2.4-.531 2.06.176 3.92 1.7 4.048 3.921.011.184.083.345.105.52-.045.19-.034.383-.06.576-.076.565-.384 1.05-.505 1.595-.16.01-.213.13-.29.246a4 4 0 0 1-2.73 1.753c-1.913.317-3.472-.362-4.533-2.044-.459-.728-.627-1.542-.604-2.377.02-.69.213-1.364.524-1.992v-.001ZM40.102 40.697c.802.24 1.601.494 2.455.448-1.266 1.44-2.763 2.591-4.426 3.533a18.426 18.426 0 0 1-4.087 1.687c-1.652.468-3.335.622-5.048.583a17.104 17.104 0 0 1-6.829-1.59 16.643 16.643 0 0 1-4.053-2.608 24.239 24.239 0 0 1-1.65-1.604c.81.039 1.58-.173 2.35-.385.14-.016.226.083.306.166.524.538 1.145.955 1.752 1.384.796.562 1.669.987 2.561 1.375 1.459.635 2.978 1.061 4.56 1.162 1.137.073 2.281.084 3.43-.064 1.194-.154 2.361-.385 3.485-.794a14.774 14.774 0 0 0 4.648-2.74c.195-.17.503-.232.543-.554l.003.002Z"/><path fill="#48193C" d="M40.825 18.568c.121-.546.43-1.03.506-1.595.025-.191.014-.386.06-.575.49.226.84.637 1.175 1.023.726.837 1.423 1.706 1.991 2.661 1.195 2.008 2.045 4.142 2.38 6.475.16 1.12.305 2.234.236 3.364-.157 2.536-.688 4.98-1.871 7.253-.05.095-.078.195-.184.243-.32-.986-.682-1.961-.85-2.992.306-1.027.521-2.07.709-3.127.251-1.403.212-2.786.006-4.164a15.572 15.572 0 0 0-1.131-3.972c-.75-1.708-1.67-3.292-3.028-4.594h.001ZM25.187 25.416c.814.258 1.378.797 1.72 1.568.544 1.218.777 2.535 1.19 3.794.197.599.372 1.204.557 1.805-.066.725-.346 1.392-.548 2.082-.541 1.834-1.044 3.678-1.567 5.516-.16.561-.475 1.074-1.006 1.277-.556.21-1.184.2-1.783.042-.185-.273-.286-.584-.38-.894-.43-1.422-.847-2.849-1.271-4.274-.081-.272-.198-.54-.009-.814a94.95 94.95 0 0 0 1.36-4.678c.132-.771.424-1.498.64-2.245.144-.5.355-.945.746-1.297.3-.057.384-.25.359-.535-.04-.449-.133-.898-.007-1.347Z"/><path fill="#48193C" d="m22.088 35.52-.276-.022c.39-1.6.88-3.17 1.382-4.735.083.034.148.125.255.078a92.003 92.003 0 0 1-1.36 4.678Z"/><path fill="#48193C" d="M23.45 30.841c-.106.046-.172-.044-.254-.078.217-.779.43-1.557.65-2.336.104-.362.322-.665.543-.96.102-.136.237-.274.447-.167-.39.35-.602.796-.745 1.297-.215.748-.509 1.473-.64 2.244ZM34.572 37.618c-.375 1.149-.646 2.33-1.087 3.456-.602 1.536-1.676 2.574-3.322 2.863-.652.114-1.343.03-2.023-.033a8.455 8.455 0 0 1-2.248-.502c-.95-.361-1.731-.924-2.141-1.9.599.158 1.227.17 1.782-.042.533-.203.848-.716 1.007-1.277.524-1.838 1.026-3.683 1.566-5.516.204-.69.483-1.357.548-2.082.425-1.022.647-2.108 1.002-3.152.604-1.776.92-3.642 1.736-5.352.588-1.234 1.537-1.982 2.845-2.28 1.614-.369 3.175-.036 4.723.411.052.016.097.058.145.087.023.585-.074 1.173.066 1.752.031.131-.078.222-.115.335-.579.137-.798.592-.949 1.095-.223.748-.43 1.5-.648 2.25-.447 1.526-.898 3.052-1.346 4.578-.123.06-.091.151-.049.245l-.05.116c-.083.033-.092.107-.112.18-.3 1.045-.621 2.085-.894 3.136-.14.545-.413 1.055-.44 1.63l.004.002Z"/><path fill="#48193C" d="m36.116 32.31 1.346-4.58c.22-.748.425-1.5.648-2.248.15-.504.369-.958.949-1.095-.621.548-.726 1.337-.947 2.066-.454 1.485-.886 2.978-1.325 4.467-.172.582-.34 1.166-.51 1.748-.086 0-.173.003-.26.004l.05-.118c.067-.071.174-.136.049-.245Z"/><path fill="#48193C" d="m36.015 32.67.26-.003c.037.182-.158.365.002.547-.263.126-.233.404-.297.62-.32 1.06-.617 2.127-.928 3.19-.076.263-.16.527-.483.593.027-.575.3-1.084.44-1.63.273-1.053.595-2.092.894-3.137.02-.073.03-.148.112-.18ZM18.92 21.06c-.158-1.439 1.426-2.819 2.685-2.76 1.447.069 2.837 1.3 2.82 2.797a2.636 2.636 0 0 1-.847 1.862c-.485.45-1.028.811-1.728.813-1.76.003-2.93-1.082-2.93-2.71v-.002ZM36.116 32.308c.124.109.018.173-.049.245-.044-.094-.074-.185.049-.245ZM85.167 23.583c.006 1.695 0 3.389.028 5.084.01.485-.166.598-.627.61-2.231.055-2.231.068-2.231-2.139v-7.502c0-.73.378-1.094 1.134-1.092.416 0 .848.069 1.248-.014.924-.189 1.255.33 1.516 1.073.545 1.555 1.27 3.032 2.118 4.547.69-1.4 1.377-2.727 1.873-4.145.142-.407.356-.79.5-1.197.105-.295.343-.253.546-.255.834-.014 1.666.01 2.5-.014.434-.01.585.15.585.58-.01 3.17-.013 6.335 0 9.503.003.523-.213.645-.7.657-2.12.044-2.114.058-2.12-2.016-.005-1.155.086-2.316-.223-3.513-.445.26-.425.74-.585 1.106-.405.918-.81 1.842-1.146 2.787-.187.53-.472.661-1.01.643-1.373-.042-1.36-.017-1.853-1.355-.416-1.128-.87-2.24-1.309-3.36-.01-.17.056-.437-.231-.37-.174.04-.147.246-.013.382ZM60.518 28.12c-.63-.889-.814-1.972-1.297-2.927-.278-.549-.478-1.139-.714-1.71l-.056-.294c-.047.011-.122.007-.138.033-.067.12.007.19.116.232-.014 1.695-.051 3.388-.025 5.084.01.591-.173.743-.752.743-2.104-.005-2.104.015-2.104-2.107 0-2.641.013-5.28-.01-7.92-.004-.533.134-.78.7-.717.329.035.665.007.998.007 1.822 0 1.816.004 2.474 1.717.419 1.088.857 2.165 1.413 3.195.134.247.25.485.512.62.694-1.768 1.724-3.377 2.263-5.201.073-.25.342-.334.616-.331.834.006 1.668.022 2.5-.005.466-.016.552.2.55.605-.011 3.168-.013 6.337.002 9.505 0 .465-.14.614-.616.63-2.21.073-2.21.088-2.21-2.11v-3.63l-.246-.052c-.476 1.15-.932 2.312-1.442 3.446-.2.445-.133 1.044-.685 1.304-.599-.3-1.233-.084-1.85-.12v.002ZM144.323 23.656c.011 1.693.014 3.388.036 5.081.004.392-.131.577-.532.532-.027-.002-.055 0-.082 0-1.458.062-2.187-.644-2.187-2.12 0-2.639.013-5.278-.011-7.916-.005-.548.16-.75.705-.692.356.038.721.006 1.083.006 1.714 0 1.674.016 2.303 1.598.536 1.348 1.179 2.656 1.827 4.096 1.017-1.811 1.744-3.564 2.469-5.317.105-.256.192-.37.436-.37.917-.004 1.834.007 2.75-.011.385-.007.463.194.463.518-.004 3.222-.002 6.446 0 9.667 0 .374-.138.585-.543.541-.026-.002-.055 0-.082 0-1.465.07-2.202-.627-2.209-2.091-.005-.973.002-1.945-.016-2.917-.004-.19.131-.492-.191-.543-.261-.04-.267.258-.33.41a118.659 118.659 0 0 0-1.25 3.179c-.311.827-1.651 1.355-2.427.928-.332-.183-.287-.575-.405-.868-.503-1.255-1.168-2.443-1.504-3.765.004-.13-.011-.291-.167-.282-.229.013-.169.191-.129.338l-.007-.002ZM114.55 22.926c.011-1.192.051-2.387.02-3.58-.015-.587.105-.825.766-.82 2.155.017 2.158-.012 2.158 2.169 0 2.583-.023 5.166.015 7.749.009.672-.196.845-.85.836-2.089-.026-2.082-.004-3.255-1.77-.901-1.358-1.94-2.61-3.143-4.048v4.063c0 1.16-.577 1.74-1.731 1.74-.138 0-.281-.018-.416.002-.639.098-.844-.127-.835-.803.04-3.055.029-6.11.007-9.164-.004-.559.129-.77.734-.772 2.076-.005 2.116-.054 3.362 1.813.819 1.226 1.858 2.274 2.672 3.495.093.14.225.14.367.098.029.232.2.407.276.105.087-.345.209-.788-.147-1.113ZM80.691 23.917c.029 2.928-1.71 4.674-3.942 5.273-3.07.823-5.77.04-7.28-3.11-.848-1.772-.543-3.93.8-5.478 1.856-2.143 4.17-2.299 6.72-1.693 2.047.485 3.054 1.946 3.684 3.77.13.372.018.824.018 1.24v-.002Zm-8.319-.018c-.198 1.426 1.415 2.957 2.537 2.899 1.359-.071 2.416-1.326 2.516-2.917.091-1.44-1.244-2.616-2.49-2.663-1.33-.049-2.776 1.42-2.565 2.683l.002-.002ZM129.449 24.126c.005-1.58.032-3.157 0-4.734-.013-.617.101-.94.81-.857.766.09 1.765-.311 2.254.145.534.5.158 1.52.178 2.31.033 1.245-.011 2.493.016 3.74.015.749.178 1.405.999 1.772 1.114.499 2.089.105 2.434-1.08.037-.13.113-.246.173-.368l.005-.038c.004-1.889.031-3.78.002-5.669-.009-.598.127-.888.781-.807.787.095 1.804-.34 2.318.184.476.488.129 1.484.142 2.256.025 1.389.085 2.784-.013 4.167-.111 1.551-.823 2.844-2.227 3.61-2.069 1.127-4.149 1.025-6.101-.274-1.492-.995-1.942-2.506-1.768-4.239a.118.118 0 0 0 0-.12l-.003.002ZM104.41 29.297c-2.331-.01-4.665-.045-6.997-.016-.667.009-.91-.136-.901-.859.04-2.999.036-6 .002-9-.007-.665.127-.912.855-.896 2.36.049 4.721.036 7.083.007.592-.007.826.109.81.772-.04 1.693-.004 1.695-1.688 1.695-1.084 0-2.17.042-3.249-.015-.716-.038-.59.407-.571.8.015.39-.223.92.567.886 1.219-.049 2.445.002 3.666-.022.45-.01.626.098.639.594.051 1.89.071 1.89-1.82 1.89-.805 0-1.615.052-2.416-.012-.812-.067-.614.46-.65.903-.042.514.02.814.683.787 1.415-.053 2.832-.026 4.25-.009.249.003.64-.177.685.317-.251.253-.149.576-.122.856.06.67-.038 1.197-.824 1.32l-.002.002ZM125.176 25.233c0 1.14-.018 2.278.009 3.417.011.459-.114.654-.605.628a17.669 17.669 0 0 0-2.001 0c-.52.03-.66-.165-.656-.67.022-2.223-.013-4.445.025-6.668.011-.658-.167-.905-.839-.836-.55.055-1.11-.01-1.667.017-.438.02-.558-.158-.58-.58-.1-1.994-.114-1.994 1.906-1.994 2.25 0 4.501.025 6.751-.015.64-.011.792.193.783.803-.02 1.78.004 1.78-1.796 1.78-.891 0-1.337.456-1.337 1.368v2.75h.007Z"/><path fill="#48193C" d="M104.41 29.296c.785-.122.883-.65.823-1.32-.025-.277-.129-.602.122-.856.336.648.229 1.355.098 1.991-.116.566-.641.392-1.043.185ZM60.52 28.12c.616.036 1.248-.18 1.848.12-.634.238-1.268.474-1.849-.12ZM114.552 22.926c.358.327.233.767.146 1.112-.075.3-.247.127-.275-.104.042-.336-.134-.699.129-1.008ZM85.167 23.582c-.134-.135-.16-.342.013-.382.287-.067.22.202.231.371-.082.005-.162.007-.244.011ZM144.324 23.655c-.041-.147-.101-.327.129-.338.155-.01.171.151.166.282l-.295.056ZM58.428 23.454c-.109-.042-.182-.111-.116-.231.016-.03.092-.022.138-.034l.056.294-.047.011-.031-.038v-.002ZM136.315 25.014l-.005.037-.131-.044c.045 0 .091.004.136.006ZM129.451 24.126a.11.11 0 0 1 0 .12l-.118-.084c.04-.011.078-.025.118-.036ZM86.608 35.25c-.639.438-.763 1.028-1.028 1.515-.367.676-.687 1.375-1.028 2.065-.122.249-.256.563-.543.556-.282-.007-.393-.33-.516-.574-.594-1.188-1.192-2.376-1.922-3.542 0 1.315.011 2.63-.009 3.944-.004.283.194.76-.378.73-.494-.024-.305-.454-.307-.714a224.972 224.972 0 0 1 0-4.748c.002-.26-.171-.645.334-.7.4-.045.667.057.854.453.514 1.093 1.063 2.17 1.6 3.25.084.172.149.41.351.432.294.034.29-.284.38-.458a80.765 80.765 0 0 0 1.614-3.228c.213-.463.527-.605.987-.55.543.065.345.494.35.781.018 1.638.013 3.277.004 4.915 0 .276.131.676-.358.69-.496.013-.376-.388-.378-.666-.01-1.33-.005-2.663-.005-4.153l-.002.002ZM72.35 35.464c0 1.304.004 2.608-.003 3.909 0 .29.089.674-.378.688-.503.015-.367-.394-.367-.668-.011-1.638-.014-3.275.002-4.913.002-.24-.167-.602.242-.69.372-.08.65.016.881.4.543.894.953 1.848 1.415 2.78.17.34.308.708.708 1.006.498-1.05 1.163-1.974 1.593-3.046.194-.48.316-1.164 1.103-1.155.328.005.519.067.517.454-.011 1.749-.007 3.498-.005 5.244 0 .276-.035.505-.396.48-.338-.024-.291-.277-.291-.489-.005-1.352 0-2.705 0-4.047-.459-.113-.479.225-.574.41-.48.925-.926 1.869-1.406 2.794-.14.271-.172.703-.626.66-.391-.035-.496-.398-.643-.682-.474-.93-.934-1.867-1.403-2.8-.07-.137-.156-.264-.234-.397l-.131.064-.005-.002ZM65.952 40.138a3.292 3.292 0 0 1-3.255-3.322c.011-1.973 1.35-3.099 3.751-3.028 1.616.05 3.017 1.326 2.946 3.204-.058 1.575-1.48 3.275-3.442 3.144v.002Zm2.59-3.224c.011-1.415-.99-2.43-2.405-2.463-1.393-.033-2.605.895-2.723 2.401-.092 1.168 1.332 2.572 2.525 2.596 1.39.027 2.592-1.141 2.605-2.532l-.002-.002ZM100.447 38.033c.463.423.745.964 1.101 1.453.134.183.332.394.105.565-.241.183-.536.111-.71-.173-.24-.396-.59-.71-.77-1.157-.209-.514-1.953-.91-2.34-.525-.299.296-.076.738-.136 1.11-.047.29.176.743-.372.759-.551.015-.391-.436-.393-.732-.014-1.636.01-3.273-.016-4.908-.009-.53.133-.775.7-.719 1.01.098 2.052-.198 3.031.265 1.331.627 1.626 2.38.567 3.426-.231.227-.498.416-.763.634l-.004.002Zm-2.75-2.071c0 1.642 0 1.655 1.66 1.47.344-.037.689-.18 1.012-.322.429-.19.694-.498.71-1.019.033-1.117-.434-1.624-1.573-1.629-1.206-.004-1.81.495-1.81 1.498v.002ZM90.086 36.822c0-.832.026-1.667-.01-2.497-.021-.523.179-.672.677-.656 1 .031 1.998 0 2.997.016.27.004.672-.14.645.382-.024.505-.42.343-.687.35-.694.02-1.388.035-2.08-.003-.521-.029-.735.103-.732.679.004 1.39-.025 1.39 1.406 1.39h1.332c.234 0 .459.016.448.343-.011.312-.23.336-.463.338-.665 0-1.333.03-1.998-.006-.523-.03-.728.113-.725.687.004 1.542-.025 1.542 1.513 1.542.582 0 1.165 0 1.748.004.203 0 .398.03.407.3.01.29-.158.388-.418.388-1.192 0-2.387-.009-3.58.004-.442.005-.48-.255-.478-.596.007-.888.002-1.775 0-2.663l-.002-.002ZM111.653 36.87c0-.861.008-1.722-.005-2.584-.007-.393.078-.625.547-.616 1.084.022 2.167.01 3.249.007.267 0 .5.009.48.39-.02.382-.276.353-.527.353-.805 0-1.611.02-2.416-.007-.516-.017-.748.123-.723.699.064 1.615-.221 1.335 1.361 1.366.472.009.944-.007 1.418.004.233.005.536-.075.547.32.009.379-.267.359-.518.359-.695.002-1.389.022-2.083-.007-.509-.02-.732.105-.727.688.011 1.537-.023 1.537 1.521 1.537.612 0 1.222-.004 1.834.002.218 0 .469-.024.48.307.009.294-.164.38-.423.38-1.194 0-2.387-.004-3.582.008-.404.004-.433-.243-.431-.548.004-.887 0-1.777 0-2.665l-.002.007ZM107.13 33.782c.602-.1 1.179.144 1.737.469.247.145.556.28.325.612-.185.264-.407.167-.681-.03-.819-.584-2.218-.495-3.021.125-.875.677-1.157 1.7-.774 2.802.507 1.457 2.242 2.08 3.635 1.283.296-.169.634-.467.852-.111.254.412-.187.616-.505.783-2.832 1.493-5.204-1.023-4.952-3.108.16-1.34 1.17-2.995 3.379-2.823l.005-.002ZM58.815 33.79c.79-.076 1.47.089 2.058.563.129.104.447.137.275.404-.146.227-.351.348-.67.158-.52-.309-1.076-.514-1.717-.465-1.099.085-1.87.612-2.263 1.625-.438 1.13 0 2.042.868 2.778.728.619 1.549.792 2.445.363.272-.129.534-.276.81-.396.196-.084.394-.049.52.131.161.23-.021.34-.18.463-1.179.926-3.123.979-4.069.107-1.504-1.389-1.79-3.062-.678-4.539.638-.847 1.528-1.335 2.607-1.19l-.006-.002Z"/></svg>